G04*
G04 #@! TF.GenerationSoftware,Altium Limited,Altium Designer,21.0.9 (235)*
G04*
G04 Layer_Physical_Order=2*
G04 Layer_Color=16711680*
%FSLAX24Y24*%
%MOIN*%
G70*
G04*
G04 #@! TF.SameCoordinates,2D4ACE21-508C-4F28-9509-530EA4604CDE*
G04*
G04*
G04 #@! TF.FilePolarity,Positive*
G04*
G01*
G75*
%ADD23C,0.0100*%
%ADD27R,0.0559X0.0425*%
%ADD35R,0.0551X0.0354*%
%ADD36R,0.0362X0.0559*%
%ADD43R,0.0579X0.0437*%
%ADD135C,0.0200*%
%ADD137C,0.0787*%
%ADD139C,0.1575*%
%ADD140C,0.0394*%
%ADD144C,0.0197*%
%ADD146C,0.1299*%
%ADD161C,0.0476*%
%ADD162R,0.0476X0.0476*%
%ADD164C,0.1575*%
%ADD165R,0.0650X0.0650*%
%ADD166C,0.0650*%
%ADD167C,0.0866*%
%ADD168C,0.0984*%
%ADD169C,0.0709*%
%ADD170C,0.0560*%
%ADD171C,0.0709*%
%ADD172R,0.0460X0.0460*%
%ADD173C,0.0460*%
%ADD174C,0.0741*%
%ADD175R,0.0741X0.0741*%
%ADD176R,0.0476X0.0476*%
%ADD177R,0.0397X0.0397*%
%ADD178P,0.0430X8X202.5*%
%ADD179C,0.1181*%
%ADD180C,0.1575*%
%ADD181C,0.0300*%
%ADD182C,0.0500*%
G04:AMPARAMS|DCode=183|XSize=62.2mil|YSize=23.6mil|CornerRadius=3mil|HoleSize=0mil|Usage=FLASHONLY|Rotation=0.000|XOffset=0mil|YOffset=0mil|HoleType=Round|Shape=RoundedRectangle|*
%AMROUNDEDRECTD183*
21,1,0.0622,0.0177,0,0,0.0*
21,1,0.0563,0.0236,0,0,0.0*
1,1,0.0059,0.0282,-0.0089*
1,1,0.0059,-0.0282,-0.0089*
1,1,0.0059,-0.0282,0.0089*
1,1,0.0059,0.0282,0.0089*
%
%ADD183ROUNDEDRECTD183*%
G36*
X37550Y92150D02*
X43700Y86000D01*
X43770D01*
Y85930D01*
X43770Y85930D01*
Y85500D01*
X43770D01*
Y41880D01*
X42970Y41080D01*
X42924Y41070D01*
X23000D01*
Y38100D01*
X23000Y38050D01*
X22200Y37250D01*
X8086D01*
X8040Y37260D01*
X7250Y38050D01*
Y43762D01*
X7297Y43779D01*
X7333Y43735D01*
X7468Y43624D01*
X7622Y43542D01*
X7790Y43491D01*
X7964Y43474D01*
X8138Y43491D01*
X8305Y43542D01*
X8459Y43624D01*
X8594Y43735D01*
X8705Y43870D01*
X8787Y44024D01*
X8838Y44192D01*
X8855Y44366D01*
X8838Y44540D01*
X8787Y44707D01*
X8705Y44861D01*
X8594Y44996D01*
X8459Y45107D01*
X8305Y45190D01*
X8138Y45240D01*
X7964Y45257D01*
X7790Y45240D01*
X7622Y45190D01*
X7468Y45107D01*
X7333Y44996D01*
X7297Y44952D01*
X7250Y44969D01*
Y45731D01*
X7297Y45748D01*
X7333Y45704D01*
X7468Y45593D01*
X7622Y45510D01*
X7790Y45460D01*
X7964Y45443D01*
X8138Y45460D01*
X8305Y45510D01*
X8459Y45593D01*
X8594Y45704D01*
X8705Y45839D01*
X8787Y45993D01*
X8838Y46160D01*
X8855Y46334D01*
X8838Y46508D01*
X8787Y46676D01*
X8705Y46830D01*
X8594Y46965D01*
X8459Y47076D01*
X8305Y47158D01*
X8138Y47209D01*
X7964Y47226D01*
X7790Y47209D01*
X7622Y47158D01*
X7468Y47076D01*
X7333Y46965D01*
X7297Y46921D01*
X7250Y46938D01*
Y48862D01*
X7297Y48879D01*
X7333Y48835D01*
X7468Y48724D01*
X7622Y48642D01*
X7790Y48591D01*
X7964Y48574D01*
X8138Y48591D01*
X8305Y48642D01*
X8459Y48724D01*
X8594Y48835D01*
X8705Y48970D01*
X8787Y49124D01*
X8838Y49292D01*
X8855Y49466D01*
X8838Y49640D01*
X8787Y49807D01*
X8705Y49961D01*
X8594Y50096D01*
X8459Y50207D01*
X8305Y50290D01*
X8138Y50340D01*
X7964Y50357D01*
X7790Y50340D01*
X7622Y50290D01*
X7468Y50207D01*
X7333Y50096D01*
X7297Y50052D01*
X7250Y50069D01*
Y50831D01*
X7297Y50848D01*
X7333Y50804D01*
X7468Y50693D01*
X7622Y50610D01*
X7790Y50560D01*
X7964Y50543D01*
X8138Y50560D01*
X8305Y50610D01*
X8459Y50693D01*
X8594Y50804D01*
X8705Y50939D01*
X8787Y51093D01*
X8838Y51260D01*
X8855Y51434D01*
X8838Y51608D01*
X8787Y51776D01*
X8705Y51930D01*
X8594Y52065D01*
X8459Y52176D01*
X8305Y52258D01*
X8138Y52309D01*
X7964Y52326D01*
X7790Y52309D01*
X7622Y52258D01*
X7468Y52176D01*
X7333Y52065D01*
X7297Y52021D01*
X7250Y52038D01*
Y84750D01*
X7250Y90280D01*
X7670Y90700D01*
X11130Y90700D01*
X11660Y90170D01*
X11660Y86000D01*
X11660Y81880D01*
X12460Y81080D01*
X23520Y81080D01*
X24230Y81790D01*
X24230Y86000D01*
D01*
X24230Y90700D01*
X24250D01*
Y91470D01*
X24930Y92150D01*
X37550Y92150D01*
D02*
G37*
%LPC*%
G36*
X32650Y88818D02*
X32511Y88799D01*
X32381Y88746D01*
X32270Y88660D01*
X32184Y88549D01*
X32131Y88419D01*
X32112Y88280D01*
X32131Y88141D01*
X32184Y88011D01*
X32270Y87900D01*
X32381Y87814D01*
X32511Y87761D01*
X32650Y87742D01*
X32789Y87761D01*
X32919Y87814D01*
X33030Y87900D01*
X33116Y88011D01*
X33169Y88141D01*
X33188Y88280D01*
X33169Y88419D01*
X33116Y88549D01*
X33030Y88660D01*
X32919Y88746D01*
X32789Y88799D01*
X32650Y88818D01*
D02*
G37*
G36*
X33670Y87343D02*
X33571Y87330D01*
X33478Y87292D01*
X33399Y87231D01*
X33338Y87152D01*
X33300Y87059D01*
X33287Y86960D01*
X33300Y86861D01*
X33338Y86768D01*
X33399Y86689D01*
X33478Y86628D01*
X33571Y86590D01*
X33670Y86577D01*
X33769Y86590D01*
X33862Y86628D01*
X33941Y86689D01*
X34002Y86768D01*
X34040Y86861D01*
X34053Y86960D01*
X34040Y87059D01*
X34002Y87152D01*
X33941Y87231D01*
X33862Y87292D01*
X33769Y87330D01*
X33670Y87343D01*
D02*
G37*
G36*
X32670D02*
X32571Y87330D01*
X32478Y87292D01*
X32399Y87231D01*
X32338Y87152D01*
X32300Y87059D01*
X32287Y86960D01*
X32300Y86861D01*
X32338Y86768D01*
X32399Y86689D01*
X32478Y86628D01*
X32571Y86590D01*
X32670Y86577D01*
X32769Y86590D01*
X32862Y86628D01*
X32941Y86689D01*
X33002Y86768D01*
X33040Y86861D01*
X33053Y86960D01*
X33040Y87059D01*
X33002Y87152D01*
X32941Y87231D01*
X32862Y87292D01*
X32769Y87330D01*
X32670Y87343D01*
D02*
G37*
G36*
X28000Y87112D02*
X27826Y87095D01*
X27659Y87044D01*
X27505Y86961D01*
X27369Y86851D01*
X27259Y86715D01*
X27176Y86561D01*
X27125Y86394D01*
X27108Y86220D01*
X27125Y86046D01*
X27139Y86000D01*
X27176Y85879D01*
X27259Y85725D01*
X27369Y85589D01*
X27505Y85479D01*
X27659Y85396D01*
X27826Y85345D01*
X28000Y85328D01*
X28174Y85345D01*
X28341Y85396D01*
X28495Y85479D01*
X28631Y85589D01*
X28741Y85725D01*
X28824Y85879D01*
X28861Y86000D01*
X28875Y86046D01*
X28892Y86220D01*
X28875Y86394D01*
X28824Y86561D01*
X28741Y86715D01*
X28631Y86851D01*
X28495Y86961D01*
X28341Y87044D01*
X28174Y87095D01*
X28000Y87112D01*
D02*
G37*
G36*
X35644Y83476D02*
X35505Y83457D01*
X35375Y83404D01*
X35264Y83318D01*
X35179Y83207D01*
X35125Y83077D01*
X35107Y82938D01*
X35125Y82799D01*
X35179Y82669D01*
X35264Y82558D01*
X35375Y82472D01*
X35505Y82419D01*
X35644Y82400D01*
X35783Y82419D01*
X35913Y82472D01*
X36024Y82558D01*
X36110Y82669D01*
X36164Y82799D01*
X36182Y82938D01*
X36164Y83077D01*
X36110Y83207D01*
X36024Y83318D01*
X35913Y83404D01*
X35783Y83457D01*
X35644Y83476D01*
D02*
G37*
G36*
X25310Y83045D02*
X25168Y83031D01*
X25031Y82990D01*
X24905Y82922D01*
X24794Y82832D01*
X24704Y82721D01*
X24636Y82595D01*
X24595Y82458D01*
X24581Y82316D01*
X24595Y82173D01*
X24636Y82037D01*
X24704Y81910D01*
X24794Y81800D01*
X24905Y81709D01*
X25031Y81642D01*
X25168Y81600D01*
X25310Y81586D01*
X25453Y81600D01*
X25589Y81642D01*
X25716Y81709D01*
X25826Y81800D01*
X25917Y81910D01*
X25984Y82037D01*
X26026Y82173D01*
X26040Y82316D01*
X26026Y82458D01*
X25984Y82595D01*
X25917Y82721D01*
X25826Y82832D01*
X25716Y82922D01*
X25589Y82990D01*
X25453Y83031D01*
X25310Y83045D01*
D02*
G37*
G36*
X33937Y79483D02*
X33838Y79470D01*
X33745Y79432D01*
X33666Y79371D01*
X33605Y79292D01*
X33567Y79199D01*
X33553Y79100D01*
X33567Y79001D01*
X33605Y78908D01*
X33666Y78829D01*
X33745Y78768D01*
X33838Y78730D01*
X33937Y78717D01*
X34036Y78730D01*
X34128Y78768D01*
X34208Y78829D01*
X34269Y78908D01*
X34307Y79001D01*
X34320Y79100D01*
X34307Y79199D01*
X34269Y79292D01*
X34208Y79371D01*
X34128Y79432D01*
X34036Y79470D01*
X33937Y79483D01*
D02*
G37*
G36*
X32937D02*
X32838Y79470D01*
X32745Y79432D01*
X32666Y79371D01*
X32605Y79292D01*
X32566Y79199D01*
X32553Y79100D01*
X32566Y79001D01*
X32605Y78908D01*
X32666Y78829D01*
X32745Y78768D01*
X32838Y78730D01*
X32937Y78717D01*
X33036Y78730D01*
X33128Y78768D01*
X33208Y78829D01*
X33269Y78908D01*
X33307Y79001D01*
X33320Y79100D01*
X33307Y79199D01*
X33269Y79292D01*
X33208Y79371D01*
X33128Y79432D01*
X33036Y79470D01*
X32937Y79483D01*
D02*
G37*
G36*
X31200Y79648D02*
X31061Y79629D01*
X30931Y79576D01*
X30820Y79490D01*
X30734Y79379D01*
X30681Y79249D01*
X30662Y79110D01*
X30681Y78971D01*
X30734Y78841D01*
X30820Y78730D01*
X30931Y78644D01*
X31061Y78591D01*
X31200Y78572D01*
X31339Y78591D01*
X31469Y78644D01*
X31580Y78730D01*
X31666Y78841D01*
X31719Y78971D01*
X31738Y79110D01*
X31719Y79249D01*
X31666Y79379D01*
X31580Y79490D01*
X31469Y79576D01*
X31339Y79629D01*
X31200Y79648D01*
D02*
G37*
G36*
X35420Y77865D02*
X35322Y77846D01*
X35240Y77790D01*
X35205Y77739D01*
X32278D01*
X32276Y77742D01*
X32193Y77797D01*
X32096Y77817D01*
X31998Y77797D01*
X31916Y77742D01*
X31860Y77659D01*
X31841Y77562D01*
X31860Y77464D01*
X31916Y77381D01*
X31998Y77326D01*
X32096Y77307D01*
X32193Y77326D01*
X32276Y77381D01*
X32310Y77433D01*
X35238D01*
X35240Y77430D01*
X35322Y77375D01*
X35420Y77355D01*
X35518Y77375D01*
X35600Y77430D01*
X35656Y77512D01*
X35675Y77610D01*
X35656Y77708D01*
X35600Y77790D01*
X35518Y77846D01*
X35420Y77865D01*
D02*
G37*
G36*
X25450Y78425D02*
X25334Y78414D01*
X25222Y78380D01*
X25119Y78325D01*
X25029Y78251D01*
X24955Y78161D01*
X24900Y78058D01*
X24866Y77946D01*
X24855Y77830D01*
X24866Y77714D01*
X24900Y77602D01*
X24955Y77499D01*
X25029Y77409D01*
X25119Y77335D01*
X25222Y77280D01*
X25334Y77246D01*
X25450Y77235D01*
X25566Y77246D01*
X25678Y77280D01*
X25781Y77335D01*
X25871Y77409D01*
X25945Y77499D01*
X26000Y77602D01*
X26034Y77714D01*
X26045Y77830D01*
X26034Y77946D01*
X26000Y78058D01*
X25945Y78161D01*
X25871Y78251D01*
X25781Y78325D01*
X25678Y78380D01*
X25566Y78414D01*
X25450Y78425D01*
D02*
G37*
G36*
X35430Y77195D02*
X35332Y77175D01*
X35250Y77120D01*
X35208Y77058D01*
X32289D01*
X32218Y77105D01*
X32120Y77125D01*
X32022Y77105D01*
X31940Y77050D01*
X31885Y76968D01*
X31865Y76870D01*
X31885Y76772D01*
X31940Y76690D01*
X32022Y76634D01*
X32120Y76615D01*
X32218Y76634D01*
X32300Y76690D01*
X32342Y76752D01*
X35261D01*
X35332Y76705D01*
X35430Y76685D01*
X35528Y76705D01*
X35610Y76760D01*
X35666Y76842D01*
X35685Y76940D01*
X35666Y77038D01*
X35610Y77120D01*
X35528Y77175D01*
X35430Y77195D01*
D02*
G37*
G36*
X35159Y76410D02*
X35067Y76398D01*
X34982Y76363D01*
X34909Y76307D01*
X34853Y76234D01*
X34843Y76210D01*
X34281D01*
X34222Y76199D01*
X34173Y76165D01*
X33365Y75358D01*
X33289Y75390D01*
X33171Y75405D01*
X33052Y75390D01*
X32942Y75344D01*
X32847Y75271D01*
X32774Y75176D01*
X32728Y75066D01*
X32712Y74947D01*
X32728Y74829D01*
X32774Y74718D01*
X32847Y74623D01*
X32942Y74550D01*
X33052Y74505D01*
X33171Y74489D01*
X33289Y74505D01*
X33315Y74515D01*
X33844Y73986D01*
X33910Y73942D01*
X33988Y73926D01*
X34285D01*
X34320Y73880D01*
X34393Y73824D01*
X34479Y73789D01*
X34570Y73777D01*
X34661Y73789D01*
X34747Y73824D01*
X34820Y73880D01*
X34876Y73953D01*
X34911Y74039D01*
X34923Y74130D01*
X34911Y74221D01*
X34876Y74307D01*
X34820Y74380D01*
X34747Y74436D01*
X34661Y74471D01*
X34570Y74483D01*
X34479Y74471D01*
X34393Y74436D01*
X34320Y74380D01*
X34285Y74334D01*
X34072D01*
X33703Y74703D01*
X33722Y74750D01*
X34270D01*
X34300Y74710D01*
X34373Y74654D01*
X34459Y74619D01*
X34550Y74607D01*
X34641Y74619D01*
X34727Y74654D01*
X34800Y74710D01*
X34856Y74783D01*
X34891Y74869D01*
X34903Y74960D01*
X34891Y75051D01*
X34856Y75137D01*
X34800Y75210D01*
X34727Y75266D01*
X34641Y75301D01*
X34550Y75313D01*
X34459Y75301D01*
X34373Y75266D01*
X34300Y75210D01*
X34260Y75158D01*
X33663D01*
X33643Y75204D01*
X34344Y75904D01*
X34843D01*
X34853Y75881D01*
X34909Y75808D01*
X34982Y75751D01*
X35067Y75716D01*
X35159Y75704D01*
X35250Y75716D01*
X35335Y75751D01*
X35408Y75808D01*
X35464Y75881D01*
X35500Y75966D01*
X35512Y76057D01*
X35500Y76149D01*
X35464Y76234D01*
X35408Y76307D01*
X35335Y76363D01*
X35250Y76398D01*
X35159Y76410D01*
D02*
G37*
G36*
X33171Y76413D02*
X33052Y76398D01*
X32942Y76352D01*
X32847Y76279D01*
X32774Y76184D01*
X32728Y76074D01*
X32712Y75955D01*
X32728Y75836D01*
X32774Y75726D01*
X32847Y75631D01*
X32942Y75558D01*
X33052Y75512D01*
X33171Y75497D01*
X33289Y75512D01*
X33400Y75558D01*
X33495Y75631D01*
X33568Y75726D01*
X33613Y75836D01*
X33629Y75955D01*
X33613Y76074D01*
X33568Y76184D01*
X33495Y76279D01*
X33400Y76352D01*
X33289Y76398D01*
X33171Y76413D01*
D02*
G37*
G36*
X29927Y76259D02*
X29788Y76241D01*
X29658Y76187D01*
X29547Y76102D01*
X29462Y75991D01*
X29408Y75861D01*
X29389Y75722D01*
X29408Y75583D01*
X29462Y75453D01*
X29547Y75342D01*
X29658Y75256D01*
X29788Y75202D01*
X29927Y75184D01*
X30066Y75202D01*
X30196Y75256D01*
X30307Y75342D01*
X30393Y75453D01*
X30447Y75583D01*
X30465Y75722D01*
X30447Y75861D01*
X30393Y75991D01*
X30307Y76102D01*
X30196Y76187D01*
X30066Y76241D01*
X29927Y76259D01*
D02*
G37*
G36*
X19369Y74231D02*
X19137D01*
X19087Y74221D01*
X19044Y74192D01*
X19015Y74149D01*
X19005Y74099D01*
Y74060D01*
X19369D01*
Y74231D01*
D02*
G37*
G36*
X19700D02*
X19469D01*
Y74010D01*
X19419D01*
Y73990D01*
X19020Y73990D01*
Y73960D01*
X19005D01*
Y73921D01*
X19015Y73871D01*
X19020Y73864D01*
Y73780D01*
X19030Y73770D01*
Y73671D01*
X19015Y73649D01*
X19005Y73599D01*
Y73421D01*
X19015Y73371D01*
X19030Y73349D01*
Y73171D01*
X19015Y73149D01*
X19005Y73099D01*
Y72921D01*
X19015Y72871D01*
X19030Y72849D01*
Y72671D01*
X19015Y72649D01*
X19005Y72599D01*
Y72421D01*
X19015Y72371D01*
X19044Y72328D01*
X19087Y72299D01*
X19137Y72289D01*
X19266D01*
Y71796D01*
X19262Y71796D01*
X19180Y71740D01*
X19124Y71658D01*
X19105Y71560D01*
X19124Y71462D01*
X19180Y71380D01*
X19262Y71325D01*
X19360Y71305D01*
X19458Y71325D01*
X19540Y71380D01*
X19596Y71462D01*
X19607Y71518D01*
X19662Y71541D01*
X19672Y71535D01*
X19770Y71515D01*
X19868Y71535D01*
X19950Y71590D01*
X20006Y71672D01*
X20025Y71770D01*
X20018Y71802D01*
X20088Y71872D01*
X20121Y71921D01*
X20133Y71980D01*
Y72910D01*
X20121Y72969D01*
X20088Y73018D01*
X20008Y73098D01*
X19959Y73131D01*
X19900Y73143D01*
X19890D01*
X19890Y73990D01*
X19832D01*
Y74099D01*
X19822Y74149D01*
X19794Y74192D01*
X19751Y74221D01*
X19700Y74231D01*
D02*
G37*
G36*
X27300Y74493D02*
X27201Y74480D01*
X27108Y74442D01*
X27029Y74381D01*
X26968Y74302D01*
X26930Y74209D01*
X26917Y74110D01*
X26930Y74011D01*
X26968Y73918D01*
X27029Y73839D01*
X27108Y73778D01*
X27201Y73740D01*
X27300Y73727D01*
X27399Y73740D01*
X27492Y73778D01*
X27571Y73839D01*
X27632Y73918D01*
X27670Y74011D01*
X27683Y74110D01*
X27670Y74209D01*
X27632Y74302D01*
X27571Y74381D01*
X27492Y74442D01*
X27399Y74480D01*
X27300Y74493D01*
D02*
G37*
G36*
X33171Y74398D02*
X33052Y74382D01*
X32942Y74336D01*
X32847Y74263D01*
X32774Y74169D01*
X32728Y74058D01*
X32712Y73939D01*
X32728Y73821D01*
X32774Y73710D01*
X32847Y73615D01*
X32942Y73543D01*
X33052Y73497D01*
X33171Y73481D01*
X33289Y73497D01*
X33400Y73543D01*
X33495Y73615D01*
X33568Y73710D01*
X33613Y73821D01*
X33629Y73939D01*
X33613Y74058D01*
X33568Y74169D01*
X33495Y74263D01*
X33400Y74336D01*
X33289Y74382D01*
X33171Y74398D01*
D02*
G37*
G36*
X24620Y74445D02*
X24522Y74426D01*
X24440Y74370D01*
X24422Y74343D01*
X24180D01*
X24121Y74331D01*
X24072Y74298D01*
X22937Y73163D01*
X21950D01*
X21950Y73980D01*
X21935D01*
Y74099D01*
X21925Y74149D01*
X21896Y74192D01*
X21853Y74221D01*
X21803Y74231D01*
X21240D01*
X21189Y74221D01*
X21146Y74192D01*
X21118Y74149D01*
X21108Y74099D01*
Y73980D01*
X21080D01*
Y73770D01*
X21090Y73760D01*
Y72510D01*
X21090Y72510D01*
X21108Y72467D01*
Y72421D01*
X21118Y72371D01*
X21146Y72328D01*
X21189Y72299D01*
X21240Y72289D01*
X21580D01*
X21591Y72287D01*
X21603Y72289D01*
X21803D01*
X21837Y72296D01*
X22020D01*
Y72030D01*
X22780D01*
Y72296D01*
X23112D01*
X23146Y72303D01*
X23179Y72307D01*
X23237Y72327D01*
X23242Y72330D01*
X23248Y72332D01*
X23276Y72350D01*
X23305Y72368D01*
X23309Y72372D01*
X23314Y72376D01*
X23814Y72876D01*
X24831D01*
X24850Y72850D01*
X24923Y72794D01*
X25009Y72759D01*
X25100Y72747D01*
X25191Y72759D01*
X25277Y72794D01*
X25350Y72850D01*
X25406Y72923D01*
X25441Y73009D01*
X25453Y73100D01*
X25441Y73191D01*
X25406Y73277D01*
X25350Y73350D01*
X25277Y73406D01*
X25191Y73441D01*
X25100Y73453D01*
X25009Y73441D01*
X24923Y73406D01*
X24850Y73350D01*
X24800Y73284D01*
X23730D01*
X23730Y73284D01*
X23730Y73334D01*
X23730Y73524D01*
X24243Y74037D01*
X24422D01*
X24440Y74010D01*
X24522Y73955D01*
X24620Y73935D01*
X24718Y73955D01*
X24800Y74010D01*
X24855Y74092D01*
X24875Y74190D01*
X24855Y74288D01*
X24800Y74370D01*
X24718Y74426D01*
X24620Y74445D01*
D02*
G37*
G36*
X42370Y73285D02*
X42272Y73266D01*
X42190Y73210D01*
X42172Y73183D01*
X40450D01*
X40391Y73171D01*
X40342Y73138D01*
X39138Y71934D01*
X39138Y71934D01*
X38131Y70928D01*
X38016Y70813D01*
X38004Y70815D01*
X37906Y70796D01*
X37824Y70741D01*
X37768Y70658D01*
X37749Y70560D01*
X37768Y70463D01*
X37824Y70380D01*
X37906Y70325D01*
X38004Y70305D01*
X38101Y70325D01*
X38184Y70380D01*
X38239Y70463D01*
X38259Y70560D01*
X38248Y70612D01*
X38348Y70711D01*
X39354Y71718D01*
X39354Y71718D01*
X40513Y72877D01*
X42172D01*
X42190Y72850D01*
X42272Y72794D01*
X42370Y72775D01*
X42468Y72794D01*
X42550Y72850D01*
X42606Y72932D01*
X42625Y73030D01*
X42606Y73128D01*
X42550Y73210D01*
X42468Y73266D01*
X42370Y73285D01*
D02*
G37*
G36*
X17309Y72953D02*
X16970D01*
Y72684D01*
X17309D01*
Y72953D01*
D02*
G37*
G36*
X16870D02*
X16531D01*
Y72684D01*
X16870D01*
Y72953D01*
D02*
G37*
G36*
X17309Y72584D02*
X16970D01*
Y72316D01*
X17309D01*
Y72584D01*
D02*
G37*
G36*
X16870D02*
X16531D01*
Y72316D01*
X16870D01*
Y72584D01*
D02*
G37*
G36*
X17309Y72244D02*
X16531D01*
Y71607D01*
X17309D01*
Y71663D01*
X17359Y71704D01*
X17411Y71694D01*
X17508Y71714D01*
X17591Y71769D01*
X17646Y71852D01*
X17666Y71949D01*
X17646Y72047D01*
X17591Y72129D01*
X17508Y72185D01*
X17411Y72204D01*
X17359Y72194D01*
X17309Y72235D01*
Y72244D01*
D02*
G37*
G36*
X22780Y71950D02*
X22450D01*
Y71688D01*
X22780D01*
Y71950D01*
D02*
G37*
G36*
X22350D02*
X22020D01*
Y71688D01*
X22350D01*
Y71950D01*
D02*
G37*
G36*
X40974Y72382D02*
X40855Y72366D01*
X40745Y72320D01*
X40650Y72248D01*
X40577Y72153D01*
X40531Y72042D01*
X40516Y71924D01*
X40531Y71805D01*
X40577Y71694D01*
X40650Y71600D01*
X40745Y71527D01*
X40855Y71481D01*
X40974Y71465D01*
X41093Y71481D01*
X41203Y71527D01*
X41298Y71600D01*
X41371Y71694D01*
X41417Y71805D01*
X41432Y71924D01*
X41417Y72042D01*
X41371Y72153D01*
X41298Y72248D01*
X41203Y72320D01*
X41093Y72366D01*
X40974Y72382D01*
D02*
G37*
G36*
X33171D02*
X33052Y72366D01*
X32942Y72320D01*
X32847Y72248D01*
X32774Y72153D01*
X32728Y72042D01*
X32712Y71924D01*
X32728Y71805D01*
X32774Y71694D01*
X32847Y71600D01*
X32942Y71527D01*
X33052Y71481D01*
X33171Y71465D01*
X33289Y71481D01*
X33400Y71527D01*
X33495Y71600D01*
X33568Y71694D01*
X33613Y71805D01*
X33629Y71924D01*
X33613Y72042D01*
X33568Y72153D01*
X33495Y72248D01*
X33400Y72320D01*
X33289Y72366D01*
X33171Y72382D01*
D02*
G37*
G36*
X22780Y71588D02*
X22450D01*
Y71325D01*
X22780D01*
Y71588D01*
D02*
G37*
G36*
X22350D02*
X22020D01*
Y71325D01*
X22350D01*
Y71588D01*
D02*
G37*
G36*
X40974Y71374D02*
X40855Y71358D01*
X40745Y71313D01*
X40650Y71240D01*
X40577Y71145D01*
X40531Y71034D01*
X40516Y70916D01*
X40531Y70797D01*
X40577Y70687D01*
X40650Y70592D01*
X40745Y70519D01*
X40855Y70473D01*
X40974Y70457D01*
X41093Y70473D01*
X41203Y70519D01*
X41298Y70592D01*
X41371Y70687D01*
X41417Y70797D01*
X41432Y70916D01*
X41417Y71034D01*
X41371Y71145D01*
X41298Y71240D01*
X41203Y71313D01*
X41093Y71358D01*
X40974Y71374D01*
D02*
G37*
G36*
X33171D02*
X33052Y71358D01*
X32942Y71313D01*
X32847Y71240D01*
X32774Y71145D01*
X32728Y71034D01*
X32712Y70916D01*
X32728Y70797D01*
X32774Y70687D01*
X32847Y70592D01*
X32942Y70519D01*
X33052Y70473D01*
X33171Y70457D01*
X33289Y70473D01*
X33400Y70519D01*
X33495Y70592D01*
X33568Y70687D01*
X33613Y70797D01*
X33629Y70916D01*
X33613Y71034D01*
X33568Y71145D01*
X33495Y71240D01*
X33400Y71313D01*
X33289Y71358D01*
X33171Y71374D01*
D02*
G37*
G36*
X24330Y72683D02*
X24239Y72671D01*
X24153Y72636D01*
X24080Y72580D01*
X24024Y72507D01*
X23989Y72421D01*
X23977Y72330D01*
X23989Y72239D01*
X24024Y72153D01*
X24080Y72080D01*
X24153Y72024D01*
X24177Y72015D01*
Y71095D01*
X24153Y71086D01*
X24080Y71030D01*
X24024Y70957D01*
X23989Y70871D01*
X23977Y70780D01*
X23989Y70689D01*
X24024Y70603D01*
X24080Y70530D01*
X24153Y70474D01*
X24239Y70439D01*
X24330Y70427D01*
X24421Y70439D01*
X24507Y70474D01*
X24580Y70530D01*
X24636Y70603D01*
X24671Y70689D01*
X24683Y70780D01*
X24671Y70871D01*
X24636Y70957D01*
X24580Y71030D01*
X24507Y71086D01*
X24483Y71095D01*
Y72015D01*
X24507Y72024D01*
X24580Y72080D01*
X24636Y72153D01*
X24671Y72239D01*
X24683Y72330D01*
X24671Y72421D01*
X24636Y72507D01*
X24580Y72580D01*
X24507Y72636D01*
X24421Y72671D01*
X24330Y72683D01*
D02*
G37*
G36*
X34050Y70805D02*
X33952Y70785D01*
X33870Y70730D01*
X33814Y70648D01*
X33795Y70550D01*
X33814Y70452D01*
X33870Y70370D01*
X33952Y70314D01*
X34050Y70295D01*
X34148Y70314D01*
X34230Y70370D01*
X34235Y70377D01*
X34454D01*
Y70237D01*
X35206D01*
Y70377D01*
X35382D01*
X35400Y70350D01*
X35482Y70294D01*
X35580Y70275D01*
X35678Y70294D01*
X35760Y70350D01*
X35815Y70432D01*
X35835Y70530D01*
X35815Y70628D01*
X35760Y70710D01*
X35678Y70766D01*
X35580Y70785D01*
X35482Y70766D01*
X35400Y70710D01*
X35382Y70683D01*
X35206D01*
Y70791D01*
X34454D01*
Y70683D01*
X34262D01*
X34230Y70730D01*
X34148Y70785D01*
X34050Y70805D01*
D02*
G37*
G36*
X35206Y70043D02*
X34880D01*
Y69816D01*
X35206D01*
Y70043D01*
D02*
G37*
G36*
X34780D02*
X34454D01*
Y69816D01*
X34780D01*
Y70043D01*
D02*
G37*
G36*
X35206Y69716D02*
X34880D01*
Y69489D01*
X35206D01*
Y69716D01*
D02*
G37*
G36*
X34780D02*
X34454D01*
Y69489D01*
X34780D01*
Y69716D01*
D02*
G37*
G36*
X33171Y70366D02*
X33052Y70351D01*
X32942Y70305D01*
X32847Y70232D01*
X32774Y70137D01*
X32728Y70027D01*
X32712Y69908D01*
X32728Y69789D01*
X32774Y69679D01*
X32847Y69584D01*
X32942Y69511D01*
X33052Y69465D01*
X33171Y69450D01*
X33289Y69465D01*
X33400Y69511D01*
X33495Y69584D01*
X33568Y69679D01*
X33613Y69789D01*
X33629Y69908D01*
X33613Y70027D01*
X33568Y70137D01*
X33495Y70232D01*
X33400Y70305D01*
X33289Y70351D01*
X33171Y70366D01*
D02*
G37*
G36*
X29425Y71899D02*
X29327Y71879D01*
X29244Y71824D01*
X29189Y71741D01*
X29170Y71644D01*
X29189Y71546D01*
X29244Y71464D01*
X29327Y71408D01*
X29425Y71389D01*
X29483Y71401D01*
X29847Y71037D01*
Y69726D01*
X29844Y69724D01*
X29789Y69641D01*
X29770Y69544D01*
X29789Y69446D01*
X29844Y69364D01*
X29927Y69308D01*
X30025Y69289D01*
X30122Y69308D01*
X30205Y69364D01*
X30260Y69446D01*
X30279Y69544D01*
X30260Y69641D01*
X30205Y69724D01*
X30153Y69759D01*
Y71100D01*
X30141Y71159D01*
X30108Y71208D01*
X29678Y71638D01*
X29679Y71644D01*
X29660Y71741D01*
X29605Y71824D01*
X29522Y71879D01*
X29425Y71899D01*
D02*
G37*
G36*
X28650Y71633D02*
X28552Y71614D01*
X28470Y71558D01*
X28414Y71476D01*
X28395Y71378D01*
X28414Y71280D01*
X28470Y71198D01*
X28552Y71143D01*
X28650Y71123D01*
X28709Y71135D01*
X29097Y70747D01*
Y69759D01*
X29044Y69724D01*
X28989Y69641D01*
X28970Y69544D01*
X28989Y69446D01*
X29044Y69364D01*
X29127Y69308D01*
X29225Y69289D01*
X29322Y69308D01*
X29405Y69364D01*
X29460Y69446D01*
X29479Y69544D01*
X29460Y69641D01*
X29405Y69724D01*
X29403Y69725D01*
Y70810D01*
X29391Y70869D01*
X29358Y70918D01*
X28904Y71372D01*
X28905Y71378D01*
X28885Y71476D01*
X28830Y71558D01*
X28748Y71614D01*
X28650Y71633D01*
D02*
G37*
G36*
X32075Y72199D02*
X31977Y72179D01*
X31894Y72124D01*
X31839Y72041D01*
X31820Y71944D01*
X31839Y71846D01*
X31894Y71764D01*
X31947Y71728D01*
Y69463D01*
X31902Y69454D01*
X31819Y69399D01*
X31764Y69316D01*
X31745Y69219D01*
X31764Y69121D01*
X31819Y69039D01*
X31902Y68983D01*
X32000Y68964D01*
X32097Y68983D01*
X32180Y69039D01*
X32235Y69121D01*
X32254Y69219D01*
X32246Y69263D01*
X32253Y69300D01*
Y71762D01*
X32255Y71764D01*
X32310Y71846D01*
X32329Y71944D01*
X32310Y72041D01*
X32255Y72124D01*
X32172Y72179D01*
X32075Y72199D01*
D02*
G37*
G36*
X35206Y68927D02*
X34880D01*
Y68700D01*
X35206D01*
Y68927D01*
D02*
G37*
G36*
X34780D02*
X34454D01*
Y68700D01*
X34780D01*
Y68927D01*
D02*
G37*
G36*
X40974Y69358D02*
X40855Y69343D01*
X40745Y69297D01*
X40650Y69224D01*
X40577Y69129D01*
X40531Y69019D01*
X40516Y68900D01*
X40531Y68781D01*
X40577Y68671D01*
X40650Y68576D01*
X40745Y68503D01*
X40855Y68457D01*
X40974Y68442D01*
X41093Y68457D01*
X41203Y68503D01*
X41298Y68576D01*
X41371Y68671D01*
X41417Y68781D01*
X41432Y68900D01*
X41417Y69019D01*
X41371Y69129D01*
X41298Y69224D01*
X41203Y69297D01*
X41093Y69343D01*
X40974Y69358D01*
D02*
G37*
G36*
X33171D02*
X33052Y69343D01*
X32942Y69297D01*
X32847Y69224D01*
X32774Y69129D01*
X32728Y69019D01*
X32712Y68900D01*
X32728Y68781D01*
X32774Y68671D01*
X32847Y68576D01*
X32942Y68503D01*
X33052Y68457D01*
X33171Y68442D01*
X33289Y68457D01*
X33400Y68503D01*
X33495Y68576D01*
X33568Y68671D01*
X33613Y68781D01*
X33629Y68900D01*
X33613Y69019D01*
X33568Y69129D01*
X33495Y69224D01*
X33400Y69297D01*
X33289Y69343D01*
X33171Y69358D01*
D02*
G37*
G36*
X35206Y68600D02*
X34880D01*
Y68373D01*
X35206D01*
Y68600D01*
D02*
G37*
G36*
X34780D02*
X34454D01*
Y68373D01*
X34780D01*
Y68600D01*
D02*
G37*
G36*
X35206Y68179D02*
X34454D01*
Y68031D01*
X34207D01*
X34189Y68057D01*
X34107Y68112D01*
X34009Y68132D01*
X33912Y68112D01*
X33829Y68057D01*
X33774Y67974D01*
X33754Y67877D01*
X33774Y67779D01*
X33829Y67696D01*
X33912Y67641D01*
X34009Y67622D01*
X34107Y67641D01*
X34189Y67696D01*
X34209Y67725D01*
X34454D01*
Y67625D01*
X35206D01*
Y67725D01*
X36073D01*
X36090Y67700D01*
X36172Y67645D01*
X36270Y67625D01*
X36368Y67645D01*
X36450Y67700D01*
X36505Y67782D01*
X36525Y67880D01*
X36505Y67978D01*
X36450Y68060D01*
X36368Y68116D01*
X36270Y68135D01*
X36172Y68116D01*
X36090Y68060D01*
X36070Y68031D01*
X35206D01*
Y68179D01*
D02*
G37*
G36*
X30670Y68483D02*
X30571Y68470D01*
X30478Y68432D01*
X30399Y68371D01*
X30338Y68292D01*
X30300Y68199D01*
X30287Y68100D01*
X30300Y68001D01*
X30338Y67908D01*
X30399Y67829D01*
X30478Y67768D01*
X30571Y67730D01*
X30670Y67717D01*
X30769Y67730D01*
X30862Y67768D01*
X30941Y67829D01*
X31002Y67908D01*
X31040Y68001D01*
X31053Y68100D01*
X31040Y68199D01*
X31002Y68292D01*
X30941Y68371D01*
X30862Y68432D01*
X30769Y68470D01*
X30670Y68483D01*
D02*
G37*
G36*
X29670D02*
X29571Y68470D01*
X29478Y68432D01*
X29399Y68371D01*
X29338Y68292D01*
X29300Y68199D01*
X29287Y68100D01*
X29300Y68001D01*
X29338Y67908D01*
X29399Y67829D01*
X29478Y67768D01*
X29571Y67730D01*
X29670Y67717D01*
X29769Y67730D01*
X29862Y67768D01*
X29941Y67829D01*
X30002Y67908D01*
X30040Y68001D01*
X30053Y68100D01*
X30040Y68199D01*
X30002Y68292D01*
X29941Y68371D01*
X29862Y68432D01*
X29769Y68470D01*
X29670Y68483D01*
D02*
G37*
G36*
X40974Y68350D02*
X40855Y68335D01*
X40745Y68289D01*
X40650Y68216D01*
X40577Y68121D01*
X40531Y68011D01*
X40516Y67892D01*
X40531Y67773D01*
X40577Y67663D01*
X40650Y67568D01*
X40745Y67495D01*
X40855Y67449D01*
X40974Y67434D01*
X41093Y67449D01*
X41203Y67495D01*
X41298Y67568D01*
X41371Y67663D01*
X41417Y67773D01*
X41432Y67892D01*
X41417Y68011D01*
X41371Y68121D01*
X41298Y68216D01*
X41203Y68289D01*
X41093Y68335D01*
X40974Y68350D01*
D02*
G37*
G36*
X33171D02*
X33052Y68335D01*
X32942Y68289D01*
X32847Y68216D01*
X32774Y68121D01*
X32728Y68011D01*
X32712Y67892D01*
X32728Y67773D01*
X32774Y67663D01*
X32847Y67568D01*
X32942Y67495D01*
X33052Y67449D01*
X33171Y67434D01*
X33289Y67449D01*
X33400Y67495D01*
X33495Y67568D01*
X33568Y67663D01*
X33613Y67773D01*
X33629Y67892D01*
X33613Y68011D01*
X33568Y68121D01*
X33495Y68216D01*
X33400Y68289D01*
X33289Y68335D01*
X33171Y68350D01*
D02*
G37*
G36*
X18370Y68485D02*
X18254Y68474D01*
X18142Y68440D01*
X18039Y68385D01*
X17949Y68311D01*
X17875Y68221D01*
X17820Y68118D01*
X17786Y68006D01*
X17775Y67890D01*
X17786Y67774D01*
X17820Y67662D01*
X17875Y67559D01*
X17949Y67469D01*
X18039Y67395D01*
X18142Y67340D01*
X18254Y67306D01*
X18370Y67295D01*
X18486Y67306D01*
X18598Y67340D01*
X18701Y67395D01*
X18791Y67469D01*
X18865Y67559D01*
X18920Y67662D01*
X18954Y67774D01*
X18965Y67890D01*
X18954Y68006D01*
X18920Y68118D01*
X18865Y68221D01*
X18791Y68311D01*
X18701Y68385D01*
X18598Y68440D01*
X18486Y68474D01*
X18370Y68485D01*
D02*
G37*
G36*
X20855Y67661D02*
X20195D01*
Y67001D01*
X20855D01*
Y67661D01*
D02*
G37*
G36*
X10405Y68140D02*
X10262Y68126D01*
X10126Y68084D01*
X9999Y68017D01*
X9889Y67926D01*
X9798Y67816D01*
X9731Y67689D01*
X9689Y67553D01*
X9675Y67410D01*
X9689Y67268D01*
X9731Y67131D01*
X9798Y67005D01*
X9889Y66894D01*
X9999Y66804D01*
X10126Y66736D01*
X10262Y66695D01*
X10405Y66681D01*
X10547Y66695D01*
X10684Y66736D01*
X10810Y66804D01*
X10921Y66894D01*
X11011Y67005D01*
X11079Y67131D01*
X11120Y67268D01*
X11134Y67410D01*
X11120Y67553D01*
X11079Y67689D01*
X11011Y67816D01*
X10921Y67926D01*
X10810Y68017D01*
X10684Y68084D01*
X10547Y68126D01*
X10405Y68140D01*
D02*
G37*
G36*
X40974Y70366D02*
X40855Y70351D01*
X40745Y70305D01*
X40650Y70232D01*
X40577Y70137D01*
X40531Y70027D01*
X40516Y69908D01*
X40531Y69789D01*
X40577Y69679D01*
X40650Y69584D01*
X40745Y69511D01*
X40855Y69465D01*
X40974Y69450D01*
X41093Y69465D01*
X41118Y69476D01*
X42196Y68397D01*
Y66642D01*
X42155Y66614D01*
X42146Y66616D01*
X42050Y66635D01*
X41973Y66620D01*
X41923Y66651D01*
Y66764D01*
X41960Y66789D01*
X42016Y66871D01*
X42035Y66969D01*
X42016Y67066D01*
X41960Y67149D01*
X41878Y67204D01*
X41780Y67224D01*
X41682Y67204D01*
X41600Y67149D01*
X41544Y67066D01*
X41525Y66969D01*
X41544Y66871D01*
X41600Y66789D01*
X41617Y66777D01*
Y63693D01*
X41185Y63261D01*
X41093Y63299D01*
X40974Y63315D01*
X40855Y63299D01*
X40745Y63254D01*
X40650Y63181D01*
X40577Y63086D01*
X40531Y62975D01*
X40516Y62857D01*
X40531Y62738D01*
X40577Y62628D01*
X40650Y62533D01*
X40745Y62460D01*
X40855Y62414D01*
X40974Y62398D01*
X41093Y62414D01*
X41203Y62460D01*
X41298Y62533D01*
X41371Y62628D01*
X41417Y62738D01*
X41432Y62857D01*
X41417Y62975D01*
X41392Y63035D01*
X41831Y63475D01*
X41877Y63455D01*
Y62968D01*
X41169Y62260D01*
X41093Y62291D01*
X40974Y62307D01*
X40855Y62291D01*
X40745Y62246D01*
X40650Y62173D01*
X40577Y62078D01*
X40531Y61967D01*
X40516Y61849D01*
X40531Y61730D01*
X40577Y61620D01*
X40650Y61525D01*
X40745Y61452D01*
X40855Y61406D01*
X40974Y61391D01*
X41093Y61406D01*
X41203Y61452D01*
X41298Y61525D01*
X41371Y61620D01*
X41417Y61730D01*
X41432Y61849D01*
X41417Y61967D01*
X41385Y62044D01*
X42138Y62797D01*
X42146Y62809D01*
X42196Y62793D01*
Y59384D01*
X41716Y58904D01*
X41385D01*
X41350Y58950D01*
X41277Y59006D01*
X41191Y59041D01*
X41100Y59053D01*
X41009Y59041D01*
X40923Y59006D01*
X40850Y58950D01*
X40794Y58877D01*
X40759Y58791D01*
X40747Y58700D01*
X40759Y58609D01*
X40794Y58523D01*
X40850Y58450D01*
X40923Y58394D01*
X41009Y58359D01*
X41100Y58347D01*
X41191Y58359D01*
X41277Y58394D01*
X41350Y58450D01*
X41385Y58496D01*
X41800D01*
X41878Y58512D01*
X41944Y58556D01*
X42544Y59156D01*
X42588Y59222D01*
X42604Y59300D01*
Y68482D01*
X42588Y68560D01*
X42544Y68626D01*
X41406Y69764D01*
X41417Y69789D01*
X41432Y69908D01*
X41417Y70027D01*
X41371Y70137D01*
X41298Y70232D01*
X41203Y70305D01*
X41093Y70351D01*
X40974Y70366D01*
D02*
G37*
G36*
X34120Y67075D02*
X34022Y67056D01*
X33940Y67000D01*
X33884Y66918D01*
X33865Y66820D01*
X33884Y66722D01*
X33940Y66640D01*
X34022Y66585D01*
X34120Y66565D01*
X34218Y66585D01*
X34300Y66640D01*
X34315Y66662D01*
X34454D01*
Y66493D01*
X35206D01*
Y66662D01*
X35448D01*
X35470Y66630D01*
X35552Y66575D01*
X35650Y66555D01*
X35748Y66575D01*
X35830Y66630D01*
X35886Y66712D01*
X35905Y66810D01*
X35886Y66908D01*
X35830Y66990D01*
X35748Y67045D01*
X35650Y67065D01*
X35552Y67045D01*
X35470Y66990D01*
X35455Y66968D01*
X35206D01*
Y67047D01*
X34454D01*
Y66968D01*
X34322D01*
X34300Y67000D01*
X34218Y67056D01*
X34120Y67075D01*
D02*
G37*
G36*
X40974Y67342D02*
X40855Y67327D01*
X40745Y67281D01*
X40650Y67208D01*
X40577Y67113D01*
X40531Y67003D01*
X40516Y66884D01*
X40531Y66766D01*
X40577Y66655D01*
X40650Y66560D01*
X40745Y66487D01*
X40855Y66442D01*
X40974Y66426D01*
X41093Y66442D01*
X41203Y66487D01*
X41298Y66560D01*
X41371Y66655D01*
X41417Y66766D01*
X41432Y66884D01*
X41417Y67003D01*
X41371Y67113D01*
X41298Y67208D01*
X41203Y67281D01*
X41093Y67327D01*
X40974Y67342D01*
D02*
G37*
G36*
X33171D02*
X33052Y67327D01*
X32942Y67281D01*
X32847Y67208D01*
X32774Y67113D01*
X32728Y67003D01*
X32712Y66884D01*
X32728Y66766D01*
X32774Y66655D01*
X32847Y66560D01*
X32942Y66487D01*
X33052Y66442D01*
X33171Y66426D01*
X33289Y66442D01*
X33400Y66487D01*
X33495Y66560D01*
X33568Y66655D01*
X33613Y66766D01*
X33629Y66884D01*
X33613Y67003D01*
X33568Y67113D01*
X33495Y67208D01*
X33400Y67281D01*
X33289Y67327D01*
X33171Y67342D01*
D02*
G37*
G36*
X30670Y67173D02*
X30571Y67160D01*
X30478Y67122D01*
X30399Y67061D01*
X30338Y66982D01*
X30300Y66889D01*
X30287Y66790D01*
X30300Y66691D01*
X30338Y66598D01*
X30399Y66519D01*
X30478Y66458D01*
X30571Y66420D01*
X30670Y66407D01*
X30769Y66420D01*
X30862Y66458D01*
X30941Y66519D01*
X31002Y66598D01*
X31040Y66691D01*
X31053Y66790D01*
X31040Y66889D01*
X31002Y66982D01*
X30941Y67061D01*
X30862Y67122D01*
X30769Y67160D01*
X30670Y67173D01*
D02*
G37*
G36*
X29670D02*
X29571Y67160D01*
X29478Y67122D01*
X29399Y67061D01*
X29338Y66982D01*
X29300Y66889D01*
X29287Y66790D01*
X29300Y66691D01*
X29338Y66598D01*
X29399Y66519D01*
X29478Y66458D01*
X29571Y66420D01*
X29670Y66407D01*
X29769Y66420D01*
X29862Y66458D01*
X29941Y66519D01*
X30002Y66598D01*
X30040Y66691D01*
X30053Y66790D01*
X30040Y66889D01*
X30002Y66982D01*
X29941Y67061D01*
X29862Y67122D01*
X29769Y67160D01*
X29670Y67173D01*
D02*
G37*
G36*
X19190Y67113D02*
X19091Y67100D01*
X18998Y67062D01*
X18919Y67001D01*
X18858Y66922D01*
X18820Y66829D01*
X18807Y66730D01*
X18820Y66631D01*
X18858Y66538D01*
X18919Y66459D01*
X18998Y66398D01*
X19091Y66360D01*
X19190Y66347D01*
X19289Y66360D01*
X19382Y66398D01*
X19461Y66459D01*
X19522Y66538D01*
X19560Y66631D01*
X19573Y66730D01*
X19560Y66829D01*
X19522Y66922D01*
X19461Y67001D01*
X19382Y67062D01*
X19289Y67100D01*
X19190Y67113D01*
D02*
G37*
G36*
X35206Y66299D02*
X34880D01*
Y66072D01*
X35206D01*
Y66299D01*
D02*
G37*
G36*
X34780D02*
X34454D01*
Y66072D01*
X34780D01*
Y66299D01*
D02*
G37*
G36*
X21525Y66664D02*
X21439Y66652D01*
X21359Y66619D01*
X21290Y66566D01*
X21237Y66497D01*
X21204Y66417D01*
X21192Y66331D01*
X21204Y66245D01*
X21237Y66165D01*
X21290Y66096D01*
X21359Y66043D01*
X21439Y66010D01*
X21525Y65998D01*
X21611Y66010D01*
X21691Y66043D01*
X21760Y66096D01*
X21813Y66165D01*
X21846Y66245D01*
X21858Y66331D01*
X21846Y66417D01*
X21813Y66497D01*
X21760Y66566D01*
X21691Y66619D01*
X21611Y66652D01*
X21525Y66664D01*
D02*
G37*
G36*
X35206Y65972D02*
X34880D01*
Y65745D01*
X35206D01*
Y65972D01*
D02*
G37*
G36*
X34780D02*
X34454D01*
Y65745D01*
X34780D01*
Y65972D01*
D02*
G37*
G36*
X40974Y66299D02*
X40855Y66284D01*
X40745Y66238D01*
X40650Y66165D01*
X40577Y66070D01*
X40531Y65960D01*
X40516Y65841D01*
X40531Y65722D01*
X40577Y65612D01*
X40650Y65517D01*
X40745Y65444D01*
X40855Y65398D01*
X40974Y65383D01*
X41093Y65398D01*
X41203Y65444D01*
X41298Y65517D01*
X41371Y65612D01*
X41417Y65722D01*
X41432Y65841D01*
X41417Y65960D01*
X41371Y66070D01*
X41298Y66165D01*
X41203Y66238D01*
X41093Y66284D01*
X40974Y66299D01*
D02*
G37*
G36*
X33171D02*
X33052Y66284D01*
X32942Y66238D01*
X32847Y66165D01*
X32774Y66070D01*
X32728Y65960D01*
X32712Y65841D01*
X32728Y65722D01*
X32774Y65612D01*
X32847Y65517D01*
X32942Y65444D01*
X33052Y65398D01*
X33171Y65383D01*
X33289Y65398D01*
X33400Y65444D01*
X33495Y65517D01*
X33568Y65612D01*
X33613Y65722D01*
X33629Y65841D01*
X33613Y65960D01*
X33568Y66070D01*
X33495Y66165D01*
X33400Y66238D01*
X33289Y66284D01*
X33171Y66299D01*
D02*
G37*
G36*
X19190Y66113D02*
X19091Y66100D01*
X18998Y66062D01*
X18919Y66001D01*
X18858Y65922D01*
X18820Y65829D01*
X18807Y65730D01*
X18820Y65631D01*
X18858Y65538D01*
X18919Y65459D01*
X18998Y65398D01*
X19091Y65360D01*
X19190Y65347D01*
X19289Y65360D01*
X19382Y65398D01*
X19461Y65459D01*
X19522Y65538D01*
X19560Y65631D01*
X19573Y65730D01*
X19560Y65829D01*
X19522Y65922D01*
X19461Y66001D01*
X19382Y66062D01*
X19289Y66100D01*
X19190Y66113D01*
D02*
G37*
G36*
X30670Y65863D02*
X30571Y65850D01*
X30478Y65812D01*
X30399Y65751D01*
X30338Y65672D01*
X30300Y65579D01*
X30287Y65480D01*
X30300Y65381D01*
X30338Y65288D01*
X30399Y65209D01*
X30478Y65148D01*
X30571Y65110D01*
X30670Y65097D01*
X30769Y65110D01*
X30862Y65148D01*
X30941Y65209D01*
X31002Y65288D01*
X31040Y65381D01*
X31053Y65480D01*
X31040Y65579D01*
X31002Y65672D01*
X30941Y65751D01*
X30862Y65812D01*
X30769Y65850D01*
X30670Y65863D01*
D02*
G37*
G36*
X29670D02*
X29571Y65850D01*
X29478Y65812D01*
X29399Y65751D01*
X29338Y65672D01*
X29300Y65579D01*
X29287Y65480D01*
X29300Y65381D01*
X29338Y65288D01*
X29399Y65209D01*
X29478Y65148D01*
X29571Y65110D01*
X29670Y65097D01*
X29769Y65110D01*
X29862Y65148D01*
X29941Y65209D01*
X30002Y65288D01*
X30040Y65381D01*
X30053Y65480D01*
X30040Y65579D01*
X30002Y65672D01*
X29941Y65751D01*
X29862Y65812D01*
X29769Y65850D01*
X29670Y65863D01*
D02*
G37*
G36*
X20525Y65664D02*
X20439Y65652D01*
X20359Y65619D01*
X20290Y65566D01*
X20237Y65497D01*
X20204Y65417D01*
X20192Y65331D01*
X20204Y65245D01*
X20237Y65165D01*
X20290Y65096D01*
X20359Y65043D01*
X20439Y65010D01*
X20525Y64998D01*
X20611Y65010D01*
X20691Y65043D01*
X20760Y65096D01*
X20813Y65165D01*
X20846Y65245D01*
X20858Y65331D01*
X20846Y65417D01*
X20813Y65497D01*
X20760Y65566D01*
X20691Y65619D01*
X20611Y65652D01*
X20525Y65664D01*
D02*
G37*
G36*
X40974Y65331D02*
X40855Y65315D01*
X40745Y65269D01*
X40650Y65196D01*
X40577Y65102D01*
X40531Y64991D01*
X40516Y64872D01*
X40531Y64754D01*
X40577Y64643D01*
X40650Y64548D01*
X40745Y64476D01*
X40855Y64430D01*
X40974Y64414D01*
X41093Y64430D01*
X41203Y64476D01*
X41298Y64548D01*
X41371Y64643D01*
X41417Y64754D01*
X41432Y64872D01*
X41417Y64991D01*
X41371Y65102D01*
X41298Y65196D01*
X41203Y65269D01*
X41093Y65315D01*
X40974Y65331D01*
D02*
G37*
G36*
X33171D02*
X33052Y65315D01*
X32942Y65269D01*
X32847Y65196D01*
X32774Y65102D01*
X32728Y64991D01*
X32712Y64872D01*
X32728Y64754D01*
X32774Y64643D01*
X32847Y64548D01*
X32942Y64476D01*
X33052Y64430D01*
X33171Y64414D01*
X33289Y64430D01*
X33400Y64476D01*
X33495Y64548D01*
X33568Y64643D01*
X33613Y64754D01*
X33629Y64872D01*
X33613Y64991D01*
X33568Y65102D01*
X33495Y65196D01*
X33400Y65269D01*
X33289Y65315D01*
X33171Y65331D01*
D02*
G37*
G36*
X28730Y68895D02*
X28632Y68875D01*
X28550Y68820D01*
X28495Y68738D01*
X28475Y68640D01*
X28495Y68542D01*
X28550Y68460D01*
X28587Y68435D01*
Y64793D01*
X28569Y64781D01*
X28514Y64698D01*
X28494Y64601D01*
X28514Y64503D01*
X28569Y64421D01*
X28652Y64365D01*
X28749Y64346D01*
X28847Y64365D01*
X28929Y64421D01*
X28985Y64503D01*
X29004Y64601D01*
X28985Y64698D01*
X28929Y64781D01*
X28893Y64806D01*
Y68448D01*
X28910Y68460D01*
X28965Y68542D01*
X28985Y68640D01*
X28965Y68738D01*
X28910Y68820D01*
X28828Y68875D01*
X28730Y68895D01*
D02*
G37*
G36*
X30660Y64553D02*
X30561Y64540D01*
X30468Y64502D01*
X30389Y64441D01*
X30328Y64362D01*
X30290Y64269D01*
X30277Y64170D01*
X30290Y64071D01*
X30328Y63978D01*
X30389Y63899D01*
X30468Y63838D01*
X30561Y63800D01*
X30660Y63787D01*
X30759Y63800D01*
X30852Y63838D01*
X30931Y63899D01*
X30992Y63978D01*
X31030Y64071D01*
X31043Y64170D01*
X31030Y64269D01*
X30992Y64362D01*
X30931Y64441D01*
X30852Y64502D01*
X30759Y64540D01*
X30660Y64553D01*
D02*
G37*
G36*
X29660D02*
X29561Y64540D01*
X29468Y64502D01*
X29389Y64441D01*
X29328Y64362D01*
X29290Y64269D01*
X29277Y64170D01*
X29290Y64071D01*
X29328Y63978D01*
X29389Y63899D01*
X29468Y63838D01*
X29561Y63800D01*
X29660Y63787D01*
X29759Y63800D01*
X29852Y63838D01*
X29931Y63899D01*
X29992Y63978D01*
X30030Y64071D01*
X30043Y64170D01*
X30030Y64269D01*
X29992Y64362D01*
X29931Y64441D01*
X29852Y64502D01*
X29759Y64540D01*
X29660Y64553D01*
D02*
G37*
G36*
X16460Y64443D02*
X16361Y64430D01*
X16268Y64392D01*
X16189Y64331D01*
X16128Y64252D01*
X16090Y64159D01*
X16077Y64060D01*
X16090Y63961D01*
X16128Y63868D01*
X16189Y63789D01*
X16268Y63728D01*
X16361Y63690D01*
X16460Y63677D01*
X16559Y63690D01*
X16652Y63728D01*
X16731Y63789D01*
X16792Y63868D01*
X16830Y63961D01*
X16843Y64060D01*
X16830Y64159D01*
X16792Y64252D01*
X16731Y64331D01*
X16652Y64392D01*
X16559Y64430D01*
X16460Y64443D01*
D02*
G37*
G36*
X40974Y64323D02*
X40855Y64307D01*
X40745Y64261D01*
X40650Y64189D01*
X40577Y64094D01*
X40531Y63983D01*
X40516Y63864D01*
X40531Y63746D01*
X40577Y63635D01*
X40650Y63540D01*
X40745Y63468D01*
X40855Y63422D01*
X40974Y63406D01*
X41093Y63422D01*
X41203Y63468D01*
X41298Y63540D01*
X41371Y63635D01*
X41417Y63746D01*
X41432Y63864D01*
X41417Y63983D01*
X41371Y64094D01*
X41298Y64189D01*
X41203Y64261D01*
X41093Y64307D01*
X40974Y64323D01*
D02*
G37*
G36*
X33171D02*
X33052Y64307D01*
X32942Y64261D01*
X32847Y64189D01*
X32774Y64094D01*
X32728Y63983D01*
X32712Y63864D01*
X32728Y63746D01*
X32774Y63635D01*
X32847Y63540D01*
X32942Y63468D01*
X33052Y63422D01*
X33171Y63406D01*
X33289Y63422D01*
X33400Y63468D01*
X33495Y63540D01*
X33568Y63635D01*
X33613Y63746D01*
X33629Y63864D01*
X33613Y63983D01*
X33568Y64094D01*
X33495Y64189D01*
X33400Y64261D01*
X33289Y64307D01*
X33171Y64323D01*
D02*
G37*
G36*
X8340Y64158D02*
X8229Y64144D01*
X8126Y64101D01*
X8037Y64033D01*
X7969Y63944D01*
X7926Y63841D01*
X7912Y63730D01*
X7926Y63619D01*
X7969Y63516D01*
X8037Y63427D01*
X8126Y63359D01*
X8229Y63316D01*
X8340Y63302D01*
X8451Y63316D01*
X8554Y63359D01*
X8643Y63427D01*
X8711Y63516D01*
X8754Y63619D01*
X8768Y63730D01*
X8754Y63841D01*
X8711Y63944D01*
X8643Y64033D01*
X8554Y64101D01*
X8451Y64144D01*
X8340Y64158D01*
D02*
G37*
G36*
X22650Y63853D02*
X22559Y63841D01*
X22473Y63806D01*
X22400Y63750D01*
X22344Y63677D01*
X22309Y63591D01*
X22297Y63500D01*
X22309Y63409D01*
X22344Y63323D01*
X22400Y63250D01*
X22473Y63194D01*
X22559Y63159D01*
X22650Y63147D01*
X22741Y63159D01*
X22827Y63194D01*
X22900Y63250D01*
X22935Y63296D01*
X23196D01*
X23211Y63246D01*
X23150Y63200D01*
X23094Y63127D01*
X23059Y63041D01*
X23047Y62950D01*
X23059Y62859D01*
X23094Y62773D01*
X23148Y62704D01*
X23143Y62679D01*
X23135Y62654D01*
X22935D01*
X22900Y62700D01*
X22827Y62756D01*
X22741Y62791D01*
X22650Y62803D01*
X22559Y62791D01*
X22473Y62756D01*
X22400Y62700D01*
X22344Y62627D01*
X22309Y62541D01*
X22297Y62450D01*
X22309Y62359D01*
X22344Y62273D01*
X22400Y62200D01*
X22473Y62144D01*
X22559Y62109D01*
X22650Y62097D01*
X22741Y62109D01*
X22827Y62144D01*
X22900Y62200D01*
X22935Y62246D01*
X23251D01*
X23261Y62196D01*
X23223Y62181D01*
X23150Y62125D01*
X23094Y62052D01*
X23059Y61966D01*
X23047Y61875D01*
X23059Y61784D01*
X23094Y61698D01*
X23150Y61625D01*
X23223Y61569D01*
X23309Y61534D01*
X23400Y61522D01*
X23491Y61534D01*
X23577Y61569D01*
X23650Y61625D01*
X23704Y61696D01*
X24216D01*
X24955Y60957D01*
X24947Y60900D01*
X24959Y60809D01*
X24994Y60723D01*
X25050Y60650D01*
X25123Y60594D01*
X25209Y60559D01*
X25300Y60547D01*
X25391Y60559D01*
X25477Y60594D01*
X25550Y60650D01*
X25606Y60723D01*
X25641Y60809D01*
X25653Y60900D01*
X25641Y60991D01*
X25606Y61077D01*
X25550Y61150D01*
X25477Y61206D01*
X25391Y61241D01*
X25300Y61253D01*
X25243Y61245D01*
X25166Y61323D01*
X25194Y61365D01*
X25209Y61359D01*
X25300Y61347D01*
X25391Y61359D01*
X25477Y61394D01*
X25550Y61450D01*
X25606Y61523D01*
X25641Y61609D01*
X25653Y61700D01*
X25641Y61791D01*
X25606Y61877D01*
X25550Y61950D01*
X25477Y62006D01*
X25391Y62041D01*
X25300Y62053D01*
X25243Y62045D01*
X25166Y62123D01*
X25194Y62165D01*
X25209Y62159D01*
X25300Y62147D01*
X25391Y62159D01*
X25477Y62194D01*
X25550Y62250D01*
X25606Y62323D01*
X25641Y62409D01*
X25653Y62500D01*
X25641Y62591D01*
X25606Y62677D01*
X25550Y62750D01*
X25477Y62806D01*
X25391Y62841D01*
X25300Y62853D01*
X25243Y62846D01*
X25166Y62923D01*
X25194Y62965D01*
X25209Y62959D01*
X25300Y62947D01*
X25391Y62959D01*
X25477Y62994D01*
X25550Y63050D01*
X25606Y63123D01*
X25641Y63209D01*
X25653Y63300D01*
X25641Y63391D01*
X25606Y63477D01*
X25550Y63550D01*
X25477Y63606D01*
X25391Y63641D01*
X25300Y63653D01*
X25242Y63645D01*
X25178Y63688D01*
X25100Y63704D01*
X22935D01*
X22900Y63750D01*
X22827Y63806D01*
X22741Y63841D01*
X22650Y63853D01*
D02*
G37*
G36*
X16460Y63443D02*
X16361Y63430D01*
X16268Y63392D01*
X16189Y63331D01*
X16128Y63252D01*
X16090Y63159D01*
X16077Y63060D01*
X16090Y62961D01*
X16128Y62868D01*
X16189Y62789D01*
X16268Y62728D01*
X16361Y62690D01*
X16460Y62677D01*
X16559Y62690D01*
X16652Y62728D01*
X16731Y62789D01*
X16792Y62868D01*
X16830Y62961D01*
X16843Y63060D01*
X16830Y63159D01*
X16792Y63252D01*
X16731Y63331D01*
X16652Y63392D01*
X16559Y63430D01*
X16460Y63443D01*
D02*
G37*
G36*
X30660Y63243D02*
X30561Y63230D01*
X30468Y63192D01*
X30389Y63131D01*
X30328Y63052D01*
X30290Y62959D01*
X30277Y62860D01*
X30290Y62761D01*
X30328Y62668D01*
X30389Y62589D01*
X30468Y62528D01*
X30561Y62490D01*
X30660Y62477D01*
X30759Y62490D01*
X30852Y62528D01*
X30931Y62589D01*
X30992Y62668D01*
X31030Y62761D01*
X31043Y62860D01*
X31030Y62959D01*
X30992Y63052D01*
X30931Y63131D01*
X30852Y63192D01*
X30759Y63230D01*
X30660Y63243D01*
D02*
G37*
G36*
X29660D02*
X29561Y63230D01*
X29468Y63192D01*
X29389Y63131D01*
X29328Y63052D01*
X29290Y62959D01*
X29277Y62860D01*
X29290Y62761D01*
X29328Y62668D01*
X29389Y62589D01*
X29468Y62528D01*
X29561Y62490D01*
X29660Y62477D01*
X29759Y62490D01*
X29852Y62528D01*
X29931Y62589D01*
X29992Y62668D01*
X30030Y62761D01*
X30043Y62860D01*
X30030Y62959D01*
X29992Y63052D01*
X29931Y63131D01*
X29852Y63192D01*
X29759Y63230D01*
X29660Y63243D01*
D02*
G37*
G36*
X33171Y63315D02*
X33052Y63299D01*
X32942Y63254D01*
X32847Y63181D01*
X32774Y63086D01*
X32728Y62975D01*
X32712Y62857D01*
X32728Y62738D01*
X32774Y62628D01*
X32847Y62533D01*
X32942Y62460D01*
X33052Y62414D01*
X33171Y62398D01*
X33289Y62414D01*
X33400Y62460D01*
X33495Y62533D01*
X33568Y62628D01*
X33613Y62738D01*
X33629Y62857D01*
X33613Y62975D01*
X33568Y63086D01*
X33495Y63181D01*
X33400Y63254D01*
X33289Y63299D01*
X33171Y63315D01*
D02*
G37*
G36*
X35660Y62385D02*
X35562Y62365D01*
X35480Y62310D01*
X35462Y62283D01*
X34593D01*
X34575Y62310D01*
X34492Y62365D01*
X34395Y62385D01*
X34297Y62365D01*
X34214Y62310D01*
X34159Y62228D01*
X34140Y62130D01*
X34159Y62032D01*
X34214Y61950D01*
X34255Y61923D01*
Y61862D01*
X34214Y61835D01*
X34159Y61753D01*
X34140Y61655D01*
X34159Y61557D01*
X34214Y61475D01*
X34255Y61448D01*
Y61387D01*
X34214Y61360D01*
X34159Y61278D01*
X34140Y61180D01*
X34159Y61082D01*
X34214Y61000D01*
X34297Y60944D01*
X34395Y60925D01*
X34492Y60944D01*
X34575Y61000D01*
X34593Y61027D01*
X35462D01*
X35480Y61000D01*
X35562Y60944D01*
X35660Y60925D01*
X35758Y60944D01*
X35840Y61000D01*
X35896Y61082D01*
X35915Y61180D01*
X35896Y61278D01*
X35840Y61360D01*
X35800Y61387D01*
Y61448D01*
X35840Y61475D01*
X35896Y61557D01*
X35915Y61655D01*
X35896Y61753D01*
X35840Y61835D01*
X35800Y61862D01*
Y61923D01*
X35840Y61950D01*
X35896Y62032D01*
X35915Y62130D01*
X35896Y62228D01*
X35840Y62310D01*
X35758Y62365D01*
X35660Y62385D01*
D02*
G37*
G36*
X14880Y62875D02*
X14764Y62864D01*
X14652Y62830D01*
X14549Y62775D01*
X14459Y62701D01*
X14385Y62611D01*
X14330Y62508D01*
X14296Y62396D01*
X14285Y62280D01*
X14296Y62164D01*
X14330Y62052D01*
X14385Y61949D01*
X14459Y61859D01*
X14549Y61785D01*
X14652Y61730D01*
X14764Y61696D01*
X14880Y61685D01*
X14996Y61696D01*
X15108Y61730D01*
X15211Y61785D01*
X15301Y61859D01*
X15375Y61949D01*
X15430Y62052D01*
X15464Y62164D01*
X15475Y62280D01*
X15464Y62396D01*
X15430Y62508D01*
X15375Y62611D01*
X15301Y62701D01*
X15211Y62775D01*
X15108Y62830D01*
X14996Y62864D01*
X14880Y62875D01*
D02*
G37*
G36*
X33171Y62307D02*
X33052Y62291D01*
X32942Y62246D01*
X32847Y62173D01*
X32774Y62078D01*
X32728Y61967D01*
X32712Y61849D01*
X32728Y61730D01*
X32774Y61620D01*
X32847Y61525D01*
X32942Y61452D01*
X33052Y61406D01*
X33171Y61391D01*
X33289Y61406D01*
X33400Y61452D01*
X33495Y61525D01*
X33568Y61620D01*
X33613Y61730D01*
X33629Y61849D01*
X33613Y61967D01*
X33568Y62078D01*
X33495Y62173D01*
X33400Y62246D01*
X33289Y62291D01*
X33171Y62307D01*
D02*
G37*
G36*
X30325Y61250D02*
X28975D01*
Y60983D01*
X28736D01*
X28720Y61007D01*
X28638Y61062D01*
X28540Y61082D01*
X28442Y61062D01*
X28360Y61007D01*
X28342Y60980D01*
X27378D01*
X27360Y61007D01*
X27278Y61062D01*
X27180Y61082D01*
X27082Y61062D01*
X27000Y61007D01*
X26944Y60924D01*
X26925Y60827D01*
X26944Y60729D01*
X27000Y60647D01*
X27082Y60591D01*
X27180Y60572D01*
X27278Y60591D01*
X27360Y60647D01*
X27378Y60674D01*
X28342D01*
X28360Y60647D01*
X28442Y60591D01*
X28540Y60572D01*
X28638Y60591D01*
X28720Y60647D01*
X28741Y60677D01*
X28975D01*
Y60490D01*
X30325D01*
Y60717D01*
X30397D01*
X30487Y60627D01*
Y60338D01*
X30460Y60320D01*
X30405Y60238D01*
X30385Y60140D01*
X30405Y60042D01*
X30460Y59960D01*
X30542Y59904D01*
X30640Y59885D01*
X30738Y59904D01*
X30820Y59960D01*
X30875Y60042D01*
X30895Y60140D01*
X30875Y60238D01*
X30820Y60320D01*
X30793Y60338D01*
Y60690D01*
X30781Y60749D01*
X30748Y60798D01*
X30568Y60978D01*
X30519Y61011D01*
X30460Y61023D01*
X30325D01*
Y61250D01*
D02*
G37*
G36*
X11380Y61755D02*
X11264Y61744D01*
X11152Y61710D01*
X11049Y61655D01*
X10959Y61581D01*
X10885Y61491D01*
X10830Y61388D01*
X10796Y61276D01*
X10785Y61160D01*
X10796Y61044D01*
X10830Y60932D01*
X10885Y60829D01*
X10959Y60739D01*
X11049Y60665D01*
X11152Y60610D01*
X11264Y60576D01*
X11380Y60565D01*
X11496Y60576D01*
X11608Y60610D01*
X11711Y60665D01*
X11801Y60739D01*
X11875Y60829D01*
X11930Y60932D01*
X11964Y61044D01*
X11975Y61160D01*
X11964Y61276D01*
X11930Y61388D01*
X11875Y61491D01*
X11801Y61581D01*
X11711Y61655D01*
X11608Y61710D01*
X11496Y61744D01*
X11380Y61755D01*
D02*
G37*
G36*
X17790Y61695D02*
X17674Y61684D01*
X17562Y61650D01*
X17459Y61595D01*
X17369Y61521D01*
X17295Y61431D01*
X17240Y61328D01*
X17206Y61216D01*
X17195Y61100D01*
X17206Y60984D01*
X17240Y60872D01*
X17295Y60769D01*
X17369Y60679D01*
X17459Y60605D01*
X17562Y60550D01*
X17674Y60516D01*
X17790Y60505D01*
X17906Y60516D01*
X18018Y60550D01*
X18121Y60605D01*
X18211Y60679D01*
X18285Y60769D01*
X18340Y60872D01*
X18374Y60984D01*
X18385Y61100D01*
X18374Y61216D01*
X18340Y61328D01*
X18285Y61431D01*
X18211Y61521D01*
X18121Y61595D01*
X18018Y61650D01*
X17906Y61684D01*
X17790Y61695D01*
D02*
G37*
G36*
X40974Y61299D02*
X40855Y61284D01*
X40745Y61238D01*
X40650Y61165D01*
X40577Y61070D01*
X40531Y60960D01*
X40516Y60841D01*
X40531Y60722D01*
X40577Y60612D01*
X40650Y60517D01*
X40745Y60444D01*
X40855Y60398D01*
X40974Y60383D01*
X41093Y60398D01*
X41203Y60444D01*
X41298Y60517D01*
X41371Y60612D01*
X41417Y60722D01*
X41432Y60841D01*
X41417Y60960D01*
X41371Y61070D01*
X41298Y61165D01*
X41203Y61238D01*
X41093Y61284D01*
X40974Y61299D01*
D02*
G37*
G36*
X33171D02*
X33052Y61284D01*
X32942Y61238D01*
X32847Y61165D01*
X32774Y61070D01*
X32728Y60960D01*
X32712Y60841D01*
X32728Y60722D01*
X32774Y60612D01*
X32847Y60517D01*
X32942Y60444D01*
X33052Y60398D01*
X33171Y60383D01*
X33289Y60398D01*
X33400Y60444D01*
X33495Y60517D01*
X33568Y60612D01*
X33613Y60722D01*
X33629Y60841D01*
X33613Y60960D01*
X33568Y61070D01*
X33495Y61165D01*
X33400Y61238D01*
X33289Y61284D01*
X33171Y61299D01*
D02*
G37*
G36*
X36650Y64125D02*
X36552Y64106D01*
X36470Y64050D01*
X36414Y63968D01*
X36395Y63870D01*
X36414Y63772D01*
X36470Y63690D01*
X36502Y63668D01*
Y60775D01*
X36480Y60760D01*
X36425Y60678D01*
X36405Y60580D01*
X36425Y60482D01*
X36480Y60400D01*
X36562Y60345D01*
X36660Y60325D01*
X36758Y60345D01*
X36840Y60400D01*
X36895Y60482D01*
X36915Y60580D01*
X36895Y60678D01*
X36840Y60760D01*
X36808Y60782D01*
Y63675D01*
X36830Y63690D01*
X36885Y63772D01*
X36905Y63870D01*
X36885Y63968D01*
X36830Y64050D01*
X36748Y64106D01*
X36650Y64125D01*
D02*
G37*
G36*
X8765Y61155D02*
X7915D01*
Y60305D01*
X8765D01*
Y61155D01*
D02*
G37*
G36*
X26700Y60153D02*
X26609Y60141D01*
X26523Y60106D01*
X26450Y60050D01*
X26394Y59977D01*
X26359Y59891D01*
X26347Y59800D01*
X26359Y59709D01*
X26394Y59623D01*
X26450Y59550D01*
X26400Y59500D01*
X26327Y59556D01*
X26241Y59591D01*
X26150Y59603D01*
X26059Y59591D01*
X25973Y59556D01*
X25900Y59500D01*
X25844Y59427D01*
X25809Y59341D01*
X25797Y59250D01*
X25809Y59159D01*
X25844Y59073D01*
X25857Y59057D01*
X25821Y59021D01*
X25777Y59056D01*
X25691Y59091D01*
X25600Y59103D01*
X25509Y59091D01*
X25423Y59056D01*
X25350Y59000D01*
X25294Y58927D01*
X25259Y58841D01*
X25247Y58750D01*
X25259Y58659D01*
X25294Y58573D01*
X25329Y58529D01*
X25293Y58493D01*
X25277Y58506D01*
X25191Y58541D01*
X25100Y58553D01*
X25009Y58541D01*
X24923Y58506D01*
X24850Y58450D01*
X24794Y58377D01*
X24759Y58291D01*
X24747Y58200D01*
X24759Y58109D01*
X24794Y58023D01*
X24850Y57950D01*
X24923Y57894D01*
X25009Y57859D01*
X25100Y57847D01*
X25191Y57859D01*
X25277Y57894D01*
X25350Y57950D01*
X25385Y57996D01*
X27504D01*
X27766Y57734D01*
X27773Y57682D01*
X27808Y57597D01*
X27864Y57524D01*
X27937Y57468D01*
X28022Y57433D01*
X28114Y57421D01*
X28205Y57433D01*
X28290Y57468D01*
X28363Y57524D01*
X28419Y57597D01*
X28455Y57682D01*
X28467Y57774D01*
X28455Y57865D01*
X28419Y57950D01*
X28394Y57984D01*
X28432Y58022D01*
X28437Y58018D01*
X28522Y57983D01*
X28614Y57971D01*
X28705Y57983D01*
X28790Y58018D01*
X28863Y58074D01*
X28919Y58147D01*
X28955Y58232D01*
X28967Y58324D01*
X28955Y58415D01*
X28919Y58500D01*
X28915Y58505D01*
X28954Y58544D01*
X28987Y58518D01*
X29072Y58483D01*
X29164Y58471D01*
X29255Y58483D01*
X29340Y58518D01*
X29413Y58574D01*
X29469Y58647D01*
X29505Y58732D01*
X29517Y58824D01*
X29505Y58915D01*
X29469Y59000D01*
X29444Y59034D01*
X29504Y59094D01*
X29537Y59068D01*
X29622Y59033D01*
X29714Y59021D01*
X29805Y59033D01*
X29890Y59068D01*
X29963Y59124D01*
X30019Y59197D01*
X30055Y59282D01*
X30067Y59374D01*
X30055Y59465D01*
X30019Y59550D01*
X29963Y59623D01*
X29890Y59679D01*
X29805Y59715D01*
X29714Y59727D01*
X29657Y59719D01*
X29432Y59944D01*
X29366Y59988D01*
X29288Y60004D01*
X26985D01*
X26950Y60050D01*
X26877Y60106D01*
X26791Y60141D01*
X26700Y60153D01*
D02*
G37*
G36*
X37840Y62705D02*
X37742Y62685D01*
X37660Y62630D01*
X37604Y62548D01*
X37585Y62450D01*
X37604Y62352D01*
X37660Y62270D01*
X37687Y62252D01*
Y59892D01*
X37660Y59874D01*
X37604Y59791D01*
X37585Y59694D01*
X37604Y59596D01*
X37660Y59514D01*
X37742Y59458D01*
X37840Y59439D01*
X37938Y59458D01*
X38020Y59514D01*
X38075Y59596D01*
X38095Y59694D01*
X38075Y59791D01*
X38020Y59874D01*
X37993Y59892D01*
Y62252D01*
X38020Y62270D01*
X38075Y62352D01*
X38095Y62450D01*
X38075Y62548D01*
X38020Y62630D01*
X37938Y62685D01*
X37840Y62705D01*
D02*
G37*
G36*
X37170Y63175D02*
X37072Y63155D01*
X36990Y63100D01*
X36934Y63018D01*
X36915Y62920D01*
X36934Y62822D01*
X36990Y62740D01*
X37019Y62720D01*
Y59891D01*
X36994Y59874D01*
X36939Y59791D01*
X36920Y59694D01*
X36939Y59596D01*
X36994Y59514D01*
X37077Y59458D01*
X37175Y59439D01*
X37272Y59458D01*
X37355Y59514D01*
X37410Y59596D01*
X37429Y59694D01*
X37410Y59791D01*
X37355Y59874D01*
X37325Y59894D01*
Y62723D01*
X37350Y62740D01*
X37406Y62822D01*
X37425Y62920D01*
X37406Y63018D01*
X37350Y63100D01*
X37268Y63155D01*
X37170Y63175D01*
D02*
G37*
G36*
X31100Y59753D02*
X31009Y59741D01*
X30923Y59706D01*
X30850Y59650D01*
X30794Y59577D01*
X30759Y59491D01*
X30747Y59400D01*
X30759Y59309D01*
X30794Y59223D01*
X30850Y59150D01*
X30800Y59100D01*
X30727Y59156D01*
X30641Y59191D01*
X30550Y59203D01*
X30459Y59191D01*
X30373Y59156D01*
X30300Y59100D01*
X30244Y59027D01*
X30209Y58941D01*
X30197Y58850D01*
X30209Y58759D01*
X30244Y58673D01*
X30257Y58657D01*
X30221Y58621D01*
X30177Y58656D01*
X30091Y58691D01*
X30000Y58703D01*
X29909Y58691D01*
X29823Y58656D01*
X29750Y58600D01*
X29694Y58527D01*
X29659Y58441D01*
X29647Y58350D01*
X29659Y58259D01*
X29694Y58173D01*
X29729Y58129D01*
X29693Y58093D01*
X29677Y58106D01*
X29591Y58141D01*
X29500Y58153D01*
X29409Y58141D01*
X29323Y58106D01*
X29250Y58050D01*
X29194Y57977D01*
X29159Y57891D01*
X29147Y57800D01*
X29159Y57709D01*
X29194Y57623D01*
X29250Y57550D01*
X29323Y57494D01*
X29409Y57459D01*
X29500Y57447D01*
X29591Y57459D01*
X29677Y57494D01*
X29750Y57550D01*
X29785Y57596D01*
X30554D01*
X31150Y57000D01*
X31150D01*
X31192Y56981D01*
X31199Y56978D01*
X31250Y56910D01*
X31323Y56854D01*
X31409Y56819D01*
X31500Y56807D01*
X31591Y56819D01*
X31677Y56854D01*
X31750Y56910D01*
X31806Y56983D01*
X31841Y57069D01*
X31853Y57160D01*
X31841Y57251D01*
X31806Y57337D01*
X31771Y57381D01*
X31807Y57417D01*
X31823Y57404D01*
X31909Y57369D01*
X32000Y57357D01*
X32091Y57369D01*
X32177Y57404D01*
X32250Y57460D01*
X32306Y57533D01*
X32341Y57619D01*
X32353Y57710D01*
X32341Y57801D01*
X32306Y57887D01*
X32293Y57903D01*
X32329Y57939D01*
X32373Y57904D01*
X32459Y57869D01*
X32550Y57857D01*
X32641Y57869D01*
X32727Y57904D01*
X32800Y57960D01*
X32856Y58033D01*
X32891Y58119D01*
X32903Y58210D01*
X32891Y58301D01*
X32856Y58387D01*
X32800Y58460D01*
X32740Y58505D01*
X32731Y58559D01*
X32748Y58577D01*
X32750Y58578D01*
X32801Y58575D01*
X32850Y58510D01*
X32923Y58454D01*
X33009Y58419D01*
X33100Y58407D01*
X33191Y58419D01*
X33277Y58454D01*
X33350Y58510D01*
X33406Y58583D01*
X33441Y58669D01*
X33453Y58760D01*
X33441Y58851D01*
X33406Y58937D01*
X33350Y59010D01*
X33277Y59066D01*
X33191Y59101D01*
X33100Y59113D01*
X33043Y59106D01*
X32604Y59544D01*
X32538Y59588D01*
X32460Y59604D01*
X31385D01*
X31350Y59650D01*
X31277Y59706D01*
X31191Y59741D01*
X31100Y59753D01*
D02*
G37*
G36*
X16488Y59216D02*
X15812D01*
Y58540D01*
X16488D01*
Y59216D01*
D02*
G37*
G36*
X42975Y59849D02*
X42877Y59829D01*
X42794Y59774D01*
X42739Y59691D01*
X42720Y59594D01*
X42739Y59496D01*
X42794Y59414D01*
X42847Y59378D01*
Y58113D01*
X42587Y57853D01*
X42389D01*
X42375Y57874D01*
X42292Y57929D01*
X42195Y57949D01*
X42097Y57929D01*
X42014Y57874D01*
X41959Y57791D01*
X41940Y57694D01*
X41959Y57596D01*
X42014Y57514D01*
X42097Y57458D01*
X42195Y57439D01*
X42292Y57458D01*
X42375Y57514D01*
X42397Y57547D01*
X42650D01*
X42709Y57559D01*
X42758Y57592D01*
X43108Y57942D01*
X43141Y57991D01*
X43153Y58050D01*
Y59412D01*
X43155Y59414D01*
X43210Y59496D01*
X43229Y59594D01*
X43210Y59691D01*
X43155Y59774D01*
X43072Y59829D01*
X42975Y59849D01*
D02*
G37*
G36*
X39540Y57725D02*
X39424Y57714D01*
X39312Y57680D01*
X39209Y57625D01*
X39119Y57551D01*
X39045Y57461D01*
X38990Y57358D01*
X38956Y57246D01*
X38945Y57130D01*
X38956Y57014D01*
X38990Y56902D01*
X39045Y56799D01*
X39119Y56709D01*
X39209Y56635D01*
X39312Y56580D01*
X39424Y56546D01*
X39540Y56535D01*
X39656Y56546D01*
X39768Y56580D01*
X39871Y56635D01*
X39961Y56709D01*
X40035Y56799D01*
X40090Y56902D01*
X40124Y57014D01*
X40135Y57130D01*
X40124Y57246D01*
X40090Y57358D01*
X40035Y57461D01*
X39961Y57551D01*
X39871Y57625D01*
X39768Y57680D01*
X39656Y57714D01*
X39540Y57725D01*
D02*
G37*
G36*
X25310Y56765D02*
X25212Y56746D01*
X25130Y56690D01*
X25075Y56608D01*
X25055Y56510D01*
X25062Y56478D01*
X24527Y55943D01*
X23660D01*
X23601Y55931D01*
X23552Y55898D01*
X23412Y55758D01*
X23379Y55709D01*
X23367Y55650D01*
Y54078D01*
X23340Y54060D01*
X23284Y53978D01*
X23265Y53880D01*
X23284Y53782D01*
X23340Y53700D01*
X23422Y53644D01*
X23520Y53625D01*
X23618Y53644D01*
X23700Y53700D01*
X23756Y53782D01*
X23775Y53880D01*
X23756Y53978D01*
X23700Y54060D01*
X23673Y54078D01*
Y55587D01*
X23723Y55637D01*
X24590D01*
X24649Y55649D01*
X24698Y55682D01*
X25278Y56262D01*
X25310Y56255D01*
X25408Y56274D01*
X25490Y56330D01*
X25545Y56412D01*
X25565Y56510D01*
X25545Y56608D01*
X25490Y56690D01*
X25408Y56746D01*
X25310Y56765D01*
D02*
G37*
G36*
X22350Y54768D02*
X22251Y54755D01*
X22158Y54716D01*
X22079Y54655D01*
X22018Y54576D01*
X21980Y54483D01*
X21967Y54384D01*
X21980Y54285D01*
X22018Y54193D01*
X22079Y54113D01*
X22158Y54052D01*
X22251Y54014D01*
X22350Y54001D01*
X22449Y54014D01*
X22542Y54052D01*
X22621Y54113D01*
X22682Y54193D01*
X22720Y54285D01*
X22733Y54384D01*
X22720Y54483D01*
X22682Y54576D01*
X22621Y54655D01*
X22542Y54716D01*
X22449Y54755D01*
X22350Y54768D01*
D02*
G37*
G36*
X18038Y56586D02*
X17940Y56567D01*
X17857Y56512D01*
X17802Y56429D01*
X17783Y56331D01*
X17802Y56234D01*
X17857Y56151D01*
X17897Y56125D01*
Y55600D01*
X17909Y55541D01*
X17942Y55492D01*
X18847Y54587D01*
Y54209D01*
X18794Y54174D01*
X18739Y54091D01*
X18720Y53994D01*
X18739Y53896D01*
X18794Y53814D01*
X18877Y53758D01*
X18975Y53739D01*
X19072Y53758D01*
X19155Y53814D01*
X19210Y53896D01*
X19229Y53994D01*
X19210Y54091D01*
X19155Y54174D01*
X19153Y54175D01*
Y54650D01*
X19141Y54709D01*
X19108Y54758D01*
X18203Y55663D01*
Y56141D01*
X18218Y56151D01*
X18273Y56234D01*
X18293Y56331D01*
X18273Y56429D01*
X18218Y56512D01*
X18135Y56567D01*
X18038Y56586D01*
D02*
G37*
G36*
X28033Y54298D02*
X27734D01*
X27585Y54149D01*
Y53851D01*
X27734Y53702D01*
X28033D01*
X28182Y53851D01*
Y54149D01*
X28033Y54298D01*
D02*
G37*
G36*
X19340Y56573D02*
X19249Y56561D01*
X19163Y56526D01*
X19090Y56470D01*
X19034Y56397D01*
X18999Y56311D01*
X18987Y56220D01*
X18999Y56129D01*
X19034Y56043D01*
X19090Y55970D01*
X19163Y55914D01*
X19249Y55879D01*
X19340Y55867D01*
X19431Y55879D01*
X19455Y55889D01*
X20347Y54997D01*
Y53534D01*
X20297Y53524D01*
X20276Y53576D01*
X20219Y53649D01*
X20146Y53705D01*
X20123Y53715D01*
Y54600D01*
X20111Y54659D01*
X20078Y54708D01*
X19461Y55325D01*
X19471Y55349D01*
X19483Y55440D01*
X19471Y55531D01*
X19436Y55617D01*
X19380Y55690D01*
X19307Y55746D01*
X19221Y55781D01*
X19130Y55793D01*
X19039Y55781D01*
X18953Y55746D01*
X18880Y55690D01*
X18824Y55617D01*
X18789Y55531D01*
X18777Y55440D01*
X18789Y55349D01*
X18824Y55263D01*
X18880Y55190D01*
X18953Y55134D01*
X19039Y55099D01*
X19130Y55087D01*
X19221Y55099D01*
X19245Y55109D01*
X19817Y54537D01*
Y53715D01*
X19793Y53705D01*
X19720Y53649D01*
X19664Y53576D01*
X19629Y53491D01*
X19617Y53400D01*
X19629Y53308D01*
X19664Y53223D01*
X19720Y53150D01*
X19793Y53094D01*
X19878Y53059D01*
X19970Y53047D01*
X20061Y53059D01*
X20146Y53094D01*
X20219Y53150D01*
X20276Y53223D01*
X20297Y53275D01*
X20347Y53265D01*
Y53165D01*
X20323Y53156D01*
X20250Y53100D01*
X20194Y53027D01*
X20159Y52941D01*
X20147Y52850D01*
X20159Y52759D01*
X20194Y52673D01*
X20250Y52600D01*
X20323Y52544D01*
X20409Y52509D01*
X20500Y52497D01*
X20591Y52509D01*
X20677Y52544D01*
X20750Y52600D01*
X20806Y52673D01*
X20841Y52759D01*
X20853Y52850D01*
X20841Y52941D01*
X20806Y53027D01*
X20750Y53100D01*
X20677Y53156D01*
X20653Y53165D01*
Y55060D01*
X20641Y55119D01*
X20608Y55168D01*
X19671Y56105D01*
X19681Y56129D01*
X19693Y56220D01*
X19681Y56311D01*
X19646Y56397D01*
X19590Y56470D01*
X19517Y56526D01*
X19431Y56561D01*
X19340Y56573D01*
D02*
G37*
G36*
X22350Y53768D02*
X22251Y53755D01*
X22158Y53716D01*
X22079Y53655D01*
X22018Y53576D01*
X21980Y53484D01*
X21967Y53384D01*
X21980Y53285D01*
X22018Y53193D01*
X22079Y53113D01*
X22158Y53052D01*
X22251Y53014D01*
X22350Y53001D01*
X22449Y53014D01*
X22542Y53052D01*
X22621Y53113D01*
X22682Y53193D01*
X22720Y53285D01*
X22733Y53384D01*
X22720Y53484D01*
X22682Y53576D01*
X22621Y53655D01*
X22542Y53716D01*
X22449Y53755D01*
X22350Y53768D01*
D02*
G37*
G36*
X41510Y53653D02*
X41411Y53640D01*
X41318Y53602D01*
X41239Y53541D01*
X41178Y53462D01*
X41140Y53369D01*
X41127Y53270D01*
X41140Y53171D01*
X41178Y53078D01*
X41239Y52999D01*
X41318Y52938D01*
X41411Y52900D01*
X41510Y52887D01*
X41609Y52900D01*
X41702Y52938D01*
X41781Y52999D01*
X41842Y53078D01*
X41880Y53171D01*
X41893Y53270D01*
X41880Y53369D01*
X41842Y53462D01*
X41781Y53541D01*
X41702Y53602D01*
X41609Y53640D01*
X41510Y53653D01*
D02*
G37*
G36*
X18720Y57363D02*
X18629Y57351D01*
X18543Y57316D01*
X18470Y57260D01*
X18414Y57187D01*
X18379Y57101D01*
X18367Y57010D01*
X18379Y56919D01*
X18414Y56833D01*
X18470Y56760D01*
X18543Y56704D01*
X18629Y56669D01*
X18720Y56657D01*
X18811Y56669D01*
X18897Y56704D01*
X18970Y56760D01*
X19026Y56833D01*
X19035Y56857D01*
X19627D01*
X21167Y55317D01*
Y53385D01*
X21143Y53376D01*
X21070Y53320D01*
X21014Y53247D01*
X20979Y53161D01*
X20967Y53070D01*
X20979Y52979D01*
X21014Y52893D01*
X21070Y52820D01*
X21143Y52764D01*
X21229Y52729D01*
X21320Y52717D01*
X21411Y52729D01*
X21497Y52764D01*
X21570Y52820D01*
X21626Y52893D01*
X21661Y52979D01*
X21673Y53070D01*
X21661Y53161D01*
X21626Y53247D01*
X21570Y53320D01*
X21497Y53376D01*
X21473Y53385D01*
Y55380D01*
X21461Y55439D01*
X21428Y55488D01*
X19798Y57118D01*
X19749Y57151D01*
X19690Y57163D01*
X19035D01*
X19026Y57187D01*
X18970Y57260D01*
X18897Y57316D01*
X18811Y57351D01*
X18720Y57363D01*
D02*
G37*
G36*
X22370Y52523D02*
X22279Y52511D01*
X22193Y52476D01*
X22120Y52420D01*
X22085Y52374D01*
X21310D01*
X21256Y52410D01*
X21159Y52429D01*
X21061Y52410D01*
X20978Y52355D01*
X20923Y52272D01*
X20904Y52174D01*
X20923Y52077D01*
X20978Y51994D01*
X21061Y51939D01*
X21159Y51920D01*
X21256Y51939D01*
X21297Y51966D01*
X22085D01*
X22120Y51920D01*
X22193Y51864D01*
X22279Y51829D01*
X22370Y51817D01*
X22461Y51829D01*
X22547Y51864D01*
X22620Y51920D01*
X22676Y51993D01*
X22711Y52079D01*
X22723Y52170D01*
X22711Y52261D01*
X22676Y52347D01*
X22620Y52420D01*
X22547Y52476D01*
X22461Y52511D01*
X22370Y52523D01*
D02*
G37*
G36*
X41510Y52653D02*
X41411Y52640D01*
X41318Y52602D01*
X41239Y52541D01*
X41178Y52462D01*
X41140Y52369D01*
X41127Y52270D01*
X41140Y52171D01*
X41178Y52078D01*
X41239Y51999D01*
X41318Y51938D01*
X41411Y51900D01*
X41510Y51887D01*
X41609Y51900D01*
X41702Y51938D01*
X41781Y51999D01*
X41842Y52078D01*
X41880Y52171D01*
X41893Y52270D01*
X41880Y52369D01*
X41842Y52462D01*
X41781Y52541D01*
X41702Y52602D01*
X41609Y52640D01*
X41510Y52653D01*
D02*
G37*
G36*
X10723Y52326D02*
X10549Y52309D01*
X10382Y52258D01*
X10228Y52176D01*
X10093Y52065D01*
X9982Y51930D01*
X9900Y51776D01*
X9849Y51608D01*
X9832Y51434D01*
X9849Y51260D01*
X9900Y51093D01*
X9982Y50939D01*
X10093Y50804D01*
X10228Y50693D01*
X10382Y50610D01*
X10549Y50560D01*
X10723Y50543D01*
X10897Y50560D01*
X11065Y50610D01*
X11219Y50693D01*
X11354Y50804D01*
X11465Y50939D01*
X11547Y51093D01*
X11598Y51260D01*
X11615Y51434D01*
X11598Y51608D01*
X11547Y51776D01*
X11465Y51930D01*
X11354Y52065D01*
X11219Y52176D01*
X11065Y52258D01*
X10897Y52309D01*
X10723Y52326D01*
D02*
G37*
G36*
X27450Y51093D02*
X27351Y51080D01*
X27258Y51042D01*
X27179Y50981D01*
X27118Y50902D01*
X27080Y50809D01*
X27067Y50710D01*
X27080Y50611D01*
X27118Y50518D01*
X27179Y50439D01*
X27258Y50378D01*
X27351Y50340D01*
X27450Y50327D01*
X27549Y50340D01*
X27642Y50378D01*
X27721Y50439D01*
X27782Y50518D01*
X27820Y50611D01*
X27833Y50710D01*
X27820Y50809D01*
X27782Y50902D01*
X27721Y50981D01*
X27642Y51042D01*
X27549Y51080D01*
X27450Y51093D01*
D02*
G37*
G36*
X24936Y50972D02*
X24837Y50959D01*
X24745Y50921D01*
X24665Y50860D01*
X24604Y50781D01*
X24566Y50688D01*
X24553Y50589D01*
X24566Y50490D01*
X24604Y50397D01*
X24665Y50318D01*
X24745Y50257D01*
X24837Y50219D01*
X24936Y50206D01*
X25035Y50219D01*
X25128Y50257D01*
X25207Y50318D01*
X25268Y50397D01*
X25306Y50490D01*
X25319Y50589D01*
X25306Y50688D01*
X25268Y50781D01*
X25207Y50860D01*
X25128Y50921D01*
X25035Y50959D01*
X24936Y50972D01*
D02*
G37*
G36*
X43055Y50059D02*
X42957Y50039D01*
X42874Y49984D01*
X42819Y49901D01*
X42800Y49804D01*
X42819Y49706D01*
X42874Y49624D01*
X42907Y49602D01*
Y49483D01*
X42041Y48618D01*
X41998Y48626D01*
X41900Y48607D01*
X41818Y48552D01*
X41762Y48469D01*
X41743Y48371D01*
X41762Y48274D01*
X41818Y48191D01*
X41900Y48136D01*
X41998Y48117D01*
X42095Y48136D01*
X42178Y48191D01*
X42233Y48274D01*
X42253Y48371D01*
X42249Y48392D01*
X43168Y49312D01*
X43201Y49361D01*
X43213Y49420D01*
Y49609D01*
X43235Y49624D01*
X43290Y49706D01*
X43309Y49804D01*
X43290Y49901D01*
X43235Y49984D01*
X43152Y50039D01*
X43055Y50059D01*
D02*
G37*
G36*
X19950Y50653D02*
X19859Y50641D01*
X19773Y50606D01*
X19700Y50550D01*
X19644Y50477D01*
X19609Y50391D01*
X19597Y50300D01*
X19609Y50209D01*
X19644Y50123D01*
X19700Y50050D01*
X19773Y49994D01*
X19859Y49959D01*
X19950Y49947D01*
X20041Y49959D01*
X20065Y49969D01*
X21192Y48842D01*
X21241Y48809D01*
X21300Y48797D01*
X21975D01*
X21984Y48773D01*
X22040Y48700D01*
X22113Y48644D01*
X22199Y48609D01*
X22290Y48597D01*
X22381Y48609D01*
X22467Y48644D01*
X22540Y48700D01*
X22596Y48773D01*
X22631Y48859D01*
X22643Y48950D01*
X22631Y49041D01*
X22596Y49127D01*
X22540Y49200D01*
X22467Y49256D01*
X22381Y49291D01*
X22290Y49303D01*
X22199Y49291D01*
X22113Y49256D01*
X22040Y49200D01*
X21984Y49127D01*
X21975Y49103D01*
X21363D01*
X20281Y50185D01*
X20291Y50209D01*
X20303Y50300D01*
X20291Y50391D01*
X20256Y50477D01*
X20200Y50550D01*
X20127Y50606D01*
X20041Y50641D01*
X19950Y50653D01*
D02*
G37*
G36*
X10723Y50357D02*
X10549Y50340D01*
X10382Y50290D01*
X10228Y50207D01*
X10093Y50096D01*
X9982Y49961D01*
X9900Y49807D01*
X9849Y49640D01*
X9832Y49466D01*
X9849Y49292D01*
X9900Y49124D01*
X9982Y48970D01*
X10093Y48835D01*
X10228Y48724D01*
X10382Y48642D01*
X10549Y48591D01*
X10723Y48574D01*
X10897Y48591D01*
X11065Y48642D01*
X11219Y48724D01*
X11354Y48835D01*
X11465Y48970D01*
X11547Y49124D01*
X11598Y49292D01*
X11615Y49466D01*
X11598Y49640D01*
X11547Y49807D01*
X11465Y49961D01*
X11354Y50096D01*
X11219Y50207D01*
X11065Y50290D01*
X10897Y50340D01*
X10723Y50357D01*
D02*
G37*
G36*
X24900Y49253D02*
X24801Y49240D01*
X24708Y49202D01*
X24629Y49141D01*
X24568Y49062D01*
X24530Y48969D01*
X24517Y48870D01*
X24530Y48771D01*
X24568Y48678D01*
X24629Y48599D01*
X24708Y48538D01*
X24801Y48500D01*
X24900Y48487D01*
X24999Y48500D01*
X25092Y48538D01*
X25171Y48599D01*
X25232Y48678D01*
X25270Y48771D01*
X25283Y48870D01*
X25270Y48969D01*
X25232Y49062D01*
X25171Y49141D01*
X25092Y49202D01*
X24999Y49240D01*
X24900Y49253D01*
D02*
G37*
G36*
X23900D02*
X23801Y49240D01*
X23708Y49202D01*
X23629Y49141D01*
X23568Y49062D01*
X23530Y48969D01*
X23517Y48870D01*
X23530Y48771D01*
X23568Y48678D01*
X23629Y48599D01*
X23708Y48538D01*
X23801Y48500D01*
X23900Y48487D01*
X23999Y48500D01*
X24092Y48538D01*
X24171Y48599D01*
X24232Y48678D01*
X24270Y48771D01*
X24283Y48870D01*
X24270Y48969D01*
X24232Y49062D01*
X24171Y49141D01*
X24092Y49202D01*
X23999Y49240D01*
X23900Y49253D01*
D02*
G37*
G36*
X19553Y49971D02*
X19455Y49951D01*
X19373Y49896D01*
X19317Y49813D01*
X19298Y49716D01*
X19317Y49618D01*
X19373Y49535D01*
X19455Y49480D01*
X19516Y49468D01*
X20892Y48092D01*
X20941Y48059D01*
X21000Y48047D01*
X22042D01*
X22064Y48014D01*
X22147Y47958D01*
X22245Y47939D01*
X22342Y47958D01*
X22425Y48014D01*
X22480Y48096D01*
X22499Y48194D01*
X22480Y48291D01*
X22425Y48374D01*
X22342Y48429D01*
X22245Y48449D01*
X22147Y48429D01*
X22064Y48374D01*
X22050Y48353D01*
X21063D01*
X19790Y49626D01*
X19808Y49716D01*
X19788Y49813D01*
X19733Y49896D01*
X19650Y49951D01*
X19553Y49971D01*
D02*
G37*
G36*
X12375Y49649D02*
X12277Y49629D01*
X12194Y49574D01*
X12139Y49491D01*
X12120Y49394D01*
X12139Y49296D01*
X12194Y49214D01*
X12247Y49178D01*
Y48059D01*
X12194Y48024D01*
X12139Y47941D01*
X12120Y47844D01*
X12139Y47746D01*
X12194Y47664D01*
X12277Y47608D01*
X12375Y47589D01*
X12472Y47608D01*
X12555Y47664D01*
X12610Y47746D01*
X12629Y47844D01*
X12610Y47941D01*
X12555Y48024D01*
X12553Y48025D01*
Y49212D01*
X12555Y49214D01*
X12610Y49296D01*
X12629Y49394D01*
X12610Y49491D01*
X12555Y49574D01*
X12472Y49629D01*
X12375Y49649D01*
D02*
G37*
G36*
X30544Y47658D02*
X30370Y47641D01*
X30203Y47590D01*
X30049Y47508D01*
X29914Y47397D01*
X29803Y47262D01*
X29720Y47108D01*
X29670Y46940D01*
X29653Y46766D01*
X29670Y46592D01*
X29720Y46425D01*
X29803Y46271D01*
X29914Y46136D01*
X30049Y46025D01*
X30203Y45943D01*
X30370Y45892D01*
X30544Y45875D01*
X30718Y45892D01*
X30886Y45943D01*
X31040Y46025D01*
X31175Y46136D01*
X31286Y46271D01*
X31368Y46425D01*
X31419Y46592D01*
X31436Y46766D01*
X31419Y46940D01*
X31368Y47108D01*
X31286Y47262D01*
X31175Y47397D01*
X31040Y47508D01*
X30886Y47590D01*
X30718Y47641D01*
X30544Y47658D01*
D02*
G37*
G36*
X28576D02*
X28402Y47641D01*
X28234Y47590D01*
X28080Y47508D01*
X27945Y47397D01*
X27834Y47262D01*
X27752Y47108D01*
X27701Y46940D01*
X27684Y46766D01*
X27701Y46592D01*
X27752Y46425D01*
X27834Y46271D01*
X27945Y46136D01*
X28080Y46025D01*
X28234Y45943D01*
X28402Y45892D01*
X28576Y45875D01*
X28750Y45892D01*
X28917Y45943D01*
X29071Y46025D01*
X29206Y46136D01*
X29317Y46271D01*
X29400Y46425D01*
X29450Y46592D01*
X29467Y46766D01*
X29450Y46940D01*
X29400Y47108D01*
X29317Y47262D01*
X29206Y47397D01*
X29071Y47508D01*
X28917Y47590D01*
X28750Y47641D01*
X28576Y47658D01*
D02*
G37*
G36*
X26234D02*
X26060Y47641D01*
X25893Y47590D01*
X25739Y47508D01*
X25604Y47397D01*
X25493Y47262D01*
X25410Y47108D01*
X25360Y46940D01*
X25343Y46766D01*
X25360Y46592D01*
X25410Y46425D01*
X25493Y46271D01*
X25604Y46136D01*
X25739Y46025D01*
X25893Y45943D01*
X26060Y45892D01*
X26234Y45875D01*
X26408Y45892D01*
X26576Y45943D01*
X26730Y46025D01*
X26865Y46136D01*
X26976Y46271D01*
X27058Y46425D01*
X27109Y46592D01*
X27126Y46766D01*
X27109Y46940D01*
X27058Y47108D01*
X26976Y47262D01*
X26865Y47397D01*
X26730Y47508D01*
X26576Y47590D01*
X26408Y47641D01*
X26234Y47658D01*
D02*
G37*
G36*
X24266D02*
X24092Y47641D01*
X23924Y47590D01*
X23770Y47508D01*
X23635Y47397D01*
X23524Y47262D01*
X23442Y47108D01*
X23391Y46940D01*
X23374Y46766D01*
X23391Y46592D01*
X23442Y46425D01*
X23524Y46271D01*
X23635Y46136D01*
X23770Y46025D01*
X23924Y45943D01*
X24092Y45892D01*
X24266Y45875D01*
X24440Y45892D01*
X24607Y45943D01*
X24761Y46025D01*
X24896Y46136D01*
X25007Y46271D01*
X25090Y46425D01*
X25140Y46592D01*
X25157Y46766D01*
X25140Y46940D01*
X25090Y47108D01*
X25007Y47262D01*
X24896Y47397D01*
X24761Y47508D01*
X24607Y47590D01*
X24440Y47641D01*
X24266Y47658D01*
D02*
G37*
G36*
X10723Y47226D02*
X10549Y47209D01*
X10382Y47158D01*
X10228Y47076D01*
X10093Y46965D01*
X9982Y46830D01*
X9900Y46676D01*
X9849Y46508D01*
X9832Y46334D01*
X9849Y46160D01*
X9900Y45993D01*
X9982Y45839D01*
X10093Y45704D01*
X10228Y45593D01*
X10382Y45510D01*
X10549Y45460D01*
X10723Y45443D01*
X10897Y45460D01*
X11065Y45510D01*
X11219Y45593D01*
X11354Y45704D01*
X11465Y45839D01*
X11547Y45993D01*
X11598Y46160D01*
X11615Y46334D01*
X11598Y46508D01*
X11547Y46676D01*
X11465Y46830D01*
X11354Y46965D01*
X11219Y47076D01*
X11065Y47158D01*
X10897Y47209D01*
X10723Y47226D01*
D02*
G37*
G36*
X21338Y45854D02*
X20662D01*
Y45178D01*
X21338D01*
Y45854D01*
D02*
G37*
G36*
X15100Y44483D02*
X15001Y44470D01*
X14908Y44432D01*
X14829Y44371D01*
X14768Y44292D01*
X14730Y44199D01*
X14717Y44100D01*
X14730Y44001D01*
X14768Y43908D01*
X14829Y43829D01*
X14908Y43768D01*
X15001Y43730D01*
X15100Y43717D01*
X15199Y43730D01*
X15292Y43768D01*
X15371Y43829D01*
X15432Y43908D01*
X15470Y44001D01*
X15483Y44100D01*
X15470Y44199D01*
X15432Y44292D01*
X15371Y44371D01*
X15292Y44432D01*
X15199Y44470D01*
X15100Y44483D01*
D02*
G37*
G36*
X10723Y45257D02*
X10549Y45240D01*
X10382Y45190D01*
X10228Y45107D01*
X10093Y44996D01*
X9982Y44861D01*
X9900Y44707D01*
X9849Y44540D01*
X9832Y44366D01*
X9849Y44192D01*
X9900Y44024D01*
X9982Y43870D01*
X10093Y43735D01*
X10228Y43624D01*
X10382Y43542D01*
X10549Y43491D01*
X10723Y43474D01*
X10897Y43491D01*
X11065Y43542D01*
X11219Y43624D01*
X11354Y43735D01*
X11465Y43870D01*
X11547Y44024D01*
X11598Y44192D01*
X11615Y44366D01*
X11598Y44540D01*
X11547Y44707D01*
X11465Y44861D01*
X11354Y44996D01*
X11219Y45107D01*
X11065Y45190D01*
X10897Y45240D01*
X10723Y45257D01*
D02*
G37*
G36*
X30544Y44898D02*
X30370Y44881D01*
X30203Y44830D01*
X30049Y44748D01*
X29914Y44637D01*
X29803Y44502D01*
X29720Y44348D01*
X29670Y44181D01*
X29653Y44007D01*
X29670Y43833D01*
X29720Y43665D01*
X29803Y43511D01*
X29914Y43376D01*
X30049Y43265D01*
X30203Y43183D01*
X30370Y43132D01*
X30544Y43115D01*
X30718Y43132D01*
X30886Y43183D01*
X31040Y43265D01*
X31175Y43376D01*
X31286Y43511D01*
X31368Y43665D01*
X31419Y43833D01*
X31436Y44007D01*
X31419Y44181D01*
X31368Y44348D01*
X31286Y44502D01*
X31175Y44637D01*
X31040Y44748D01*
X30886Y44830D01*
X30718Y44881D01*
X30544Y44898D01*
D02*
G37*
G36*
X28576D02*
X28402Y44881D01*
X28234Y44830D01*
X28080Y44748D01*
X27945Y44637D01*
X27834Y44502D01*
X27752Y44348D01*
X27701Y44181D01*
X27684Y44007D01*
X27701Y43833D01*
X27752Y43665D01*
X27834Y43511D01*
X27945Y43376D01*
X28080Y43265D01*
X28234Y43183D01*
X28402Y43132D01*
X28576Y43115D01*
X28750Y43132D01*
X28917Y43183D01*
X29071Y43265D01*
X29206Y43376D01*
X29317Y43511D01*
X29400Y43665D01*
X29450Y43833D01*
X29467Y44007D01*
X29450Y44181D01*
X29400Y44348D01*
X29317Y44502D01*
X29206Y44637D01*
X29071Y44748D01*
X28917Y44830D01*
X28750Y44881D01*
X28576Y44898D01*
D02*
G37*
G36*
X26234D02*
X26060Y44881D01*
X25893Y44830D01*
X25739Y44748D01*
X25604Y44637D01*
X25493Y44502D01*
X25410Y44348D01*
X25360Y44181D01*
X25343Y44007D01*
X25360Y43833D01*
X25410Y43665D01*
X25493Y43511D01*
X25604Y43376D01*
X25739Y43265D01*
X25893Y43183D01*
X26060Y43132D01*
X26234Y43115D01*
X26408Y43132D01*
X26576Y43183D01*
X26730Y43265D01*
X26865Y43376D01*
X26976Y43511D01*
X27058Y43665D01*
X27109Y43833D01*
X27126Y44007D01*
X27109Y44181D01*
X27058Y44348D01*
X26976Y44502D01*
X26865Y44637D01*
X26730Y44748D01*
X26576Y44830D01*
X26408Y44881D01*
X26234Y44898D01*
D02*
G37*
G36*
X24266D02*
X24092Y44881D01*
X23924Y44830D01*
X23770Y44748D01*
X23635Y44637D01*
X23524Y44502D01*
X23442Y44348D01*
X23391Y44181D01*
X23374Y44007D01*
X23391Y43833D01*
X23442Y43665D01*
X23524Y43511D01*
X23635Y43376D01*
X23770Y43265D01*
X23924Y43183D01*
X24092Y43132D01*
X24266Y43115D01*
X24440Y43132D01*
X24607Y43183D01*
X24761Y43265D01*
X24896Y43376D01*
X25007Y43511D01*
X25090Y43665D01*
X25140Y43833D01*
X25157Y44007D01*
X25140Y44181D01*
X25090Y44348D01*
X25007Y44502D01*
X24896Y44637D01*
X24761Y44748D01*
X24607Y44830D01*
X24440Y44881D01*
X24266Y44898D01*
D02*
G37*
G36*
X38322Y54188D02*
X37647D01*
Y53512D01*
X38172D01*
X39767Y51917D01*
Y49126D01*
X39734Y49104D01*
X39679Y49021D01*
X39660Y48924D01*
X39679Y48826D01*
X39734Y48744D01*
X39817Y48688D01*
X39915Y48669D01*
X40012Y48688D01*
X40095Y48744D01*
X40150Y48826D01*
X40169Y48924D01*
X40150Y49021D01*
X40095Y49104D01*
X40073Y49119D01*
Y51980D01*
X40061Y52039D01*
X40028Y52088D01*
X38475Y53641D01*
X38495Y53687D01*
X38747D01*
X40687Y51747D01*
Y43454D01*
X40655Y43433D01*
X40600Y43350D01*
X40580Y43253D01*
X40600Y43155D01*
X40655Y43072D01*
X40738Y43017D01*
X40835Y42998D01*
X40933Y43017D01*
X41015Y43072D01*
X41071Y43155D01*
X41090Y43253D01*
X41071Y43350D01*
X41015Y43433D01*
X40993Y43448D01*
Y51810D01*
X40981Y51869D01*
X40948Y51918D01*
X38918Y53948D01*
X38869Y53981D01*
X38810Y53993D01*
X38322D01*
Y54188D01*
D02*
G37*
G36*
X41415Y49329D02*
X41317Y49309D01*
X41234Y49254D01*
X41179Y49171D01*
X41160Y49074D01*
X41179Y48976D01*
X41234Y48894D01*
X41317Y48838D01*
X41325Y48837D01*
Y42955D01*
X41294Y42934D01*
X41239Y42851D01*
X41220Y42754D01*
X41239Y42656D01*
X41294Y42574D01*
X41377Y42518D01*
X41475Y42499D01*
X41572Y42518D01*
X41655Y42574D01*
X41710Y42656D01*
X41729Y42754D01*
X41710Y42851D01*
X41655Y42934D01*
X41631Y42950D01*
Y48948D01*
X41650Y48976D01*
X41669Y49074D01*
X41650Y49171D01*
X41595Y49254D01*
X41512Y49309D01*
X41415Y49329D01*
D02*
G37*
G36*
X20047Y40234D02*
X19924Y40218D01*
X19810Y40171D01*
X19712Y40095D01*
X19636Y39997D01*
X19589Y39883D01*
X19573Y39760D01*
X19589Y39637D01*
X19636Y39523D01*
X19712Y39424D01*
X19810Y39349D01*
X19924Y39302D01*
X20047Y39286D01*
X20170Y39302D01*
X20284Y39349D01*
X20383Y39424D01*
X20458Y39523D01*
X20505Y39637D01*
X20522Y39760D01*
X20505Y39883D01*
X20458Y39997D01*
X20383Y40095D01*
X20284Y40171D01*
X20170Y40218D01*
X20047Y40234D01*
D02*
G37*
%LPD*%
D23*
X38187Y53713D02*
X38220Y53680D01*
X38100Y53840D02*
X38810D01*
X38067Y53767D02*
X38154Y53680D01*
X30640Y60140D02*
Y60690D01*
X30610Y60720D02*
X30640Y60690D01*
X30460Y60870D02*
X30610Y60720D01*
X30044Y60870D02*
X30460D01*
X28530Y60830D02*
X29216D01*
X34415Y61655D02*
X35680D01*
X34430Y61180D02*
X35675D01*
X42005Y48365D02*
X43060Y49420D01*
X36650Y63870D02*
X36655Y63865D01*
Y60585D02*
X36660Y60580D01*
X36655Y60585D02*
Y63865D01*
X34125Y66815D02*
X35645D01*
X34120Y66820D02*
X34125Y66815D01*
X35645D02*
X35650Y66810D01*
X21000Y48200D02*
X22245D01*
X33177Y74954D02*
X34281Y76057D01*
X33171Y74947D02*
X33177Y74954D01*
X28682Y71378D02*
X29250Y70810D01*
X28658Y71298D02*
X28690D01*
X29250Y69550D02*
Y70810D01*
X29400Y71700D02*
X30000Y71100D01*
X21521Y72510D02*
X21591Y72440D01*
X19360Y71560D02*
X19419Y71619D01*
Y72510D01*
X19900Y72990D02*
X19980Y72910D01*
X19770Y71770D02*
X19980Y71980D01*
Y72910D01*
X19650Y72990D02*
X19900D01*
X21521Y73010D02*
X23000D01*
X24180Y74190D01*
X32120Y77586D02*
X35396D01*
X35420Y77610D01*
X32096Y77562D02*
X32120Y77586D01*
X32155Y76905D02*
X35395D01*
X35430Y76940D01*
X32120Y76870D02*
X32155Y76905D01*
X34281Y76057D02*
X35159D01*
X24180Y74190D02*
X24620D01*
X24330Y70780D02*
Y72330D01*
X34009Y67877D02*
X34011Y67878D01*
X36268D02*
X36270Y67880D01*
X34011Y67878D02*
X36268D01*
X28740Y64610D02*
X28749Y64601D01*
X28740Y64610D02*
Y68630D01*
X28730Y68640D02*
X28740Y68630D01*
X16920Y71926D02*
X16943Y71949D01*
X23520Y53880D02*
Y55650D01*
X23660Y55790D01*
X24590D01*
X25310Y56510D01*
X42030Y66360D02*
X42050Y66380D01*
X42030Y62905D02*
Y66360D01*
X40974Y61849D02*
X42030Y62905D01*
X38004Y70584D02*
X38240Y70820D01*
X38004Y70560D02*
Y70584D01*
X38240Y70820D02*
X39246Y71826D01*
Y71826D01*
X40450Y73030D01*
X41770Y66959D02*
X41780Y66969D01*
X41770Y63630D02*
Y66959D01*
X40997Y62857D02*
X41770Y63630D01*
X40974Y62857D02*
X40997D01*
X40450Y73030D02*
X42370D01*
X34050Y70550D02*
X34070Y70530D01*
X35580D01*
X37840Y59778D02*
X37925Y59694D01*
X37840Y59778D02*
Y62450D01*
X37170Y62920D02*
X37172Y62918D01*
Y59696D02*
Y62918D01*
Y59696D02*
X37175Y59694D01*
X34395Y62130D02*
X35660D01*
X12400Y47850D02*
Y49450D01*
X38220Y53680D02*
X39920Y51980D01*
X39915Y48924D02*
X39920Y48929D01*
Y51980D01*
X41415Y49074D02*
X41478Y49010D01*
Y42757D02*
Y49010D01*
X41475Y42754D02*
X41478Y42757D01*
X38100Y53800D02*
X38220Y53680D01*
X38810Y53840D02*
X40840Y51810D01*
X37994Y53840D02*
X38154Y53680D01*
X37994Y53840D02*
X38810D01*
X40840Y43230D02*
Y51810D01*
X43060Y49420D02*
Y49712D01*
X43078Y49730D02*
X43110D01*
X43060Y49712D02*
X43078Y49730D01*
X27180Y60827D02*
X28540D01*
X30000Y69600D02*
Y71100D01*
Y69600D02*
X30050Y69550D01*
X20500Y52850D02*
Y55060D01*
X19340Y56220D02*
X20500Y55060D01*
X19690Y57010D02*
X21320Y55380D01*
X18720Y57010D02*
X19690D01*
X19970Y53400D02*
Y54600D01*
X19130Y55440D02*
X19970Y54600D01*
X21320Y53070D02*
Y55380D01*
X21300Y48950D02*
X22290D01*
X19950Y50300D02*
X21300Y48950D01*
X19550Y49650D02*
X21000Y48200D01*
X37984Y53850D02*
X37994Y53840D01*
X42650Y57700D02*
X43000Y58050D01*
X42200Y57700D02*
X42650D01*
X43000Y58050D02*
Y59600D01*
X38154Y53680D02*
X38220D01*
X19550Y49650D02*
Y49700D01*
X25100Y63500D02*
X25300Y63300D01*
X32025Y69225D02*
X32100Y69300D01*
X18050Y55600D02*
Y56350D01*
X32100Y69300D02*
Y71850D01*
X18050Y55600D02*
X19000Y54650D01*
Y54000D02*
Y54650D01*
D27*
X22400Y71638D02*
D03*
Y72342D02*
D03*
D35*
X34830Y69766D02*
D03*
Y70514D02*
D03*
Y67902D02*
D03*
Y68650D02*
D03*
Y66770D02*
D03*
Y66022D02*
D03*
D36*
X29256Y60870D02*
D03*
X30044D02*
D03*
D43*
X16920Y71926D02*
D03*
Y72634D02*
D03*
D135*
X21601Y72500D02*
X22400D01*
X31100Y59400D02*
X32460D01*
X30000Y58350D02*
X31360D01*
X30550Y58850D02*
X31910D01*
X32460Y59400D02*
X33100Y58760D01*
X31360Y58350D02*
X32000Y57710D01*
X31910Y58850D02*
X32550Y58210D01*
X29500Y57800D02*
X30860D01*
X31500Y57160D01*
X25100Y58200D02*
X27687D01*
X26150Y59250D02*
X28737D01*
X27687Y58200D02*
X28114Y57774D01*
X28737Y59250D02*
X29164Y58824D01*
X25600Y58750D02*
X28187D01*
X29288Y59800D02*
X29714Y59374D01*
X26700Y59800D02*
X29288D01*
X28187Y58750D02*
X28614Y58324D01*
X21199Y52176D02*
X21205Y52170D01*
X21199Y52176D02*
Y52199D01*
X21205Y52170D02*
X22370D01*
X23112Y72500D02*
X23170Y72520D01*
X22400Y72342D02*
X22558Y72500D01*
X23170Y72520D02*
X23730Y73080D01*
X22558Y72500D02*
X23112D01*
X33177Y74954D02*
X34544D01*
X33988Y74130D02*
X34570D01*
X34544Y74954D02*
X34550Y74960D01*
X33171Y74947D02*
X33988Y74130D01*
X25080Y73080D02*
X25100Y73100D01*
X23730Y73080D02*
X25080D01*
X22650Y62450D02*
X24550D01*
X25300Y61700D01*
X23400Y61875D02*
X23425Y61900D01*
X42400Y59300D02*
Y68482D01*
X23425Y61900D02*
X24300D01*
X41100Y58700D02*
X41800D01*
X23400Y62950D02*
X24850D01*
X41800Y58700D02*
X42400Y59300D01*
X22650Y63500D02*
X25100D01*
X24850Y62950D02*
X25300Y62500D01*
X40974Y69908D02*
X42400Y68482D01*
X24300Y61900D02*
X25300Y60900D01*
D137*
X31850Y40480D02*
Y42288D01*
D139*
X40800Y11770D02*
X42870Y13840D01*
X33710Y11770D02*
X40800D01*
X42870Y13840D02*
Y36550D01*
X40180Y39240D02*
X42870Y36550D01*
X32300Y13180D02*
Y14400D01*
Y13180D02*
X33710Y11770D01*
X40180Y39240D02*
Y41520D01*
X28500Y29300D02*
X28643Y29443D01*
X23000Y23800D02*
X28500Y29300D01*
X28643Y33842D02*
X29881Y35080D01*
X33220Y23765D02*
Y29520D01*
X38841Y35141D01*
X23000Y18500D02*
Y23800D01*
X28643Y29443D02*
Y33842D01*
X33220Y18930D02*
Y19435D01*
X28690Y14400D02*
X33220Y18930D01*
X35900Y14300D02*
Y15642D01*
X37551Y17293D02*
Y19435D01*
X35900Y15642D02*
X37551Y17293D01*
D140*
X18730Y74090D02*
X20090D01*
D144*
X16943Y71949D02*
X17411D01*
D146*
X39600Y94700D02*
X41900D01*
X38677Y95623D02*
X39600Y94700D01*
X37916Y97500D02*
X38677Y96739D01*
Y95623D02*
Y96739D01*
X34530Y97500D02*
X37916D01*
X28760Y97500D02*
X34530Y97500D01*
D161*
X21000Y47484D02*
D03*
X16150Y56909D02*
D03*
X36016Y53850D02*
D03*
D162*
X21000Y45516D02*
D03*
X16150Y58878D02*
D03*
D164*
X35910Y14400D02*
D03*
X32300D02*
D03*
X28690D02*
D03*
X28760Y97530D02*
D03*
X25410Y94620D02*
D03*
X16630Y92520D02*
D03*
X31020Y90730D02*
D03*
X21190Y92520D02*
D03*
X28000Y86220D02*
D03*
X10723Y49466D02*
D03*
X7964D02*
D03*
X10723Y51434D02*
D03*
X7964D02*
D03*
X10723Y44366D02*
D03*
X7964D02*
D03*
X10723Y46334D02*
D03*
X7964D02*
D03*
X8906Y85244D02*
D03*
Y88196D02*
D03*
X10874Y85244D02*
D03*
Y88196D02*
D03*
X8906Y93454D02*
D03*
Y96406D02*
D03*
X10874Y93454D02*
D03*
Y96406D02*
D03*
X28576Y44007D02*
D03*
Y46766D02*
D03*
X30544Y44007D02*
D03*
Y46766D02*
D03*
X24266Y44007D02*
D03*
Y46766D02*
D03*
X26234Y44007D02*
D03*
Y46766D02*
D03*
X29881Y35080D02*
D03*
X38779D02*
D03*
D165*
X8340Y60730D02*
D03*
D166*
Y62230D02*
D03*
Y63730D02*
D03*
X41872Y94708D02*
D03*
D167*
X29927Y75722D02*
D03*
X8740Y82100D02*
D03*
X32260Y93100D02*
D03*
X35644Y82938D02*
D03*
Y87090D02*
D03*
X28470Y79110D02*
D03*
X35644Y88280D02*
D03*
X32650D02*
D03*
X31200Y79110D02*
D03*
X36650Y93100D02*
D03*
X12680Y82230D02*
D03*
D168*
X28580Y40230D02*
D03*
X25450Y77830D02*
D03*
X18370Y67890D02*
D03*
X14880Y62280D02*
D03*
X17790Y61100D02*
D03*
X11380Y63990D02*
D03*
Y61160D02*
D03*
X39540Y57130D02*
D03*
X31820Y40230D02*
D03*
D169*
X39884Y96696D02*
D03*
X43860D02*
D03*
Y92720D02*
D03*
X39884D02*
D03*
D170*
X30670Y68100D02*
D03*
X29670D02*
D03*
X30670Y66790D02*
D03*
X29670D02*
D03*
X30670Y65480D02*
D03*
X29670D02*
D03*
X29660Y64170D02*
D03*
X30660D02*
D03*
Y62860D02*
D03*
X29660D02*
D03*
X27450Y49710D02*
D03*
Y50710D02*
D03*
X27300Y74110D02*
D03*
X26300D02*
D03*
X33670Y86960D02*
D03*
X32670D02*
D03*
X32937Y79100D02*
D03*
X33937D02*
D03*
X19190Y65730D02*
D03*
Y66730D02*
D03*
X16460Y63060D02*
D03*
Y64060D02*
D03*
X41510Y52270D02*
D03*
Y53270D02*
D03*
X24936Y50589D02*
D03*
X23936D02*
D03*
X23900Y48870D02*
D03*
X24900D02*
D03*
X22350Y54384D02*
D03*
Y53384D02*
D03*
X15100Y44100D02*
D03*
Y43100D02*
D03*
D171*
X40974Y66884D02*
D03*
X33171Y71924D02*
D03*
Y72931D02*
D03*
X40974Y69908D02*
D03*
X33171Y74947D02*
D03*
Y70916D02*
D03*
Y69908D02*
D03*
Y68900D02*
D03*
Y67892D02*
D03*
Y66884D02*
D03*
Y65841D02*
D03*
Y64872D02*
D03*
Y63864D02*
D03*
Y62857D02*
D03*
Y61849D02*
D03*
Y60841D02*
D03*
X40974Y71924D02*
D03*
Y70916D02*
D03*
Y68900D02*
D03*
Y67892D02*
D03*
Y65841D02*
D03*
Y64872D02*
D03*
Y63864D02*
D03*
Y62857D02*
D03*
Y61849D02*
D03*
Y60841D02*
D03*
X33171Y73939D02*
D03*
Y75955D02*
D03*
D172*
X20525Y67331D02*
D03*
D173*
Y65331D02*
D03*
X21525Y66331D02*
D03*
D174*
X20047Y39760D02*
D03*
X12173D02*
D03*
X23000Y18500D02*
D03*
D175*
X16110D02*
D03*
D176*
X37984Y53850D02*
D03*
D177*
X27096Y54000D02*
D03*
D178*
X27884D02*
D03*
D179*
X28500Y29300D02*
D03*
Y26347D02*
D03*
D180*
X37551Y23765D02*
D03*
X33220D02*
D03*
X37551Y19435D02*
D03*
X33220D02*
D03*
D181*
X30640Y60140D02*
D03*
X34395Y61655D02*
D03*
X35660D02*
D03*
Y61180D02*
D03*
X34395D02*
D03*
X36650Y63870D02*
D03*
X36660Y60580D02*
D03*
X35650Y66810D02*
D03*
X28650Y71378D02*
D03*
X19960Y70340D02*
D03*
X24773Y55198D02*
D03*
X19360Y71560D02*
D03*
X19770Y71770D02*
D03*
X18760Y72820D02*
D03*
X35420Y77610D02*
D03*
X32096Y77562D02*
D03*
X35430Y76940D02*
D03*
X32120Y76870D02*
D03*
X36270Y67880D02*
D03*
X34009Y67877D02*
D03*
X24620Y74190D02*
D03*
X28730Y68640D02*
D03*
X28749Y64601D02*
D03*
X17411Y71949D02*
D03*
X23520Y53880D02*
D03*
X24200Y55200D02*
D03*
X25310Y56510D02*
D03*
X18280Y54800D02*
D03*
X29390Y41410D02*
D03*
X15630Y46930D02*
D03*
X38004Y70560D02*
D03*
X42050Y66380D02*
D03*
X41780Y66969D02*
D03*
X34050Y70550D02*
D03*
X35580Y70530D02*
D03*
X42370Y73030D02*
D03*
X34120Y66820D02*
D03*
X37840Y62450D02*
D03*
X37170Y62920D02*
D03*
X35660Y62130D02*
D03*
X34395D02*
D03*
X32075Y71944D02*
D03*
X32000Y69219D02*
D03*
X29425Y71644D02*
D03*
X30025Y69544D02*
D03*
X29225D02*
D03*
X18975Y53994D02*
D03*
X18038Y56331D02*
D03*
X12375Y49394D02*
D03*
Y47844D02*
D03*
X22245Y48194D02*
D03*
X19553Y49716D02*
D03*
X40835Y43253D02*
D03*
X41475Y42754D02*
D03*
X41415Y49074D02*
D03*
X39915Y48924D02*
D03*
X43055Y49804D02*
D03*
X41998Y48371D02*
D03*
X42975Y59594D02*
D03*
X42195Y57694D02*
D03*
X37840Y59694D02*
D03*
X37175D02*
D03*
X28540Y60827D02*
D03*
X27180D02*
D03*
X21159Y52174D02*
D03*
X17033Y66826D02*
D03*
X17030Y66320D02*
D03*
X15510Y66400D02*
D03*
X11640Y65090D02*
D03*
X12410Y65880D02*
D03*
X18060Y71540D02*
D03*
X16600Y73400D02*
D03*
X15999Y71999D02*
D03*
X12660Y66790D02*
D03*
X12900Y67700D02*
D03*
X13800Y68600D02*
D03*
X14645Y69445D02*
D03*
X15380Y70200D02*
D03*
X15980Y71000D02*
D03*
X16000Y73000D02*
D03*
X32562Y45533D02*
D03*
Y45873D02*
D03*
X32942D02*
D03*
Y45533D02*
D03*
X32130Y45179D02*
D03*
X31790D02*
D03*
X13650Y50630D02*
D03*
Y50970D02*
D03*
X14030D02*
D03*
Y50630D02*
D03*
X12790Y49940D02*
D03*
X13130D02*
D03*
X17190Y50970D02*
D03*
X15420Y50110D02*
D03*
X36180Y47220D02*
D03*
X36350Y45750D02*
D03*
X33972Y44787D02*
D03*
X17326Y47688D02*
D03*
X14500Y47600D02*
D03*
X19290Y49050D02*
D03*
X34417Y45948D02*
D03*
Y46548D02*
D03*
X15600Y51700D02*
D03*
Y51100D02*
D03*
X16050D02*
D03*
Y51700D02*
D03*
X34867Y45948D02*
D03*
X33967D02*
D03*
Y46548D02*
D03*
X34867D02*
D03*
X15150Y51700D02*
D03*
Y51100D02*
D03*
D182*
X31500Y57160D02*
D03*
X32550Y58210D02*
D03*
X33100Y58760D02*
D03*
X32000Y57710D02*
D03*
X29164Y58824D02*
D03*
X29714Y59374D02*
D03*
X28114Y57774D02*
D03*
X28614Y58324D02*
D03*
X21651Y79377D02*
D03*
X20864D02*
D03*
X26964Y68620D02*
D03*
X36190Y64730D02*
D03*
X38052Y67090D02*
D03*
X36770Y69180D02*
D03*
X17430Y63580D02*
D03*
X26540Y51290D02*
D03*
X22370Y52170D02*
D03*
Y50030D02*
D03*
X23720Y51530D02*
D03*
X32010Y78350D02*
D03*
X34570Y74130D02*
D03*
X34550Y74960D02*
D03*
X35159Y76057D02*
D03*
X27410Y88750D02*
D03*
Y89580D02*
D03*
Y90380D02*
D03*
X36600Y90030D02*
D03*
Y89230D02*
D03*
X29660Y91300D02*
D03*
X28060D02*
D03*
X28860D02*
D03*
X24330Y70780D02*
D03*
Y72330D02*
D03*
X20162Y76090D02*
D03*
X20961D02*
D03*
X19363D02*
D03*
X21760D02*
D03*
X20162Y75370D02*
D03*
X20961D02*
D03*
X19363D02*
D03*
X21760D02*
D03*
X21770Y74600D02*
D03*
X20971D02*
D03*
X20172D02*
D03*
X19373D02*
D03*
X35760Y50840D02*
D03*
X22620Y55370D02*
D03*
Y56126D02*
D03*
X27800Y56130D02*
D03*
X19130Y55440D02*
D03*
X19740Y64550D02*
D03*
X33320Y91340D02*
D03*
X34120D02*
D03*
X23920Y60430D02*
D03*
X41620Y54360D02*
D03*
X12450Y56190D02*
D03*
X22650Y62450D02*
D03*
X13140Y55570D02*
D03*
X13870Y64650D02*
D03*
Y63280D02*
D03*
Y63988D02*
D03*
X17546Y62150D02*
D03*
X12015Y52700D02*
D03*
X11347D02*
D03*
Y53400D02*
D03*
X37870Y57220D02*
D03*
X19340Y56220D02*
D03*
X18720Y57010D02*
D03*
X21320Y53070D02*
D03*
X33240Y79980D02*
D03*
X30997Y72012D02*
D03*
X30197Y72412D02*
D03*
X36197Y72012D02*
D03*
X36600Y74800D02*
D03*
Y74000D02*
D03*
X27408Y80640D02*
D03*
Y79766D02*
D03*
Y78891D02*
D03*
Y78016D02*
D03*
Y77142D02*
D03*
Y76267D02*
D03*
Y81515D02*
D03*
Y87638D02*
D03*
Y85014D02*
D03*
Y84139D02*
D03*
Y82390D02*
D03*
Y83264D02*
D03*
X36600Y76400D02*
D03*
Y75600D02*
D03*
Y77200D02*
D03*
Y78000D02*
D03*
Y78800D02*
D03*
Y79600D02*
D03*
Y80400D02*
D03*
Y81200D02*
D03*
Y82000D02*
D03*
Y83600D02*
D03*
Y82800D02*
D03*
Y84400D02*
D03*
Y85200D02*
D03*
Y86000D02*
D03*
Y86800D02*
D03*
Y87600D02*
D03*
Y88400D02*
D03*
X36520Y91340D02*
D03*
X35720D02*
D03*
X34920D02*
D03*
X13400Y46000D02*
D03*
X22290Y48950D02*
D03*
X20864Y80061D02*
D03*
X21651D02*
D03*
X20864Y78693D02*
D03*
X32160Y85310D02*
D03*
X19000Y46630D02*
D03*
X32600Y42400D02*
D03*
X13150Y56190D02*
D03*
X12015Y53400D02*
D03*
X13140Y54820D02*
D03*
X41620Y55160D02*
D03*
X30213Y48185D02*
D03*
Y48895D02*
D03*
X30933Y48907D02*
D03*
Y48197D02*
D03*
X35350Y42730D02*
D03*
X19450Y61050D02*
D03*
X22650Y63500D02*
D03*
X23400Y61875D02*
D03*
X25100Y73100D02*
D03*
X41100Y58700D02*
D03*
X21651Y78693D02*
D03*
X20257Y42955D02*
D03*
X23400Y62950D02*
D03*
X25100Y58200D02*
D03*
X26700Y59800D02*
D03*
X30550Y58850D02*
D03*
X21450Y67300D02*
D03*
X25300Y60900D02*
D03*
Y61700D02*
D03*
Y62500D02*
D03*
Y63300D02*
D03*
X29500Y57800D02*
D03*
X31100Y59400D02*
D03*
X39890Y46580D02*
D03*
X18140Y63580D02*
D03*
X21657Y42955D02*
D03*
X19950Y50300D02*
D03*
X19970Y53400D02*
D03*
X20500Y52850D02*
D03*
X23290Y53230D02*
D03*
X22200Y69350D02*
D03*
X26150Y59250D02*
D03*
X33240Y80620D02*
D03*
X34060Y79980D02*
D03*
Y80620D02*
D03*
X39890Y43680D02*
D03*
X39650Y84000D02*
D03*
X23290Y52400D02*
D03*
X25600Y58750D02*
D03*
X30000Y58350D02*
D03*
X18850Y53250D02*
D03*
X42060Y84000D02*
D03*
D183*
X21521Y72510D02*
D03*
Y73010D02*
D03*
Y73510D02*
D03*
Y74010D02*
D03*
X19419Y73510D02*
D03*
Y73010D02*
D03*
Y72510D02*
D03*
Y74010D02*
D03*
M02*
