M48
;Layer_Color=9474304
;FILE_FORMAT=2:4
INCH,TZ
;TYPE=PLATED
T1F00S00C0.0140
T2F00S00C0.0260
T3F00S00C0.0276
T4F00S00C0.0280
T5F00S00C0.0360
T6F00S00C0.0394
T7F00S00C0.0433
T8F00S00C0.0472
T9F00S00C0.0494
T10F00S00C0.0591
T11F00S00C0.0630
T12F00S00C0.0728
T13F00S00C0.0984
T14F00S00C0.1181
;TYPE=NON_PLATED
T15F00S00C0.1252
T16F00S00C0.1654
%
T01
X29390Y41410
X31790Y45179
X32130
X32562Y45533
Y45873
X32942
Y45533
X33967Y45948
X34417
X34867
Y46548
X34417
X33967
X33972Y44787
X36350Y45750
X40835Y43253
X41475Y42754
X41998Y48371
X41415Y49074
X39915Y48924
X43055Y49804
X42195Y57694
X42975Y59594
X37840Y59694
X37175
X36660Y60580
X35660Y61180
Y61655
Y62130
X34395
Y61655
Y61180
X37840Y62450
X36180Y47220
X22245Y48194
X19290Y49050
X19553Y49716
X17190Y50970
X16050Y51100
Y51700
X15630Y46930
X17326Y47688
X18975Y53994
X18280Y54800
X18038Y56331
X21159Y52174
X23520Y53880
X24200Y55200
X24773Y55198
X25310Y56510
X27180Y60827
X28540
X30640Y60140
X15600Y51700
X15150
Y51100
X15600
X15420Y50110
X14030Y50630
Y50970
X13650
Y50630
X13130Y49940
X12790
X12375Y49394
Y47844
X14500Y47600
X15510Y66400
X12660Y66790
X12900Y67700
X13800Y68600
X14645Y69445
X15380Y70200
X12410Y65880
X11640Y65090
X17030Y66320
X17033Y66826
X15980Y71000
X15999Y71999
X16000Y73000
X16600Y73400
X17411Y71949
X18060Y71540
X19360Y71560
X19770Y71770
X19960Y70340
X18760Y72820
X24620Y74190
X28650Y71378
X29425Y71644
X29225Y69544
X30025
X28730Y68640
X28749Y64601
X34120Y66820
X34009Y67877
X36270Y67880
X35650Y66810
X35580Y70530
X34050Y70550
X32075Y71944
X32000Y69219
X38004Y70560
X42370Y73030
X41780Y66969
X42050Y66380
X36650Y63870
X37170Y62920
X35430Y76940
X35420Y77610
X32096Y77562
X32120Y76870
T02
X20525Y65331
Y67331
X21525Y66331
T03
X21000Y45516
X36016Y53850
X37984
X27884Y54000
X27096
X21000Y47484
X16150Y56909
Y58878
T04
X13400Y46000
X19000Y46630
X20257Y42955
X21657
X32600Y42400
X35350Y42730
X39890Y43680
Y46580
X35760Y50840
X37870Y57220
X41100Y58700
X41620Y55160
Y54360
X31500Y57160
X32000Y57710
X32550Y58210
X33100Y58760
X30550Y58850
X30000Y58350
X29500Y57800
X29164Y58824
X28614Y58324
X28114Y57774
X27800Y56130
X25100Y58200
X25600Y58750
X26150Y59250
X26700Y59800
X25300Y60900
Y61700
X23400Y61875
X22650Y62450
X23920Y60430
X19450Y61050
X17546Y62150
X18720Y57010
X19340Y56220
X19130Y55440
X18850Y53250
X19970Y53400
X20500Y52850
X21320Y53070
X22370Y52170
X23290Y52400
Y53230
X23720Y51530
X22370Y50030
X22290Y48950
X19950Y50300
X26540Y51290
X30213Y48895
Y48185
X30933Y48197
Y48907
X31100Y59400
X29714Y59374
X22620Y56126
Y55370
X13140Y55570
X13150Y56190
X12450
X13140Y54820
X12015Y53400
X11347
Y52700
X12015
X13870Y63280
Y63988
Y64650
X17430Y63580
X18140
X19740Y64550
X22650Y63500
X23400Y62950
X25300Y63300
Y62500
X26964Y68620
X24330Y70780
Y72330
X25100Y73100
X21770Y74600
X21760Y75370
Y76090
X20961
Y75370
X20971Y74600
X20172
X20162Y75370
Y76090
X19363
Y75370
X19373Y74600
X22200Y69350
X21450Y67300
X30197Y72412
X30997Y72012
X27408Y76267
Y77142
Y78016
X36600Y78000
Y77200
Y76400
Y75600
Y74800
Y74000
X34570Y74130
X34550Y74960
X35159Y76057
X36197Y72012
X36770Y69180
X38052Y67090
X36190Y64730
X36600Y78800
Y79600
Y80400
Y81200
Y82000
Y82800
Y83600
Y84400
Y85200
Y86000
Y86800
Y87600
Y88400
Y89230
Y90030
X36520Y91340
X35720
X34920
X34120
X33320
X32160Y85310
X33240Y80620
Y79980
X34060
Y80620
X32010Y78350
X39650Y84000
X42060
X27408Y84139
Y85014
Y83264
Y82390
Y81515
Y80640
Y79766
Y78891
X21651Y78693
Y79377
Y80061
X20864
Y79377
Y78693
X27408Y87638
X27410Y88750
Y89580
Y90380
X28060Y91300
X28860
X29660
T05
X15100Y43100
Y44100
X41510Y52270
Y53270
X27450Y50710
Y49710
X24900Y48870
X23900
X23936Y50589
X24936
X22350Y53384
Y54384
X19190Y65730
Y66730
X16460Y64060
Y63060
X29660Y62860
X30660
Y64170
X29660
X29670Y65480
X30670
Y66790
X29670
Y68100
X30670
X27300Y74110
X26300
X32937Y79100
X33937
X33670Y86960
X32670
T06
X33171Y60841
Y61849
X40974
Y60841
Y62857
Y63864
Y64872
Y65841
Y66884
Y67892
Y68900
Y69908
Y70916
Y71924
X33171
Y72931
Y73939
Y74947
Y75955
Y70916
Y69908
Y68900
Y67892
Y66884
Y65841
Y64872
Y63864
Y62857
T07
X8340Y60730
Y62230
Y63730
X41872Y94708
T08
X39884Y92720
X43860
Y96696
X39884
T09
X16110Y18500
X23000
X12173Y39760
X20047
T10
X16630Y92520
X21190
X31020Y90730
X28000Y86220
X25410Y94620
X28760Y97530
T11
X28500Y26347
Y29300
X29881Y35080
X28580Y40230
X31820
X38779Y35080
X39540Y57130
X17790Y61100
X14880Y62280
X11380Y61160
Y63990
X18370Y67890
X25450Y77830
X29927Y75722
X35644Y82938
Y87090
Y88280
X32650
X32260Y93100
X36650
X31200Y79110
X28470
X12680Y82230
X8740Y82100
T12
X7964Y44366
Y46334
X10723
Y44366
X24266Y44007
X26234
X28576
X30544
Y46766
X28576
X26234
X24266
X10723Y49466
Y51434
X7964
Y49466
X8906Y85244
X10874
Y88196
X8906
Y93454
X10874
Y96406
X8906
T13
X33220Y19435
Y23765
X37551
Y19435
T14
X28690Y14400
X32300
X35910
T15
X10405Y67410
X25310Y82316
T16
X10921Y14938
X40449
X24040Y85120
Y90040
X10921Y98425
X20150Y98380
X22300Y94670
X40449Y98425
M30
