G04*
G04 #@! TF.GenerationSoftware,Altium Limited,Altium Designer,21.0.9 (235)*
G04*
G04 Layer_Color=65535*
%FSLAX24Y24*%
%MOIN*%
G70*
G04*
G04 #@! TF.SameCoordinates,2D4ACE21-508C-4F28-9509-530EA4604CDE*
G04*
G04*
G04 #@! TF.FilePolarity,Positive*
G04*
G01*
G75*
%ADD10C,0.0079*%
%ADD11C,0.0050*%
%ADD12C,0.0079*%
%ADD13C,0.0039*%
%ADD14C,0.0000*%
%ADD15C,0.0118*%
%ADD16C,0.0120*%
%ADD17C,0.0157*%
%ADD18C,0.0039*%
%ADD19C,0.0060*%
%ADD20C,0.0060*%
%ADD21C,0.0020*%
%ADD22C,0.0010*%
%ADD23C,0.0100*%
%ADD24C,0.0070*%
%ADD25C,0.0059*%
%ADD26C,0.0091*%
G36*
X16411Y50075D02*
X16561D01*
Y50175D01*
X16411D01*
Y50075D01*
D01*
D02*
G37*
G36*
X14180Y51817D02*
X14080D01*
Y51967D01*
X14180D01*
Y51817D01*
D01*
D02*
G37*
G36*
X16214Y52725D02*
X16364D01*
Y52625D01*
X16214D01*
Y52725D01*
D01*
D02*
G37*
G36*
X33012Y46649D02*
X32912D01*
Y46799D01*
X33012D01*
Y46649D01*
D01*
D02*
G37*
G36*
X35243Y44907D02*
X35393D01*
Y45006D01*
X35243D01*
Y44907D01*
D01*
D02*
G37*
G36*
X35047Y47557D02*
X35196D01*
Y47456D01*
X35047D01*
Y47557D01*
D01*
D02*
G37*
D10*
X21039Y44216D02*
G03*
X21039Y44216I-39J0D01*
G01*
X16189Y60650D02*
G03*
X16189Y60650I-39J0D01*
G01*
X39795Y53850D02*
G03*
X39795Y53850I-39J0D01*
G01*
D11*
X22968Y46500D02*
G03*
X22968Y46500I-1969J0D01*
G01*
X29706Y92400D02*
G03*
X29706Y92400I-5906J0D01*
G01*
X27737D02*
G03*
X27737Y92400I-3937J0D01*
G01*
X18611Y57894D02*
G03*
X18611Y57894I-2461J0D01*
G01*
X39461Y53850D02*
G03*
X39461Y53850I-2461J0D01*
G01*
X28474Y54000D02*
G03*
X28474Y54000I-984J0D01*
G01*
X39157Y36241D02*
G03*
X39157Y36241I-142J0D01*
G01*
X38205Y6132D02*
Y14400D01*
X26395Y6132D02*
X38205D01*
X26395D02*
Y14400D01*
X6900Y52250D02*
X11787D01*
X11800Y48678D01*
X6900D02*
Y52250D01*
Y48678D02*
X11800D01*
X6900Y47150D02*
X11787D01*
X11800Y43578D01*
X6900D02*
Y47150D01*
Y43578D02*
X11800D01*
X6726Y59982D02*
X9954D01*
X6726D02*
Y64478D01*
X9954D01*
Y59982D02*
Y64478D01*
X26806Y52223D02*
Y52397D01*
X26254Y52223D02*
Y52397D01*
X25956Y52213D02*
Y52387D01*
X25404Y52213D02*
Y52387D01*
X17400Y85291D02*
Y85409D01*
X18660Y85291D02*
Y85409D01*
X33652Y77721D02*
Y77799D01*
X34188Y77721D02*
Y77799D01*
X39470Y92307D02*
Y94708D01*
Y97110D01*
X44273D01*
Y92307D02*
Y97110D01*
X39470Y92307D02*
X44273D01*
X7288Y84350D02*
Y89075D01*
Y84350D02*
X10832D01*
Y89075D01*
X7288D02*
X10832D01*
X7288Y92560D02*
Y97285D01*
Y92560D02*
X10832D01*
Y97285D01*
X7288D02*
X10832D01*
X13400Y85291D02*
Y85409D01*
X14660Y85291D02*
Y85409D01*
X13400Y83291D02*
Y83409D01*
X14660Y83291D02*
Y83409D01*
X26143Y71074D02*
X26317D01*
X26143Y71626D02*
X26317D01*
X24393Y53604D02*
X24567D01*
X24393Y54156D02*
X24567D01*
X21895Y65010D02*
Y67652D01*
X20123Y65010D02*
X21895D01*
X20123D02*
Y67652D01*
X21895D01*
X22932Y59796D02*
X23105D01*
X22932Y59245D02*
X23105D01*
X21215Y58684D02*
X21381D01*
X21215Y59236D02*
X21381D01*
X37014Y58243D02*
Y58417D01*
X37566Y58243D02*
Y58417D01*
X38712Y47865D02*
X38886D01*
X38712Y47314D02*
X38886D01*
X17747Y53556D02*
X17920D01*
X17747Y53004D02*
X17920D01*
X15354Y47993D02*
Y48167D01*
X15906Y47993D02*
Y48167D01*
X17266Y46048D02*
Y46552D01*
X16574Y46048D02*
Y46552D01*
X30220Y42396D02*
X30393D01*
X30220Y41844D02*
X30393D01*
X30220Y41144D02*
X30393D01*
X30220Y41696D02*
X30393D01*
X29404Y61460D02*
Y61633D01*
X29956Y61460D02*
Y61633D01*
X17876Y72892D02*
X18042D01*
X17876Y72765D02*
Y72892D01*
Y72384D02*
X18042D01*
X17876D02*
Y72511D01*
X18375Y72384D02*
X18541D01*
Y72511D01*
X18375Y72892D02*
X18541D01*
Y72765D02*
Y72892D01*
X10405Y54339D02*
X11665D01*
X10405Y59261D02*
X11665D01*
X6744D02*
X8004D01*
X6744Y54339D02*
X8004D01*
X11665D02*
Y59261D01*
X6744Y54339D02*
Y59261D01*
X32801Y49930D02*
X34061D01*
X32801Y54851D02*
X34061D01*
X29139D02*
X30399D01*
X29139Y49930D02*
X30399D01*
X34061D02*
Y54851D01*
X29139Y49930D02*
Y54851D01*
X7260Y16929D02*
X24961D01*
Y41331D01*
X7260D02*
X24961D01*
X7260Y16929D02*
Y41331D01*
X18933Y70094D02*
X19107D01*
X18933Y70646D02*
X19107D01*
X16952Y75847D02*
Y75965D01*
X18251D01*
X16952Y73761D02*
X18251D01*
X16952D02*
Y73879D01*
X42336Y82717D02*
Y82883D01*
X41784Y82717D02*
Y82883D01*
X39950Y82717D02*
Y82883D01*
X39399Y82717D02*
Y82883D01*
X21400Y85291D02*
Y85409D01*
X22660Y85291D02*
Y85409D01*
X19400Y85291D02*
Y85409D01*
X20660Y85291D02*
Y85409D01*
X16660Y85291D02*
Y85409D01*
X15400Y85291D02*
Y85409D01*
X21400Y83291D02*
Y83409D01*
X22660Y83291D02*
Y83409D01*
X19400Y83291D02*
Y83409D01*
X20660Y83291D02*
Y83409D01*
X18660Y83291D02*
Y83409D01*
X17400Y83291D02*
Y83409D01*
X16660Y83291D02*
Y83409D01*
X15400Y83291D02*
Y83409D01*
X28647Y74366D02*
X28813D01*
X28647Y73814D02*
X28813D01*
X38756Y58243D02*
Y58417D01*
X38204Y58243D02*
Y58417D01*
X22738Y67626D02*
X22912D01*
X22738Y67074D02*
X22912D01*
X22738Y68576D02*
X22912D01*
X22738Y68024D02*
X22912D01*
X22213Y64526D02*
X22387D01*
X22213Y63974D02*
X22387D01*
X15537Y65726D02*
X15703D01*
X15537Y65174D02*
X15703D01*
X35494Y49675D02*
Y50085D01*
X34786Y49675D02*
Y50085D01*
X36603Y50489D02*
X36777D01*
X36603Y51040D02*
X36777D01*
X38703Y46304D02*
X38877D01*
X38703Y46856D02*
X38877D01*
X35544Y43743D02*
Y43917D01*
X36096Y43743D02*
Y43917D01*
X34584Y43743D02*
Y43917D01*
X35136Y43743D02*
Y43917D01*
X34216Y43743D02*
Y43917D01*
X33664Y43743D02*
Y43917D01*
X24393Y53456D02*
X24567D01*
X24393Y52904D02*
X24567D01*
X22666Y50973D02*
Y51147D01*
X22114Y50973D02*
Y51147D01*
X13866Y52459D02*
Y52641D01*
X12764Y52459D02*
Y52641D01*
X14207Y48967D02*
X14380D01*
X14207Y49518D02*
X14380D01*
X14213Y48642D02*
X14387D01*
X14213Y48091D02*
X14387D01*
X14096Y43298D02*
Y43802D01*
X13404Y43298D02*
Y43802D01*
X31360Y42943D02*
Y47830D01*
X27788Y42930D02*
X31360Y42943D01*
X27788Y47830D02*
X31360D01*
X27788Y42930D02*
Y47830D01*
X27050Y42943D02*
Y47830D01*
X23478Y42930D02*
X27050Y42943D01*
X23478Y47830D02*
X27050D01*
X23478Y42930D02*
Y47830D01*
X29212Y36852D02*
X39448D01*
X29212Y33308D02*
X39448D01*
X29212D02*
Y36852D01*
X39448Y33308D02*
Y36852D01*
X26728Y24674D02*
X30272D01*
X26728Y30973D02*
X30272D01*
Y24674D02*
Y30973D01*
X26728Y24674D02*
Y30973D01*
X14513Y45474D02*
X14687D01*
X14513Y46026D02*
X14687D01*
X14507Y47076D02*
X14680D01*
X14507Y46524D02*
X14680D01*
X14145Y54488D02*
X14555D01*
X14145Y55197D02*
X14555D01*
X18158Y48700D02*
X18324D01*
X18158Y48149D02*
X18324D01*
X18253Y49024D02*
X18427D01*
X18253Y49576D02*
X18427D01*
X18263Y50274D02*
X18437D01*
X18263Y50826D02*
X18437D01*
X32316Y43743D02*
Y43917D01*
X31764Y43743D02*
Y43917D01*
X32789Y43762D02*
Y43935D01*
X33340Y43762D02*
Y43935D01*
X38710Y43404D02*
X38883D01*
X38710Y43956D02*
X38883D01*
X38710Y44280D02*
X38883D01*
X38710Y44831D02*
X38883D01*
X38703Y45354D02*
X38877D01*
X38703Y45906D02*
X38877D01*
X16260Y61864D02*
X16433D01*
X16260Y62416D02*
X16433D01*
X31595Y47909D02*
Y48091D01*
X32698Y47909D02*
Y48091D01*
X18063Y51249D02*
X18237D01*
X18063Y51800D02*
X18237D01*
X18013Y52124D02*
X18187D01*
X18013Y52676D02*
X18187D01*
D12*
X6529Y60730D02*
G03*
X6529Y60730I-39J0D01*
G01*
X39273Y94826D02*
G03*
X39273Y94826I-39J0D01*
G01*
X18091Y72267D02*
G03*
X18091Y72267I-39J0D01*
G01*
X30570Y87360D02*
X31085D01*
X30570D02*
Y89340D01*
X31480D01*
Y87360D02*
Y89340D01*
X31085Y87360D02*
X31480D01*
D13*
X26457Y81214D02*
G03*
X24133Y83385I-1147J1102D01*
G01*
X9258Y68512D02*
G03*
X11582Y66341I1147J-1102D01*
G01*
X38338Y17466D02*
Y25734D01*
X32433Y17466D02*
Y25734D01*
Y17466D02*
X38338D01*
X32433Y25734D02*
X38338D01*
D14*
X24480Y56300D02*
G03*
X24720Y56300I120J0D01*
G01*
X34220Y80970D02*
G03*
X33980Y80970I-120J0D01*
G01*
X28140Y54400D02*
G03*
X28140Y54400I-100J0D01*
G01*
X18158Y43129D02*
G03*
X18158Y43129I-71J0D01*
G01*
X27852Y25737D02*
G03*
X27852Y25737I-120J0D01*
G01*
X16367Y44487D02*
X18233D01*
X16367Y42913D02*
X18233D01*
D15*
X20525Y67984D02*
G03*
X20525Y67984I-39J0D01*
G01*
D16*
X15730Y67270D02*
G03*
X15730Y67270I-50J0D01*
G01*
X35650Y81300D02*
G03*
X35650Y81300I-50J0D01*
G01*
X23050Y56500D02*
G03*
X23050Y56500I-50J0D01*
G01*
X21034Y64136D02*
G03*
X21034Y64136I-50J0D01*
G01*
D17*
X16173Y15768D02*
G03*
X16173Y15768I-79J0D01*
G01*
X41577Y18182D02*
X41445Y18051D01*
Y17789D01*
X41577Y17657D01*
X42101D01*
X42233Y17789D01*
Y18051D01*
X42101Y18182D01*
X41839D01*
Y17920D01*
X42233Y18445D02*
X41445D01*
X41708Y18707D01*
X41445Y18969D01*
X42233D01*
X41445Y19757D02*
Y19232D01*
X42233D01*
Y19757D01*
X41839Y19232D02*
Y19494D01*
Y20019D02*
Y20544D01*
X41445Y20806D02*
Y21068D01*
Y20937D01*
X42233D01*
Y20806D01*
Y21068D01*
X41445Y21462D02*
Y21724D01*
Y21593D01*
X42233D01*
Y21462D01*
Y21724D01*
X41445Y22643D02*
Y22118D01*
X42233D01*
Y22643D01*
X41839Y22118D02*
Y22380D01*
Y22905D02*
Y23430D01*
X41445Y24217D02*
Y23692D01*
X41839D01*
Y23955D01*
Y23692D01*
X42233D01*
X41445Y24479D02*
Y24742D01*
Y24611D01*
X42233D01*
Y24479D01*
Y24742D01*
Y25135D02*
X41445D01*
X42233Y25660D01*
X41445D01*
X41577Y26447D02*
X41445Y26316D01*
Y26054D01*
X41577Y25923D01*
X42101D01*
X42233Y26054D01*
Y26316D01*
X42101Y26447D01*
X41839D01*
Y26185D01*
Y26710D02*
Y27234D01*
X41445Y27497D02*
X42101D01*
X42233Y27628D01*
Y27890D01*
X42101Y28022D01*
X41445D01*
Y28809D02*
X42233D01*
Y28415D01*
X42101Y28284D01*
X41839D01*
X41708Y28415D01*
Y28809D01*
X42233Y29465D02*
Y29202D01*
X42101Y29071D01*
X41839D01*
X41708Y29202D01*
Y29465D01*
X41839Y29596D01*
X41970D01*
Y29071D01*
X42233Y29858D02*
Y30121D01*
Y29989D01*
X41445D01*
Y29858D01*
X41708Y30645D02*
Y30908D01*
X41839Y31039D01*
X42233D01*
Y30645D01*
X42101Y30514D01*
X41970Y30645D01*
Y31039D01*
X42233Y31301D02*
X41445D01*
Y31695D01*
X41577Y31826D01*
X41839D01*
X41970Y31695D01*
Y31301D01*
Y31564D02*
X42233Y31826D01*
Y32876D02*
X41708D01*
X41445Y33138D01*
X41708Y33400D01*
X42233D01*
X41839D01*
Y32876D01*
X42233Y33663D02*
X41445D01*
X42233Y34188D01*
X41445D01*
Y34450D02*
Y34712D01*
Y34581D01*
X42233D01*
Y34450D01*
Y34712D01*
X41445Y35106D02*
Y35368D01*
Y35237D01*
X42233D01*
Y35106D01*
Y35368D01*
X42963Y16452D02*
Y15927D01*
X43357D01*
Y16190D01*
Y15927D01*
X43750D01*
Y16715D02*
X42963D01*
X43225Y16977D01*
X42963Y17239D01*
X43750D01*
X42963Y17502D02*
X43488D01*
X43750Y17764D01*
X43488Y18027D01*
X42963D01*
X43750Y19076D02*
Y19338D01*
Y19207D01*
X42963D01*
X43094Y19076D01*
Y19732D02*
X42963Y19863D01*
Y20126D01*
X43094Y20257D01*
X43225D01*
X43357Y20126D01*
Y19994D01*
Y20126D01*
X43488Y20257D01*
X43619D01*
X43750Y20126D01*
Y19863D01*
X43619Y19732D01*
X42963Y21044D02*
X43094Y20782D01*
X43357Y20519D01*
X43619D01*
X43750Y20650D01*
Y20913D01*
X43619Y21044D01*
X43488D01*
X43357Y20913D01*
Y20519D01*
X42963Y21306D02*
Y21831D01*
X43094D01*
X43619Y21306D01*
X43750D01*
Y22487D02*
X42963D01*
X43357Y22093D01*
Y22618D01*
X43094Y22881D02*
X42963Y23012D01*
Y23274D01*
X43094Y23405D01*
X43619D01*
X43750Y23274D01*
Y23012D01*
X43619Y22881D01*
X43094D01*
X43750Y24717D02*
X43488Y24455D01*
X43225D01*
X42963Y24717D01*
Y25111D02*
Y25373D01*
Y25242D01*
X43750D01*
Y25111D01*
Y25373D01*
X43094Y25767D02*
X42963Y25898D01*
Y26160D01*
X43094Y26292D01*
X43225D01*
X43357Y26160D01*
Y26029D01*
Y26160D01*
X43488Y26292D01*
X43619D01*
X43750Y26160D01*
Y25898D01*
X43619Y25767D01*
X43750Y26554D02*
X43488Y26816D01*
X43225D01*
X42963Y26554D01*
X43357Y27210D02*
Y27735D01*
X43750Y27997D02*
X42963D01*
Y28391D01*
X43094Y28522D01*
X43357D01*
X43488Y28391D01*
Y27997D01*
X42963Y29309D02*
Y28784D01*
X43357D01*
Y29047D01*
Y28784D01*
X43750D01*
X43094Y30096D02*
X42963Y29965D01*
Y29703D01*
X43094Y29571D01*
X43619D01*
X43750Y29703D01*
Y29965D01*
X43619Y30096D01*
X42963Y31146D02*
X43750D01*
X43488Y31408D01*
X43750Y31670D01*
X42963D01*
X43750Y31933D02*
Y32195D01*
Y32064D01*
X43225D01*
Y31933D01*
X43094Y33114D02*
X42963Y32982D01*
Y32720D01*
X43094Y32589D01*
X43619D01*
X43750Y32720D01*
Y32982D01*
X43619Y33114D01*
X42963Y33376D02*
X43750D01*
X43357D01*
X43225Y33507D01*
Y33770D01*
X43357Y33901D01*
X43750D01*
X43225Y34294D02*
Y34557D01*
X43357Y34688D01*
X43750D01*
Y34294D01*
X43619Y34163D01*
X43488Y34294D01*
Y34688D01*
X43225Y34950D02*
X43750D01*
X43488D01*
X43357Y35081D01*
X43225Y35213D01*
Y35344D01*
X44013Y36000D02*
Y36131D01*
X43881Y36262D01*
X43225D01*
Y35869D01*
X43357Y35737D01*
X43619D01*
X43750Y35869D01*
Y36262D01*
Y36918D02*
Y36656D01*
X43619Y36525D01*
X43357D01*
X43225Y36656D01*
Y36918D01*
X43357Y37049D01*
X43488D01*
Y36525D01*
D18*
X20945Y64136D02*
G03*
X20984Y64136I20J0D01*
G01*
D02*
G03*
X20945Y64136I-20J0D01*
G01*
X19409Y61734D02*
X20591D01*
X18583Y61773D02*
Y63781D01*
X21417Y61773D02*
Y63742D01*
X19409Y63781D02*
X20591D01*
D19*
X36750Y14400D02*
X38150D01*
X33150D02*
X35050D01*
X29500D02*
X31450D01*
X26400D02*
X27850D01*
D20*
X31070Y68600D02*
X31170Y68500D01*
X29170D02*
X29270Y68600D01*
X30070D02*
X30170Y68500D01*
X30270Y68600D01*
X29270D02*
X30070D01*
X30270D02*
X31070D01*
X31170Y67700D02*
Y68500D01*
X31070Y67600D02*
X31170Y67700D01*
X29170D02*
X29270Y67600D01*
X30070D02*
X30170Y67700D01*
X30270Y67600D01*
X29270D02*
X30070D01*
X30270D02*
X31070D01*
X29170Y67700D02*
Y68500D01*
X31070Y67290D02*
X31170Y67190D01*
X29170D02*
X29270Y67290D01*
X30070D02*
X30170Y67190D01*
X30270Y67290D01*
X29270D02*
X30070D01*
X30270D02*
X31070D01*
X31170Y66390D02*
Y67190D01*
X31070Y66290D02*
X31170Y66390D01*
X29170D02*
X29270Y66290D01*
X30070D02*
X30170Y66390D01*
X30270Y66290D01*
X29270D02*
X30070D01*
X30270D02*
X31070D01*
X29170Y66390D02*
Y67190D01*
X31070Y65980D02*
X31170Y65880D01*
X29170D02*
X29270Y65980D01*
X30070D02*
X30170Y65880D01*
X30270Y65980D01*
X29270D02*
X30070D01*
X30270D02*
X31070D01*
X31170Y65080D02*
Y65880D01*
X31070Y64980D02*
X31170Y65080D01*
X29170D02*
X29270Y64980D01*
X30070D02*
X30170Y65080D01*
X30270Y64980D01*
X29270D02*
X30070D01*
X30270D02*
X31070D01*
X29170Y65080D02*
Y65880D01*
X29160Y63770D02*
Y64570D01*
X30260Y63670D02*
X31060D01*
X29260D02*
X30060D01*
X30160Y63770D02*
X30260Y63670D01*
X30060D02*
X30160Y63770D01*
X29160D02*
X29260Y63670D01*
X31060D02*
X31160Y63770D01*
Y64570D01*
X30260Y64670D02*
X31060D01*
X29260D02*
X30060D01*
X30160Y64570D02*
X30260Y64670D01*
X30060D02*
X30160Y64570D01*
X29160D02*
X29260Y64670D01*
X31060D02*
X31160Y64570D01*
X31060Y63360D02*
X31160Y63260D01*
X29160D02*
X29260Y63360D01*
X30060D02*
X30160Y63260D01*
X30260Y63360D01*
X29260D02*
X30060D01*
X30260D02*
X31060D01*
X31160Y62460D02*
Y63260D01*
X31060Y62360D02*
X31160Y62460D01*
X29160D02*
X29260Y62360D01*
X30060D02*
X30160Y62460D01*
X30260Y62360D01*
X29260D02*
X30060D01*
X30260D02*
X31060D01*
X29160Y62460D02*
Y63260D01*
X23900Y56300D02*
X24480D01*
X24720D01*
X25300D01*
X23900Y54300D02*
X25300D01*
X27050Y49210D02*
X27850D01*
X27950Y50310D02*
Y51110D01*
Y49310D02*
Y50110D01*
X27850Y50210D02*
X27950Y50310D01*
X27850Y50210D02*
X27950Y50110D01*
X27850Y49210D02*
X27950Y49310D01*
X27850Y51210D02*
X27950Y51110D01*
X27050Y51210D02*
X27850D01*
X26950Y50310D02*
Y51110D01*
Y49310D02*
Y50110D01*
Y50310D02*
X27050Y50210D01*
X26950Y50110D02*
X27050Y50210D01*
X26950Y49310D02*
X27050Y49210D01*
X26950Y51110D02*
X27050Y51210D01*
X16300Y65984D02*
X17620D01*
X16300Y67304D02*
X17620D01*
X27700Y74610D02*
X27800Y74510D01*
X25800D02*
X25900Y74610D01*
X26700D02*
X26800Y74510D01*
X26900Y74610D01*
X25900D02*
X26700D01*
X26900D02*
X27700D01*
X27800Y73710D02*
Y74510D01*
X27700Y73610D02*
X27800Y73710D01*
X25800D02*
X25900Y73610D01*
X26700D02*
X26800Y73710D01*
X26900Y73610D01*
X25900D02*
X26700D01*
X26900D02*
X27700D01*
X25800Y73710D02*
Y74510D01*
X34070Y87460D02*
X34170Y87360D01*
X32170D02*
X32270Y87460D01*
X33070D02*
X33170Y87360D01*
X33270Y87460D01*
X32270D02*
X33070D01*
X33270D02*
X34070D01*
X34170Y86560D02*
Y87360D01*
X34070Y86460D02*
X34170Y86560D01*
X32170D02*
X32270Y86460D01*
X33070D02*
X33170Y86560D01*
X33270Y86460D01*
X32270D02*
X33070D01*
X33270D02*
X34070D01*
X32170Y86560D02*
Y87360D01*
X32437Y78700D02*
X32537Y78600D01*
X34337D02*
X34437Y78700D01*
X33437D02*
X33537Y78600D01*
X33337D02*
X33437Y78700D01*
X33537Y78600D02*
X34337D01*
X32537D02*
X33337D01*
X32437Y78700D02*
Y79500D01*
X32537Y79600D01*
X34337D02*
X34437Y79500D01*
X33437D02*
X33537Y79600D01*
X33337D02*
X33437Y79500D01*
X33537Y79600D02*
X34337D01*
X32537D02*
X33337D01*
X34437Y78700D02*
Y79500D01*
X19590Y65230D02*
X19690Y65330D01*
X19590Y67230D02*
X19690Y67130D01*
X19590Y66230D02*
X19690Y66330D01*
X19590Y66230D02*
X19690Y66130D01*
Y66330D02*
Y67130D01*
Y65330D02*
Y66130D01*
X18790Y65230D02*
X19590D01*
X18690Y65330D02*
X18790Y65230D01*
X18690Y67130D02*
X18790Y67230D01*
X18690Y66330D02*
X18790Y66230D01*
X18690Y66130D02*
X18790Y66230D01*
X18690Y66330D02*
Y67130D01*
Y65330D02*
Y66130D01*
X18790Y67230D02*
X19590D01*
X16860Y62560D02*
X16960Y62660D01*
X16860Y64560D02*
X16960Y64460D01*
X16860Y63560D02*
X16960Y63660D01*
X16860Y63560D02*
X16960Y63460D01*
Y63660D02*
Y64460D01*
Y62660D02*
Y63460D01*
X16060Y62560D02*
X16860D01*
X15960Y62660D02*
X16060Y62560D01*
X15960Y64460D02*
X16060Y64560D01*
X15960Y63660D02*
X16060Y63560D01*
X15960Y63460D02*
X16060Y63560D01*
X15960Y63660D02*
Y64460D01*
Y62660D02*
Y63460D01*
X16060Y64560D02*
X16860D01*
X41910Y51770D02*
X42010Y51870D01*
X41910Y53770D02*
X42010Y53670D01*
X41910Y52770D02*
X42010Y52870D01*
X41910Y52770D02*
X42010Y52670D01*
Y52870D02*
Y53670D01*
Y51870D02*
Y52670D01*
X41110Y51770D02*
X41910D01*
X41010Y51870D02*
X41110Y51770D01*
X41010Y53670D02*
X41110Y53770D01*
X41010Y52870D02*
X41110Y52770D01*
X41010Y52670D02*
X41110Y52770D01*
X41010Y52870D02*
Y53670D01*
Y51870D02*
Y52670D01*
X41110Y53770D02*
X41910D01*
X25336Y51089D02*
X25436Y50989D01*
X23436D02*
X23536Y51089D01*
X24336D02*
X24436Y50989D01*
X24536Y51089D01*
X23536D02*
X24336D01*
X24536D02*
X25336D01*
X25436Y50189D02*
Y50989D01*
X25336Y50089D02*
X25436Y50189D01*
X23436D02*
X23536Y50089D01*
X24336D02*
X24436Y50189D01*
X24536Y50089D01*
X23536D02*
X24336D01*
X24536D02*
X25336D01*
X23436Y50189D02*
Y50989D01*
X23400Y48470D02*
X23500Y48370D01*
X25300D02*
X25400Y48470D01*
X24400D02*
X24500Y48370D01*
X24300D02*
X24400Y48470D01*
X24500Y48370D02*
X25300D01*
X23500D02*
X24300D01*
X23400Y48470D02*
Y49270D01*
X23500Y49370D01*
X25300D02*
X25400Y49270D01*
X24400D02*
X24500Y49370D01*
X24300D02*
X24400Y49270D01*
X24500Y49370D02*
X25300D01*
X23500D02*
X24300D01*
X25400Y48470D02*
Y49270D01*
X21850Y54784D02*
X21950Y54884D01*
X21850Y52984D02*
X21950Y52884D01*
X21850Y53784D02*
X21950Y53884D01*
X21850Y53984D02*
X21950Y53884D01*
X21850Y52984D02*
Y53784D01*
Y53984D02*
Y54784D01*
X21950Y54884D02*
X22750D01*
X22850Y54784D01*
X22750Y52884D02*
X22850Y52984D01*
X22750Y53884D02*
X22850Y53784D01*
X22750Y53884D02*
X22850Y53984D01*
Y52984D02*
Y53784D01*
Y53984D02*
Y54784D01*
X21950Y52884D02*
X22750D01*
X14600Y44500D02*
X14700Y44600D01*
X14600Y42700D02*
X14700Y42600D01*
X14600Y43500D02*
X14700Y43600D01*
X14600Y43700D02*
X14700Y43600D01*
X14600Y42700D02*
Y43500D01*
Y43700D02*
Y44500D01*
X14700Y44600D02*
X15500D01*
X15600Y44500D01*
X15500Y42600D02*
X15600Y42700D01*
X15500Y43600D02*
X15600Y43500D01*
X15500Y43600D02*
X15600Y43700D01*
Y42700D02*
Y43500D01*
Y43700D02*
Y44500D01*
X14700Y42600D02*
X15500D01*
X33470Y82230D02*
X34730D01*
X33470Y80970D02*
X33980D01*
X34220D01*
X34730D01*
X33202Y45922D02*
Y46151D01*
Y45191D02*
X33762D01*
X33202Y46901D02*
Y47271D01*
X33562D01*
X33202Y45191D02*
Y45361D01*
X34122Y45191D02*
X34352D01*
X34512Y47271D02*
X34742D01*
X35502D02*
X35662D01*
Y47101D02*
Y47271D01*
Y45191D02*
Y45361D01*
X35502Y45191D02*
X35662D01*
X14370Y51090D02*
Y51320D01*
Y50360D02*
X14930D01*
X14370Y52070D02*
Y52440D01*
X14730D01*
X14370Y50360D02*
Y50530D01*
X15290Y50360D02*
X15520D01*
X15680Y52440D02*
X15910D01*
X16670D02*
X16830D01*
Y52270D02*
Y52440D01*
Y50360D02*
Y50530D01*
X16670Y50360D02*
X16830D01*
D21*
X16580Y48440D02*
X16900D01*
X16580Y49040D02*
X16900D01*
X16580Y48440D02*
Y49040D01*
X16900Y48440D02*
Y49040D01*
X16335Y44487D02*
X18225D01*
X16335Y44192D02*
Y44487D01*
X18225Y44192D02*
Y44487D01*
Y42913D02*
Y43208D01*
X16355Y42913D02*
X18225D01*
X16355D02*
Y43208D01*
D22*
X27900Y69150D02*
Y70460D01*
X27100Y69150D02*
X27560D01*
X27100D02*
Y70460D01*
X27900D01*
X27560Y69150D02*
X27900D01*
X31000Y70380D02*
Y71690D01*
X31340D02*
X31800D01*
Y70380D02*
Y71690D01*
X31000Y70380D02*
X31800D01*
X31000Y71690D02*
X31340D01*
D23*
X9350Y76250D02*
X11150D01*
Y70900D02*
Y76250D01*
X9350Y70900D02*
X11150D01*
X6300D02*
X8000D01*
X6300Y76250D02*
X8000D01*
X6300Y70900D02*
Y76250D01*
D24*
X39000Y51100D02*
Y51300D01*
X38900Y51200D02*
X39100D01*
X30700Y74500D02*
Y74700D01*
X30600Y74600D02*
X30800D01*
X42410Y80600D02*
X42610D01*
X40000Y80500D02*
X40200D01*
X40100Y80400D02*
Y80600D01*
X42510Y80500D02*
Y80700D01*
X12900Y44200D02*
X13100D01*
X13000Y44100D02*
Y44300D01*
D25*
X43181Y80109D02*
X42971D01*
X42866Y80214D01*
X42971Y80319D01*
X43181D01*
X43024D01*
Y80109D01*
X42866Y80424D02*
X43181D01*
Y80634D01*
Y80739D02*
X42971D01*
X42866Y80844D01*
X42971Y80949D01*
X43181D01*
X43024D01*
Y80739D01*
X43181Y81054D02*
X42866D01*
Y81211D01*
X42919Y81264D01*
X43024D01*
X43076Y81211D01*
Y81054D01*
Y81159D02*
X43181Y81264D01*
Y81368D02*
X42866D01*
X42971Y81473D01*
X42866Y81578D01*
X43181D01*
Y81683D02*
X42971D01*
X42866Y81788D01*
X42971Y81893D01*
X43181D01*
X43024D01*
Y81683D01*
X40566Y79599D02*
X40881D01*
Y79756D01*
X40828Y79809D01*
X40776D01*
X40724Y79756D01*
Y79599D01*
Y79756D01*
X40671Y79809D01*
X40619D01*
X40566Y79756D01*
Y79599D01*
Y79914D02*
X40881D01*
Y80124D01*
X40566Y80229D02*
X40828D01*
X40881Y80281D01*
Y80386D01*
X40828Y80439D01*
X40566D01*
Y80754D02*
Y80544D01*
X40881D01*
Y80754D01*
X40724Y80544D02*
Y80649D01*
X40566Y80858D02*
Y81068D01*
Y80963D01*
X40881D01*
X40566Y81331D02*
Y81226D01*
X40619Y81173D01*
X40828D01*
X40881Y81226D01*
Y81331D01*
X40828Y81383D01*
X40619D01*
X40566Y81331D01*
Y81646D02*
Y81541D01*
X40619Y81488D01*
X40828D01*
X40881Y81541D01*
Y81646D01*
X40828Y81698D01*
X40619D01*
X40566Y81646D01*
Y81803D02*
Y82013D01*
Y81908D01*
X40881D01*
X40566Y82118D02*
X40881D01*
X40724D01*
Y82328D01*
X40566D01*
X40881D01*
X29745Y70860D02*
X29693Y70808D01*
Y70703D01*
X29745Y70650D01*
X29955D01*
X30007Y70703D01*
Y70808D01*
X29955Y70860D01*
X30007Y71122D02*
X29693D01*
X29850Y70965D01*
Y71175D01*
X29955Y71280D02*
X30007Y71332D01*
Y71437D01*
X29955Y71490D01*
X29745D01*
X29693Y71437D01*
Y71332D01*
X29745Y71280D01*
X29798D01*
X29850Y71332D01*
Y71490D01*
X25725Y69590D02*
X25673Y69538D01*
Y69433D01*
X25725Y69380D01*
X25935D01*
X25987Y69433D01*
Y69538D01*
X25935Y69590D01*
X25987Y69852D02*
X25673D01*
X25830Y69695D01*
Y69905D01*
X25725Y70010D02*
X25673Y70062D01*
Y70167D01*
X25725Y70220D01*
X25778D01*
X25830Y70167D01*
X25882Y70220D01*
X25935D01*
X25987Y70167D01*
Y70062D01*
X25935Y70010D01*
X25882D01*
X25830Y70062D01*
X25778Y70010D01*
X25725D01*
X25830Y70062D02*
Y70167D01*
X35515Y65670D02*
X35463Y65618D01*
Y65513D01*
X35515Y65460D01*
X35725D01*
X35777Y65513D01*
Y65618D01*
X35725Y65670D01*
X35777Y65932D02*
X35463D01*
X35620Y65775D01*
Y65985D01*
X35463Y66090D02*
Y66300D01*
X35515D01*
X35725Y66090D01*
X35777D01*
X36890Y66605D02*
X36838Y66657D01*
X36733D01*
X36680Y66605D01*
Y66395D01*
X36733Y66343D01*
X36838D01*
X36890Y66395D01*
X37152Y66343D02*
Y66657D01*
X36995Y66500D01*
X37205D01*
X37520Y66657D02*
X37415Y66605D01*
X37310Y66500D01*
Y66395D01*
X37362Y66343D01*
X37467D01*
X37520Y66395D01*
Y66448D01*
X37467Y66500D01*
X37310D01*
X37255Y69900D02*
X37203Y69848D01*
Y69743D01*
X37255Y69690D01*
X37465D01*
X37517Y69743D01*
Y69848D01*
X37465Y69900D01*
X37517Y70162D02*
X37203D01*
X37360Y70005D01*
Y70215D01*
X37203Y70530D02*
Y70320D01*
X37360D01*
X37308Y70425D01*
Y70477D01*
X37360Y70530D01*
X37465D01*
X37517Y70477D01*
Y70372D01*
X37465Y70320D01*
X34039Y95758D02*
X34249D01*
X34039Y95862D02*
X34249D01*
X34669Y95653D02*
X34774D01*
X34721D01*
Y95967D01*
X34669Y95915D01*
X34931D02*
X34984Y95967D01*
X35089D01*
X35141Y95915D01*
Y95705D01*
X35089Y95653D01*
X34984D01*
X34931Y95705D01*
Y95915D01*
X35718Y95967D02*
X35613D01*
X35561Y95915D01*
Y95705D01*
X35613Y95653D01*
X35718D01*
X35771Y95705D01*
Y95915D01*
X35718Y95967D01*
X35876D02*
Y95653D01*
Y95810D01*
X35928Y95862D01*
X36033D01*
X36086Y95810D01*
Y95653D01*
X36191D02*
Y95862D01*
X36243D01*
X36296Y95810D01*
Y95653D01*
Y95810D01*
X36348Y95862D01*
X36400Y95810D01*
Y95653D01*
X36505D02*
X36663D01*
X36715Y95705D01*
X36663Y95758D01*
X36558D01*
X36505Y95810D01*
X36558Y95862D01*
X36715D01*
X33021Y93201D02*
Y93516D01*
X33179D01*
X33231Y93463D01*
Y93358D01*
X33179Y93306D01*
X33021D01*
X33126D02*
X33231Y93201D01*
X33336D02*
Y93516D01*
X33441Y93411D01*
X33546Y93516D01*
Y93201D01*
X33861Y93463D02*
X33808Y93516D01*
X33703D01*
X33651Y93463D01*
Y93411D01*
X33703Y93358D01*
X33808D01*
X33861Y93306D01*
Y93253D01*
X33808Y93201D01*
X33703D01*
X33651Y93253D01*
X34333Y93463D02*
Y93411D01*
X34281D01*
X34386D01*
X34333D01*
Y93253D01*
X34386Y93201D01*
X34595D02*
X34700D01*
X34753Y93253D01*
Y93358D01*
X34700Y93411D01*
X34595D01*
X34543Y93358D01*
Y93253D01*
X34595Y93201D01*
X35173Y93516D02*
Y93201D01*
X35330D01*
X35383Y93253D01*
Y93463D01*
X35330Y93516D01*
X35173D01*
X35697Y93463D02*
X35645Y93516D01*
X35540D01*
X35488Y93463D01*
Y93253D01*
X35540Y93201D01*
X35645D01*
X35697Y93253D01*
X30879Y32836D02*
X30932Y32889D01*
X31036D01*
X31089Y32836D01*
Y32784D01*
X31036Y32731D01*
X30984D01*
X31036D01*
X31089Y32679D01*
Y32626D01*
X31036Y32574D01*
X30932D01*
X30879Y32626D01*
X31246Y32522D02*
X31299Y32574D01*
Y32626D01*
X31246D01*
Y32574D01*
X31299D01*
X31246Y32522D01*
X31194Y32469D01*
X31509Y32574D02*
X31614D01*
X31561D01*
Y32889D01*
X31509Y32836D01*
X31981Y32889D02*
X31771D01*
Y32731D01*
X31876Y32784D01*
X31929D01*
X31981Y32731D01*
Y32626D01*
X31929Y32574D01*
X31824D01*
X31771Y32626D01*
X32086Y32574D02*
Y32784D01*
X32191Y32889D01*
X32296Y32784D01*
Y32574D01*
Y32731D01*
X32086D01*
X32453Y32522D02*
X32506Y32574D01*
Y32626D01*
X32453D01*
Y32574D01*
X32506D01*
X32453Y32522D01*
X32401Y32469D01*
X33240Y32574D02*
X33031D01*
X33240Y32784D01*
Y32836D01*
X33188Y32889D01*
X33083D01*
X33031Y32836D01*
X33555Y32889D02*
X33345D01*
Y32731D01*
X33450Y32784D01*
X33503D01*
X33555Y32731D01*
Y32626D01*
X33503Y32574D01*
X33398D01*
X33345Y32626D01*
X33660Y32836D02*
X33713Y32889D01*
X33818D01*
X33870Y32836D01*
Y32626D01*
X33818Y32574D01*
X33713D01*
X33660Y32626D01*
Y32836D01*
X33975Y32889D02*
Y32679D01*
X34080Y32574D01*
X34185Y32679D01*
Y32889D01*
X34290Y32574D02*
Y32784D01*
X34395Y32889D01*
X34500Y32784D01*
Y32574D01*
Y32731D01*
X34290D01*
X34815Y32836D02*
X34762Y32889D01*
X34657D01*
X34605Y32836D01*
Y32626D01*
X34657Y32574D01*
X34762D01*
X34815Y32626D01*
X34972Y32522D02*
X35025Y32574D01*
Y32626D01*
X34972D01*
Y32574D01*
X35025D01*
X34972Y32522D01*
X34920Y32469D01*
X35549Y32574D02*
X35707D01*
X35759Y32626D01*
X35707Y32679D01*
X35602D01*
X35549Y32731D01*
X35602Y32784D01*
X35759D01*
X35864Y32574D02*
X35969D01*
X35917D01*
Y32889D01*
X35864D01*
X36179Y32574D02*
X36284D01*
X36337Y32626D01*
Y32731D01*
X36284Y32784D01*
X36179D01*
X36127Y32731D01*
Y32626D01*
X36179Y32574D01*
X36442Y32784D02*
Y32626D01*
X36494Y32574D01*
X36547Y32626D01*
X36599Y32574D01*
X36651Y32626D01*
Y32784D01*
X37071Y32889D02*
Y32574D01*
X37229D01*
X37281Y32626D01*
Y32679D01*
Y32731D01*
X37229Y32784D01*
X37071D01*
X37386Y32574D02*
X37491D01*
X37439D01*
Y32889D01*
X37386D01*
X37701Y32574D02*
X37806D01*
X37858Y32626D01*
Y32731D01*
X37806Y32784D01*
X37701D01*
X37649Y32731D01*
Y32626D01*
X37701Y32574D01*
X37963Y32784D02*
Y32626D01*
X38016Y32574D01*
X38068Y32626D01*
X38121Y32574D01*
X38173Y32626D01*
Y32784D01*
X42336Y81629D02*
X42651D01*
X42546D01*
X42336Y81839D01*
X42494Y81682D01*
X42651Y81839D01*
X39946Y81529D02*
X40261D01*
X40156D01*
X39946Y81739D01*
X40104Y81582D01*
X40261Y81739D01*
X29579Y74874D02*
Y74559D01*
Y74664D01*
X29789Y74874D01*
X29632Y74716D01*
X29789Y74559D01*
X38149Y51394D02*
Y51079D01*
Y51184D01*
X38359Y51394D01*
X38202Y51236D01*
X38359Y51079D01*
X40319Y91086D02*
X40372Y91139D01*
X40476D01*
X40529Y91086D01*
Y91034D01*
X40476Y90981D01*
X40529Y90929D01*
Y90876D01*
X40476Y90824D01*
X40372D01*
X40319Y90876D01*
Y90929D01*
X40372Y90981D01*
X40319Y91034D01*
Y91086D01*
X40372Y90981D02*
X40476D01*
X40634Y91086D02*
X40686Y91139D01*
X40791D01*
X40844Y91086D01*
Y90876D01*
X40791Y90824D01*
X40686D01*
X40634Y90876D01*
Y91086D01*
X40949D02*
X41001Y91139D01*
X41106D01*
X41159Y91086D01*
Y90876D01*
X41106Y90824D01*
X41001D01*
X40949Y90876D01*
Y91086D01*
X41578Y90824D02*
Y91034D01*
X41631D01*
X41683Y90981D01*
Y90824D01*
Y90981D01*
X41736Y91034D01*
X41788Y90981D01*
Y90824D01*
X41893D02*
Y91034D01*
X41998Y91139D01*
X42103Y91034D01*
Y90824D01*
Y90981D01*
X41893D01*
X42208Y90719D02*
Y91034D01*
X42366D01*
X42418Y90981D01*
Y90876D01*
X42366Y90824D01*
X42208D01*
X42838D02*
Y91139D01*
X42943Y91034D01*
X43048Y91139D01*
Y90824D01*
X43153D02*
Y91034D01*
X43258Y91139D01*
X43363Y91034D01*
Y90824D01*
Y90981D01*
X43153D01*
X43468Y91139D02*
X43678Y90824D01*
Y91139D02*
X43468Y90824D01*
X40919Y91726D02*
X40866Y91779D01*
X40762D01*
X40709Y91726D01*
Y91516D01*
X40762Y91464D01*
X40866D01*
X40919Y91516D01*
X41076Y91674D02*
X41181D01*
X41234Y91621D01*
Y91464D01*
X41076D01*
X41024Y91516D01*
X41076Y91569D01*
X41234D01*
X41339Y91464D02*
X41444D01*
X41391D01*
Y91779D01*
X41339D01*
X41916Y91464D02*
X42021D01*
X41968D01*
Y91674D01*
X41916D01*
X42178Y91464D02*
Y91674D01*
X42336D01*
X42388Y91621D01*
Y91464D01*
X42493Y91359D02*
Y91674D01*
X42651D01*
X42703Y91621D01*
Y91516D01*
X42651Y91464D01*
X42493D01*
X42808Y91674D02*
Y91516D01*
X42861Y91464D01*
X43018D01*
Y91674D01*
X43175Y91726D02*
Y91674D01*
X43123D01*
X43228D01*
X43175D01*
Y91516D01*
X43228Y91464D01*
X30529Y76486D02*
X30582Y76539D01*
X30686D01*
X30739Y76486D01*
Y76434D01*
X30686Y76381D01*
X30634D01*
X30686D01*
X30739Y76329D01*
Y76276D01*
X30686Y76224D01*
X30582D01*
X30529Y76276D01*
X30896Y76172D02*
X30949Y76224D01*
Y76276D01*
X30896D01*
Y76224D01*
X30949D01*
X30896Y76172D01*
X30844Y76119D01*
X31159Y76486D02*
X31211Y76539D01*
X31316D01*
X31369Y76486D01*
Y76434D01*
X31316Y76381D01*
X31264D01*
X31316D01*
X31369Y76329D01*
Y76276D01*
X31316Y76224D01*
X31211D01*
X31159Y76276D01*
X31474Y76539D02*
Y76329D01*
X31579Y76224D01*
X31684Y76329D01*
Y76539D01*
X40239Y58214D02*
X40029D01*
Y58056D01*
X40134Y58109D01*
X40186D01*
X40239Y58056D01*
Y57952D01*
X40186Y57899D01*
X40082D01*
X40029Y57952D01*
X40344Y58214D02*
Y58004D01*
X40449Y57899D01*
X40554Y58004D01*
Y58214D01*
X29926Y40009D02*
Y40324D01*
X29769Y40166D01*
X29979D01*
X30084Y40271D02*
X30136Y40324D01*
X30241D01*
X30294Y40271D01*
Y40219D01*
X30241Y40166D01*
X30294Y40114D01*
Y40062D01*
X30241Y40009D01*
X30136D01*
X30084Y40062D01*
Y40114D01*
X30136Y40166D01*
X30084Y40219D01*
Y40271D01*
X30136Y40166D02*
X30241D01*
X30399Y40324D02*
Y40114D01*
X30504Y40009D01*
X30609Y40114D01*
Y40324D01*
X10734Y61869D02*
X10944D01*
X11048Y61974D01*
X10944Y62079D01*
X10734D01*
X11101Y62184D02*
Y62394D01*
X10839Y62499D02*
X11048Y62604D01*
X10839Y62709D01*
Y62866D02*
Y62971D01*
X10891Y63024D01*
X11048D01*
Y62866D01*
X10996Y62814D01*
X10944Y62866D01*
Y63024D01*
X10839Y63128D02*
X11048D01*
X10944D01*
X10891Y63181D01*
X10839Y63233D01*
Y63286D01*
X26234Y76769D02*
X26181Y76716D01*
Y76612D01*
X26234Y76559D01*
X26444D01*
X26496Y76612D01*
Y76716D01*
X26444Y76769D01*
X26339D01*
Y76664D01*
X26496Y76874D02*
X26286D01*
X26181Y76979D01*
X26286Y77084D01*
X26496D01*
X26339D01*
Y76874D01*
X26496Y77189D02*
X26181D01*
X26496Y77399D01*
X26181D01*
X26601Y77923D02*
Y77976D01*
X26548Y78028D01*
X26286D01*
Y77871D01*
X26339Y77818D01*
X26444D01*
X26496Y77871D01*
Y78028D01*
X26286Y78186D02*
Y78291D01*
X26339Y78343D01*
X26496D01*
Y78186D01*
X26444Y78133D01*
X26391Y78186D01*
Y78343D01*
X26234Y78501D02*
X26286D01*
Y78448D01*
Y78553D01*
Y78501D01*
X26444D01*
X26496Y78553D01*
Y78868D02*
Y78763D01*
X26444Y78711D01*
X26339D01*
X26286Y78763D01*
Y78868D01*
X26339Y78920D01*
X26391D01*
Y78711D01*
X34229Y92839D02*
X34072D01*
X34019Y92786D01*
Y92682D01*
X34072Y92629D01*
X34229D01*
X34386Y92839D02*
X34491D01*
X34544Y92786D01*
Y92629D01*
X34386D01*
X34334Y92682D01*
X34386Y92734D01*
X34544D01*
X34649Y92629D02*
X34754D01*
X34701D01*
Y92944D01*
X34649D01*
X9709Y80524D02*
X9814Y80314D01*
X9919Y80524D01*
X10076Y80314D02*
X10181D01*
X10234Y80366D01*
Y80471D01*
X10181Y80524D01*
X10076D01*
X10024Y80471D01*
Y80366D01*
X10076Y80314D01*
X10339D02*
X10444D01*
X10391D01*
Y80629D01*
X10339D01*
X10654Y80576D02*
Y80524D01*
X10601D01*
X10706D01*
X10654D01*
Y80366D01*
X10706Y80314D01*
X10916Y80524D02*
X11021D01*
X11073Y80471D01*
Y80314D01*
X10916D01*
X10864Y80366D01*
X10916Y80419D01*
X11073D01*
X11283Y80209D02*
X11336D01*
X11388Y80262D01*
Y80524D01*
X11231D01*
X11178Y80471D01*
Y80366D01*
X11231Y80314D01*
X11388D01*
X11651D02*
X11546D01*
X11493Y80366D01*
Y80471D01*
X11546Y80524D01*
X11651D01*
X11703Y80471D01*
Y80419D01*
X11493D01*
X8879Y81204D02*
Y80889D01*
X9036D01*
X9089Y80942D01*
Y81151D01*
X9036Y81204D01*
X8879D01*
X9194Y81099D02*
Y80889D01*
Y80994D01*
X9246Y81046D01*
X9299Y81099D01*
X9351D01*
X9561D02*
X9666D01*
X9719Y81046D01*
Y80889D01*
X9561D01*
X9509Y80942D01*
X9561Y80994D01*
X9719D01*
X9824Y80889D02*
X9929D01*
X9876D01*
Y81099D01*
X9824D01*
X10086Y80889D02*
Y81099D01*
X10243D01*
X10296Y81046D01*
Y80889D01*
X10401Y81046D02*
X10611D01*
X10926Y81151D02*
X10873Y81204D01*
X10768D01*
X10716Y81151D01*
Y81099D01*
X10768Y81046D01*
X10873D01*
X10926Y80994D01*
Y80942D01*
X10873Y80889D01*
X10768D01*
X10716Y80942D01*
X11083Y80889D02*
X11188D01*
X11241Y80942D01*
Y81046D01*
X11188Y81099D01*
X11083D01*
X11031Y81046D01*
Y80942D01*
X11083Y80889D01*
X11345Y81099D02*
Y80942D01*
X11398Y80889D01*
X11555D01*
Y81099D01*
X11660D02*
Y80889D01*
Y80994D01*
X11713Y81046D01*
X11765Y81099D01*
X11818D01*
X12185D02*
X12028D01*
X11975Y81046D01*
Y80942D01*
X12028Y80889D01*
X12185D01*
X12447D02*
X12342D01*
X12290Y80942D01*
Y81046D01*
X12342Y81099D01*
X12447D01*
X12500Y81046D01*
Y80994D01*
X12290D01*
X35447Y83644D02*
X35132D01*
Y83802D01*
X35184Y83854D01*
X35289D01*
X35342Y83802D01*
Y83644D01*
Y83749D02*
X35447Y83854D01*
Y83959D02*
X35132D01*
X35237Y84064D01*
X35132Y84169D01*
X35447D01*
X35184Y84484D02*
X35132Y84432D01*
Y84327D01*
X35184Y84274D01*
X35237D01*
X35289Y84327D01*
Y84432D01*
X35342Y84484D01*
X35394D01*
X35447Y84432D01*
Y84327D01*
X35394Y84274D01*
X35184Y84956D02*
X35237D01*
Y84904D01*
Y85009D01*
Y84956D01*
X35394D01*
X35447Y85009D01*
Y85219D02*
Y85324D01*
X35394Y85376D01*
X35289D01*
X35237Y85324D01*
Y85219D01*
X35289Y85166D01*
X35394D01*
X35447Y85219D01*
X35132Y85796D02*
X35447D01*
Y85953D01*
X35394Y86006D01*
X35184D01*
X35132Y85953D01*
Y85796D01*
X35184Y86321D02*
X35132Y86268D01*
Y86163D01*
X35184Y86111D01*
X35394D01*
X35447Y86163D01*
Y86268D01*
X35394Y86321D01*
X35962Y84044D02*
Y84202D01*
X35909Y84254D01*
X35857Y84202D01*
Y84097D01*
X35804Y84044D01*
X35752Y84097D01*
Y84254D01*
Y84359D02*
X35909D01*
X35962Y84412D01*
Y84569D01*
X35752D01*
X36067Y84674D02*
X35752D01*
Y84832D01*
X35804Y84884D01*
X35909D01*
X35962Y84832D01*
Y84674D01*
X36067Y84989D02*
X35752D01*
Y85146D01*
X35804Y85199D01*
X35909D01*
X35962Y85146D01*
Y84989D01*
Y85304D02*
Y85409D01*
Y85356D01*
X35647D01*
Y85304D01*
X35752Y85566D02*
X35909D01*
X35962Y85619D01*
Y85776D01*
X36014D01*
X36067Y85724D01*
Y85671D01*
X35962Y85776D02*
X35752D01*
X32859Y88999D02*
Y89314D01*
X33016D01*
X33069Y89261D01*
Y89156D01*
X33016Y89104D01*
X32859D01*
X32964D02*
X33069Y88999D01*
X33174D02*
Y89314D01*
X33279Y89209D01*
X33384Y89314D01*
Y88999D01*
X33699Y89261D02*
X33646Y89314D01*
X33541D01*
X33489Y89261D01*
Y89209D01*
X33541Y89156D01*
X33646D01*
X33699Y89104D01*
Y89052D01*
X33646Y88999D01*
X33541D01*
X33489Y89052D01*
X34171Y89261D02*
Y89209D01*
X34118D01*
X34223D01*
X34171D01*
Y89052D01*
X34223Y88999D01*
X34433D02*
X34538D01*
X34591Y89052D01*
Y89156D01*
X34538Y89209D01*
X34433D01*
X34381Y89156D01*
Y89052D01*
X34433Y88999D01*
X35011Y89314D02*
Y88999D01*
X35168D01*
X35220Y89052D01*
Y89261D01*
X35168Y89314D01*
X35011D01*
X35535Y89261D02*
X35483Y89314D01*
X35378D01*
X35325Y89261D01*
Y89052D01*
X35378Y88999D01*
X35483D01*
X35535Y89052D01*
X33499Y88404D02*
X33604D01*
X33552D01*
Y88614D01*
X33499D01*
X33761Y88404D02*
Y88614D01*
X33919D01*
X33971Y88561D01*
Y88404D01*
X34076Y88299D02*
Y88614D01*
X34234D01*
X34286Y88561D01*
Y88456D01*
X34234Y88404D01*
X34076D01*
X34391Y88614D02*
Y88456D01*
X34444Y88404D01*
X34601D01*
Y88614D01*
X34758Y88666D02*
Y88614D01*
X34706D01*
X34811D01*
X34758D01*
Y88456D01*
X34811Y88404D01*
X28992Y79734D02*
X29096D01*
X29149Y79786D01*
Y79891D01*
X29096Y79944D01*
X28992D01*
X28939Y79891D01*
Y79786D01*
X28992Y79734D01*
X29254Y79944D02*
Y79786D01*
X29306Y79734D01*
X29464D01*
Y79944D01*
X29621Y79996D02*
Y79944D01*
X29569D01*
X29674D01*
X29621D01*
Y79786D01*
X29674Y79734D01*
X29831Y79629D02*
Y79944D01*
X29989D01*
X30041Y79891D01*
Y79786D01*
X29989Y79734D01*
X29831D01*
X30146Y79944D02*
Y79786D01*
X30198Y79734D01*
X30356D01*
Y79944D01*
X30513Y79996D02*
Y79944D01*
X30461D01*
X30566D01*
X30513D01*
Y79786D01*
X30566Y79734D01*
X28479Y80319D02*
Y80634D01*
X28636D01*
X28689Y80581D01*
Y80476D01*
X28636Y80424D01*
X28479D01*
X28584D02*
X28689Y80319D01*
X28794D02*
Y80634D01*
X28899Y80529D01*
X29004Y80634D01*
Y80319D01*
X29319Y80581D02*
X29266Y80634D01*
X29161D01*
X29109Y80581D01*
Y80529D01*
X29161Y80476D01*
X29266D01*
X29319Y80424D01*
Y80372D01*
X29266Y80319D01*
X29161D01*
X29109Y80372D01*
X29791Y80581D02*
Y80529D01*
X29738D01*
X29843D01*
X29791D01*
Y80372D01*
X29843Y80319D01*
X30053D02*
X30158D01*
X30211Y80372D01*
Y80476D01*
X30158Y80529D01*
X30053D01*
X30001Y80476D01*
Y80372D01*
X30053Y80319D01*
X30631Y80634D02*
Y80319D01*
X30788D01*
X30840Y80372D01*
Y80581D01*
X30788Y80634D01*
X30631D01*
X31155Y80581D02*
X31103Y80634D01*
X30998D01*
X30945Y80581D01*
Y80372D01*
X30998Y80319D01*
X31103D01*
X31155Y80372D01*
X16576Y49259D02*
X16891D01*
X16786D01*
X16576Y49469D01*
X16734Y49312D01*
X16891Y49469D01*
X27346Y70729D02*
X27661D01*
X27556D01*
X27346Y70939D01*
X27504Y70782D01*
X27661Y70939D01*
X31257Y70009D02*
X31571D01*
X31466D01*
X31257Y70219D01*
X31414Y70062D01*
X31571Y70219D01*
X18759Y43174D02*
Y42859D01*
Y42964D01*
X18969Y43174D01*
X18812Y43016D01*
X18969Y42859D01*
X33440Y44632D02*
X33650Y44841D01*
Y44632D02*
X33440Y44841D01*
X33545Y44632D02*
Y44841D01*
X33650Y44736D02*
X33440D01*
X14608Y49800D02*
X14818Y50010D01*
Y49800D02*
X14608Y50010D01*
X14713Y49800D02*
Y50010D01*
X14818Y49905D02*
X14608D01*
X30590Y89640D02*
Y89955D01*
X30747D01*
X30800Y89902D01*
Y89797D01*
X30747Y89745D01*
X30590D01*
X30695D02*
X30800Y89640D01*
X31115Y89955D02*
X30905D01*
Y89797D01*
X31010Y89850D01*
X31062D01*
X31115Y89797D01*
Y89692D01*
X31062Y89640D01*
X30957D01*
X30905Y89692D01*
X31220Y89640D02*
X31325D01*
X31272D01*
Y89955D01*
X31220Y89902D01*
X27337Y51900D02*
X27023D01*
Y52058D01*
X27075Y52110D01*
X27180D01*
X27232Y52058D01*
Y51900D01*
Y52005D02*
X27337Y52110D01*
Y52425D02*
Y52215D01*
X27128Y52425D01*
X27075D01*
X27023Y52372D01*
Y52268D01*
X27075Y52215D01*
X27023Y52530D02*
Y52740D01*
X27075D01*
X27285Y52530D01*
X27337D01*
X26007Y50680D02*
X25693D01*
Y50838D01*
X25745Y50890D01*
X25850D01*
X25902Y50838D01*
Y50680D01*
Y50785D02*
X26007Y50890D01*
Y51205D02*
Y50995D01*
X25798Y51205D01*
X25745D01*
X25693Y51152D01*
Y51048D01*
X25745Y50995D01*
X25693Y51520D02*
X25745Y51415D01*
X25850Y51310D01*
X25955D01*
X26007Y51362D01*
Y51467D01*
X25955Y51520D01*
X25902D01*
X25850Y51467D01*
Y51310D01*
X32880Y76915D02*
X32828Y76967D01*
X32723D01*
X32670Y76915D01*
Y76705D01*
X32723Y76653D01*
X32828D01*
X32880Y76705D01*
X33195Y76653D02*
X32985D01*
X33195Y76862D01*
Y76915D01*
X33142Y76967D01*
X33038D01*
X32985Y76915D01*
X33510Y76967D02*
X33405Y76915D01*
X33300Y76810D01*
Y76705D01*
X33352Y76653D01*
X33457D01*
X33510Y76705D01*
Y76758D01*
X33457Y76810D01*
X33300D01*
X34867Y77400D02*
X34553D01*
Y77558D01*
X34605Y77610D01*
X34710D01*
X34762Y77558D01*
Y77400D01*
Y77505D02*
X34867Y77610D01*
Y77872D02*
X34553D01*
X34710Y77715D01*
Y77925D01*
X34553Y78030D02*
Y78240D01*
X34605D01*
X34815Y78030D01*
X34867D01*
X32760Y95653D02*
Y95967D01*
X32918D01*
X32970Y95915D01*
Y95810D01*
X32918Y95758D01*
X32760D01*
X32865D02*
X32970Y95653D01*
X33285Y95967D02*
X33075D01*
Y95810D01*
X33180Y95862D01*
X33232D01*
X33285Y95810D01*
Y95705D01*
X33232Y95653D01*
X33128D01*
X33075Y95705D01*
X33600Y95653D02*
X33390D01*
X33600Y95862D01*
Y95915D01*
X33547Y95967D01*
X33442D01*
X33390Y95915D01*
X25774Y71853D02*
Y72167D01*
X25931D01*
X25984Y72115D01*
Y72010D01*
X25931Y71958D01*
X25774D01*
X25879D02*
X25984Y71853D01*
X26246D02*
Y72167D01*
X26089Y72010D01*
X26299D01*
X26404Y72115D02*
X26456Y72167D01*
X26561D01*
X26614Y72115D01*
Y72062D01*
X26561Y72010D01*
X26509D01*
X26561D01*
X26614Y71958D01*
Y71905D01*
X26561Y71853D01*
X26456D01*
X26404Y71905D01*
X27270Y48887D02*
X27165D01*
X27218D01*
Y48625D01*
X27165Y48573D01*
X27113D01*
X27060Y48625D01*
X27375Y48573D02*
Y48887D01*
X27532D01*
X27585Y48835D01*
Y48730D01*
X27532Y48678D01*
X27375D01*
X27690Y48835D02*
X27742Y48887D01*
X27847D01*
X27900Y48835D01*
Y48782D01*
X27847Y48730D01*
X27795D01*
X27847D01*
X27900Y48678D01*
Y48625D01*
X27847Y48573D01*
X27742D01*
X27690Y48625D01*
X25280Y53703D02*
Y54017D01*
X25438D01*
X25490Y53965D01*
Y53860D01*
X25438Y53808D01*
X25280D01*
X25385D02*
X25490Y53703D01*
X25595Y53965D02*
X25648Y54017D01*
X25752D01*
X25805Y53965D01*
Y53912D01*
X25752Y53860D01*
X25700D01*
X25752D01*
X25805Y53808D01*
Y53755D01*
X25752Y53703D01*
X25648D01*
X25595Y53755D01*
X25910Y53703D02*
X26015D01*
X25962D01*
Y54017D01*
X25910Y53965D01*
X17726Y55485D02*
X17674Y55537D01*
X17569D01*
X17516Y55485D01*
Y55275D01*
X17569Y55223D01*
X17674D01*
X17726Y55275D01*
X17831Y55223D02*
X17936D01*
X17884D01*
Y55537D01*
X17831Y55485D01*
X18251Y55223D02*
Y55537D01*
X18094Y55380D01*
X18304D01*
X17725Y64300D02*
X17673Y64248D01*
Y64143D01*
X17725Y64090D01*
X17935D01*
X17987Y64143D01*
Y64248D01*
X17935Y64300D01*
X17987Y64615D02*
Y64405D01*
X17778Y64615D01*
X17725D01*
X17673Y64562D01*
Y64458D01*
X17725Y64405D01*
X17987Y64930D02*
Y64720D01*
X17778Y64930D01*
X17725D01*
X17673Y64877D01*
Y64772D01*
X17725Y64720D01*
X20883Y68367D02*
Y68158D01*
X20988Y68053D01*
X21093Y68158D01*
Y68367D01*
X21198Y68053D02*
Y68367D01*
X21355D01*
X21407Y68315D01*
Y68210D01*
X21355Y68158D01*
X21198D01*
X21302D02*
X21407Y68053D01*
X21512D02*
X21617D01*
X21565D01*
Y68367D01*
X21512Y68315D01*
X31973Y70818D02*
X32287D01*
Y70975D01*
X32235Y71028D01*
X32025D01*
X31973Y70975D01*
Y70818D01*
Y71342D02*
X32025Y71237D01*
X32130Y71132D01*
X32235D01*
X32287Y71185D01*
Y71290D01*
X32235Y71342D01*
X32182D01*
X32130Y71290D01*
Y71132D01*
X22570Y59993D02*
Y60307D01*
X22728D01*
X22780Y60255D01*
Y60150D01*
X22728Y60098D01*
X22570D01*
X22675D02*
X22780Y59993D01*
X22885Y60255D02*
X22938Y60307D01*
X23042D01*
X23095Y60255D01*
Y60202D01*
X23042Y60150D01*
X22990D01*
X23042D01*
X23095Y60098D01*
Y60045D01*
X23042Y59993D01*
X22938D01*
X22885Y60045D01*
X23410Y60307D02*
X23200D01*
Y60150D01*
X23305Y60202D01*
X23357D01*
X23410Y60150D01*
Y60045D01*
X23357Y59993D01*
X23252D01*
X23200Y60045D01*
X35890Y58193D02*
Y58507D01*
X36048D01*
X36100Y58455D01*
Y58350D01*
X36048Y58298D01*
X35890D01*
X35995D02*
X36100Y58193D01*
X36205Y58455D02*
X36258Y58507D01*
X36362D01*
X36415Y58455D01*
Y58402D01*
X36362Y58350D01*
X36310D01*
X36362D01*
X36415Y58298D01*
Y58245D01*
X36362Y58193D01*
X36258D01*
X36205Y58245D01*
X36730Y58193D02*
X36520D01*
X36730Y58402D01*
Y58455D01*
X36677Y58507D01*
X36572D01*
X36520Y58455D01*
X28033Y69568D02*
X28347D01*
Y69725D01*
X28295Y69778D01*
X28085D01*
X28033Y69725D01*
Y69568D01*
Y70092D02*
Y69882D01*
X28190D01*
X28138Y69987D01*
Y70040D01*
X28190Y70092D01*
X28295D01*
X28347Y70040D01*
Y69935D01*
X28295Y69882D01*
X38486Y48093D02*
Y48407D01*
X38644D01*
X38696Y48355D01*
Y48250D01*
X38644Y48198D01*
X38486D01*
X38591D02*
X38696Y48093D01*
X38801D02*
X38906D01*
X38854D01*
Y48407D01*
X38801Y48355D01*
X39274Y48407D02*
X39169Y48355D01*
X39064Y48250D01*
Y48145D01*
X39116Y48093D01*
X39221D01*
X39274Y48145D01*
Y48198D01*
X39221Y48250D01*
X39064D01*
X17448Y53673D02*
Y53987D01*
X17605D01*
X17657Y53935D01*
Y53830D01*
X17605Y53778D01*
X17448D01*
X17552D02*
X17657Y53673D01*
X17762Y53935D02*
X17815Y53987D01*
X17920D01*
X17972Y53935D01*
Y53882D01*
X17920Y53830D01*
X17867D01*
X17920D01*
X17972Y53778D01*
Y53725D01*
X17920Y53673D01*
X17815D01*
X17762Y53725D01*
X18077Y53935D02*
X18130Y53987D01*
X18235D01*
X18287Y53935D01*
Y53725D01*
X18235Y53673D01*
X18130D01*
X18077Y53725D01*
Y53935D01*
X15737Y48966D02*
X15423D01*
Y49124D01*
X15475Y49176D01*
X15580D01*
X15632Y49124D01*
Y48966D01*
Y49071D02*
X15737Y49176D01*
Y49281D02*
Y49386D01*
Y49334D01*
X15423D01*
X15475Y49281D01*
X15423Y49544D02*
Y49754D01*
X15475D01*
X15685Y49544D01*
X15737D01*
X16133Y48468D02*
X16447D01*
Y48625D01*
X16395Y48678D01*
X16185D01*
X16133Y48625D01*
Y48468D01*
X16185Y48782D02*
X16133Y48835D01*
Y48940D01*
X16185Y48992D01*
X16238D01*
X16290Y48940D01*
Y48887D01*
Y48940D01*
X16342Y48992D01*
X16395D01*
X16447Y48940D01*
Y48835D01*
X16395Y48782D01*
X30068Y42543D02*
Y42857D01*
X30225D01*
X30278Y42805D01*
Y42700D01*
X30225Y42648D01*
X30068D01*
X30173D02*
X30278Y42543D01*
X30592D02*
X30382D01*
X30592Y42752D01*
Y42805D01*
X30540Y42857D01*
X30435D01*
X30382Y42805D01*
X31143Y41283D02*
Y41597D01*
X31300D01*
X31353Y41545D01*
Y41440D01*
X31300Y41388D01*
X31143D01*
X31248D02*
X31353Y41283D01*
X31458D02*
X31562D01*
X31510D01*
Y41597D01*
X31458Y41545D01*
X30617Y61147D02*
X30303D01*
Y61304D01*
X30355Y61357D01*
X30460D01*
X30512Y61304D01*
Y61147D01*
Y61252D02*
X30617Y61357D01*
X30355Y61462D02*
X30303Y61514D01*
Y61619D01*
X30355Y61672D01*
X30408D01*
X30460Y61619D01*
Y61567D01*
Y61619D01*
X30512Y61672D01*
X30565D01*
X30617Y61619D01*
Y61514D01*
X30565Y61462D01*
X30303Y61987D02*
X30355Y61882D01*
X30460Y61777D01*
X30565D01*
X30617Y61829D01*
Y61934D01*
X30565Y61987D01*
X30512D01*
X30460Y61934D01*
Y61777D01*
X17885Y45098D02*
X17833Y45045D01*
Y44940D01*
X17885Y44888D01*
X18095D01*
X18147Y44940D01*
Y45045D01*
X18095Y45098D01*
X18147Y45360D02*
X17833D01*
X17990Y45202D01*
Y45412D01*
X17678Y76285D02*
Y76495D01*
X17625Y76547D01*
X17520D01*
X17468Y76495D01*
Y76285D01*
X17520Y76233D01*
X17625D01*
X17573Y76338D02*
X17678Y76233D01*
X17625D02*
X17678Y76285D01*
X17782Y76495D02*
X17835Y76547D01*
X17940D01*
X17992Y76495D01*
Y76442D01*
X17940Y76390D01*
X17887D01*
X17940D01*
X17992Y76338D01*
Y76285D01*
X17940Y76233D01*
X17835D01*
X17782Y76285D01*
X35027Y42468D02*
X34713D01*
Y42625D01*
X34765Y42678D01*
X34870D01*
X34922Y42625D01*
Y42468D01*
Y42573D02*
X35027Y42678D01*
X34713Y42992D02*
X34765Y42887D01*
X34870Y42782D01*
X34975D01*
X35027Y42835D01*
Y42940D01*
X34975Y42992D01*
X34922D01*
X34870Y42940D01*
Y42782D01*
X34107Y42458D02*
X33793D01*
Y42615D01*
X33845Y42668D01*
X33950D01*
X34002Y42615D01*
Y42458D01*
Y42563D02*
X34107Y42668D01*
X33793Y42982D02*
Y42772D01*
X33950D01*
X33898Y42877D01*
Y42930D01*
X33950Y42982D01*
X34055D01*
X34107Y42930D01*
Y42825D01*
X34055Y42772D01*
X12343Y42138D02*
X12657D01*
Y42295D01*
X12605Y42348D01*
X12395D01*
X12343Y42295D01*
Y42138D01*
X12657Y42662D02*
Y42452D01*
X12448Y42662D01*
X12395D01*
X12343Y42610D01*
Y42505D01*
X12395Y42452D01*
X18578Y72127D02*
Y71865D01*
X18630Y71813D01*
X18735D01*
X18788Y71865D01*
Y72127D01*
X19102D02*
X18892D01*
Y71970D01*
X18997Y72022D01*
X19050D01*
X19102Y71970D01*
Y71865D01*
X19050Y71813D01*
X18945D01*
X18892Y71865D01*
X17748Y65847D02*
Y65585D01*
X17800Y65533D01*
X17905D01*
X17958Y65585D01*
Y65847D01*
X18220Y65533D02*
Y65847D01*
X18062Y65690D01*
X18272D01*
X16990Y42657D02*
Y42343D01*
X17148D01*
X17200Y42395D01*
Y42605D01*
X17148Y42657D01*
X16990D01*
X17305Y42343D02*
X17410D01*
X17357D01*
Y42657D01*
X17305Y42605D01*
X41617Y82480D02*
X41303D01*
Y82638D01*
X41355Y82690D01*
X41460D01*
X41512Y82638D01*
Y82480D01*
Y82585D02*
X41617Y82690D01*
Y82952D02*
X41303D01*
X41460Y82795D01*
Y83005D01*
X41565Y83110D02*
X41617Y83162D01*
Y83267D01*
X41565Y83320D01*
X41355D01*
X41303Y83267D01*
Y83162D01*
X41355Y83110D01*
X41408D01*
X41460Y83162D01*
Y83320D01*
X39107Y82480D02*
X38793D01*
Y82638D01*
X38845Y82690D01*
X38950D01*
X39002Y82638D01*
Y82480D01*
Y82585D02*
X39107Y82690D01*
Y82952D02*
X38793D01*
X38950Y82795D01*
Y83005D01*
X38845Y83110D02*
X38793Y83162D01*
Y83267D01*
X38845Y83320D01*
X38898D01*
X38950Y83267D01*
X39002Y83320D01*
X39055D01*
X39107Y83267D01*
Y83162D01*
X39055Y83110D01*
X39002D01*
X38950Y83162D01*
X38898Y83110D01*
X38845D01*
X38950Y83162D02*
Y83267D01*
X28360Y74713D02*
Y75027D01*
X28518D01*
X28570Y74975D01*
Y74870D01*
X28518Y74818D01*
X28360D01*
X28465D02*
X28570Y74713D01*
X28832D02*
Y75027D01*
X28675Y74870D01*
X28885D01*
X29200Y75027D02*
X29095Y74975D01*
X28990Y74870D01*
Y74765D01*
X29042Y74713D01*
X29147D01*
X29200Y74765D01*
Y74818D01*
X29147Y74870D01*
X28990D01*
X36530Y49993D02*
Y50307D01*
X36688D01*
X36740Y50255D01*
Y50150D01*
X36688Y50098D01*
X36530D01*
X36635D02*
X36740Y49993D01*
X37055D02*
X36845D01*
X37055Y50202D01*
Y50255D01*
X37002Y50307D01*
X36898D01*
X36845Y50255D01*
X37160D02*
X37212Y50307D01*
X37317D01*
X37370Y50255D01*
Y50202D01*
X37317Y50150D01*
X37265D01*
X37317D01*
X37370Y50098D01*
Y50045D01*
X37317Y49993D01*
X37212D01*
X37160Y50045D01*
X13857Y41838D02*
X13543D01*
Y41995D01*
X13595Y42048D01*
X13700D01*
X13752Y41995D01*
Y41838D01*
Y41943D02*
X13857Y42048D01*
X13595Y42152D02*
X13543Y42205D01*
Y42310D01*
X13595Y42362D01*
X13648D01*
X13700Y42310D01*
Y42257D01*
Y42310D01*
X13752Y42362D01*
X13805D01*
X13857Y42310D01*
Y42205D01*
X13805Y42152D01*
X32930Y85773D02*
Y86087D01*
X33088D01*
X33140Y86035D01*
Y85930D01*
X33088Y85878D01*
X32930D01*
X33035D02*
X33140Y85773D01*
X33455Y86087D02*
X33245D01*
Y85930D01*
X33350Y85982D01*
X33402D01*
X33455Y85930D01*
Y85825D01*
X33402Y85773D01*
X33298D01*
X33245Y85825D01*
X33560Y86035D02*
X33612Y86087D01*
X33717D01*
X33770Y86035D01*
Y85825D01*
X33717Y85773D01*
X33612D01*
X33560Y85825D01*
Y86035D01*
X23803Y68193D02*
Y68507D01*
X23960D01*
X24013Y68455D01*
Y68350D01*
X23960Y68298D01*
X23803D01*
X23908D02*
X24013Y68193D01*
X24275D02*
Y68507D01*
X24118Y68350D01*
X24327D01*
X24432Y68193D02*
X24537D01*
X24485D01*
Y68507D01*
X24432Y68455D01*
X23750Y67213D02*
Y67527D01*
X23908D01*
X23960Y67475D01*
Y67370D01*
X23908Y67318D01*
X23750D01*
X23855D02*
X23960Y67213D01*
X24222D02*
Y67527D01*
X24065Y67370D01*
X24275D01*
X24380Y67475D02*
X24432Y67527D01*
X24537D01*
X24590Y67475D01*
Y67265D01*
X24537Y67213D01*
X24432D01*
X24380Y67265D01*
Y67475D01*
X23160Y64093D02*
Y64407D01*
X23318D01*
X23370Y64355D01*
Y64250D01*
X23318Y64198D01*
X23160D01*
X23265D02*
X23370Y64093D01*
X23475Y64355D02*
X23528Y64407D01*
X23632D01*
X23685Y64355D01*
Y64302D01*
X23632Y64250D01*
X23580D01*
X23632D01*
X23685Y64198D01*
Y64145D01*
X23632Y64093D01*
X23528D01*
X23475Y64145D01*
X23790Y64355D02*
X23842Y64407D01*
X23947D01*
X24000Y64355D01*
Y64302D01*
X23947Y64250D01*
X24000Y64198D01*
Y64145D01*
X23947Y64093D01*
X23842D01*
X23790Y64145D01*
Y64198D01*
X23842Y64250D01*
X23790Y64302D01*
Y64355D01*
X23842Y64250D02*
X23947D01*
X23147Y50690D02*
X22833D01*
Y50848D01*
X22885Y50900D01*
X22990D01*
X23042Y50848D01*
Y50690D01*
Y50795D02*
X23147Y50900D01*
Y51215D02*
Y51005D01*
X22938Y51215D01*
X22885D01*
X22833Y51162D01*
Y51058D01*
X22885Y51005D01*
X23147Y51477D02*
X22833D01*
X22990Y51320D01*
Y51530D01*
X18640Y69553D02*
Y69867D01*
X18798D01*
X18850Y69815D01*
Y69710D01*
X18798Y69658D01*
X18640D01*
X18745D02*
X18850Y69553D01*
X19112D02*
Y69867D01*
X18955Y69710D01*
X19165D01*
X19480Y69553D02*
X19270D01*
X19480Y69762D01*
Y69815D01*
X19427Y69867D01*
X19322D01*
X19270Y69815D01*
X14907Y65130D02*
X14593D01*
Y65288D01*
X14645Y65340D01*
X14750D01*
X14802Y65288D01*
Y65130D01*
Y65235D02*
X14907Y65340D01*
X14645Y65445D02*
X14593Y65498D01*
Y65602D01*
X14645Y65655D01*
X14698D01*
X14750Y65602D01*
Y65550D01*
Y65602D01*
X14802Y65655D01*
X14855D01*
X14907Y65602D01*
Y65498D01*
X14855Y65445D01*
Y65760D02*
X14907Y65812D01*
Y65917D01*
X14855Y65970D01*
X14645D01*
X14593Y65917D01*
Y65812D01*
X14645Y65760D01*
X14698D01*
X14750Y65812D01*
Y65970D01*
X15950Y61323D02*
Y61637D01*
X16108D01*
X16160Y61585D01*
Y61480D01*
X16108Y61428D01*
X15950D01*
X16055D02*
X16160Y61323D01*
X16265Y61585D02*
X16318Y61637D01*
X16422D01*
X16475Y61585D01*
Y61532D01*
X16422Y61480D01*
X16370D01*
X16422D01*
X16475Y61428D01*
Y61375D01*
X16422Y61323D01*
X16318D01*
X16265Y61375D01*
X16580Y61637D02*
X16790D01*
Y61585D01*
X16580Y61375D01*
Y61323D01*
X20910Y59413D02*
Y59727D01*
X21068D01*
X21120Y59675D01*
Y59570D01*
X21068Y59518D01*
X20910D01*
X21015D02*
X21120Y59413D01*
X21225Y59675D02*
X21278Y59727D01*
X21382D01*
X21435Y59675D01*
Y59622D01*
X21382Y59570D01*
X21330D01*
X21382D01*
X21435Y59518D01*
Y59465D01*
X21382Y59413D01*
X21278D01*
X21225Y59465D01*
X21697Y59413D02*
Y59727D01*
X21540Y59570D01*
X21750D01*
X38980Y58253D02*
Y58567D01*
X39138D01*
X39190Y58515D01*
Y58410D01*
X39138Y58358D01*
X38980D01*
X39085D02*
X39190Y58253D01*
X39295Y58515D02*
X39348Y58567D01*
X39452D01*
X39505Y58515D01*
Y58462D01*
X39452Y58410D01*
X39400D01*
X39452D01*
X39505Y58358D01*
Y58305D01*
X39452Y58253D01*
X39348D01*
X39295Y58305D01*
X39610Y58515D02*
X39662Y58567D01*
X39767D01*
X39820Y58515D01*
Y58462D01*
X39767Y58410D01*
X39715D01*
X39767D01*
X39820Y58358D01*
Y58305D01*
X39767Y58253D01*
X39662D01*
X39610Y58305D01*
X18990Y51393D02*
Y51707D01*
X19148D01*
X19200Y51655D01*
Y51550D01*
X19148Y51498D01*
X18990D01*
X19095D02*
X19200Y51393D01*
X19515D02*
X19305D01*
X19515Y51602D01*
Y51655D01*
X19462Y51707D01*
X19358D01*
X19305Y51655D01*
X19830Y51707D02*
X19620D01*
Y51550D01*
X19725Y51602D01*
X19777D01*
X19830Y51550D01*
Y51445D01*
X19777Y51393D01*
X19672D01*
X19620Y51445D01*
X19180Y50693D02*
Y51007D01*
X19338D01*
X19390Y50955D01*
Y50850D01*
X19338Y50798D01*
X19180D01*
X19285D02*
X19390Y50693D01*
X19705D02*
X19495D01*
X19705Y50902D01*
Y50955D01*
X19652Y51007D01*
X19548D01*
X19495Y50955D01*
X20020Y50693D02*
X19810D01*
X20020Y50902D01*
Y50955D01*
X19967Y51007D01*
X19862D01*
X19810Y50955D01*
X25280Y53033D02*
Y53347D01*
X25438D01*
X25490Y53295D01*
Y53190D01*
X25438Y53138D01*
X25280D01*
X25385D02*
X25490Y53033D01*
X25805D02*
X25595D01*
X25805Y53242D01*
Y53295D01*
X25752Y53347D01*
X25648D01*
X25595Y53295D01*
X25910Y53085D02*
X25962Y53033D01*
X26067D01*
X26120Y53085D01*
Y53295D01*
X26067Y53347D01*
X25962D01*
X25910Y53295D01*
Y53242D01*
X25962Y53190D01*
X26120D01*
X37126Y46443D02*
Y46757D01*
X37284D01*
X37336Y46705D01*
Y46600D01*
X37284Y46548D01*
X37126D01*
X37231D02*
X37336Y46443D01*
X37441D02*
X37546D01*
X37494D01*
Y46757D01*
X37441Y46705D01*
X37861Y46443D02*
Y46757D01*
X37704Y46600D01*
X37914D01*
X37156Y44443D02*
Y44757D01*
X37314D01*
X37366Y44705D01*
Y44600D01*
X37314Y44548D01*
X37156D01*
X37261D02*
X37366Y44443D01*
X37471D02*
X37576D01*
X37524D01*
Y44757D01*
X37471Y44705D01*
X37734D02*
X37786Y44757D01*
X37891D01*
X37944Y44705D01*
Y44495D01*
X37891Y44443D01*
X37786D01*
X37734Y44495D01*
Y44705D01*
X37219Y45543D02*
Y45857D01*
X37376D01*
X37429Y45805D01*
Y45700D01*
X37376Y45648D01*
X37219D01*
X37324D02*
X37429Y45543D01*
X37534D02*
X37639D01*
X37586D01*
Y45857D01*
X37534Y45805D01*
X37796Y45543D02*
X37901D01*
X37849D01*
Y45857D01*
X37796Y45805D01*
X17973Y49753D02*
Y50067D01*
X18130D01*
X18183Y50015D01*
Y49910D01*
X18130Y49858D01*
X17973D01*
X18078D02*
X18183Y49753D01*
X18497D02*
X18288D01*
X18497Y49962D01*
Y50015D01*
X18445Y50067D01*
X18340D01*
X18288Y50015D01*
X18602Y49753D02*
X18707D01*
X18655D01*
Y50067D01*
X18602Y50015D01*
X18920Y52263D02*
Y52577D01*
X19078D01*
X19130Y52525D01*
Y52420D01*
X19078Y52368D01*
X18920D01*
X19025D02*
X19130Y52263D01*
X19445D02*
X19235D01*
X19445Y52472D01*
Y52525D01*
X19392Y52577D01*
X19288D01*
X19235Y52525D01*
X19550D02*
X19602Y52577D01*
X19707D01*
X19760Y52525D01*
Y52472D01*
X19707Y52420D01*
X19760Y52368D01*
Y52315D01*
X19707Y52263D01*
X19602D01*
X19550Y52315D01*
Y52368D01*
X19602Y52420D01*
X19550Y52472D01*
Y52525D01*
X19602Y52420D02*
X19707D01*
X36047Y42478D02*
X35733D01*
Y42635D01*
X35785Y42688D01*
X35890D01*
X35942Y42635D01*
Y42478D01*
Y42583D02*
X36047Y42688D01*
X35733Y42792D02*
Y43002D01*
X35785D01*
X35995Y42792D01*
X36047D01*
X37388Y43543D02*
Y43857D01*
X37545D01*
X37598Y43805D01*
Y43700D01*
X37545Y43648D01*
X37388D01*
X37493D02*
X37598Y43543D01*
X37702Y43595D02*
X37755Y43543D01*
X37860D01*
X37912Y43595D01*
Y43805D01*
X37860Y43857D01*
X37755D01*
X37702Y43805D01*
Y43752D01*
X37755Y43700D01*
X37912D01*
X33237Y42468D02*
X32923D01*
Y42625D01*
X32975Y42678D01*
X33080D01*
X33132Y42625D01*
Y42468D01*
Y42573D02*
X33237Y42678D01*
X32975Y42782D02*
X32923Y42835D01*
Y42940D01*
X32975Y42992D01*
X33028D01*
X33080Y42940D01*
X33132Y42992D01*
X33185D01*
X33237Y42940D01*
Y42835D01*
X33185Y42782D01*
X33132D01*
X33080Y42835D01*
X33028Y42782D01*
X32975D01*
X33080Y42835D02*
Y42940D01*
X32217Y42498D02*
X31903D01*
Y42655D01*
X31955Y42708D01*
X32060D01*
X32112Y42655D01*
Y42498D01*
Y42603D02*
X32217Y42708D01*
Y42970D02*
X31903D01*
X32060Y42812D01*
Y43022D01*
X12966Y46693D02*
Y47007D01*
X13124D01*
X13176Y46955D01*
Y46850D01*
X13124Y46798D01*
X12966D01*
X13071D02*
X13176Y46693D01*
X13281D02*
X13386D01*
X13334D01*
Y47007D01*
X13281Y46955D01*
X13754Y47007D02*
X13544D01*
Y46850D01*
X13649Y46902D01*
X13701D01*
X13754Y46850D01*
Y46745D01*
X13701Y46693D01*
X13596D01*
X13544Y46745D01*
X14156Y44993D02*
Y45307D01*
X14314D01*
X14366Y45255D01*
Y45150D01*
X14314Y45098D01*
X14156D01*
X14261D02*
X14366Y44993D01*
X14471D02*
X14576D01*
X14524D01*
Y45307D01*
X14471Y45255D01*
X14944Y44993D02*
X14734D01*
X14944Y45202D01*
Y45255D01*
X14891Y45307D01*
X14786D01*
X14734Y45255D01*
X12666Y48233D02*
Y48547D01*
X12824D01*
X12876Y48495D01*
Y48390D01*
X12824Y48338D01*
X12666D01*
X12771D02*
X12876Y48233D01*
X12981D02*
X13086D01*
X13034D01*
Y48547D01*
X12981Y48495D01*
X13244D02*
X13296Y48547D01*
X13401D01*
X13454Y48495D01*
Y48442D01*
X13401Y48390D01*
X13454Y48338D01*
Y48285D01*
X13401Y48233D01*
X13296D01*
X13244Y48285D01*
Y48338D01*
X13296Y48390D01*
X13244Y48442D01*
Y48495D01*
X13296Y48390D02*
X13401D01*
X18977Y48257D02*
Y48572D01*
X19135D01*
X19187Y48519D01*
Y48414D01*
X19135Y48362D01*
X18977D01*
X19082D02*
X19187Y48257D01*
X19292D02*
X19397D01*
X19345D01*
Y48572D01*
X19292Y48519D01*
X19555Y48309D02*
X19607Y48257D01*
X19712D01*
X19765Y48309D01*
Y48519D01*
X19712Y48572D01*
X19607D01*
X19555Y48519D01*
Y48467D01*
X19607Y48414D01*
X19765D01*
X12650Y49083D02*
Y49397D01*
X12808D01*
X12860Y49345D01*
Y49240D01*
X12808Y49188D01*
X12650D01*
X12755D02*
X12860Y49083D01*
X13175D02*
X12965D01*
X13175Y49292D01*
Y49345D01*
X13122Y49397D01*
X13018D01*
X12965Y49345D01*
X13280D02*
X13332Y49397D01*
X13437D01*
X13490Y49345D01*
Y49135D01*
X13437Y49083D01*
X13332D01*
X13280Y49135D01*
Y49345D01*
X16297Y45886D02*
X15983D01*
Y46044D01*
X16035Y46096D01*
X16140D01*
X16192Y46044D01*
Y45886D01*
Y45991D02*
X16297Y46096D01*
Y46201D02*
Y46306D01*
Y46254D01*
X15983D01*
X16035Y46201D01*
Y46464D02*
X15983Y46516D01*
Y46621D01*
X16035Y46674D01*
X16088D01*
X16140Y46621D01*
Y46569D01*
Y46621D01*
X16192Y46674D01*
X16245D01*
X16297Y46621D01*
Y46516D01*
X16245Y46464D01*
X16890Y73043D02*
Y73357D01*
X17048D01*
X17100Y73305D01*
Y73200D01*
X17048Y73148D01*
X16890D01*
X16995D02*
X17100Y73043D01*
X17362D02*
Y73357D01*
X17205Y73200D01*
X17415D01*
X17677Y73043D02*
Y73357D01*
X17520Y73200D01*
X17730D01*
X18730Y73043D02*
Y73357D01*
X18888D01*
X18940Y73305D01*
Y73200D01*
X18888Y73148D01*
X18730D01*
X18835D02*
X18940Y73043D01*
X19202D02*
Y73357D01*
X19045Y73200D01*
X19255D01*
X19570Y73357D02*
X19360D01*
Y73200D01*
X19465Y73252D01*
X19517D01*
X19570Y73200D01*
Y73095D01*
X19517Y73043D01*
X19412D01*
X19360Y73095D01*
X23708Y65315D02*
Y65525D01*
X23655Y65577D01*
X23550D01*
X23498Y65525D01*
Y65315D01*
X23550Y65263D01*
X23655D01*
X23603Y65368D02*
X23708Y65263D01*
X23655D02*
X23708Y65315D01*
X24022Y65263D02*
X23812D01*
X24022Y65472D01*
Y65525D01*
X23970Y65577D01*
X23865D01*
X23812Y65525D01*
X25100Y51445D02*
Y51655D01*
X25048Y51707D01*
X24943D01*
X24890Y51655D01*
Y51445D01*
X24943Y51393D01*
X25048D01*
X24995Y51498D02*
X25100Y51393D01*
X25048D02*
X25100Y51445D01*
X25205Y51393D02*
X25310D01*
X25257D01*
Y51707D01*
X25205Y51655D01*
X23338Y56757D02*
Y56495D01*
X23390Y56443D01*
X23495D01*
X23548Y56495D01*
Y56757D01*
X23652Y56705D02*
X23705Y56757D01*
X23810D01*
X23862Y56705D01*
Y56652D01*
X23810Y56600D01*
X23757D01*
X23810D01*
X23862Y56548D01*
Y56495D01*
X23810Y56443D01*
X23705D01*
X23652Y56495D01*
X20220Y64487D02*
Y64435D01*
X20325Y64330D01*
X20430Y64435D01*
Y64487D01*
X20325Y64330D02*
Y64173D01*
X20535D02*
X20640D01*
X20587D01*
Y64487D01*
X20535Y64435D01*
X38943Y80839D02*
X39257D01*
Y80996D01*
X39205Y81049D01*
X38995D01*
X38943Y80996D01*
Y80839D01*
X38995Y81154D02*
X38943Y81206D01*
Y81311D01*
X38995Y81364D01*
X39048D01*
X39100Y81311D01*
X39152Y81364D01*
X39205D01*
X39257Y81311D01*
Y81206D01*
X39205Y81154D01*
X39152D01*
X39100Y81206D01*
X39048Y81154D01*
X38995D01*
X39100Y81206D02*
Y81311D01*
X41353Y80839D02*
X41667D01*
Y80996D01*
X41615Y81049D01*
X41405D01*
X41353Y80996D01*
Y80839D01*
X41615Y81154D02*
X41667Y81206D01*
Y81311D01*
X41615Y81364D01*
X41405D01*
X41353Y81311D01*
Y81206D01*
X41405Y81154D01*
X41458D01*
X41510Y81206D01*
Y81364D01*
X29988Y75017D02*
Y74703D01*
X30145D01*
X30198Y74755D01*
Y74965D01*
X30145Y75017D01*
X29988D01*
X30302D02*
X30512D01*
Y74965D01*
X30302Y74755D01*
Y74703D01*
X38298Y50417D02*
Y50103D01*
X38455D01*
X38508Y50155D01*
Y50365D01*
X38455Y50417D01*
X38298D01*
X38770Y50103D02*
Y50417D01*
X38612Y50260D01*
X38822D01*
X27829Y65637D02*
X27724D01*
X27776D01*
Y65375D01*
X27724Y65323D01*
X27671D01*
X27619Y65375D01*
X27934Y65323D02*
Y65637D01*
X28091D01*
X28144Y65585D01*
Y65480D01*
X28091Y65428D01*
X27934D01*
X28249Y65323D02*
X28354D01*
X28301D01*
Y65637D01*
X28249Y65585D01*
X28511D02*
X28564Y65637D01*
X28669D01*
X28721Y65585D01*
Y65375D01*
X28669Y65323D01*
X28564D01*
X28511Y65375D01*
Y65585D01*
X28000Y63017D02*
X27895D01*
X27947D01*
Y62755D01*
X27895Y62703D01*
X27842D01*
X27790Y62755D01*
X28105Y62703D02*
Y63017D01*
X28262D01*
X28315Y62965D01*
Y62860D01*
X28262Y62808D01*
X28105D01*
X28420Y63017D02*
X28629D01*
Y62965D01*
X28420Y62755D01*
Y62703D01*
X27830Y66897D02*
X27725D01*
X27777D01*
Y66635D01*
X27725Y66583D01*
X27672D01*
X27620Y66635D01*
X27935Y66583D02*
Y66897D01*
X28092D01*
X28145Y66845D01*
Y66740D01*
X28092Y66688D01*
X27935D01*
X28249Y66583D02*
X28354D01*
X28302D01*
Y66897D01*
X28249Y66845D01*
X28722Y66583D02*
X28512D01*
X28722Y66792D01*
Y66845D01*
X28669Y66897D01*
X28564D01*
X28512Y66845D01*
X27974Y64277D02*
X27869D01*
X27921D01*
Y64015D01*
X27869Y63963D01*
X27816D01*
X27764Y64015D01*
X28079Y63963D02*
Y64277D01*
X28236D01*
X28289Y64225D01*
Y64120D01*
X28236Y64068D01*
X28079D01*
X28394Y64015D02*
X28446Y63963D01*
X28551D01*
X28604Y64015D01*
Y64225D01*
X28551Y64277D01*
X28446D01*
X28394Y64225D01*
Y64172D01*
X28446Y64120D01*
X28604D01*
X27779Y68207D02*
X27674D01*
X27726D01*
Y67945D01*
X27674Y67893D01*
X27621D01*
X27569Y67945D01*
X27884Y67893D02*
Y68207D01*
X28041D01*
X28094Y68155D01*
Y68050D01*
X28041Y67998D01*
X27884D01*
X28199Y67893D02*
X28304D01*
X28251D01*
Y68207D01*
X28199Y68155D01*
X28461D02*
X28514Y68207D01*
X28619D01*
X28671Y68155D01*
Y68102D01*
X28619Y68050D01*
X28566D01*
X28619D01*
X28671Y67998D01*
Y67945D01*
X28619Y67893D01*
X28514D01*
X28461Y67945D01*
X34403Y86509D02*
Y86404D01*
Y86456D01*
X34665D01*
X34717Y86404D01*
Y86351D01*
X34665Y86299D01*
X34717Y86614D02*
X34403D01*
Y86771D01*
X34455Y86824D01*
X34560D01*
X34612Y86771D01*
Y86614D01*
X34717Y86929D02*
Y87034D01*
Y86981D01*
X34403D01*
X34455Y86929D01*
X34403Y87401D02*
X34455Y87296D01*
X34560Y87191D01*
X34665D01*
X34717Y87244D01*
Y87349D01*
X34665Y87401D01*
X34612D01*
X34560Y87349D01*
Y87191D01*
X26499Y75167D02*
X26394D01*
X26446D01*
Y74905D01*
X26394Y74853D01*
X26341D01*
X26289Y74905D01*
X26604Y74853D02*
Y75167D01*
X26761D01*
X26814Y75115D01*
Y75010D01*
X26761Y74958D01*
X26604D01*
X26919Y74853D02*
X27024D01*
X26971D01*
Y75167D01*
X26919Y75115D01*
X27339Y74853D02*
Y75167D01*
X27181Y75010D01*
X27391D01*
X42333Y52610D02*
Y52505D01*
Y52558D01*
X42595D01*
X42647Y52505D01*
Y52453D01*
X42595Y52400D01*
X42647Y52715D02*
X42333D01*
Y52872D01*
X42385Y52925D01*
X42490D01*
X42542Y52872D01*
Y52715D01*
X42333Y53240D02*
Y53030D01*
X42490D01*
X42438Y53135D01*
Y53187D01*
X42490Y53240D01*
X42595D01*
X42647Y53187D01*
Y53082D01*
X42595Y53030D01*
X16250Y65047D02*
X16145D01*
X16198D01*
Y64785D01*
X16145Y64733D01*
X16093D01*
X16040Y64785D01*
X16355Y64733D02*
Y65047D01*
X16512D01*
X16565Y64995D01*
Y64890D01*
X16512Y64838D01*
X16355D01*
X16670Y64995D02*
X16722Y65047D01*
X16827D01*
X16880Y64995D01*
Y64942D01*
X16827Y64890D01*
X16880Y64838D01*
Y64785D01*
X16827Y64733D01*
X16722D01*
X16670Y64785D01*
Y64838D01*
X16722Y64890D01*
X16670Y64942D01*
Y64995D01*
X16722Y64890D02*
X16827D01*
X24220Y48247D02*
X24115D01*
X24168D01*
Y47985D01*
X24115Y47933D01*
X24063D01*
X24010Y47985D01*
X24325Y47933D02*
Y48247D01*
X24482D01*
X24535Y48195D01*
Y48090D01*
X24482Y48038D01*
X24325D01*
X24850Y47933D02*
X24640D01*
X24850Y48142D01*
Y48195D01*
X24797Y48247D01*
X24692D01*
X24640Y48195D01*
X24270Y49887D02*
X24165D01*
X24218D01*
Y49625D01*
X24165Y49573D01*
X24113D01*
X24060Y49625D01*
X24375Y49573D02*
Y49887D01*
X24532D01*
X24585Y49835D01*
Y49730D01*
X24532Y49678D01*
X24375D01*
X24847Y49573D02*
Y49887D01*
X24690Y49730D01*
X24900D01*
X21363Y53880D02*
Y53775D01*
Y53828D01*
X21625D01*
X21677Y53775D01*
Y53723D01*
X21625Y53670D01*
X21677Y53985D02*
X21363D01*
Y54142D01*
X21415Y54195D01*
X21520D01*
X21572Y54142D01*
Y53985D01*
X21363Y54510D02*
X21415Y54405D01*
X21520Y54300D01*
X21625D01*
X21677Y54352D01*
Y54457D01*
X21625Y54510D01*
X21572D01*
X21520Y54457D01*
Y54300D01*
X31853Y79209D02*
Y79104D01*
Y79156D01*
X32115D01*
X32167Y79104D01*
Y79051D01*
X32115Y78999D01*
X32167Y79314D02*
X31853D01*
Y79471D01*
X31905Y79524D01*
X32010D01*
X32062Y79471D01*
Y79314D01*
X32167Y79629D02*
Y79734D01*
Y79681D01*
X31853D01*
X31905Y79629D01*
X31853Y80101D02*
Y79891D01*
X32010D01*
X31958Y79996D01*
Y80049D01*
X32010Y80101D01*
X32115D01*
X32167Y80049D01*
Y79944D01*
X32115Y79891D01*
X19373Y67691D02*
Y67586D01*
Y67639D01*
X19635D01*
X19687Y67586D01*
Y67534D01*
X19635Y67481D01*
X19687Y67796D02*
X19373D01*
Y67954D01*
X19425Y68006D01*
X19530D01*
X19582Y67954D01*
Y67796D01*
X19687Y68111D02*
Y68216D01*
Y68164D01*
X19373D01*
X19425Y68111D01*
X19687Y68374D02*
Y68479D01*
Y68426D01*
X19373D01*
X19425Y68374D01*
X14943Y41843D02*
Y41738D01*
Y41790D01*
X15205D01*
X15257Y41738D01*
Y41685D01*
X15205Y41633D01*
X15257Y41948D02*
X14943D01*
Y42105D01*
X14995Y42157D01*
X15100D01*
X15152Y42105D01*
Y41948D01*
X15257Y42262D02*
Y42367D01*
Y42315D01*
X14943D01*
X14995Y42262D01*
X13618Y50337D02*
Y50075D01*
X13670Y50023D01*
X13775D01*
X13828Y50075D01*
Y50337D01*
X14142Y50023D02*
X13932D01*
X14142Y50232D01*
Y50285D01*
X14090Y50337D01*
X13985D01*
X13932Y50285D01*
X36140Y46667D02*
Y46405D01*
X36193Y46353D01*
X36298D01*
X36350Y46405D01*
Y46667D01*
X36455Y46353D02*
X36560D01*
X36507D01*
Y46667D01*
X36455Y46615D01*
X35498Y82017D02*
Y81755D01*
X35550Y81703D01*
X35655D01*
X35708Y81755D01*
Y82017D01*
X36022D02*
X35917Y81965D01*
X35812Y81860D01*
Y81755D01*
X35865Y81703D01*
X35970D01*
X36022Y81755D01*
Y81808D01*
X35970Y81860D01*
X35812D01*
X14619Y53965D02*
X14566Y54017D01*
X14461D01*
X14409Y53965D01*
Y53755D01*
X14461Y53703D01*
X14566D01*
X14619Y53755D01*
X14724Y53703D02*
X14829D01*
X14776D01*
Y54017D01*
X14724Y53965D01*
X14986Y53703D02*
X15091D01*
X15039D01*
Y54017D01*
X14986Y53965D01*
X33548Y48945D02*
X33495Y48997D01*
X33390D01*
X33338Y48945D01*
Y48735D01*
X33390Y48683D01*
X33495D01*
X33548Y48735D01*
X33862Y48997D02*
X33757Y48945D01*
X33652Y48840D01*
Y48735D01*
X33705Y48683D01*
X33810D01*
X33862Y48735D01*
Y48788D01*
X33810Y48840D01*
X33652D01*
X15940Y68585D02*
X15888Y68637D01*
X15783D01*
X15730Y68585D01*
Y68375D01*
X15783Y68323D01*
X15888D01*
X15940Y68375D01*
X16255Y68323D02*
X16045D01*
X16255Y68532D01*
Y68585D01*
X16202Y68637D01*
X16098D01*
X16045Y68585D01*
X16517Y68323D02*
Y68637D01*
X16360Y68480D01*
X16570D01*
X31898Y44845D02*
X31845Y44897D01*
X31740D01*
X31688Y44845D01*
Y44635D01*
X31740Y44583D01*
X31845D01*
X31898Y44635D01*
X32002Y44845D02*
X32055Y44897D01*
X32160D01*
X32212Y44845D01*
Y44792D01*
X32160Y44740D01*
X32107D01*
X32160D01*
X32212Y44688D01*
Y44635D01*
X32160Y44583D01*
X32055D01*
X32002Y44635D01*
X32078Y49275D02*
X32025Y49327D01*
X31920D01*
X31868Y49275D01*
Y49065D01*
X31920Y49013D01*
X32025D01*
X32078Y49065D01*
X32392Y49327D02*
X32182D01*
Y49170D01*
X32287Y49222D01*
X32340D01*
X32392Y49170D01*
Y49065D01*
X32340Y49013D01*
X32235D01*
X32182Y49065D01*
X12135Y50618D02*
X12083Y50565D01*
Y50460D01*
X12135Y50408D01*
X12345D01*
X12397Y50460D01*
Y50565D01*
X12345Y50618D01*
X12135Y50722D02*
X12083Y50775D01*
Y50880D01*
X12135Y50932D01*
X12188D01*
X12240Y50880D01*
X12292Y50932D01*
X12345D01*
X12397Y50880D01*
Y50775D01*
X12345Y50722D01*
X12292D01*
X12240Y50775D01*
X12188Y50722D01*
X12135D01*
X12240Y50775D02*
Y50880D01*
X34960Y78985D02*
X34908Y79037D01*
X34803D01*
X34750Y78985D01*
Y78775D01*
X34803Y78723D01*
X34908D01*
X34960Y78775D01*
X35275Y78723D02*
X35065D01*
X35275Y78932D01*
Y78985D01*
X35222Y79037D01*
X35118D01*
X35065Y78985D01*
X35380D02*
X35432Y79037D01*
X35537D01*
X35590Y78985D01*
Y78932D01*
X35537Y78880D01*
X35590Y78828D01*
Y78775D01*
X35537Y78723D01*
X35432D01*
X35380Y78775D01*
Y78828D01*
X35432Y78880D01*
X35380Y78932D01*
Y78985D01*
X35432Y78880D02*
X35537D01*
X20895Y42200D02*
X20843Y42148D01*
Y42043D01*
X20895Y41990D01*
X21105D01*
X21157Y42043D01*
Y42148D01*
X21105Y42200D01*
X21157Y42305D02*
Y42410D01*
Y42357D01*
X20843D01*
X20895Y42305D01*
X34255Y83642D02*
X34203Y83590D01*
Y83485D01*
X34255Y83432D01*
X34465D01*
X34517Y83485D01*
Y83590D01*
X34465Y83642D01*
X34255Y83747D02*
X34203Y83800D01*
Y83905D01*
X34255Y83957D01*
X34308D01*
X34360Y83905D01*
Y83852D01*
Y83905D01*
X34412Y83957D01*
X34465D01*
X34517Y83905D01*
Y83800D01*
X34465Y83747D01*
X34203Y84062D02*
Y84272D01*
X34255D01*
X34465Y84062D01*
X34517D01*
X12710Y64785D02*
X12658Y64837D01*
X12553D01*
X12500Y64785D01*
Y64575D01*
X12553Y64523D01*
X12658D01*
X12710Y64575D01*
X13025Y64523D02*
X12815D01*
X13025Y64732D01*
Y64785D01*
X12972Y64837D01*
X12868D01*
X12815Y64785D01*
X13130D02*
X13182Y64837D01*
X13287D01*
X13340Y64785D01*
Y64732D01*
X13287Y64680D01*
X13235D01*
X13287D01*
X13340Y64628D01*
Y64575D01*
X13287Y64523D01*
X13182D01*
X13130Y64575D01*
X12815Y64095D02*
X12763Y64147D01*
X12658D01*
X12605Y64095D01*
Y63885D01*
X12658Y63833D01*
X12763D01*
X12815Y63885D01*
X13130Y63833D02*
X12920D01*
X13130Y64042D01*
Y64095D01*
X13077Y64147D01*
X12972D01*
X12920Y64095D01*
X13235Y63833D02*
X13340D01*
X13287D01*
Y64147D01*
X13235Y64095D01*
X17505Y70930D02*
X17453Y70878D01*
Y70773D01*
X17505Y70720D01*
X17715D01*
X17767Y70773D01*
Y70878D01*
X17715Y70930D01*
X17767Y71245D02*
Y71035D01*
X17558Y71245D01*
X17505D01*
X17453Y71192D01*
Y71088D01*
X17505Y71035D01*
X17453Y71560D02*
Y71350D01*
X17610D01*
X17558Y71455D01*
Y71507D01*
X17610Y71560D01*
X17715D01*
X17767Y71507D01*
Y71402D01*
X17715Y71350D01*
X31105Y82073D02*
X31053Y82020D01*
Y81915D01*
X31105Y81863D01*
X31315D01*
X31367Y81915D01*
Y82020D01*
X31315Y82073D01*
X31105Y82178D02*
X31053Y82230D01*
Y82335D01*
X31105Y82387D01*
X31158D01*
X31210Y82335D01*
Y82282D01*
Y82335D01*
X31262Y82387D01*
X31315D01*
X31367Y82335D01*
Y82230D01*
X31315Y82178D01*
X31367Y82492D02*
Y82597D01*
Y82545D01*
X31053D01*
X31105Y82492D01*
X13146Y53845D02*
X13094Y53897D01*
X12989D01*
X12936Y53845D01*
Y53635D01*
X12989Y53583D01*
X13094D01*
X13146Y53635D01*
X13251Y53583D02*
X13356D01*
X13304D01*
Y53897D01*
X13251Y53845D01*
X13514D02*
X13566Y53897D01*
X13671D01*
X13724Y53845D01*
Y53635D01*
X13671Y53583D01*
X13566D01*
X13514Y53635D01*
Y53845D01*
X35945Y80450D02*
X35893Y80398D01*
Y80293D01*
X35945Y80240D01*
X36155D01*
X36207Y80293D01*
Y80398D01*
X36155Y80450D01*
X35945Y80555D02*
X35893Y80608D01*
Y80712D01*
X35945Y80765D01*
X35998D01*
X36050Y80712D01*
Y80660D01*
Y80712D01*
X36102Y80765D01*
X36155D01*
X36207Y80712D01*
Y80608D01*
X36155Y80555D01*
X35945Y80870D02*
X35893Y80922D01*
Y81027D01*
X35945Y81080D01*
X36155D01*
X36207Y81027D01*
Y80922D01*
X36155Y80870D01*
X35945D01*
X15546Y54945D02*
X15494Y54997D01*
X15389D01*
X15336Y54945D01*
Y54735D01*
X15389Y54683D01*
X15494D01*
X15546Y54735D01*
X15651Y54683D02*
X15756D01*
X15704D01*
Y54997D01*
X15651Y54945D01*
X15914D02*
X15966Y54997D01*
X16071D01*
X16124Y54945D01*
Y54892D01*
X16071Y54840D01*
X16019D01*
X16071D01*
X16124Y54788D01*
Y54735D01*
X16071Y54683D01*
X15966D01*
X15914Y54735D01*
X35958Y49995D02*
X35905Y50047D01*
X35800D01*
X35748Y49995D01*
Y49785D01*
X35800Y49733D01*
X35905D01*
X35958Y49785D01*
X36062Y50047D02*
X36272D01*
Y49995D01*
X36062Y49785D01*
Y49733D01*
X40176Y55565D02*
X40124Y55617D01*
X40019D01*
X39966Y55565D01*
Y55355D01*
X40019Y55303D01*
X40124D01*
X40176Y55355D01*
X40281Y55303D02*
X40386D01*
X40334D01*
Y55617D01*
X40281Y55565D01*
X40754Y55617D02*
X40544D01*
Y55460D01*
X40649Y55512D01*
X40701D01*
X40754Y55460D01*
Y55355D01*
X40701Y55303D01*
X40596D01*
X40544Y55355D01*
X12105Y57126D02*
X12053Y57074D01*
Y56969D01*
X12105Y56916D01*
X12315D01*
X12367Y56969D01*
Y57074D01*
X12315Y57126D01*
X12367Y57231D02*
Y57336D01*
Y57284D01*
X12053D01*
X12105Y57231D01*
Y57494D02*
X12053Y57546D01*
Y57651D01*
X12105Y57704D01*
X12158D01*
X12210Y57651D01*
X12262Y57704D01*
X12315D01*
X12367Y57651D01*
Y57546D01*
X12315Y57494D01*
X12262D01*
X12210Y57546D01*
X12158Y57494D01*
X12105D01*
X12210Y57546D02*
Y57651D01*
X20396Y60555D02*
X20344Y60607D01*
X20239D01*
X20186Y60555D01*
Y60345D01*
X20239Y60293D01*
X20344D01*
X20396Y60345D01*
X20501Y60293D02*
X20606D01*
X20554D01*
Y60607D01*
X20501Y60555D01*
X20764Y60345D02*
X20816Y60293D01*
X20921D01*
X20974Y60345D01*
Y60555D01*
X20921Y60607D01*
X20816D01*
X20764Y60555D01*
Y60502D01*
X20816Y60450D01*
X20974D01*
X26816Y56175D02*
X26764Y56227D01*
X26659D01*
X26606Y56175D01*
Y55965D01*
X26659Y55913D01*
X26764D01*
X26816Y55965D01*
X26921Y55913D02*
X27026D01*
X26974D01*
Y56227D01*
X26921Y56175D01*
X27394Y56227D02*
X27289Y56175D01*
X27184Y56070D01*
Y55965D01*
X27236Y55913D01*
X27341D01*
X27394Y55965D01*
Y56018D01*
X27341Y56070D01*
X27184D01*
X19025Y85293D02*
X18973Y85240D01*
Y85136D01*
X19025Y85083D01*
X19235D01*
X19287Y85136D01*
Y85240D01*
X19235Y85293D01*
X19287Y85555D02*
X18973D01*
X19130Y85398D01*
Y85608D01*
X19287Y85713D02*
Y85818D01*
Y85765D01*
X18973D01*
X19025Y85713D01*
Y83192D02*
X18973Y83139D01*
Y83034D01*
X19025Y82982D01*
X19235D01*
X19287Y83034D01*
Y83139D01*
X19235Y83192D01*
X19025Y83297D02*
X18973Y83349D01*
Y83454D01*
X19025Y83506D01*
X19078D01*
X19130Y83454D01*
Y83402D01*
Y83454D01*
X19182Y83506D01*
X19235D01*
X19287Y83454D01*
Y83349D01*
X19235Y83297D01*
X18973Y83821D02*
Y83611D01*
X19130D01*
X19078Y83716D01*
Y83769D01*
X19130Y83821D01*
X19235D01*
X19287Y83769D01*
Y83664D01*
X19235Y83611D01*
X17025Y85240D02*
X16973Y85188D01*
Y85083D01*
X17025Y85031D01*
X17235D01*
X17287Y85083D01*
Y85188D01*
X17235Y85240D01*
X17287Y85503D02*
X16973D01*
X17130Y85345D01*
Y85555D01*
X17025Y85660D02*
X16973Y85713D01*
Y85818D01*
X17025Y85870D01*
X17235D01*
X17287Y85818D01*
Y85713D01*
X17235Y85660D01*
X17025D01*
Y83190D02*
X16973Y83138D01*
Y83033D01*
X17025Y82981D01*
X17235D01*
X17287Y83033D01*
Y83138D01*
X17235Y83190D01*
X17025Y83295D02*
X16973Y83348D01*
Y83453D01*
X17025Y83505D01*
X17078D01*
X17130Y83453D01*
Y83400D01*
Y83453D01*
X17182Y83505D01*
X17235D01*
X17287Y83453D01*
Y83348D01*
X17235Y83295D01*
X17287Y83768D02*
X16973D01*
X17130Y83610D01*
Y83820D01*
X15025Y85265D02*
X14973Y85212D01*
Y85107D01*
X15025Y85055D01*
X15235D01*
X15287Y85107D01*
Y85212D01*
X15235Y85265D01*
X15025Y85370D02*
X14973Y85422D01*
Y85527D01*
X15025Y85580D01*
X15078D01*
X15130Y85527D01*
Y85475D01*
Y85527D01*
X15182Y85580D01*
X15235D01*
X15287Y85527D01*
Y85422D01*
X15235Y85370D01*
Y85684D02*
X15287Y85737D01*
Y85842D01*
X15235Y85894D01*
X15025D01*
X14973Y85842D01*
Y85737D01*
X15025Y85684D01*
X15078D01*
X15130Y85737D01*
Y85894D01*
X15025Y83191D02*
X14973Y83138D01*
Y83033D01*
X15025Y82981D01*
X15235D01*
X15287Y83033D01*
Y83138D01*
X15235Y83191D01*
X15025Y83296D02*
X14973Y83348D01*
Y83453D01*
X15025Y83506D01*
X15078D01*
X15130Y83453D01*
Y83401D01*
Y83453D01*
X15182Y83506D01*
X15235D01*
X15287Y83453D01*
Y83348D01*
X15235Y83296D01*
X15025Y83611D02*
X14973Y83663D01*
Y83768D01*
X15025Y83821D01*
X15078D01*
X15130Y83768D01*
Y83716D01*
Y83768D01*
X15182Y83821D01*
X15235D01*
X15287Y83768D01*
Y83663D01*
X15235Y83611D01*
X13025Y85240D02*
X12973Y85187D01*
Y85082D01*
X13025Y85030D01*
X13235D01*
X13287Y85082D01*
Y85187D01*
X13235Y85240D01*
X13025Y85344D02*
X12973Y85397D01*
Y85502D01*
X13025Y85554D01*
X13078D01*
X13130Y85502D01*
Y85449D01*
Y85502D01*
X13182Y85554D01*
X13235D01*
X13287Y85502D01*
Y85397D01*
X13235Y85344D01*
X13025Y85659D02*
X12973Y85712D01*
Y85817D01*
X13025Y85869D01*
X13078D01*
X13130Y85817D01*
X13182Y85869D01*
X13235D01*
X13287Y85817D01*
Y85712D01*
X13235Y85659D01*
X13182D01*
X13130Y85712D01*
X13078Y85659D01*
X13025D01*
X13130Y85712D02*
Y85817D01*
X13025Y83191D02*
X12973Y83138D01*
Y83033D01*
X13025Y82981D01*
X13235D01*
X13287Y83033D01*
Y83138D01*
X13235Y83191D01*
X13025Y83296D02*
X12973Y83348D01*
Y83453D01*
X13025Y83506D01*
X13078D01*
X13130Y83453D01*
Y83401D01*
Y83453D01*
X13182Y83506D01*
X13235D01*
X13287Y83453D01*
Y83348D01*
X13235Y83296D01*
X13287Y83821D02*
Y83611D01*
X13078Y83821D01*
X13025D01*
X12973Y83768D01*
Y83663D01*
X13025Y83611D01*
X12710Y63375D02*
X12658Y63427D01*
X12553D01*
X12500Y63375D01*
Y63165D01*
X12553Y63113D01*
X12658D01*
X12710Y63165D01*
X13025Y63113D02*
X12815D01*
X13025Y63322D01*
Y63375D01*
X12972Y63427D01*
X12868D01*
X12815Y63375D01*
X13130D02*
X13182Y63427D01*
X13287D01*
X13340Y63375D01*
Y63165D01*
X13287Y63113D01*
X13182D01*
X13130Y63165D01*
Y63375D01*
X20975Y85240D02*
X20923Y85188D01*
Y85083D01*
X20975Y85030D01*
X21185D01*
X21237Y85083D01*
Y85188D01*
X21185Y85240D01*
X21237Y85502D02*
X20923D01*
X21080Y85345D01*
Y85555D01*
X21237Y85870D02*
Y85660D01*
X21028Y85870D01*
X20975D01*
X20923Y85817D01*
Y85712D01*
X20975Y85660D01*
Y83190D02*
X20923Y83138D01*
Y83033D01*
X20975Y82980D01*
X21185D01*
X21237Y83033D01*
Y83138D01*
X21185Y83190D01*
X20975Y83295D02*
X20923Y83348D01*
Y83452D01*
X20975Y83505D01*
X21028D01*
X21080Y83452D01*
Y83400D01*
Y83452D01*
X21132Y83505D01*
X21185D01*
X21237Y83452D01*
Y83348D01*
X21185Y83295D01*
X20923Y83820D02*
X20975Y83715D01*
X21080Y83610D01*
X21185D01*
X21237Y83662D01*
Y83767D01*
X21185Y83820D01*
X21132D01*
X21080Y83767D01*
Y83610D01*
X18216Y79143D02*
X18163Y79196D01*
X18059D01*
X18006Y79143D01*
Y78933D01*
X18059Y78881D01*
X18163D01*
X18216Y78933D01*
X18531Y78881D02*
X18321D01*
X18531Y79091D01*
Y79143D01*
X18478Y79196D01*
X18373D01*
X18321Y79143D01*
X18636Y78933D02*
X18688Y78881D01*
X18793D01*
X18846Y78933D01*
Y79143D01*
X18793Y79196D01*
X18688D01*
X18636Y79143D01*
Y79091D01*
X18688Y79038D01*
X18846D01*
X18219Y79931D02*
X18166Y79983D01*
X18061D01*
X18009Y79931D01*
Y79721D01*
X18061Y79668D01*
X18166D01*
X18219Y79721D01*
X18534Y79668D02*
X18324D01*
X18534Y79878D01*
Y79931D01*
X18481Y79983D01*
X18376D01*
X18324Y79931D01*
X18639Y79983D02*
X18848D01*
Y79931D01*
X18639Y79721D01*
Y79668D01*
D26*
X12673Y87591D02*
X12082D01*
Y87886D01*
X12181Y87984D01*
X12377D01*
X12476Y87886D01*
Y87591D01*
X12673Y88279D02*
Y88476D01*
X12574Y88574D01*
X12377D01*
X12279Y88476D01*
Y88279D01*
X12377Y88181D01*
X12574D01*
X12673Y88279D01*
X12279Y88771D02*
X12574D01*
X12673Y88870D01*
X12574Y88968D01*
X12673Y89066D01*
X12574Y89165D01*
X12279D01*
X12673Y89657D02*
Y89460D01*
X12574Y89362D01*
X12377D01*
X12279Y89460D01*
Y89657D01*
X12377Y89755D01*
X12476D01*
Y89362D01*
X12279Y89952D02*
X12673D01*
X12476D01*
X12377Y90050D01*
X12279Y90149D01*
Y90247D01*
X12673Y91231D02*
Y91428D01*
X12574Y91526D01*
X12377D01*
X12279Y91428D01*
Y91231D01*
X12377Y91133D01*
X12574D01*
X12673Y91231D01*
X12279Y91723D02*
X12574D01*
X12673Y91821D01*
Y92117D01*
X12279D01*
X12181Y92412D02*
X12279D01*
Y92313D01*
Y92510D01*
Y92412D01*
X12574D01*
X12673Y92510D01*
X12869Y92805D02*
X12279D01*
Y93101D01*
X12377Y93199D01*
X12574D01*
X12673Y93101D01*
Y92805D01*
X12279Y93396D02*
X12574D01*
X12673Y93494D01*
Y93789D01*
X12279D01*
X12181Y94085D02*
X12279D01*
Y93986D01*
Y94183D01*
Y94085D01*
X12574D01*
X12673Y94183D01*
X25883Y9784D02*
Y9391D01*
X25489Y9784D01*
X25391D01*
X25292Y9686D01*
Y9489D01*
X25391Y9391D01*
Y9981D02*
X25292Y10079D01*
Y10276D01*
X25391Y10374D01*
X25489D01*
X25587Y10276D01*
Y10178D01*
Y10276D01*
X25686Y10374D01*
X25784D01*
X25883Y10276D01*
Y10079D01*
X25784Y9981D01*
X25391Y10571D02*
X25292Y10670D01*
Y10866D01*
X25391Y10965D01*
X25784D01*
X25883Y10866D01*
Y10670D01*
X25784Y10571D01*
X25391D01*
X25292Y11752D02*
X25686D01*
X25883Y11949D01*
X25686Y12146D01*
X25292D01*
X25883Y12342D02*
X25489D01*
X25292Y12539D01*
X25489Y12736D01*
X25883D01*
X25587D01*
Y12342D01*
X25391Y13326D02*
X25292Y13228D01*
Y13031D01*
X25391Y12933D01*
X25784D01*
X25883Y13031D01*
Y13228D01*
X25784Y13326D01*
X25883Y14113D02*
Y14310D01*
Y14212D01*
X25489D01*
Y14113D01*
X25883Y14605D02*
X25489D01*
Y14901D01*
X25587Y14999D01*
X25883D01*
X26079Y15196D02*
X25489D01*
Y15491D01*
X25587Y15589D01*
X25784D01*
X25883Y15491D01*
Y15196D01*
X25489Y15786D02*
X25784D01*
X25883Y15885D01*
Y16180D01*
X25489D01*
X25391Y16475D02*
X25489D01*
Y16376D01*
Y16573D01*
Y16475D01*
X25784D01*
X25883Y16573D01*
X42468Y98025D02*
Y98615D01*
X42763D01*
X42862Y98517D01*
Y98320D01*
X42763Y98222D01*
X42468D01*
X43058Y98123D02*
X43157Y98025D01*
X43354D01*
X43452Y98123D01*
Y98517D01*
X43354Y98615D01*
X43157D01*
X43058Y98517D01*
Y98418D01*
X43157Y98320D01*
X43452D01*
X6708Y65275D02*
Y65865D01*
X7003D01*
X7102Y65767D01*
Y65570D01*
X7003Y65472D01*
X6708D01*
X7692Y65865D02*
X7495Y65767D01*
X7298Y65570D01*
Y65373D01*
X7397Y65275D01*
X7594D01*
X7692Y65373D01*
Y65472D01*
X7594Y65570D01*
X7298D01*
X29616Y55825D02*
Y55235D01*
X30010D01*
X30207D02*
X30404D01*
X30305D01*
Y55825D01*
X30207Y55727D01*
X6928Y53685D02*
Y53095D01*
X7322D01*
X7912D02*
X7518D01*
X7912Y53488D01*
Y53587D01*
X7814Y53685D01*
X7617D01*
X7518Y53587D01*
X28148Y42025D02*
Y42615D01*
X28443D01*
X28542Y42517D01*
Y42320D01*
X28443Y42222D01*
X28148D01*
X28738Y42517D02*
X28837Y42615D01*
X29034D01*
X29132Y42517D01*
Y42418D01*
X29034Y42320D01*
X28935D01*
X29034D01*
X29132Y42222D01*
Y42123D01*
X29034Y42025D01*
X28837D01*
X28738Y42123D01*
X24688Y42045D02*
Y42635D01*
X24983D01*
X25082Y42537D01*
Y42340D01*
X24983Y42242D01*
X24688D01*
X25672Y42045D02*
X25278D01*
X25672Y42438D01*
Y42537D01*
X25574Y42635D01*
X25377D01*
X25278Y42537D01*
X6898Y47845D02*
Y48435D01*
X7193D01*
X7292Y48337D01*
Y48140D01*
X7193Y48042D01*
X6898D01*
X7882Y48435D02*
X7488D01*
Y48140D01*
X7685Y48238D01*
X7784D01*
X7882Y48140D01*
Y47943D01*
X7784Y47845D01*
X7587D01*
X7488Y47943D01*
X6988Y42535D02*
Y43125D01*
X7283D01*
X7382Y43027D01*
Y42830D01*
X7283Y42732D01*
X6988D01*
X7874Y42535D02*
Y43125D01*
X7578Y42830D01*
X7972D01*
X17835Y97415D02*
X17441D01*
Y97120D01*
X17638D01*
X17441D01*
Y96825D01*
X18032Y97415D02*
Y96825D01*
X18327D01*
X18425Y96923D01*
Y97022D01*
X18327Y97120D01*
X18032D01*
X18327D01*
X18425Y97218D01*
Y97317D01*
X18327Y97415D01*
X18032D01*
X18622Y96825D02*
X18819D01*
X18720D01*
Y97415D01*
X18622Y97317D01*
X35005Y26797D02*
X34906Y26895D01*
X34710D01*
X34611Y26797D01*
Y26698D01*
X34710Y26600D01*
X34906D01*
X35005Y26502D01*
Y26403D01*
X34906Y26305D01*
X34710D01*
X34611Y26403D01*
X35202Y26895D02*
Y26305D01*
X35398Y26502D01*
X35595Y26305D01*
Y26895D01*
X35792Y26305D02*
X35989D01*
X35890D01*
Y26895D01*
X35792Y26797D01*
X37597Y77335D02*
Y77925D01*
X37991Y77335D01*
Y77925D01*
X38187Y77335D02*
Y77925D01*
X38482D01*
X38581Y77827D01*
Y77630D01*
X38482Y77532D01*
X38187D01*
X38384D02*
X38581Y77335D01*
X39171Y77925D02*
X38778D01*
Y77630D01*
X38974D01*
X38778D01*
Y77335D01*
X39762Y77925D02*
X39368D01*
Y77630D01*
X39565Y77728D01*
X39663D01*
X39762Y77630D01*
Y77433D01*
X39663Y77335D01*
X39466D01*
X39368Y77433D01*
X40352Y77335D02*
X39958D01*
X40352Y77728D01*
Y77827D01*
X40254Y77925D01*
X40057D01*
X39958Y77827D01*
X40549D02*
X40647Y77925D01*
X40844D01*
X40942Y77827D01*
Y77728D01*
X40844Y77630D01*
X40942Y77532D01*
Y77433D01*
X40844Y77335D01*
X40647D01*
X40549Y77433D01*
Y77532D01*
X40647Y77630D01*
X40549Y77728D01*
Y77827D01*
X40647Y77630D02*
X40844D01*
X41434Y77335D02*
Y77925D01*
X41139Y77630D01*
X41533D01*
X41729Y77827D02*
X41828Y77925D01*
X42025D01*
X42123Y77827D01*
Y77433D01*
X42025Y77335D01*
X41828D01*
X41729Y77433D01*
Y77827D01*
X7350Y97600D02*
Y98190D01*
X7645D01*
X7744Y98092D01*
Y97895D01*
X7645Y97797D01*
X7350D01*
X7940Y98092D02*
X8039Y98190D01*
X8236D01*
X8334Y98092D01*
Y97994D01*
X8236Y97895D01*
X8334Y97797D01*
Y97698D01*
X8236Y97600D01*
X8039D01*
X7940Y97698D01*
Y97797D01*
X8039Y97895D01*
X7940Y97994D01*
Y98092D01*
X8039Y97895D02*
X8236D01*
X7350Y89390D02*
Y89980D01*
X7645D01*
X7744Y89882D01*
Y89685D01*
X7645Y89587D01*
X7350D01*
X7940Y89980D02*
X8334D01*
Y89882D01*
X7940Y89488D01*
Y89390D01*
X27616Y31305D02*
Y31895D01*
X27813Y31698D01*
X28010Y31895D01*
Y31305D01*
X28502Y31895D02*
X28305D01*
X28206Y31797D01*
Y31403D01*
X28305Y31305D01*
X28502D01*
X28600Y31403D01*
Y31797D01*
X28502Y31895D01*
X28797D02*
Y31502D01*
X28994Y31305D01*
X29190Y31502D01*
Y31895D01*
X29387Y31305D02*
X29584D01*
X29486D01*
Y31895D01*
X29387Y31797D01*
X6340Y77190D02*
Y76600D01*
X6734D01*
X6930Y77092D02*
X7029Y77190D01*
X7226D01*
X7324Y77092D01*
Y76994D01*
X7226Y76895D01*
X7127D01*
X7226D01*
X7324Y76797D01*
Y76698D01*
X7226Y76600D01*
X7029D01*
X6930Y76698D01*
X34238Y37775D02*
X33844D01*
Y37480D01*
X34041D01*
X33844D01*
Y37185D01*
X34435D02*
X34632D01*
X34533D01*
Y37775D01*
X34435Y37677D01*
X26997Y14905D02*
Y15495D01*
X27292D01*
X27390Y15397D01*
Y15200D01*
X27292Y15102D01*
X26997D01*
X27587Y14905D02*
X27784D01*
X27686D01*
Y15495D01*
X27587Y15397D01*
X22342Y44387D02*
X22243Y44485D01*
X22046D01*
X21948Y44387D01*
Y43993D01*
X22046Y43895D01*
X22243D01*
X22342Y43993D01*
X22932Y43895D02*
X22538D01*
X22932Y44288D01*
Y44387D01*
X22834Y44485D01*
X22637D01*
X22538Y44387D01*
X13856Y60497D02*
X13757Y60595D01*
X13560D01*
X13462Y60497D01*
Y60103D01*
X13560Y60005D01*
X13757D01*
X13856Y60103D01*
X14052Y60005D02*
X14249D01*
X14151D01*
Y60595D01*
X14052Y60497D01*
X14544Y60595D02*
X14938D01*
Y60497D01*
X14544Y60103D01*
Y60005D01*
X39722Y52137D02*
X39623Y52235D01*
X39426D01*
X39328Y52137D01*
Y51743D01*
X39426Y51645D01*
X39623D01*
X39722Y51743D01*
X39918D02*
X40017Y51645D01*
X40214D01*
X40312Y51743D01*
Y52137D01*
X40214Y52235D01*
X40017D01*
X39918Y52137D01*
Y52038D01*
X40017Y51940D01*
X40312D01*
X27896Y52607D02*
X27797Y52705D01*
X27600D01*
X27502Y52607D01*
Y52213D01*
X27600Y52115D01*
X27797D01*
X27896Y52213D01*
X28092Y52115D02*
X28289D01*
X28191D01*
Y52705D01*
X28092Y52607D01*
X28978Y52115D02*
X28584D01*
X28978Y52508D01*
Y52607D01*
X28880Y52705D01*
X28683D01*
X28584Y52607D01*
X21811Y15905D02*
Y16495D01*
X22106D01*
X22205Y16397D01*
Y16200D01*
X22106Y16102D01*
X21811D01*
X22795Y16397D02*
X22697Y16495D01*
X22500D01*
X22402Y16397D01*
Y16298D01*
X22500Y16200D01*
X22697D01*
X22795Y16102D01*
Y16003D01*
X22697Y15905D01*
X22500D01*
X22402Y16003D01*
X22992Y15905D02*
X23189D01*
X23090D01*
Y16495D01*
X22992Y16397D01*
M02*
