G04*
G04 #@! TF.GenerationSoftware,Altium Limited,Altium Designer,21.0.9 (235)*
G04*
G04 Layer_Physical_Order=1*
G04 Layer_Color=255*
%FSLAX24Y24*%
%MOIN*%
G70*
G04*
G04 #@! TF.SameCoordinates,2D4ACE21-508C-4F28-9509-530EA4604CDE*
G04*
G04*
G04 #@! TF.FilePolarity,Positive*
G04*
G01*
G75*
%ADD17C,0.0157*%
%ADD23C,0.0100*%
%ADD27R,0.0559X0.0425*%
%ADD28R,0.0425X0.0559*%
%ADD29R,0.0709X0.0591*%
%ADD30R,0.1346X0.1299*%
%ADD31R,0.0559X0.0362*%
%ADD32R,0.1264X0.0602*%
%ADD33R,0.0543X0.0409*%
%ADD34R,0.0157X0.0118*%
%ADD35R,0.0551X0.0354*%
%ADD36R,0.0362X0.0559*%
%ADD37R,0.0580X0.0140*%
%ADD38R,0.0350X0.0559*%
%ADD39R,0.0697X0.0413*%
%ADD40R,0.0550X0.0170*%
%ADD41C,0.0098*%
%ADD42R,0.0157X0.0150*%
%ADD43R,0.0579X0.0437*%
%ADD44R,0.1260X0.1024*%
%ADD45R,0.0394X0.0433*%
%ADD46R,0.2126X0.1142*%
%ADD47R,0.0213X0.0236*%
%ADD51R,0.0390X0.0331*%
%ADD52R,0.0559X0.0350*%
%ADD53R,0.0433X0.0579*%
%ADD54R,0.0362X0.0382*%
%ADD55R,0.0590X0.0170*%
%ADD56R,0.0579X0.0433*%
%ADD57R,0.0433X0.0394*%
%ADD58R,0.0394X0.0551*%
%ADD59R,0.0717X0.0476*%
%ADD60R,0.1420X0.1020*%
%ADD61R,0.0100X0.0320*%
%ADD62R,0.0320X0.0100*%
%ADD63R,0.1106X0.0630*%
%ADD64R,0.0850X0.0890*%
%ADD65R,0.0476X0.0717*%
%ADD66R,0.0709X0.0630*%
%ADD67R,0.0417X0.0543*%
%ADD131C,0.0100*%
%ADD132R,0.0331X0.1732*%
%ADD133R,0.0331X0.1114*%
%ADD134C,0.0150*%
%ADD135C,0.0200*%
%ADD136C,0.0140*%
%ADD137C,0.0787*%
%ADD138C,0.0600*%
%ADD139C,0.1575*%
%ADD140C,0.0394*%
%ADD141C,0.1181*%
%ADD142C,0.0591*%
%ADD143C,0.1200*%
%ADD144C,0.0197*%
%ADD145C,0.0400*%
%ADD146C,0.1299*%
%ADD147C,0.0140*%
%ADD148C,0.0000*%
%ADD149C,0.0276*%
%ADD150C,0.0472*%
%ADD151C,0.0500*%
%ADD152C,0.0800*%
%ADD153C,0.0512*%
%ADD154C,0.0098*%
%ADD155C,0.0409*%
%ADD156C,0.0236*%
%ADD157C,0.0138*%
%ADD158C,0.0315*%
%ADD159C,0.0630*%
%ADD160C,0.1102*%
%ADD161C,0.0476*%
%ADD162R,0.0476X0.0476*%
%ADD163C,0.1969*%
%ADD164C,0.1575*%
%ADD165R,0.0650X0.0650*%
%ADD166C,0.0650*%
%ADD167C,0.0866*%
%ADD168C,0.0984*%
%ADD169C,0.0709*%
%ADD170C,0.0560*%
%ADD171C,0.0709*%
%ADD172R,0.0460X0.0460*%
%ADD173C,0.0460*%
%ADD174C,0.0741*%
%ADD175R,0.0741X0.0741*%
%ADD176R,0.0476X0.0476*%
%ADD177R,0.0397X0.0397*%
%ADD178P,0.0430X8X202.5*%
%ADD179C,0.1181*%
%ADD180C,0.1575*%
%ADD181C,0.0300*%
%ADD182C,0.0500*%
G36*
X44370Y92210D02*
X39370D01*
X39370Y97210D01*
X44370Y97210D01*
Y92210D01*
D02*
G37*
G36*
X19455Y80271D02*
X19444Y80221D01*
X19138D01*
Y79942D01*
X19451D01*
Y79742D01*
X19138D01*
Y79462D01*
X19138D01*
Y79434D01*
X19138D01*
Y79154D01*
X19451D01*
Y78954D01*
X19138D01*
Y78675D01*
X19464D01*
Y78609D01*
X19364Y78510D01*
X17240D01*
Y80390D01*
X19337D01*
X19455Y80271D01*
D02*
G37*
G36*
X22320Y80070D02*
Y78790D01*
X21550Y78020D01*
X20406D01*
X20170Y78256D01*
Y78675D01*
X20468D01*
Y78954D01*
X20156D01*
Y79154D01*
X20468D01*
Y79434D01*
X20468D01*
Y79462D01*
X20468D01*
Y79742D01*
X20156D01*
Y79942D01*
X20468D01*
Y80221D01*
X20170D01*
Y80564D01*
X20366Y80760D01*
X21630D01*
X22320Y80070D01*
D02*
G37*
G36*
X22200Y76160D02*
Y74490D01*
X21950Y74240D01*
X18831D01*
Y74763D01*
X18566D01*
Y74963D01*
X18831D01*
Y75520D01*
X18829D01*
Y76046D01*
Y76160D01*
X19079Y76410D01*
X21950D01*
X22200Y76160D01*
D02*
G37*
G36*
X29599Y73803D02*
X30232D01*
Y73803D01*
X30268D01*
Y73803D01*
X30799D01*
X30819Y73757D01*
X30366Y73304D01*
X28786D01*
X28426Y73664D01*
X28445Y73710D01*
X29387D01*
Y73947D01*
X29599D01*
Y73803D01*
D02*
G37*
G36*
X36470Y92010D02*
X37200Y91280D01*
X37200Y72922D01*
X37154Y72902D01*
X36363Y73693D01*
Y77092D01*
X36351Y77151D01*
X36318Y77201D01*
X35828Y77691D01*
X35779Y77724D01*
X35720Y77735D01*
X35637D01*
X35600Y77790D01*
X35518Y77846D01*
X35420Y77865D01*
X35322Y77846D01*
X35240Y77790D01*
X35185Y77708D01*
X35165Y77610D01*
X35185Y77512D01*
X35240Y77430D01*
X35322Y77375D01*
X35420Y77355D01*
X35518Y77375D01*
X35600Y77430D01*
X35657D01*
X36057Y77029D01*
Y73630D01*
X36069Y73571D01*
X36102Y73522D01*
X37200Y72424D01*
Y72252D01*
X37154Y72232D01*
X35983Y73403D01*
Y76700D01*
X35971Y76759D01*
X35938Y76808D01*
X35730Y77016D01*
X35681Y77049D01*
X35654Y77054D01*
X35610Y77120D01*
X35528Y77175D01*
X35430Y77195D01*
X35332Y77175D01*
X35250Y77120D01*
X35194Y77038D01*
X35175Y76940D01*
X35194Y76842D01*
X35250Y76760D01*
X35332Y76705D01*
X35430Y76685D01*
X35528Y76705D01*
X35577Y76737D01*
X35677Y76637D01*
Y73340D01*
X35689Y73281D01*
X35722Y73232D01*
X36997Y71957D01*
X36430Y71390D01*
X35333Y71390D01*
Y75751D01*
X35335Y75751D01*
X35408Y75808D01*
X35464Y75881D01*
X35500Y75966D01*
X35512Y76057D01*
X35500Y76149D01*
X35464Y76234D01*
X35408Y76307D01*
X35335Y76363D01*
X35250Y76398D01*
X35159Y76410D01*
X35067Y76398D01*
X34982Y76363D01*
X34909Y76307D01*
X34853Y76234D01*
X34818Y76149D01*
X34806Y76057D01*
X34818Y75966D01*
X34853Y75881D01*
X34909Y75808D01*
X34982Y75751D01*
X35027Y75733D01*
Y71390D01*
X34767D01*
Y73840D01*
X34820Y73880D01*
X34876Y73953D01*
X34911Y74039D01*
X34923Y74130D01*
X34911Y74221D01*
X34876Y74307D01*
X34820Y74380D01*
X34747Y74436D01*
X34661Y74471D01*
X34570Y74483D01*
X34479Y74471D01*
X34393Y74436D01*
X34320Y74380D01*
X34264Y74307D01*
X34229Y74221D01*
X34217Y74130D01*
X34229Y74039D01*
X34264Y73953D01*
X34320Y73880D01*
X34359Y73851D01*
Y71390D01*
X31776Y71390D01*
Y71691D01*
X31500D01*
Y71414D01*
X31300D01*
Y71691D01*
X31025D01*
Y71390D01*
X30850D01*
Y71705D01*
X30385D01*
X29240Y72850D01*
X29259Y72896D01*
X30450D01*
X30528Y72912D01*
X30594Y72956D01*
X32382Y74743D01*
X32562D01*
X32581Y74697D01*
X31992Y74108D01*
X31959Y74059D01*
X31947Y74000D01*
Y72159D01*
X31894Y72124D01*
X31839Y72041D01*
X31820Y71944D01*
X31839Y71846D01*
X31894Y71764D01*
X31977Y71708D01*
X32075Y71689D01*
X32172Y71708D01*
X32255Y71764D01*
X32310Y71846D01*
X32329Y71944D01*
X32310Y72041D01*
X32255Y72124D01*
X32253Y72125D01*
Y73937D01*
X32899Y74583D01*
X32942Y74550D01*
X33052Y74505D01*
X33171Y74489D01*
X33289Y74505D01*
X33400Y74550D01*
X33495Y74623D01*
X33568Y74718D01*
X33613Y74829D01*
X33629Y74947D01*
X33613Y75066D01*
X33568Y75176D01*
X33495Y75271D01*
X33400Y75344D01*
X33289Y75390D01*
X33171Y75405D01*
X33052Y75390D01*
X32976Y75358D01*
X32504Y75830D01*
X32455Y75863D01*
X32396Y75875D01*
X30441D01*
X30393Y75991D01*
X30307Y76102D01*
X30196Y76187D01*
X30066Y76241D01*
X29927Y76259D01*
X29788Y76241D01*
X29658Y76187D01*
X29547Y76102D01*
X29462Y75991D01*
X29408Y75861D01*
X29389Y75722D01*
X29408Y75583D01*
X29462Y75453D01*
X29547Y75342D01*
X29658Y75256D01*
X29788Y75202D01*
X29927Y75184D01*
X30066Y75202D01*
X30196Y75256D01*
X30307Y75342D01*
X30393Y75453D01*
X30441Y75569D01*
X32333D01*
X32452Y75449D01*
X32433Y75403D01*
X32100D01*
X32041Y75391D01*
X31992Y75358D01*
X30947Y74314D01*
X30901Y74333D01*
Y74397D01*
X30268D01*
Y74397D01*
X30232D01*
Y74397D01*
X29599D01*
Y74253D01*
X29387D01*
Y74470D01*
X28073D01*
Y74263D01*
X27827D01*
X26969Y75121D01*
X26988Y75167D01*
X27810D01*
X27869Y75179D01*
X27918Y75212D01*
X29423Y76717D01*
X31922D01*
X31940Y76690D01*
X32022Y76634D01*
X32120Y76615D01*
X32218Y76634D01*
X32300Y76690D01*
X32355Y76772D01*
X32375Y76870D01*
X32355Y76968D01*
X32300Y77050D01*
X32218Y77105D01*
X32120Y77125D01*
X32022Y77105D01*
X31940Y77050D01*
X31922Y77023D01*
X29360D01*
X29301Y77011D01*
X29252Y76978D01*
X27747Y75473D01*
X26680D01*
Y75657D01*
X27680D01*
X27739Y75669D01*
X27788Y75702D01*
X29495Y77409D01*
X31897D01*
X31916Y77381D01*
X31998Y77326D01*
X32096Y77307D01*
X32193Y77326D01*
X32276Y77381D01*
X32331Y77464D01*
X32351Y77562D01*
X32331Y77659D01*
X32276Y77742D01*
X32193Y77797D01*
X32096Y77817D01*
X31998Y77797D01*
X31916Y77742D01*
X31897Y77715D01*
X29432D01*
X29373Y77703D01*
X29324Y77670D01*
X27617Y75963D01*
X26680D01*
X26680Y91280D01*
X27410Y92010D01*
X36470Y92010D01*
D02*
G37*
G36*
X26880Y61130D02*
X26580D01*
Y61430D01*
X26880D01*
Y61130D01*
D02*
G37*
G36*
Y60630D02*
X26580D01*
Y60930D01*
X26880D01*
Y60630D01*
D02*
G37*
G36*
X20140Y59450D02*
X19840D01*
Y59750D01*
X20140D01*
Y59450D01*
D02*
G37*
G36*
X19640D02*
X19340D01*
Y59750D01*
X19640D01*
Y59450D01*
D02*
G37*
G36*
X34730Y58110D02*
X34430D01*
Y58410D01*
X34730D01*
Y58110D01*
D02*
G37*
G36*
X34230D02*
X33930D01*
Y58410D01*
X34230D01*
Y58110D01*
D02*
G37*
G36*
X33420Y57600D02*
X33120D01*
Y57900D01*
X33420D01*
Y57600D01*
D02*
G37*
G36*
X32920D02*
X32620D01*
Y57900D01*
X32920D01*
Y57600D01*
D02*
G37*
G36*
X41220Y57550D02*
X40920D01*
Y57850D01*
X41220D01*
Y57550D01*
D02*
G37*
G36*
Y57050D02*
X40920D01*
Y57350D01*
X41220D01*
Y57050D01*
D02*
G37*
G36*
X33480Y56420D02*
X33180D01*
Y56720D01*
X33480D01*
Y56420D01*
D02*
G37*
G36*
X32980D02*
X32680D01*
Y56720D01*
X32980D01*
Y56420D01*
D02*
G37*
%LPC*%
G36*
X41929Y95986D02*
X41762D01*
X41597Y95964D01*
X41435Y95921D01*
X41281Y95857D01*
X41136Y95773D01*
X41004Y95672D01*
X40886Y95553D01*
X40784Y95421D01*
X40700Y95276D01*
X40636Y95122D01*
X40593Y94960D01*
X40571Y94795D01*
Y94711D01*
Y94628D01*
X40593Y94462D01*
X40636Y94301D01*
X40700Y94146D01*
X40784Y94002D01*
X40886Y93869D01*
X41004Y93751D01*
X41136Y93649D01*
X41281Y93566D01*
X41435Y93502D01*
X41597Y93458D01*
X41762Y93437D01*
X41929D01*
X42095Y93458D01*
X42256Y93502D01*
X42411Y93566D01*
X42556Y93649D01*
X42688Y93751D01*
X42806Y93869D01*
X42908Y94002D01*
X42991Y94146D01*
X43055Y94301D01*
X43099Y94462D01*
X43120Y94628D01*
Y94711D01*
Y94795D01*
X43099Y94960D01*
X43055Y95122D01*
X42991Y95276D01*
X42908Y95421D01*
X42806Y95553D01*
X42688Y95672D01*
X42556Y95773D01*
X42411Y95857D01*
X42256Y95921D01*
X42095Y95964D01*
X41929Y95986D01*
D02*
G37*
G36*
X31244Y91248D02*
X31166Y91233D01*
X31100Y91189D01*
X30923Y91011D01*
X30870Y90989D01*
X30808Y90942D01*
X30761Y90880D01*
X30731Y90807D01*
X30721Y90730D01*
Y89336D01*
X30566D01*
Y88545D01*
X30610D01*
Y88155D01*
X30566D01*
Y87364D01*
X30701D01*
Y86864D01*
X30356Y86519D01*
X28837D01*
X28824Y86561D01*
X28741Y86715D01*
X28631Y86851D01*
X28495Y86961D01*
X28341Y87044D01*
X28174Y87095D01*
X28000Y87112D01*
X27826Y87095D01*
X27659Y87044D01*
X27505Y86961D01*
X27369Y86851D01*
X27259Y86715D01*
X27176Y86561D01*
X27125Y86394D01*
X27108Y86220D01*
X27125Y86046D01*
X27176Y85879D01*
X27259Y85725D01*
X27369Y85589D01*
X27505Y85479D01*
X27659Y85396D01*
X27826Y85345D01*
X28000Y85328D01*
X28174Y85345D01*
X28341Y85396D01*
X28495Y85479D01*
X28631Y85589D01*
X28741Y85725D01*
X28824Y85879D01*
X28837Y85921D01*
X30480D01*
X30557Y85931D01*
X30630Y85961D01*
X30692Y86008D01*
X30705Y86025D01*
X30722Y86038D01*
X31212Y86528D01*
X31259Y86590D01*
X31289Y86663D01*
X31299Y86740D01*
Y86782D01*
X32333D01*
X32338Y86768D01*
X32399Y86689D01*
X32478Y86628D01*
X32571Y86590D01*
X32670Y86577D01*
X32769Y86590D01*
X32862Y86628D01*
X32941Y86689D01*
X33002Y86768D01*
X33040Y86861D01*
X33053Y86960D01*
X33040Y87059D01*
X33002Y87152D01*
X32941Y87231D01*
X32862Y87292D01*
X32848Y87297D01*
Y87785D01*
X32919Y87814D01*
X33030Y87900D01*
X33116Y88011D01*
X33169Y88141D01*
X33188Y88280D01*
X33169Y88419D01*
X33116Y88549D01*
X33030Y88660D01*
X32919Y88746D01*
X32789Y88799D01*
X32650Y88818D01*
X32511Y88799D01*
X32381Y88746D01*
X32270Y88660D01*
X32184Y88549D01*
X32131Y88419D01*
X32112Y88280D01*
X32131Y88141D01*
X32184Y88011D01*
X32270Y87900D01*
X32381Y87814D01*
X32492Y87769D01*
Y87297D01*
X32478Y87292D01*
X32399Y87231D01*
X32338Y87152D01*
X32333Y87138D01*
X31299D01*
Y87364D01*
X31474D01*
Y88155D01*
X31440D01*
Y88545D01*
X31474D01*
Y89336D01*
X31319D01*
Y90730D01*
X31309Y90807D01*
X31305Y90817D01*
X31389Y90900D01*
X31433Y90966D01*
X31448Y91044D01*
X31433Y91123D01*
X31389Y91189D01*
X31323Y91233D01*
X31244Y91248D01*
D02*
G37*
G36*
X33244Y85652D02*
X33036D01*
Y85380D01*
X33244D01*
Y85652D01*
D02*
G37*
G36*
X32836D02*
X32627D01*
Y85380D01*
X32836D01*
Y85652D01*
D02*
G37*
G36*
X33244Y85180D02*
X33036D01*
Y84908D01*
X33244D01*
Y85180D01*
D02*
G37*
G36*
X32836D02*
X32627D01*
Y84908D01*
X32836D01*
Y85180D01*
D02*
G37*
G36*
X33670Y87343D02*
X33571Y87330D01*
X33478Y87292D01*
X33399Y87231D01*
X33338Y87152D01*
X33300Y87059D01*
X33287Y86960D01*
X33300Y86861D01*
X33338Y86768D01*
X33399Y86689D01*
X33478Y86628D01*
X33492Y86623D01*
Y85652D01*
X33356D01*
Y84908D01*
X33486D01*
Y84547D01*
X33261D01*
Y83962D01*
X33260D01*
Y83792D01*
X33261Y83792D01*
Y83198D01*
X33472D01*
Y83090D01*
X33485Y83022D01*
X33524Y82964D01*
X33530Y82960D01*
X33534Y82954D01*
X33613Y82875D01*
X33592Y82825D01*
X32280Y82825D01*
Y82825D01*
X31520D01*
Y82825D01*
X31520D01*
Y81600D01*
X31520D01*
Y81495D01*
X32280D01*
Y81552D01*
X32384D01*
X32403Y81505D01*
X32274Y81376D01*
X32235Y81318D01*
X32222Y81250D01*
Y79500D01*
X32235Y79432D01*
X32274Y79374D01*
X32313Y79335D01*
X32294Y79288D01*
X31703D01*
X31666Y79379D01*
X31580Y79490D01*
X31469Y79576D01*
X31339Y79629D01*
X31200Y79648D01*
X31061Y79629D01*
X30931Y79576D01*
X30820Y79490D01*
X30734Y79379D01*
X30681Y79249D01*
X30662Y79110D01*
X30681Y78971D01*
X30734Y78841D01*
X30820Y78730D01*
X30931Y78644D01*
X31061Y78591D01*
X31200Y78572D01*
X31339Y78591D01*
X31469Y78644D01*
X31580Y78730D01*
X31666Y78841D01*
X31703Y78932D01*
X32595D01*
X32605Y78908D01*
X32666Y78829D01*
X32745Y78768D01*
X32838Y78730D01*
X32937Y78717D01*
X33036Y78730D01*
X33128Y78768D01*
X33208Y78829D01*
X33269Y78908D01*
X33307Y79001D01*
X33320Y79100D01*
X33307Y79199D01*
X33269Y79292D01*
X33208Y79371D01*
X33128Y79432D01*
X33036Y79470D01*
X32937Y79483D01*
X32838Y79470D01*
X32745Y79432D01*
X32731Y79421D01*
X32578Y79574D01*
Y81176D01*
X32694Y81292D01*
X32845D01*
Y81035D01*
X33140D01*
Y81220D01*
X33240D01*
Y81285D01*
X33635D01*
Y81285D01*
Y81545D01*
Y82060D01*
X33912Y82060D01*
Y81579D01*
X33925Y81511D01*
X33964Y81453D01*
X34323Y81094D01*
X34323Y81094D01*
X34381Y81055D01*
X34449Y81042D01*
X34449Y81042D01*
X34565D01*
Y81035D01*
X34877D01*
X34882Y81032D01*
X34960Y81016D01*
X34969Y81018D01*
X35008Y80986D01*
X35006Y80761D01*
X34945D01*
Y80470D01*
Y80179D01*
X34968D01*
X35003Y80144D01*
X35002Y79999D01*
D01*
X35000Y79610D01*
X34999Y79411D01*
X35002Y79408D01*
Y79221D01*
X35219D01*
Y79221D01*
X35219Y79221D01*
X35301Y79221D01*
Y79221D01*
X35386D01*
Y79144D01*
X34406Y78164D01*
X34362Y78098D01*
X34346Y78020D01*
Y75245D01*
X34300Y75210D01*
X34244Y75137D01*
X34209Y75051D01*
X34197Y74960D01*
X34209Y74869D01*
X34244Y74783D01*
X34300Y74710D01*
X34373Y74654D01*
X34459Y74619D01*
X34550Y74607D01*
X34641Y74619D01*
X34727Y74654D01*
X34800Y74710D01*
X34856Y74783D01*
X34891Y74869D01*
X34903Y74960D01*
X34891Y75051D01*
X34856Y75137D01*
X34800Y75210D01*
X34754Y75245D01*
Y77936D01*
X35734Y78916D01*
X35778Y78982D01*
X35794Y79060D01*
Y79221D01*
X35934D01*
Y79999D01*
X35688D01*
Y80179D01*
X35736D01*
Y80761D01*
X35688D01*
Y81080D01*
X35688Y81080D01*
X35677Y81135D01*
X35946Y81404D01*
X35985Y81462D01*
X35998Y81530D01*
Y82492D01*
X35998Y82492D01*
X35991Y82532D01*
X36024Y82558D01*
X36110Y82669D01*
X36164Y82799D01*
X36182Y82938D01*
X36164Y83077D01*
X36110Y83207D01*
X36024Y83318D01*
X35913Y83404D01*
X35783Y83457D01*
X35644Y83476D01*
X35505Y83457D01*
X35375Y83404D01*
X35264Y83318D01*
X35179Y83207D01*
X35125Y83077D01*
X35107Y82938D01*
X35125Y82799D01*
X35179Y82669D01*
X35264Y82558D01*
X35375Y82472D01*
X35505Y82419D01*
X35642Y82401D01*
Y81604D01*
X35425Y81387D01*
X35370Y81398D01*
X35355D01*
Y81795D01*
Y81915D01*
X34960D01*
Y81980D01*
X34860D01*
Y82165D01*
X34565D01*
X34558Y82212D01*
Y82360D01*
X34558Y82360D01*
X34545Y82428D01*
X34506Y82486D01*
X34310Y82682D01*
Y82825D01*
X34167D01*
X33845Y83148D01*
X33865Y83198D01*
X34039D01*
Y83772D01*
X34040D01*
Y83962D01*
X34039D01*
Y84547D01*
X33843D01*
Y84908D01*
X33973D01*
Y85652D01*
X33848D01*
Y86623D01*
X33862Y86628D01*
X33941Y86689D01*
X34002Y86768D01*
X34040Y86861D01*
X34053Y86960D01*
X34040Y87059D01*
X34002Y87152D01*
X33941Y87231D01*
X33862Y87292D01*
X33769Y87330D01*
X33670Y87343D01*
D02*
G37*
G36*
X35060Y82165D02*
Y82080D01*
X35355D01*
Y82165D01*
X35060D01*
D02*
G37*
G36*
X33635Y81120D02*
X33340D01*
Y81035D01*
X33635D01*
Y81120D01*
D02*
G37*
G36*
X34745Y80761D02*
X34564D01*
Y80570D01*
X34745D01*
Y80761D01*
D02*
G37*
G36*
Y80370D02*
X34564D01*
Y80179D01*
X34745D01*
Y80370D01*
D02*
G37*
G36*
X34802Y79999D02*
X34586D01*
Y79710D01*
X34802D01*
Y79999D01*
D02*
G37*
G36*
Y79510D02*
X34586D01*
Y79221D01*
X34802D01*
Y79510D01*
D02*
G37*
G36*
X33937Y79483D02*
X33838Y79470D01*
X33745Y79432D01*
X33666Y79371D01*
X33605Y79292D01*
X33567Y79199D01*
X33553Y79100D01*
X33567Y79001D01*
X33605Y78908D01*
X33666Y78829D01*
X33742Y78771D01*
Y78435D01*
X33548D01*
Y78435D01*
X33538Y78425D01*
X32779D01*
Y78378D01*
X32733Y78359D01*
X32616Y78476D01*
X32558Y78515D01*
X32490Y78528D01*
X32010D01*
X31942Y78515D01*
X31884Y78476D01*
X31845Y78418D01*
X31832Y78350D01*
X31845Y78282D01*
X31884Y78224D01*
X31942Y78185D01*
X32010Y78172D01*
X32416D01*
X32601Y77986D01*
X32659Y77948D01*
X32728Y77934D01*
X32728Y77934D01*
X32779D01*
Y77450D01*
Y77095D01*
X33538D01*
X33548Y77085D01*
Y77085D01*
X33742D01*
Y72747D01*
X33340Y72345D01*
X33289Y72366D01*
X33171Y72382D01*
X33052Y72366D01*
X32942Y72320D01*
X32847Y72248D01*
X32774Y72153D01*
X32728Y72042D01*
X32712Y71924D01*
X32728Y71805D01*
X32774Y71694D01*
X32847Y71600D01*
X32942Y71527D01*
X33052Y71481D01*
X33171Y71465D01*
X33289Y71481D01*
X33400Y71527D01*
X33495Y71600D01*
X33568Y71694D01*
X33613Y71805D01*
X33629Y71924D01*
X33613Y72042D01*
X33592Y72093D01*
X34046Y72547D01*
X34046Y72547D01*
X34085Y72605D01*
X34098Y72673D01*
Y77085D01*
X34292D01*
Y77695D01*
X34290D01*
Y77825D01*
X34292D01*
Y78435D01*
X34098D01*
Y78756D01*
X34128Y78768D01*
X34208Y78829D01*
X34269Y78908D01*
X34307Y79001D01*
X34320Y79100D01*
X34307Y79199D01*
X34269Y79292D01*
X34208Y79371D01*
X34128Y79432D01*
X34036Y79470D01*
X33937Y79483D01*
D02*
G37*
G36*
X33171Y76413D02*
X33052Y76398D01*
X32942Y76352D01*
X32847Y76279D01*
X32774Y76184D01*
X32728Y76074D01*
X32712Y75955D01*
X32728Y75836D01*
X32774Y75726D01*
X32847Y75631D01*
X32942Y75558D01*
X33052Y75512D01*
X33171Y75497D01*
X33289Y75512D01*
X33400Y75558D01*
X33495Y75631D01*
X33568Y75726D01*
X33613Y75836D01*
X33629Y75955D01*
X33613Y76074D01*
X33568Y76184D01*
X33495Y76279D01*
X33400Y76352D01*
X33289Y76398D01*
X33171Y76413D01*
D02*
G37*
G36*
Y74398D02*
X33052Y74382D01*
X32942Y74336D01*
X32847Y74263D01*
X32774Y74169D01*
X32728Y74058D01*
X32712Y73939D01*
X32728Y73821D01*
X32774Y73710D01*
X32847Y73615D01*
X32942Y73543D01*
X33052Y73497D01*
X33171Y73481D01*
X33289Y73497D01*
X33400Y73543D01*
X33495Y73615D01*
X33568Y73710D01*
X33613Y73821D01*
X33629Y73939D01*
X33613Y74058D01*
X33568Y74169D01*
X33495Y74263D01*
X33400Y74336D01*
X33289Y74382D01*
X33171Y74398D01*
D02*
G37*
%LPD*%
D17*
X17836Y66766D02*
X18194D01*
X17830Y66772D02*
X17836Y66766D01*
X18194D02*
X19064Y65896D01*
X15158Y65230D02*
Y66638D01*
X16460Y64060D02*
Y65370D01*
X15900Y65480D02*
X16350D01*
X16460Y65370D01*
X15824Y67831D02*
X15860Y67795D01*
X15633Y67028D02*
X16090D01*
X15665Y66260D02*
X16090D01*
X15549Y66400D02*
X15665Y66516D01*
X16090D01*
X15525Y66400D02*
X15665Y66260D01*
X17078Y67780D02*
X17640Y67217D01*
X16540Y67831D02*
X16591Y67780D01*
X17078D01*
X17647Y67028D02*
X17830D01*
X17640Y67034D02*
X17647Y67028D01*
X17640Y67034D02*
Y67217D01*
X15158Y66638D02*
X15548Y67028D01*
X15695D01*
D23*
X29670Y61865D02*
Y62600D01*
X29370Y60570D02*
X31080D01*
X31360Y60290D02*
X33490D01*
X31080Y60570D02*
X31360Y60290D01*
X33490D02*
X33830Y60630D01*
Y61579D01*
X34395Y62144D01*
X24050Y53870D02*
Y53968D01*
X25310Y56510D02*
X29370Y60570D01*
X31300Y69950D02*
X32025Y69225D01*
X38764Y61655D02*
X40974Y63864D01*
X35660Y61655D02*
X38764D01*
X33720Y59830D02*
X34430Y60540D01*
Y61180D01*
X29410Y59830D02*
X33720D01*
X34110Y60560D02*
Y61380D01*
X33610Y60060D02*
X34110Y60560D01*
X29240Y60060D02*
X33610D01*
X34110Y61380D02*
X34400Y61670D01*
X40635Y61180D02*
X40974Y60841D01*
X35675Y61180D02*
X40635D01*
X25710Y56200D02*
X25730D01*
X25750Y56220D02*
Y56570D01*
X29240Y60060D01*
X25730Y56200D02*
X25750Y56220D01*
X26220Y56640D02*
X29410Y59830D01*
X26090Y55940D02*
X26220Y56070D01*
Y56640D01*
X36980Y59210D02*
X37200Y59430D01*
X32880Y59210D02*
X36980D01*
X30620Y56950D02*
X32880Y59210D01*
X28700Y56950D02*
X30620D01*
X42050Y66380D02*
Y80526D01*
X26964Y68620D02*
X27070D01*
X25980Y70250D02*
X31821D01*
X24550Y59770D02*
Y68820D01*
X25980Y70250D01*
X31230Y70550D02*
X32529D01*
X24250Y61570D02*
Y68940D01*
X25860Y70550D02*
X31230D01*
X24250Y68940D02*
X25860Y70550D01*
X36650Y63870D02*
X36654Y67240D01*
X36270Y67880D02*
X36324D01*
X36404Y67800D02*
X36415D01*
X36654Y67240D02*
X36655Y67560D01*
X36415Y67800D02*
X36655Y67560D01*
X36324Y67880D02*
X36404Y67800D01*
X42001Y48356D02*
X42023Y48378D01*
X39959Y48356D02*
X42001D01*
X36660Y60580D02*
X36680Y60600D01*
X39580D01*
X40300Y59880D01*
X35650Y63290D02*
X36490Y62450D01*
X35650Y63290D02*
Y66810D01*
X37200Y59430D02*
Y59700D01*
X19400Y49900D02*
X19578Y49722D01*
X27210Y68140D02*
X29020Y69950D01*
X27210Y66300D02*
Y68140D01*
X27210Y60827D02*
Y66300D01*
X24800Y64150D02*
X27185Y66535D01*
X27490Y69416D02*
X27500Y69426D01*
X19770Y71770D02*
X29266D01*
X29436Y71600D01*
X29500D01*
X28622Y71350D02*
X28650Y71378D01*
X26624Y71350D02*
X28622D01*
X19360Y71560D02*
X19560Y71360D01*
X25838D01*
X34374Y47310D02*
Y47880D01*
Y47196D02*
Y47236D01*
Y47310D01*
Y47146D02*
Y47196D01*
X15550Y52365D02*
Y52465D01*
Y52660D01*
X28990Y62800D02*
X29600D01*
X28181Y61992D02*
X28990Y62800D01*
X29600D02*
X29660Y62860D01*
X30766Y62820D02*
X31910D01*
X32838Y63748D01*
X30660Y64155D02*
Y64170D01*
Y64155D02*
X30915Y63900D01*
X32954D01*
X33135D01*
Y63864D02*
X33171D01*
X29400Y64170D02*
X29660D01*
X32396Y75722D02*
X33171Y74947D01*
X29927Y75722D02*
X32396D01*
X29360Y76870D02*
X32120D01*
X27810Y75320D02*
X29360Y76870D01*
X25513Y75320D02*
X27810D01*
X27680Y75810D02*
X29432Y77562D01*
X25480Y75810D02*
X27680D01*
X29432Y77562D02*
X32096D01*
X28500Y40310D02*
X28580Y40230D01*
X26234Y42316D02*
X28240Y40310D01*
X28500D01*
X24266Y44234D02*
X24500Y44000D01*
X10673Y44450D02*
X12350D01*
X26234Y42316D02*
Y44007D01*
X18510Y75805D02*
X18535Y75780D01*
X18510Y75805D02*
Y76660D01*
X18790Y76940D02*
X23250D01*
X18510Y76660D02*
X18790Y76940D01*
X24140Y77830D02*
X25450D01*
X23250Y76940D02*
X24140Y77830D01*
X19456Y70429D02*
X19545Y70340D01*
X19456Y70429D02*
Y70511D01*
X19545Y70340D02*
X19960D01*
X19110Y67890D02*
X19160Y67840D01*
X18370Y67890D02*
X19110D01*
X20633Y66302D02*
X20663Y66331D01*
X20632Y66301D02*
X20633Y66302D01*
X18314Y64683D02*
X18630Y65018D01*
X16980Y65820D02*
X16980D01*
X18280Y64520D01*
X16630Y66170D02*
X16980Y65820D01*
X19447Y65043D02*
X19477Y65072D01*
X19478Y65073D02*
X20632Y66301D01*
X18630Y65018D02*
X19447Y65043D01*
X19477Y65072D02*
X19478Y65073D01*
X20663Y66331D02*
X21525D01*
X15230Y62869D02*
Y63263D01*
X14880Y62519D02*
X15230Y62869D01*
X14880Y62280D02*
Y62519D01*
X18940Y61330D02*
Y61880D01*
X18710Y61100D02*
X18940Y61330D01*
X17790Y61100D02*
X18710D01*
X16630Y66170D02*
Y66630D01*
X16460Y64060D02*
X16480Y64040D01*
X20310Y63060D02*
X20620Y62750D01*
X21400D01*
X20310Y63060D02*
Y65093D01*
X20525Y65308D01*
Y65331D01*
X26530Y51300D02*
X26540Y51290D01*
X24936Y48870D02*
Y50589D01*
X24462Y51535D02*
X24936Y51061D01*
X22174Y49474D02*
X23736D01*
X23900Y48870D02*
Y49310D01*
X23736Y49474D02*
X23900Y49310D01*
X25680Y52694D02*
X25710Y52724D01*
X22370Y52170D02*
X22390Y52150D01*
X23720Y51422D02*
Y51530D01*
X23936Y50589D02*
Y51206D01*
X23720Y51422D02*
X23936Y51206D01*
X23520Y53880D02*
X24016D01*
X13710Y60400D02*
X15650D01*
X11480Y61160D02*
X12960Y61150D01*
X13710Y60400D01*
X16090Y58938D02*
X16150Y58878D01*
X16090Y58938D02*
Y59960D01*
X15650Y60400D02*
X16090Y59960D01*
X18751Y72811D02*
X18760Y72820D01*
X18366Y72717D02*
X18460Y72811D01*
X18751D01*
X13630Y74900D02*
X13820Y75090D01*
X13779Y82612D02*
X14030Y82863D01*
X35086Y94134D02*
Y94620D01*
X33464D02*
X33550Y94534D01*
X41845Y94735D02*
X41872Y94708D01*
X33464Y94620D02*
X33604Y94760D01*
X33783Y77408D02*
X33843Y77467D01*
X35448Y77582D02*
X35720D01*
X35420Y77610D02*
X35448Y77582D01*
X35720D02*
X36210Y77092D01*
Y73630D02*
Y77092D01*
X35462Y76908D02*
X35622D01*
X35830Y73340D02*
X39919Y69251D01*
X35830Y73340D02*
Y76700D01*
X35430Y76940D02*
X35462Y76908D01*
X35622D02*
X35830Y76700D01*
X33765Y77545D02*
X33920Y77390D01*
X24620Y74190D02*
Y74427D01*
X25513Y75320D01*
X33880Y78940D02*
X33920Y78900D01*
X35159Y76057D02*
X35180Y76036D01*
Y60642D02*
Y76036D01*
Y60642D02*
X35572Y60250D01*
X39919Y68431D02*
Y69251D01*
X32900Y79000D02*
X32925Y78975D01*
X32650Y88280D02*
X32670Y88260D01*
X31030Y86990D02*
X31060Y86960D01*
X33650Y83090D02*
X33660Y83080D01*
X33664Y84324D02*
X33740Y84248D01*
X33664Y85280D02*
X33670Y85286D01*
X32906Y85310D02*
X32936Y85280D01*
X30480Y86220D02*
X30510Y86250D01*
X18678Y74764D02*
X18947D01*
X18663Y74674D02*
X18931D01*
X18673Y74584D02*
X18941D01*
X18694Y74357D02*
X18963D01*
X18663Y74504D02*
X18931D01*
X18646Y74430D02*
X18914D01*
X18649Y75036D02*
X18917D01*
X18666Y75110D02*
X18934D01*
X18697Y74963D02*
X18966D01*
X18676Y75190D02*
X18944D01*
X18666Y75280D02*
X18934D01*
X18681Y75370D02*
X18950D01*
X18566Y75255D02*
X18681Y75370D01*
X18566Y74863D02*
Y75255D01*
X24330Y72187D02*
Y74660D01*
X25480Y75810D01*
X23551Y67350D02*
X23700Y67499D01*
Y70150D02*
X24330Y70780D01*
X23700Y67499D02*
Y70150D01*
X30680Y65490D02*
X31870D01*
X30670Y65500D02*
X30680Y65490D01*
X31870D02*
X32460Y64900D01*
X31380Y66780D02*
X32460Y65700D01*
X30670Y66800D02*
X30690Y66780D01*
X31380D01*
X30489Y68101D02*
X30911D01*
X16490Y66770D02*
X16630Y66630D01*
X16156Y66770D02*
X16490D01*
X39919Y68431D02*
X40458Y67892D01*
X36210Y73630D02*
X40961Y68879D01*
X40458Y67892D02*
X40974D01*
X29020Y69950D02*
X31300D01*
X24800Y59410D02*
Y64150D01*
X32868Y75250D02*
X33171Y74947D01*
X33135Y63900D02*
X33171Y63864D01*
X33047Y74947D02*
X33171D01*
X33047D02*
X33050Y74950D01*
X32954Y63864D02*
X33135D01*
X33178Y67884D02*
X34001D01*
X33171Y67892D02*
X33178Y67884D01*
X34001D02*
X34009Y67877D01*
X28730Y69049D02*
X29225Y69544D01*
X28730Y68640D02*
Y69049D01*
X28787Y64563D02*
X29007D01*
X28749Y64601D02*
X28787Y64563D01*
X29007D02*
X29400Y64170D01*
X29670Y68100D02*
X30040Y68470D01*
Y69496D01*
X35140Y50451D02*
X35260D01*
X35573Y50763D02*
X35683D01*
X35760Y50840D02*
X36221D01*
X36296Y50764D01*
X35260Y50451D02*
X35573Y50763D01*
X35683D02*
X35760Y50840D01*
X28320Y48980D02*
Y56570D01*
X22270Y48200D02*
X27540D01*
X28320Y48980D01*
X28620Y48820D02*
Y56420D01*
X23270Y47910D02*
X27710D01*
X28620Y48820D01*
X23349Y59510D02*
X23454D01*
X35318Y47220D02*
X36180D01*
X34016Y45899D02*
X34349Y46231D01*
X34421Y45156D02*
X34531D01*
X33391Y45448D02*
Y45999D01*
X32560Y46009D02*
X33111D01*
X33310Y45470D02*
Y45751D01*
X33222Y45444D02*
X33387D01*
X32560Y45441D02*
X33111D01*
X23290Y53185D02*
X24153D01*
X32556Y45587D02*
Y45990D01*
X32536Y45460D02*
Y45990D01*
X31970Y45707D02*
X32133Y45544D01*
X31770D02*
X31933Y45707D01*
X31800Y45079D02*
X32140D01*
X18190Y71691D02*
Y71929D01*
X15975Y51025D02*
X16050Y50950D01*
X15479Y50400D02*
X15698D01*
X13504Y51080D02*
X14056D01*
X14611Y50519D02*
Y51070D01*
X13900Y47900D02*
Y48420D01*
X13500Y50524D02*
Y51076D01*
X13504Y50511D02*
X14055D01*
X24836Y52401D02*
Y53222D01*
X24837Y53224D01*
X24814Y53200D02*
X24836Y53222D01*
X24837Y53224D02*
Y53870D01*
X27402Y55450D02*
X27517Y55565D01*
X27800Y56130D02*
Y56130D01*
X28320Y56570D02*
X28700Y56950D01*
X28620Y56420D02*
X28770Y56570D01*
X18190Y53317D02*
X18227Y53280D01*
X18190Y54030D02*
X18560Y54400D01*
X18190Y53317D02*
Y54030D01*
X17440Y53280D02*
Y53378D01*
X17571Y53510D01*
X18560Y54400D02*
X18850D01*
X17815Y54770D02*
X17845Y54800D01*
X18280D01*
X17300Y55440D02*
X19130D01*
X17110Y54770D02*
Y55250D01*
X17300Y55440D01*
X16289Y52589D02*
X17110Y53410D01*
Y54770D01*
X17347Y52677D02*
Y53280D01*
X17471Y53404D01*
X17150Y52480D02*
X17347Y52677D01*
X16289Y52365D02*
Y52589D01*
X17150Y52000D02*
Y52480D01*
X19170Y64525D02*
X19740D01*
X20525Y67331D02*
X21419D01*
X21450Y67300D01*
X23920Y59977D02*
Y60430D01*
X23454Y59510D02*
X23920Y59977D01*
X21680Y58960D02*
Y59064D01*
X29910Y41410D02*
X29920Y41420D01*
X29390Y41410D02*
X29910D01*
X30691Y41440D02*
X42050D01*
X42800Y42190D01*
X30691Y41440D02*
X30691Y41440D01*
X30706Y41496D02*
Y42020D01*
X37202Y63112D02*
X40974Y66884D01*
X37202Y62952D02*
Y63112D01*
X37170Y62920D02*
X37202Y62952D01*
X40974Y66884D02*
X40974D01*
X20720Y55330D02*
X24800Y59410D01*
X39193Y47589D02*
X39959Y48356D01*
X15630Y46930D02*
Y47686D01*
X35580Y70550D02*
X35585Y70545D01*
X37989D01*
X38004Y70560D01*
X32954Y63813D02*
Y63864D01*
X32838Y63748D02*
X32890D01*
X32954Y63813D01*
X40904Y68970D02*
X40974Y68900D01*
X23219Y67350D02*
X23551D01*
X41780Y66969D02*
Y77770D01*
X39674Y79876D02*
X41780Y77770D01*
X42760Y72640D02*
X42760D01*
X43320Y61540D02*
Y72080D01*
X42760Y72640D02*
X43320Y72080D01*
X33171Y70916D02*
X33536Y70550D01*
X34050D01*
X42370Y73030D02*
X42760Y72640D01*
X43320Y42710D02*
Y61540D01*
X42800Y42190D02*
X43320Y42710D01*
X29876Y42120D02*
X29913D01*
X29410D02*
X29876D01*
Y42190D01*
Y41596D02*
X29943Y41530D01*
X28576Y42954D02*
Y44007D01*
Y42954D02*
X29410Y42120D01*
X37376Y58810D02*
X37850D01*
X37840Y59694D02*
X37850Y59684D01*
Y58810D02*
Y59684D01*
Y58810D02*
X38384D01*
X40300Y59880D02*
X41520D01*
X41320Y59490D02*
X42740Y58070D01*
X39320Y60250D02*
X40080Y59490D01*
X35572Y60250D02*
X39320D01*
X40080Y59490D02*
X41320D01*
X33203Y66852D02*
X34088D01*
X34120Y66820D01*
X33171Y66884D02*
X33203Y66852D01*
X38384Y58810D02*
X38480Y58714D01*
X36490Y62450D02*
X37840D01*
X38231Y62130D02*
X40974Y64872D01*
X35660Y62130D02*
X38231D01*
X20470Y78504D02*
X20508Y78466D01*
X37984Y53850D02*
X38324Y53510D01*
X40050D01*
X40430Y53890D02*
X40940D01*
X40050Y53510D02*
X40430Y53890D01*
X37984Y53850D02*
X38024Y53890D01*
X40940D02*
X41453Y53377D01*
X16486Y50104D02*
X17270Y49320D01*
Y48589D02*
X17399Y48460D01*
X17270Y48589D02*
Y49320D01*
X17823Y48460D02*
X17859Y48424D01*
X17399Y48460D02*
X17823D01*
X16486Y50104D02*
Y50435D01*
X14987Y46250D02*
Y46800D01*
Y46250D02*
X15760D01*
X14000D02*
X14987D01*
Y45831D02*
Y46250D01*
X16162Y58890D02*
X20876D01*
X18600Y48350D02*
X19100D01*
X35370Y56560D02*
X37847Y54083D01*
X33370Y56560D02*
X35370D01*
X37760Y53850D02*
X37984D01*
X28770Y56570D02*
X32830D01*
X32556Y45990D02*
Y46005D01*
X32536Y45990D02*
Y46005D01*
Y45453D02*
Y45460D01*
X16322Y58730D02*
X17512Y57540D01*
X40990Y49530D02*
X41440Y49080D01*
X38110Y42730D02*
X41475D01*
X40677Y43130D02*
X40777Y43230D01*
X40840D01*
X38090Y43130D02*
X40677D01*
X11401Y48900D02*
X13350D01*
X10835Y49466D02*
X11401Y48900D01*
X10723Y49466D02*
X10835D01*
X13350Y48900D02*
X13627Y49177D01*
X34940Y47990D02*
X35070Y48120D01*
X35980D01*
X37890Y50030D01*
X34880Y47620D02*
X35140Y47880D01*
X34925Y49094D02*
X35140Y49309D01*
X29444Y60827D02*
X29660Y61043D01*
X28540Y60827D02*
X29444D01*
X27880Y59780D02*
Y64820D01*
X24040Y55940D02*
X27880Y59780D01*
Y64820D02*
X28610Y65550D01*
X30911Y68101D02*
X33171Y65841D01*
X28181Y59731D02*
Y61992D01*
X28610Y65550D02*
X29564D01*
X32865Y65700D02*
X33006Y65841D01*
X32460Y65700D02*
X32865D01*
X27600Y65750D02*
X28700Y66850D01*
X29440D01*
X27600Y59850D02*
Y65750D01*
X33006Y65841D02*
X33171D01*
X30440Y68150D02*
X30489Y68101D01*
X38040Y48930D02*
X39940D01*
X15525Y66400D02*
X15549D01*
X15510D02*
X15525D01*
X20520Y67326D02*
X20525Y67331D01*
X18182Y71929D02*
X18210Y71957D01*
Y72557D01*
X18060Y71561D02*
X18190Y71691D01*
X18060Y71540D02*
Y71561D01*
X18366Y72559D02*
X18490Y72435D01*
X17988Y72559D02*
X18051D01*
X17909Y72480D02*
X17988Y72559D01*
X17992Y72908D02*
X18051Y72849D01*
X17992Y72908D02*
Y73089D01*
X18382Y72982D02*
Y73089D01*
X18209Y72717D02*
Y72809D01*
Y72713D02*
Y72717D01*
Y72809D02*
X18382Y72982D01*
X14056Y51083D02*
X14607D01*
X18382Y73089D02*
X18386D01*
X18051Y72717D02*
Y72849D01*
X33222Y46012D02*
X33387D01*
X12800Y49840D02*
X13140D01*
X15550Y52227D02*
Y52365D01*
X14601Y51359D02*
Y52028D01*
X14440Y52038D02*
X14601D01*
X14440Y51354D02*
X14597D01*
X14055Y50514D02*
X14607D01*
X15105Y52220D02*
X15538D01*
X12933Y50468D02*
X12950D01*
X12770Y50305D02*
X12933Y50468D01*
X12950D02*
X12970D01*
X13133Y50305D01*
X22060Y47680D02*
X23040D01*
X21750Y47990D02*
X22060Y47680D01*
X21750Y47990D02*
Y48500D01*
X23040Y47680D02*
X23270Y47910D01*
X15420Y50110D02*
Y50341D01*
X15698Y50400D02*
Y50435D01*
X15420Y50341D02*
X15479Y50400D01*
X16760Y50908D02*
X17128D01*
X17190Y50970D01*
X16760Y51301D02*
X17278D01*
X17500Y50565D02*
Y51080D01*
X17278Y51301D02*
X17500Y51080D01*
X36560Y46130D02*
X38130Y44560D01*
X35594Y46132D02*
X36558D01*
X36998Y46130D02*
X38048Y45080D01*
X36558Y46132D02*
X36997D01*
X35318Y47196D02*
Y47220D01*
X34010Y44825D02*
X34089D01*
X34421Y45156D01*
X34531D02*
Y45266D01*
X33972Y44787D02*
X34010Y44825D01*
X35592Y45739D02*
X36339D01*
X36350Y45750D01*
X38398Y44560D02*
X38403Y44556D01*
X38130Y44560D02*
X38398D01*
X38480Y55490D02*
Y57936D01*
X38090Y55100D02*
X38480Y55490D01*
X37984Y53850D02*
Y54394D01*
X39540Y55950D02*
Y57130D01*
X37984Y54394D02*
X39540Y55950D01*
X37290Y58724D02*
X37376Y58810D01*
X37530Y57220D02*
X37870D01*
X37280Y57470D02*
X37530Y57220D01*
X37280Y57470D02*
Y57806D01*
X32460Y64900D02*
X33143D01*
X20240Y55330D02*
X20720D01*
X20213Y55763D02*
X20543D01*
X24550Y59770D01*
X19520Y50820D02*
Y54610D01*
X20240Y55330D01*
X18850Y54400D02*
X20213Y55763D01*
X18970Y57540D02*
X19340Y57170D01*
X17512Y57540D02*
X18970D01*
X19340Y56220D02*
Y57170D01*
X18720Y56220D02*
Y57010D01*
X18220Y55720D02*
X18720Y56220D01*
X16970Y55720D02*
X18220D01*
X19176Y50476D02*
X19520Y50820D01*
X16650Y55400D02*
X16970Y55720D01*
X17100Y56350D02*
X18050D01*
X21320Y53070D02*
X21550Y52840D01*
Y49250D02*
Y52840D01*
X19600Y47300D02*
X21550Y49250D01*
X16760Y50711D02*
X17079D01*
X17260Y49750D02*
Y50530D01*
X17079Y50711D02*
X17260Y50530D01*
Y49750D02*
X17674Y49336D01*
X17910D02*
X17946Y49300D01*
X17674Y49336D02*
X17910D01*
X16862Y47688D02*
X17326D01*
X16740Y47810D02*
X16862Y47688D01*
X16740Y47810D02*
Y48563D01*
X16486Y49684D02*
Y50104D01*
X16740Y48912D02*
Y49430D01*
X16486Y49684D02*
X16740Y49430D01*
X16180Y47670D02*
Y49640D01*
X16289Y49749D02*
Y50435D01*
X16180Y49640D02*
X16289Y49749D01*
X16180Y47670D02*
X16550Y47300D01*
X15630Y49480D02*
X16092Y49942D01*
X15630Y48474D02*
Y49480D01*
X19100Y48350D02*
X20500Y49750D01*
X34374Y47080D02*
Y47146D01*
X33944Y47080D02*
X34137D01*
X34334D02*
X34374D01*
X34137Y47146D02*
X34334D01*
Y47236D02*
X34374D01*
X34137D02*
X34334D01*
X33944Y47146D02*
X34137D01*
X33944Y47236D02*
X34137D01*
X34334Y47310D02*
X34374D01*
X34334Y47146D02*
X34374D01*
X33944Y47310D02*
X34137D01*
Y47080D02*
X34334D01*
X34137Y47310D02*
X34334D01*
X13900Y47900D02*
X14200Y47600D01*
X14450Y47642D02*
Y47650D01*
X14408Y47600D02*
X14450Y47642D01*
X14200Y47600D02*
X14408D01*
X19090Y49300D02*
X19283Y49107D01*
X18734Y49300D02*
X19090D01*
X16550Y47300D02*
X19600D01*
X15760Y46250D02*
X16395Y46885D01*
X12400Y47850D02*
X14000Y46250D01*
X14129Y46729D02*
X14200Y46800D01*
X14095Y46763D02*
X14129Y46729D01*
X14080Y46920D02*
X14095Y46763D01*
X12550Y48450D02*
X14080Y46920D01*
X11350Y48450D02*
X12550D01*
X13400Y46000D02*
X13650Y45750D01*
X16092Y49942D02*
Y50435D01*
X14950Y49280D02*
X15080D01*
X14825D02*
X14950D01*
X14700D02*
X14825D01*
X14600Y48354D02*
Y49230D01*
X15080Y49280D02*
X15895Y50095D01*
X13813Y49221D02*
Y49230D01*
X13627Y49177D02*
X13769D01*
X13813Y49221D01*
X12400Y49400D02*
X13050D01*
X13650Y50000D02*
X14950D01*
X13050Y49400D02*
X13650Y50000D01*
X16920Y46885D02*
X17085Y47050D01*
X19750D02*
X22174Y49474D01*
X17085Y47050D02*
X19750D01*
X20500Y49750D02*
Y52850D01*
X22200Y48950D02*
X22290D01*
X21750Y48500D02*
X22200Y48950D01*
X31810Y85530D02*
X32556D01*
X18968Y46662D02*
X19000Y46630D01*
X18040Y46662D02*
X18968D01*
X23470Y60790D02*
X23470D01*
X24250Y61570D01*
X22618Y59400D02*
Y59938D01*
X23470Y60790D01*
X21680Y58960D02*
X21930D01*
X22370Y59400D02*
X22618D01*
X21930Y58960D02*
X22370Y59400D01*
X32600Y42400D02*
Y42500D01*
X33064Y42964D02*
Y43455D01*
X32600Y42500D02*
X33064Y42964D01*
X33600Y42000D02*
X33980Y42380D01*
Y43396D01*
X31720Y42000D02*
X33600D01*
X30600Y43120D02*
X31720Y42000D01*
X12350Y44450D02*
X12616Y44184D01*
X15065Y44135D02*
X15100Y44100D01*
X13750Y44135D02*
X15065D01*
X12600Y43315D02*
X12950Y42965D01*
X13750D01*
X13400Y51500D02*
X13401Y51498D01*
X10723Y49077D02*
Y49466D01*
Y49077D02*
X11350Y48450D01*
X25710Y55940D02*
X26090D01*
X26100Y46632D02*
X26234Y46766D01*
X41000Y65950D02*
X42450Y64500D01*
X43000Y63950D01*
Y59600D02*
Y63950D01*
X42220Y49412D02*
Y57700D01*
X41520Y59880D02*
X43080Y58320D01*
Y49810D02*
Y58320D01*
X42530Y56480D02*
X42740Y56690D01*
Y58070D01*
X42530Y49550D02*
Y56480D01*
X43090Y45731D02*
Y48990D01*
X42530Y49550D02*
X43090Y48990D01*
X42790Y46380D02*
Y48843D01*
X42220Y49412D02*
X42790Y48843D01*
X38925Y50764D02*
X40742D01*
X41510Y51532D01*
Y52332D01*
X36870Y43970D02*
X38110Y42730D01*
X35280Y44900D02*
X35940D01*
X36870Y43970D01*
Y43970D02*
Y43970D01*
X35318Y45266D02*
X35954D01*
X38090Y43130D01*
X32510Y44234D02*
Y44570D01*
X33207Y45266D02*
X33940D01*
X32510Y44570D02*
X33207Y45266D01*
X31244Y43436D02*
X32040D01*
X31059Y43621D02*
X31244Y43436D01*
X30600Y43120D02*
Y43910D01*
X34400Y44675D02*
X34728Y45002D01*
Y45266D01*
X34400Y44224D02*
Y44675D01*
X35820Y44224D02*
Y44500D01*
X35690Y44630D02*
X35820Y44500D01*
X34400Y44224D02*
X34860D01*
X33940D02*
X34400D01*
X32520D02*
X33000D01*
X32040D02*
X32520D01*
X32510Y44234D02*
X32520Y44224D01*
X35820Y43200D02*
Y43436D01*
X35350Y42730D02*
X35820Y43200D01*
X34860Y43220D02*
Y43436D01*
Y43220D02*
X35350Y42730D01*
X33940Y43436D02*
X33980Y43396D01*
X35150Y44630D02*
X35690D01*
X34925Y44855D02*
X35150Y44630D01*
X34925Y44855D02*
Y45266D01*
X35122Y45058D02*
X35280Y44900D01*
X35122Y45058D02*
Y45266D01*
X14911Y52365D02*
Y52539D01*
X14400Y53050D02*
Y53300D01*
X15450Y51550D02*
X15600Y51400D01*
X15300Y52370D02*
X15305Y52365D01*
X15926Y51400D02*
X16050Y51276D01*
Y51100D02*
Y51276D01*
X16760Y51695D02*
X17195D01*
X17042Y51892D02*
X17150Y52000D01*
X16760Y51892D02*
X17042D01*
X16400Y55650D02*
X17100Y56350D01*
X17798Y45715D02*
X18040Y45958D01*
X17941Y50565D02*
X17956Y50550D01*
X17500Y50565D02*
X17941D01*
X17730Y51498D02*
X17756Y51524D01*
X17450Y52400D02*
X17756D01*
X18494D02*
Y52400D01*
X18824Y53276D02*
X18850Y53250D01*
Y52756D02*
Y53250D01*
X21000Y61300D02*
X21000Y61300D01*
X22650Y64206D02*
X22694Y64250D01*
X22267Y65167D02*
X22925D01*
X22425Y66856D02*
X22631Y66650D01*
X22425Y67344D02*
X22431Y67350D01*
X22250Y69300D02*
X22900D01*
X23299Y66033D02*
X23325Y66059D01*
X23175Y66650D02*
X23325Y66500D01*
X24050Y56300D02*
Y56300D01*
X23950Y56200D02*
X24050Y56300D01*
X33285Y47985D02*
Y48044D01*
X33743Y47196D02*
Y47527D01*
X33143Y64900D02*
X33171Y64872D01*
X35122Y47512D02*
X35240Y47630D01*
X35122Y47196D02*
Y47512D01*
X14400Y53050D02*
X14911Y52539D01*
X15600Y51100D02*
X15698Y51002D01*
X15108Y50158D02*
Y50435D01*
X15895Y50095D02*
Y50435D01*
X16050Y50950D02*
Y51100D01*
X16046Y53046D02*
X16400Y53400D01*
X17500Y50150D02*
X17750Y49900D01*
X17500Y50150D02*
Y50565D01*
X18494Y52400D02*
X18850Y52756D01*
X19950Y50150D02*
Y50300D01*
Y53380D02*
X19970Y53400D01*
X21000Y63585D02*
Y64550D01*
X21906Y64250D02*
Y64806D01*
X22650Y63500D02*
Y64206D01*
X22425Y66856D02*
Y67344D01*
X23325Y66059D02*
Y66500D01*
X23219Y68300D02*
Y68981D01*
X24936Y50589D02*
Y51061D01*
X32100Y71950D02*
Y74000D01*
X34432Y46231D02*
X34531Y46133D01*
X34349Y46231D02*
X34432D01*
X39674Y79876D02*
Y80565D01*
Y81235D02*
Y82318D01*
X39650Y83106D02*
Y83900D01*
X42490Y46802D02*
Y48802D01*
X42060Y81285D02*
Y82368D01*
Y83182D02*
Y84000D01*
X16400Y53400D02*
Y55650D01*
X16650Y53400D02*
Y55400D01*
X19300Y51800D02*
Y53700D01*
X19950Y50300D02*
Y53380D01*
X22431Y67350D02*
Y68300D01*
X13650Y45750D02*
X14206D01*
X16920Y45715D02*
X17798D01*
X16395Y46885D02*
X16920D01*
X16760Y51498D02*
X17730D01*
X15600Y51400D02*
X15926D01*
X17350Y52300D02*
X17450Y52400D01*
X17350Y51850D02*
Y52300D01*
X18750Y50476D02*
X19176D01*
X19000Y54000D02*
X19300Y53700D01*
X23523Y52400D02*
X24110D01*
X23490Y55680D02*
X24130D01*
X23490Y55940D02*
X24040D01*
X23490Y56200D02*
X23950D01*
X22150Y63500D02*
X22550D01*
X21906Y64806D02*
X22267Y65167D01*
X22631Y66650D02*
X23175D01*
X22900Y69300D02*
X23219Y68981D01*
X27350Y74110D02*
X28418D01*
X27300Y74060D02*
X27350Y74110D01*
X28980Y74100D02*
X29865D01*
X30585D02*
X30950D01*
X35592Y45542D02*
X36028D01*
X32100Y75250D02*
X32868D01*
X37890Y43680D02*
X38403D01*
X37940Y45630D02*
X38396D01*
X37990Y47480D02*
X38403D01*
X37084Y50764D02*
X38255D01*
X14950Y50000D02*
X15108Y50158D01*
X17195Y51695D02*
X17350Y51850D01*
X16046Y52796D02*
X16650Y53400D01*
X19024Y51524D02*
X19300Y51800D01*
X33285Y47985D02*
X33743Y47527D01*
X31821Y70250D02*
X33171Y68900D01*
X32529Y70550D02*
X33171Y69908D01*
X37090Y44480D02*
X37890Y43680D01*
X36740Y47630D02*
X38040Y48930D01*
X37234Y46724D02*
X37990Y47480D01*
X21000Y64550D02*
X21617Y65167D01*
X32100Y74000D02*
X33047Y74947D01*
X37240Y46330D02*
X37940Y45630D01*
X17750Y49900D02*
X19400D01*
X18544Y51524D02*
X19024D01*
X21617Y65167D02*
X22267D01*
X39190Y43680D02*
X39890D01*
X35592Y46330D02*
X37240D01*
X35592Y46527D02*
X38390D01*
X35592Y46724D02*
X37234D01*
X39184Y46580D02*
X39890D01*
X35240Y47630D02*
X36740D01*
X35140Y47880D02*
X36140D01*
X21400Y62750D02*
X22150Y63500D01*
X21450Y67300D02*
X22551Y66199D01*
X36028Y45542D02*
X37090Y44480D01*
X41914Y44556D02*
X43090Y45731D01*
X36140Y47880D02*
X37790Y49530D01*
X30950Y74100D02*
X32100Y75250D01*
X41318Y45630D02*
X42490Y46802D01*
X41490Y45080D02*
X42790Y46380D01*
X41262Y50030D02*
X42490Y48802D01*
X39190Y44556D02*
X41914D01*
X38048Y45080D02*
X41490D01*
X39184Y45630D02*
X41318D01*
X37790Y49530D02*
X40990D01*
X37890Y50030D02*
X41262D01*
X24050Y56300D02*
X27600Y59850D01*
X24130Y55680D02*
X28181Y59731D01*
D27*
X30470Y71392D02*
D03*
Y70688D02*
D03*
X26480Y70145D02*
D03*
Y69440D02*
D03*
X36200Y66250D02*
D03*
Y65545D02*
D03*
X36750Y70472D02*
D03*
Y69768D02*
D03*
X31900Y82512D02*
D03*
Y81808D02*
D03*
X33159Y78112D02*
D03*
Y77408D02*
D03*
X12780Y56968D02*
D03*
Y57672D02*
D03*
X12950Y50468D02*
D03*
Y51173D02*
D03*
X31950Y46379D02*
D03*
Y45675D02*
D03*
D28*
X36760Y67070D02*
D03*
X37465D02*
D03*
X17110Y54770D02*
D03*
X17815D02*
D03*
X18388Y64490D02*
D03*
X19092D02*
D03*
X40722Y54810D02*
D03*
X40018D02*
D03*
X20156Y79054D02*
D03*
X19451D02*
D03*
Y79842D02*
D03*
X20156D02*
D03*
X33992Y48230D02*
D03*
X33288D02*
D03*
X27402Y55450D02*
D03*
X26698D02*
D03*
X20198Y61050D02*
D03*
X20902D02*
D03*
X14398Y53250D02*
D03*
X15102D02*
D03*
D29*
X31020Y88941D02*
D03*
Y87760D02*
D03*
D30*
X35086Y94620D02*
D03*
X33594D02*
D03*
D31*
X26530Y52704D02*
D03*
Y51916D02*
D03*
X25680Y52694D02*
D03*
Y51906D02*
D03*
X37290Y57936D02*
D03*
Y58724D02*
D03*
X15630Y47686D02*
D03*
Y48474D02*
D03*
X29680Y61153D02*
D03*
Y61941D02*
D03*
X38480Y57936D02*
D03*
Y58724D02*
D03*
X35820Y43436D02*
D03*
Y44224D02*
D03*
X34860Y43436D02*
D03*
Y44224D02*
D03*
X33940D02*
D03*
Y43436D02*
D03*
X22390Y51454D02*
D03*
Y50666D02*
D03*
X32040Y43436D02*
D03*
Y44224D02*
D03*
X33064Y43455D02*
D03*
Y44242D02*
D03*
D32*
X18030Y84863D02*
D03*
Y85837D02*
D03*
X14030Y84863D02*
D03*
Y85837D02*
D03*
Y82863D02*
D03*
Y83837D02*
D03*
X22030Y84863D02*
D03*
Y85837D02*
D03*
X20030Y84863D02*
D03*
Y85837D02*
D03*
X16030D02*
D03*
Y84863D02*
D03*
X22030Y82863D02*
D03*
Y83837D02*
D03*
X20030Y82863D02*
D03*
Y83837D02*
D03*
X18030D02*
D03*
Y82863D02*
D03*
X16030Y83837D02*
D03*
Y82863D02*
D03*
D33*
X33920Y77390D02*
D03*
Y78130D02*
D03*
D34*
X16740Y48917D02*
D03*
Y48563D02*
D03*
D35*
X27500Y70174D02*
D03*
Y69426D02*
D03*
X31400Y70666D02*
D03*
Y71414D02*
D03*
D36*
X26624Y71350D02*
D03*
X25836D02*
D03*
X24874Y53880D02*
D03*
X24086D02*
D03*
X22625Y59521D02*
D03*
X23412D02*
D03*
X38405Y47589D02*
D03*
X39193D02*
D03*
X17440Y53280D02*
D03*
X18227D02*
D03*
X30700Y42120D02*
D03*
X29913D02*
D03*
Y41420D02*
D03*
X30700D02*
D03*
X19414Y70370D02*
D03*
X18626D02*
D03*
X22431Y67350D02*
D03*
X23219D02*
D03*
X22431Y68300D02*
D03*
X23219D02*
D03*
X21906Y64250D02*
D03*
X22694D02*
D03*
X37084Y50764D02*
D03*
X36296D02*
D03*
X39184Y46580D02*
D03*
X38396D02*
D03*
X24086Y53180D02*
D03*
X24874D02*
D03*
X13900Y49242D02*
D03*
X14687D02*
D03*
X14694Y48366D02*
D03*
X13906D02*
D03*
X14994Y45750D02*
D03*
X14206D02*
D03*
X14200Y46800D02*
D03*
X14987D02*
D03*
X18734Y49300D02*
D03*
X17946D02*
D03*
X18744Y50550D02*
D03*
X17956D02*
D03*
X39190Y43680D02*
D03*
X38403D02*
D03*
X39190Y44556D02*
D03*
X38403D02*
D03*
X39184Y45630D02*
D03*
X38396D02*
D03*
X16740Y62140D02*
D03*
X15953D02*
D03*
X18544Y51524D02*
D03*
X17756D02*
D03*
X18494Y52400D02*
D03*
X17706D02*
D03*
D37*
X23490Y55430D02*
D03*
Y55170D02*
D03*
Y54920D02*
D03*
Y54660D02*
D03*
Y54400D02*
D03*
X25710D02*
D03*
Y54660D02*
D03*
Y54920D02*
D03*
Y55170D02*
D03*
Y55430D02*
D03*
Y55680D02*
D03*
Y56200D02*
D03*
Y55940D02*
D03*
X23490Y55680D02*
D03*
Y55940D02*
D03*
Y56200D02*
D03*
D38*
X21680Y58960D02*
D03*
X20916D02*
D03*
X28348Y74090D02*
D03*
X29112D02*
D03*
X15238Y65450D02*
D03*
X16002D02*
D03*
X17859Y48424D02*
D03*
X18623D02*
D03*
D39*
X16920Y46885D02*
D03*
Y45715D02*
D03*
X13750Y44135D02*
D03*
Y42965D02*
D03*
D40*
X16090Y66516D02*
D03*
Y66260D02*
D03*
X17830D02*
D03*
Y67028D02*
D03*
X16090D02*
D03*
Y66772D02*
D03*
X17830Y66516D02*
D03*
Y66772D02*
D03*
D41*
X18366Y72559D02*
D03*
X18209Y72717D02*
D03*
X18051D02*
D03*
Y72559D02*
D03*
X18366Y72717D02*
D03*
X18209Y72559D02*
D03*
D42*
X17992Y73311D02*
D03*
Y73089D02*
D03*
X18386D02*
D03*
Y73311D02*
D03*
D43*
X18000Y46554D02*
D03*
Y45846D02*
D03*
X21000Y42996D02*
D03*
Y43704D02*
D03*
D44*
X8671Y75762D02*
D03*
Y71392D02*
D03*
D45*
X12600Y44035D02*
D03*
Y43365D02*
D03*
X42060Y80665D02*
D03*
Y81335D02*
D03*
X39674Y80665D02*
D03*
Y81335D02*
D03*
D46*
X9204Y58709D02*
D03*
Y54891D02*
D03*
X31600Y54300D02*
D03*
Y50481D02*
D03*
D47*
X17842Y71929D02*
D03*
X18182D02*
D03*
D51*
X18535Y73946D02*
D03*
Y75780D02*
D03*
D52*
X42060Y83182D02*
D03*
Y82418D02*
D03*
X39674Y83182D02*
D03*
Y82418D02*
D03*
D53*
X34902Y79610D02*
D03*
X35618D02*
D03*
X16540Y67831D02*
D03*
X15824D02*
D03*
D54*
X34845Y80470D02*
D03*
X35455D02*
D03*
X15230Y64660D02*
D03*
X14620D02*
D03*
Y63961D02*
D03*
X15230D02*
D03*
Y63263D02*
D03*
X14620D02*
D03*
D55*
X34960Y81980D02*
D03*
X33240D02*
D03*
Y81220D02*
D03*
X34960D02*
D03*
Y81470D02*
D03*
Y81730D02*
D03*
X33240D02*
D03*
Y81470D02*
D03*
D56*
X33650Y84230D02*
D03*
Y83514D02*
D03*
D57*
X30585Y74100D02*
D03*
X29915D02*
D03*
X38925Y50764D02*
D03*
X38255D02*
D03*
D58*
X23299Y66033D02*
D03*
X22925Y65167D02*
D03*
X22551Y66033D02*
D03*
X24484Y51534D02*
D03*
X24110Y52400D02*
D03*
X24858D02*
D03*
D59*
X35140Y50451D02*
D03*
Y49309D02*
D03*
D60*
X34432Y46231D02*
D03*
X15600Y51400D02*
D03*
D61*
X33743Y47196D02*
D03*
X33940D02*
D03*
X34137D02*
D03*
X34334D02*
D03*
X34925D02*
D03*
X35122Y45266D02*
D03*
X34925D02*
D03*
X33940D02*
D03*
X35122Y47196D02*
D03*
X35318Y45266D02*
D03*
Y47196D02*
D03*
X34531Y45266D02*
D03*
X34728D02*
D03*
X14911Y52365D02*
D03*
X15108D02*
D03*
X15305D02*
D03*
X15502D02*
D03*
X16092D02*
D03*
X16289D02*
D03*
X16486D02*
D03*
Y50435D02*
D03*
X16289D02*
D03*
X16092D02*
D03*
X15895D02*
D03*
X15698D02*
D03*
X15108D02*
D03*
D62*
X35592Y46921D02*
D03*
Y46724D02*
D03*
Y46527D02*
D03*
Y46330D02*
D03*
Y46133D02*
D03*
Y45936D02*
D03*
Y45542D02*
D03*
X33272Y46330D02*
D03*
Y46527D02*
D03*
Y46724D02*
D03*
Y45542D02*
D03*
Y45739D02*
D03*
X35592D02*
D03*
X14440Y50711D02*
D03*
Y50908D02*
D03*
Y51498D02*
D03*
Y51695D02*
D03*
Y51892D02*
D03*
X16760Y52089D02*
D03*
Y51892D02*
D03*
Y51695D02*
D03*
Y51498D02*
D03*
Y51301D02*
D03*
Y51105D02*
D03*
Y50908D02*
D03*
Y50711D02*
D03*
D63*
X13315Y53083D02*
D03*
Y52017D02*
D03*
X32147Y47467D02*
D03*
Y48533D02*
D03*
D64*
X16335Y43700D02*
D03*
X18265D02*
D03*
D65*
X14921Y54842D02*
D03*
X13779D02*
D03*
D66*
X19000Y63585D02*
D03*
X21000Y61931D02*
D03*
X19000D02*
D03*
X21000Y63585D02*
D03*
D67*
X33664Y85280D02*
D03*
X32936D02*
D03*
D131*
X20633Y66302D02*
D03*
D132*
X17149Y74863D02*
D03*
D133*
X18566D02*
D03*
D134*
X35510Y79718D02*
Y81080D01*
X31900Y82502D02*
X33828D01*
X30430Y71930D02*
X30470Y71890D01*
X26480Y69104D02*
X26964Y68620D01*
X27070D02*
X27490Y69040D01*
X26480Y69104D02*
Y69440D01*
X36200Y65375D02*
X36210Y65385D01*
X36190Y64730D02*
Y65535D01*
X36210Y66250D02*
Y66670D01*
X35650Y66810D02*
X35668Y66792D01*
X35929D01*
X36088D01*
X36210Y66670D01*
X37465Y67070D02*
X38032D01*
X36750Y69200D02*
Y69768D01*
X27490Y69040D02*
Y69416D01*
X33010Y93330D02*
Y94514D01*
X32260Y93100D02*
X32780D01*
X33010Y93330D01*
X35980Y93100D02*
X36650D01*
X35750Y93330D02*
Y94040D01*
Y93330D02*
X35980Y93100D01*
X12680Y82230D02*
X13072Y82612D01*
X13779D01*
X35644Y82938D02*
X35781Y82801D01*
Y82531D02*
X35820Y82492D01*
X35440Y81150D02*
X35820Y81530D01*
X35781Y82531D02*
Y82801D01*
X35820Y81530D02*
Y82492D01*
X33159Y77408D02*
X33783D01*
X32010Y78350D02*
X32490D01*
X32728Y78112D01*
X33159D01*
X33920Y78130D02*
Y78900D01*
X33171Y71924D02*
X33920Y72673D01*
Y77350D01*
X31200Y79110D02*
X32957D01*
X32670Y86960D02*
Y88260D01*
X31060Y86960D02*
X32670D01*
X33650Y83090D02*
Y83514D01*
X33660Y83080D02*
X34380Y82360D01*
Y81849D02*
Y82360D01*
X33664Y84324D02*
Y85280D01*
X33670Y85286D02*
Y86960D01*
X32556Y45990D02*
X32970D01*
X32536Y45460D02*
X32970D01*
X32450D02*
Y45980D01*
X17030Y66320D02*
Y66870D01*
X32536Y45990D02*
X32556D01*
X32450D02*
X32536D01*
X32450Y45460D02*
X32536D01*
X13795Y51380D02*
X14105D01*
X17090Y66260D02*
X17830D01*
X17030Y66320D02*
X17090Y66260D01*
X16550Y67350D02*
X17030Y66870D01*
X15900Y67350D02*
X16550D01*
X15820Y67430D02*
Y67720D01*
Y67430D02*
X15900Y67350D01*
X15610Y74520D02*
X15630D01*
X33790Y81180D02*
X34070Y80900D01*
X33640Y81980D02*
X33790Y81830D01*
X34380Y81849D02*
X34499Y81730D01*
X35370Y81220D02*
X35510Y81080D01*
X34070Y79830D02*
Y80470D01*
Y80900D01*
X33790Y81180D02*
Y81830D01*
X34090Y81579D02*
Y82240D01*
X33828Y82502D02*
X34090Y82240D01*
X32400Y79500D02*
Y81250D01*
X31778Y81730D02*
X33240D01*
Y81980D02*
X33640D01*
X34960Y81220D02*
X35370D01*
X32400Y79500D02*
X32925Y78975D01*
X32620Y81470D02*
X33240D01*
X32400Y81250D02*
X32620Y81470D01*
X34090Y81579D02*
X34449Y81220D01*
X34960D01*
X34499Y81730D02*
X34960D01*
D135*
X35590Y79060D02*
Y79610D01*
X26702Y55445D02*
Y55902D01*
X27880Y54000D02*
Y54700D01*
X25800Y55260D02*
Y55650D01*
X33940Y59440D02*
X34780Y60280D01*
X30410Y57250D02*
X32600Y59440D01*
X33940D01*
X28050Y57250D02*
X30410D01*
X32000Y57710D02*
X32030Y57740D01*
X32550Y58210D02*
X32590Y58250D01*
X32030Y57740D02*
X32630D01*
X32590Y58250D02*
X34090D01*
X31500Y57160D02*
X31540Y57200D01*
X33100Y58760D02*
X33140Y58800D01*
X35290D01*
X31540Y57200D02*
X35120D01*
X29727Y59387D02*
X31087D01*
X30537Y58837D02*
X30550Y58850D01*
X29164Y58824D02*
X29177Y58837D01*
X28627Y58337D02*
X29987D01*
X29487Y57787D02*
X29500Y57800D01*
X28114Y57774D02*
X28127Y57787D01*
X29487D01*
X29714Y59374D02*
X29727Y59387D01*
X29177Y58837D02*
X30537D01*
X28614Y58324D02*
X28627Y58337D01*
X29987D02*
X30000Y58350D01*
X31087Y59387D02*
X31100Y59400D01*
X13000Y64450D02*
X14010Y65460D01*
X13000Y62750D02*
X14560Y61190D01*
X13000Y62750D02*
Y64450D01*
X14560Y61190D02*
X16420D01*
X17370Y60240D01*
X21160D01*
X17190Y59600D02*
X19500D01*
X14390Y60810D02*
X15980D01*
X17190Y59600D01*
X22370Y50030D02*
Y50666D01*
Y51454D02*
Y52150D01*
X22360Y52180D02*
Y53374D01*
X22350Y53384D02*
X22360Y53374D01*
Y52180D02*
X22370Y52170D01*
X34550Y74960D02*
Y78020D01*
X35590Y79060D01*
X34563Y74123D02*
X34570Y74130D01*
X34563Y67947D02*
X34780Y67730D01*
X34563Y67947D02*
Y74123D01*
X30926Y90726D02*
X31244Y91044D01*
X17510Y71949D02*
Y72081D01*
X25800Y55250D02*
Y55260D01*
X24170Y55170D02*
X24200Y55200D01*
X26702Y55445D02*
X26761Y55386D01*
X26698Y55450D02*
X26702Y55445D01*
X20248Y61000D02*
X20298Y61050D01*
X26761Y54997D02*
Y55386D01*
Y54997D02*
X26878Y54880D01*
X27700D01*
X27880Y54700D01*
X26702Y55902D02*
X28050Y57250D01*
X38101Y53966D02*
X41060Y56926D01*
X33290Y57730D02*
X35110D01*
X37862Y54978D01*
X35120Y57200D02*
X37984Y54336D01*
X12510Y62690D02*
X14390Y60810D01*
X12510Y62690D02*
Y64930D01*
X34652Y58260D02*
X35130D01*
X37984Y55406D01*
X35290Y58800D02*
X37984Y56106D01*
X37100Y53850D02*
X37150D01*
X21950Y61700D02*
Y62660D01*
X22270Y62980D02*
X23370D01*
X21950Y62660D02*
X22270Y62980D01*
X23370D02*
X23400Y62950D01*
X22650Y61730D02*
Y62450D01*
X21160Y60240D02*
X22650Y61730D01*
X19300Y47800D02*
X21020Y49520D01*
X21159Y52147D02*
Y52174D01*
X21020Y49520D02*
Y52009D01*
X21159Y52147D01*
X12510Y64930D02*
X13420Y65840D01*
X17520Y71000D02*
Y71850D01*
X15300Y69260D02*
X15780D01*
X17520Y71000D01*
X16591Y67780D02*
Y68259D01*
X13420Y67380D02*
X15300Y69260D01*
X13420Y65840D02*
Y67380D01*
X14010Y65460D02*
Y67130D01*
X15440Y68560D02*
X16290D01*
X14010Y67130D02*
X15440Y68560D01*
X16290D02*
X16591Y68259D01*
X17510Y72081D02*
X17909Y72480D01*
X21200Y59600D02*
X23400Y61800D01*
X20020Y59600D02*
X21200D01*
X25350Y63250D02*
X26730Y61870D01*
Y61280D02*
Y61870D01*
X26700Y59800D02*
X26720Y59820D01*
Y60720D01*
X25100Y58200D02*
Y59800D01*
X41086Y58686D02*
X41100Y58700D01*
X41086Y57650D02*
Y58686D01*
X41060Y56926D02*
Y57089D01*
X17987Y47800D02*
X19300D01*
X17870Y47917D02*
X17987Y47800D01*
X17870Y47917D02*
Y48350D01*
X20198Y61050D02*
X20248D01*
X21000Y60950D02*
X21200D01*
X23400Y61800D02*
Y61875D01*
X25600Y59700D02*
X25800Y59900D01*
X25600Y58750D02*
Y59700D01*
X25800Y59900D02*
Y61200D01*
X35510Y79718D02*
X35618Y79610D01*
X21000Y61300D02*
Y61931D01*
X34780Y67730D02*
X34780Y60280D01*
X19450Y61050D02*
X20198D01*
X34170Y80470D02*
X34172Y80472D01*
X34070Y80470D02*
X34170D01*
X26150Y59250D02*
Y61650D01*
X25100Y59800D02*
X25300Y60000D01*
Y60900D01*
X32297Y74947D02*
X33047D01*
X34070Y79830D02*
X34290Y79610D01*
X34960Y81220D02*
Y81400D01*
Y82060D02*
Y82340D01*
X25300Y61700D02*
X25800Y61200D01*
X25300Y62500D02*
X26150Y61650D01*
X34290Y79610D02*
X34902D01*
X34170Y80470D02*
X34845D01*
X21200Y60950D02*
X21950Y61700D01*
X30450Y73100D02*
X32297Y74947D01*
X25100Y73100D02*
X30450D01*
D136*
X26555Y55430D02*
X26626Y55360D01*
X24201Y55199D02*
X24771D01*
X24773Y55198D01*
X24200Y55200D02*
X24201Y55199D01*
X25710Y55170D02*
X25800D01*
X22620Y55370D02*
X22680Y55430D01*
X23490D01*
X22620Y55370D02*
Y56126D01*
X25755Y55215D02*
X25800Y55260D01*
X23490Y55170D02*
X24170D01*
X26626Y55360D02*
X26626D01*
X25970Y55430D02*
X26555D01*
D137*
X14030Y82760D02*
X16070D01*
X16170Y82654D02*
X16333Y82492D01*
X13800Y85940D02*
X16190D01*
X19942D02*
X22030Y85940D01*
X16590Y85920D02*
X18200Y87530D01*
X17979Y87466D02*
X19506Y85940D01*
X16190D02*
X19069D01*
X19942D01*
X15746Y74600D02*
X16910D01*
X17927Y82760D02*
X19208D01*
X14210Y74600D02*
X15746D01*
X19208Y82760D02*
X20035D01*
X16070D02*
X16700D01*
X22030Y82760D02*
X22260D01*
X20035Y82760D02*
X22030Y82760D01*
X16850Y82770D02*
X17463Y82157D01*
X16695Y82765D02*
X16700Y82760D01*
X17870Y81426D02*
X18012Y81568D01*
X17839Y81396D02*
X17870Y81426D01*
X16700Y82760D02*
X17927D01*
X16460Y82669D02*
X17349Y81779D01*
X16385Y82455D02*
X17410Y81430D01*
X17349Y81779D02*
X17690Y81439D01*
X15746Y75200D02*
X16900D01*
X14670D02*
X15746D01*
X16130Y75970D02*
X16900Y75200D01*
X22030Y85940D02*
X22230D01*
X11012Y96778D02*
X11700Y96090D01*
X12125Y94165D02*
X12610Y94650D01*
X11597Y93627D02*
X12130Y94160D01*
X11720Y96110D02*
X12098Y95732D01*
X37381Y53862D02*
X37991D01*
X31292Y54608D02*
X31500Y54816D01*
X36134D02*
X37100Y53850D01*
X31500Y54816D02*
X36134D01*
D138*
X16035Y82868D02*
X16695D01*
X16030Y82863D02*
X16035Y82868D01*
X18265Y41535D02*
X20090Y39710D01*
X21000Y45070D02*
Y45516D01*
Y45060D02*
Y45070D01*
X18150Y63590D02*
X18995D01*
X17430Y63580D02*
X17435Y63585D01*
X18995Y63590D02*
X19000Y63585D01*
X17435Y63585D02*
X18135D01*
X21000Y44700D02*
Y45060D01*
X12173Y39760D02*
Y39773D01*
Y39760D02*
X14260D01*
X16350Y41850D01*
Y43400D01*
X18265Y41535D02*
Y43235D01*
D139*
X18026Y89356D02*
X21190Y92520D01*
X18026Y86813D02*
Y89356D01*
X14113Y75090D02*
X15370Y76347D01*
X16030Y77007D01*
X15746Y75200D02*
Y75970D01*
Y76690D01*
X14030Y75057D02*
X14063Y75090D01*
X18020Y81436D02*
Y82310D01*
Y78900D02*
Y81436D01*
X15746Y75098D02*
Y75200D01*
X15890Y76910D02*
X17870Y78890D01*
X12030Y95180D02*
X14930D01*
X8906Y96406D02*
X9880D01*
X16630Y92520D02*
Y93480D01*
X9880Y96406D02*
X10874D01*
X14930Y95180D02*
X16630Y93480D01*
X8569Y95180D02*
Y96420D01*
Y93400D02*
Y95180D01*
X11290D02*
X12030D01*
X9880D02*
Y96386D01*
Y93380D02*
Y95180D01*
X9169Y93330D02*
Y93356D01*
Y95180D02*
Y96336D01*
Y93356D02*
X10484D01*
X11290Y95180D02*
Y95680D01*
Y94580D02*
Y95180D01*
X11280D02*
X11290D01*
X8892Y96420D02*
X8906Y96406D01*
X10890Y94180D02*
X11290Y94580D01*
X10781Y93360D02*
X10874Y93454D01*
X8906D02*
X8999Y93360D01*
X24900Y26400D02*
X28500D01*
X35100D01*
X37551Y23765D02*
Y23949D01*
X35100Y26400D02*
X37551Y23949D01*
X17000Y18500D02*
X24900Y26400D01*
X16110Y18500D02*
X17000D01*
D140*
X30470Y71392D02*
Y71890D01*
X18265Y43462D02*
Y43700D01*
X34235Y47880D02*
Y50065D01*
X37984Y54978D02*
Y55406D01*
X15402Y52660D02*
Y53300D01*
X19270Y78706D02*
Y80170D01*
X20370Y78300D02*
Y80510D01*
X31020Y89060D02*
Y90730D01*
X31000Y86740D02*
Y87590D01*
X30510Y86250D02*
X31000Y86740D01*
X28000Y86220D02*
X30480D01*
X40772Y54760D02*
X41620D01*
X15990Y70790D02*
Y73190D01*
X14645Y69445D02*
X15990Y70790D01*
X11510Y64970D02*
X12660Y66120D01*
X13330Y55170D02*
X13650Y54850D01*
X32740Y46760D02*
X33272D01*
X30484Y46766D02*
X30590Y46660D01*
X33272Y46527D02*
Y46724D01*
X11230Y50640D02*
X11990Y51400D01*
X11028Y50740D02*
X11788Y51500D01*
X13400D01*
X12180Y51892D02*
X14440D01*
X10800Y51358D02*
X10942Y51500D01*
X11788D01*
X10792Y51892D02*
X12180D01*
X11788Y51500D02*
X12180Y51892D01*
X10800Y50740D02*
X11028D01*
X38024Y53890D02*
X38610D01*
X39530Y54810D01*
X40018D01*
X37984Y54336D02*
Y54978D01*
X31292Y54608D02*
X31600Y54300D01*
X41620Y54760D02*
Y55160D01*
Y54360D02*
Y54760D01*
X14942Y57670D02*
X15982Y58710D01*
X12697Y57670D02*
X14942D01*
X9204Y58709D02*
X9205Y58710D01*
X37984Y55406D02*
Y56106D01*
Y54083D02*
Y54336D01*
X15982Y58710D02*
X16150Y58878D01*
X13800Y68600D02*
X14645Y69445D01*
X12900Y67700D02*
X13800Y68600D01*
X12660Y67460D02*
X12900Y67700D01*
X12660Y66790D02*
Y67460D01*
Y66120D02*
Y66790D01*
X13140Y54820D02*
Y55570D01*
X16200Y73400D02*
X16600D01*
X15990Y73190D02*
X16200Y73400D01*
X17510Y71949D02*
X17732D01*
X17411D02*
X17510D01*
X15402Y53300D02*
Y53649D01*
X14045Y51498D02*
X14440D01*
X15402Y52367D02*
Y52563D01*
X15258Y52365D02*
X15305D01*
X15402Y52465D02*
Y52660D01*
X15050Y54000D02*
X15402Y53649D01*
X9477Y54523D02*
X10000Y54000D01*
X15050D01*
X34235Y47220D02*
Y47880D01*
X33850Y50450D02*
X34235Y50065D01*
X31664Y50450D02*
X33850D01*
X33272Y46357D02*
Y46527D01*
X13401Y51498D02*
X13792D01*
Y51695D02*
X14440D01*
X30933Y48552D02*
Y48907D01*
Y48197D02*
Y48552D01*
X12333Y53017D02*
Y53083D01*
X12015Y52700D02*
X12333Y53017D01*
X12015Y53400D02*
X12333Y53083D01*
X13240Y55170D02*
X13330D01*
X30930Y48550D02*
X30933Y48552D01*
X30500Y48550D02*
X30930D01*
X30921Y48185D02*
X30933Y48197D01*
X30213Y48185D02*
X30921D01*
Y48895D02*
X30933Y48907D01*
X30213Y48895D02*
X30921D01*
X30213Y48185D02*
Y48895D01*
X18265Y43235D02*
Y43462D01*
X24316Y45516D02*
X24400Y45600D01*
X13595Y51695D02*
X13600Y51700D01*
D141*
X8262Y75848D02*
X8863D01*
X8682D02*
X9213Y75850D01*
X10450D02*
X11400Y74900D01*
X9213Y75850D02*
X10450D01*
X11400Y74900D02*
X13630D01*
X18300Y81470D02*
X18957Y82127D01*
X19007Y82157D02*
X19408Y82558D01*
X13820Y75090D02*
X14300Y75570D01*
X9205Y58710D02*
X15982D01*
D142*
X8340Y63730D02*
Y71392D01*
X21435Y45516D02*
X24266D01*
X20686Y43981D02*
X21005Y44300D01*
X18785Y43805D02*
X20510D01*
X18482Y43462D02*
X18785Y43765D01*
X11465Y46300D02*
X12000D01*
X21000Y45070D02*
X21435Y45505D01*
X20550Y45510D02*
X20995Y45065D01*
X20550Y45510D02*
Y45516D01*
X20510Y43805D02*
X20686Y43981D01*
X11015Y45735D02*
X11465Y46185D01*
X18335Y43315D02*
X18482Y43462D01*
X20995Y45065D02*
X21000Y45060D01*
X20995Y45065D02*
X21000Y45070D01*
X20985Y45055D02*
X20995Y45065D01*
X8340Y60100D02*
Y60730D01*
Y60100D02*
X8560Y59880D01*
X20550Y45516D02*
X21000D01*
X19766D02*
X20550D01*
X21005Y44300D02*
Y44805D01*
X20510Y43805D02*
X20862D01*
X18369D02*
X18785D01*
X21005Y43858D02*
Y44300D01*
X15148Y59880D02*
X16150Y58878D01*
X8560Y59880D02*
X15148D01*
X19150Y44900D02*
X19766Y45516D01*
X12000Y46300D02*
X13400Y44900D01*
X19150D01*
X10723Y46334D02*
X10758Y46300D01*
X11465D01*
X24266Y45516D02*
X24316D01*
X21000D02*
X21435D01*
X20995Y44695D02*
X21000Y44700D01*
X18265Y43700D02*
X18369Y43805D01*
D143*
X10673Y45735D02*
Y46334D01*
X26100Y44000D02*
Y46632D01*
X25284Y44016D02*
Y46766D01*
X7950Y46500D02*
X10550D01*
X10673Y44327D02*
Y44450D01*
Y45735D01*
X7950Y44600D02*
Y46500D01*
X8300Y44250D02*
X10750D01*
X14030Y84180D02*
Y84550D01*
X29500Y44067D02*
Y46766D01*
X30590Y43820D02*
Y46660D01*
X10800Y50740D02*
Y51358D01*
Y49500D02*
Y50740D01*
X25284Y46766D02*
X26234D01*
X24334D02*
X25284D01*
X25300Y44000D02*
X26100D01*
X24500D02*
X25300D01*
X25284Y44016D02*
X25300Y44000D01*
X29500Y46766D02*
X30484D01*
X28576D02*
X29500D01*
Y44067D02*
X29560Y44007D01*
X24266Y44234D02*
Y45516D01*
Y46766D01*
X10723Y49466D02*
X10766D01*
X7964D02*
X10723D01*
X29560Y44007D02*
X30243D01*
X28576D02*
X29560D01*
X8750Y50400D02*
X9950D01*
X8700Y45350D02*
X9900D01*
X7964Y49614D02*
Y51434D01*
X10723D01*
X28576Y44007D02*
Y46686D01*
X20030Y84230D02*
Y84550D01*
X18030Y84230D02*
Y84550D01*
X22030Y84230D02*
Y84550D01*
X16030Y84230D02*
Y84550D01*
D144*
X18564Y70370D02*
Y70900D01*
X19180Y66740D02*
X19190Y66730D01*
X19180Y66740D02*
Y69470D01*
X18564Y70900D02*
Y72361D01*
Y70086D02*
Y70370D01*
Y70086D02*
X19180Y69470D01*
X15230Y64660D02*
Y65172D01*
Y63961D02*
Y64660D01*
Y63263D02*
Y63961D01*
X16090Y64010D02*
X16450D01*
X15880Y62213D02*
Y63800D01*
X16450Y64010D02*
X16480Y64040D01*
X15880Y63800D02*
X16090Y64010D01*
X18877Y62054D02*
X19000Y61931D01*
X18466Y62054D02*
X18877D01*
X16460Y63060D02*
X17460D01*
X18466Y62054D01*
X15880Y62213D02*
X15953Y62140D01*
X17927Y82760D02*
X18030Y82863D01*
X32750Y46259D02*
X33320D01*
X41620Y55160D02*
X41670Y55110D01*
X16740Y62140D02*
X16750Y62130D01*
X17526D02*
X17546Y62150D01*
X16750Y62130D02*
X17526D01*
X12690Y56570D02*
X12740Y56620D01*
X34880Y47070D02*
Y47620D01*
Y49220D01*
X14570Y64650D02*
X14580Y64660D01*
X18490Y72435D02*
X18564Y72361D01*
X33168Y80565D02*
X33240Y80637D01*
X10723Y51434D02*
X10800Y51358D01*
X10766Y49466D02*
X10800Y49500D01*
X16046Y52365D02*
Y52796D01*
Y52250D02*
Y52365D01*
X14971Y54800D02*
X15650D01*
X16046Y53046D02*
Y54404D01*
X15650Y54800D02*
X16046Y54404D01*
X30950Y48630D02*
X31047Y48533D01*
X31950Y45755D02*
X31967Y45737D01*
X15150Y51400D02*
X15600D01*
X16046Y52796D02*
Y53046D01*
X19382Y61118D02*
X19450Y61050D01*
X22551Y66033D02*
Y66199D01*
X39650Y83106D02*
X39674Y83082D01*
X33240Y80637D02*
Y81150D01*
X22200Y69350D02*
X22250Y69300D01*
X34032Y46231D02*
X34349D01*
D145*
X15258Y52563D02*
Y53310D01*
X32711Y45857D02*
X33111D01*
X32691Y45594D02*
X33163D01*
X20257Y42955D02*
X21657D01*
X13655Y50928D02*
X14442D01*
X12790Y56280D02*
Y56968D01*
X13660Y50800D02*
X14447D01*
X13655Y50658D02*
X14442D01*
X12450Y56190D02*
X12540D01*
X12550Y56200D01*
X13150Y56190D02*
X13160D01*
X15258Y52563D02*
Y53300D01*
Y52563D02*
Y53300D01*
Y52375D02*
Y52563D01*
D146*
X35086Y94620D02*
X35746Y94624D01*
X39560Y94650D01*
X25410Y94620D02*
X33464D01*
D147*
X26050Y51250D02*
X26590D01*
X25680Y51620D02*
X26050Y51250D01*
X26530Y51300D02*
Y51916D01*
X26580Y53790D02*
X27470Y52900D01*
Y50710D02*
Y52900D01*
X25680Y51620D02*
Y51906D01*
X25710Y54660D02*
X26060D01*
X26140Y54580D01*
Y53480D02*
Y54580D01*
Y53480D02*
X26530Y53090D01*
Y52704D02*
Y53090D01*
X25710Y52724D02*
Y54400D01*
X26388Y54812D02*
X26500Y54700D01*
X26280Y54920D02*
X26388Y54812D01*
X26580Y53790D02*
Y54620D01*
X26500Y54700D02*
X26580Y54620D01*
X25710Y54920D02*
X26280D01*
X24850Y54400D02*
X25080Y54630D01*
X23490Y54400D02*
X24850D01*
X25080Y54630D02*
Y54800D01*
X25200Y54920D02*
X25710D01*
X25080Y54800D02*
X25200Y54920D01*
X23490Y54660D02*
Y54920D01*
X27517Y55565D02*
Y55847D01*
X27800Y56130D01*
X25710Y54660D02*
Y54920D01*
X22350Y54384D02*
X22626Y54660D01*
X23490D01*
D148*
X33360Y60569D02*
X33379D01*
Y60573D01*
X40730Y60561D02*
X40750D01*
Y60565D01*
D149*
X13856Y63947D02*
X14556D01*
X13836Y63277D02*
X14536D01*
X13870Y64650D02*
X14570D01*
D150*
X11415Y53102D02*
X12084D01*
X11347Y52700D02*
Y53400D01*
Y52700D02*
X12015D01*
X11347Y53400D02*
X12015D01*
D151*
X9880Y95180D02*
X10840D01*
X9169D02*
X9880D01*
X8640D02*
X9169D01*
D152*
X30623Y46560D02*
X32262D01*
X32360D02*
X32770D01*
D153*
X12540Y56190D02*
X13150D01*
D154*
X16298Y58730D02*
X16322D01*
X16150Y58878D02*
X16298Y58730D01*
D155*
X33111Y45857D02*
X33222D01*
D156*
X18253Y73400D02*
X18385Y73533D01*
X18505Y73946D02*
X18535D01*
X18458Y73899D02*
X18505Y73946D01*
X18458Y73772D02*
Y73899D01*
X18190Y73400D02*
X18253D01*
X18518Y73930D02*
X18535Y73946D01*
X18573Y73720D02*
Y73842D01*
X18385Y73533D02*
X18573Y73720D01*
X18518Y73930D02*
X18573Y73842D01*
D157*
X17994Y73310D02*
X18388D01*
X18385Y73311D02*
X18386Y73311D01*
X18385Y73311D02*
Y73533D01*
X18458Y73772D02*
X18528Y73842D01*
X18218Y73533D02*
X18458Y73772D01*
X18528Y73842D02*
X18573D01*
X17996Y73311D02*
X18218Y73533D01*
X18385D01*
X17992Y73311D02*
X17996D01*
D158*
X31830Y45189D02*
Y45574D01*
X32070Y45219D02*
Y45581D01*
X13070Y49980D02*
Y50343D01*
X12830Y49950D02*
Y50335D01*
D159*
X12333Y53083D02*
X13315D01*
X31047Y48533D02*
X32147D01*
D160*
Y46760D02*
Y47232D01*
D161*
X21000Y47484D02*
D03*
X16150Y56909D02*
D03*
X36016Y53850D02*
D03*
D162*
X21000Y45516D02*
D03*
X16150Y58878D02*
D03*
D163*
X35910Y14400D02*
D03*
X32300D02*
D03*
X28690D02*
D03*
D164*
X28760Y97530D02*
D03*
X25410Y94620D02*
D03*
X16630Y92520D02*
D03*
X31020Y90730D02*
D03*
X21190Y92520D02*
D03*
X28000Y86220D02*
D03*
X10723Y49466D02*
D03*
X7964D02*
D03*
X10723Y51434D02*
D03*
X7964D02*
D03*
X10723Y44366D02*
D03*
X7964D02*
D03*
X10723Y46334D02*
D03*
X7964D02*
D03*
X8906Y85244D02*
D03*
Y88196D02*
D03*
X10874Y85244D02*
D03*
Y88196D02*
D03*
X8906Y93454D02*
D03*
Y96406D02*
D03*
X10874Y93454D02*
D03*
Y96406D02*
D03*
X28576Y44007D02*
D03*
Y46766D02*
D03*
X30544Y44007D02*
D03*
Y46766D02*
D03*
X24266Y44007D02*
D03*
Y46766D02*
D03*
X26234Y44007D02*
D03*
Y46766D02*
D03*
X29881Y35080D02*
D03*
X38779D02*
D03*
D165*
X8340Y60730D02*
D03*
D166*
Y62230D02*
D03*
Y63730D02*
D03*
X41872Y94708D02*
D03*
D167*
X29927Y75722D02*
D03*
X8740Y82100D02*
D03*
X32260Y93100D02*
D03*
X35644Y82938D02*
D03*
Y87090D02*
D03*
X28470Y79110D02*
D03*
X35644Y88280D02*
D03*
X32650D02*
D03*
X31200Y79110D02*
D03*
X36650Y93100D02*
D03*
X12680Y82230D02*
D03*
D168*
X28580Y40230D02*
D03*
X25450Y77830D02*
D03*
X18370Y67890D02*
D03*
X14880Y62280D02*
D03*
X17790Y61100D02*
D03*
X11380Y63990D02*
D03*
Y61160D02*
D03*
X39540Y57130D02*
D03*
X31820Y40230D02*
D03*
D169*
X39884Y96696D02*
D03*
X43860D02*
D03*
Y92720D02*
D03*
X39884D02*
D03*
D170*
X30670Y68100D02*
D03*
X29670D02*
D03*
X30670Y66790D02*
D03*
X29670D02*
D03*
X30670Y65480D02*
D03*
X29670D02*
D03*
X29660Y64170D02*
D03*
X30660D02*
D03*
Y62860D02*
D03*
X29660D02*
D03*
X27450Y49710D02*
D03*
Y50710D02*
D03*
X27300Y74110D02*
D03*
X26300D02*
D03*
X33670Y86960D02*
D03*
X32670D02*
D03*
X32937Y79100D02*
D03*
X33937D02*
D03*
X19190Y65730D02*
D03*
Y66730D02*
D03*
X16460Y63060D02*
D03*
Y64060D02*
D03*
X41510Y52270D02*
D03*
Y53270D02*
D03*
X24936Y50589D02*
D03*
X23936D02*
D03*
X23900Y48870D02*
D03*
X24900D02*
D03*
X22350Y54384D02*
D03*
Y53384D02*
D03*
X15100Y44100D02*
D03*
Y43100D02*
D03*
D171*
X40974Y66884D02*
D03*
X33171Y71924D02*
D03*
Y72931D02*
D03*
X40974Y69908D02*
D03*
X33171Y74947D02*
D03*
Y70916D02*
D03*
Y69908D02*
D03*
Y68900D02*
D03*
Y67892D02*
D03*
Y66884D02*
D03*
Y65841D02*
D03*
Y64872D02*
D03*
Y63864D02*
D03*
Y62857D02*
D03*
Y61849D02*
D03*
Y60841D02*
D03*
X40974Y71924D02*
D03*
Y70916D02*
D03*
Y68900D02*
D03*
Y67892D02*
D03*
Y65841D02*
D03*
Y64872D02*
D03*
Y63864D02*
D03*
Y62857D02*
D03*
Y61849D02*
D03*
Y60841D02*
D03*
X33171Y73939D02*
D03*
Y75955D02*
D03*
D172*
X20525Y67331D02*
D03*
D173*
Y65331D02*
D03*
X21525Y66331D02*
D03*
D174*
X20047Y39760D02*
D03*
X12173D02*
D03*
X23000Y18500D02*
D03*
D175*
X16110D02*
D03*
D176*
X37984Y53850D02*
D03*
D177*
X27096Y54000D02*
D03*
D178*
X27884D02*
D03*
D179*
X28500Y29300D02*
D03*
Y26347D02*
D03*
D180*
X37551Y23765D02*
D03*
X33220D02*
D03*
X37551Y19435D02*
D03*
X33220D02*
D03*
D181*
X30640Y60140D02*
D03*
X34395Y61655D02*
D03*
X35660D02*
D03*
Y61180D02*
D03*
X34395D02*
D03*
X36650Y63870D02*
D03*
X36660Y60580D02*
D03*
X35650Y66810D02*
D03*
X28650Y71378D02*
D03*
X19960Y70340D02*
D03*
X24773Y55198D02*
D03*
X19360Y71560D02*
D03*
X19770Y71770D02*
D03*
X18760Y72820D02*
D03*
X35420Y77610D02*
D03*
X32096Y77562D02*
D03*
X35430Y76940D02*
D03*
X32120Y76870D02*
D03*
X36270Y67880D02*
D03*
X34009Y67877D02*
D03*
X24620Y74190D02*
D03*
X28730Y68640D02*
D03*
X28749Y64601D02*
D03*
X17411Y71949D02*
D03*
X23520Y53880D02*
D03*
X24200Y55200D02*
D03*
X25310Y56510D02*
D03*
X18280Y54800D02*
D03*
X29390Y41410D02*
D03*
X15630Y46930D02*
D03*
X38004Y70560D02*
D03*
X42050Y66380D02*
D03*
X41780Y66969D02*
D03*
X34050Y70550D02*
D03*
X35580Y70530D02*
D03*
X42370Y73030D02*
D03*
X34120Y66820D02*
D03*
X37840Y62450D02*
D03*
X37170Y62920D02*
D03*
X35660Y62130D02*
D03*
X34395D02*
D03*
X32075Y71944D02*
D03*
X32000Y69219D02*
D03*
X29425Y71644D02*
D03*
X30025Y69544D02*
D03*
X29225D02*
D03*
X18975Y53994D02*
D03*
X18038Y56331D02*
D03*
X12375Y49394D02*
D03*
Y47844D02*
D03*
X22245Y48194D02*
D03*
X19553Y49716D02*
D03*
X40835Y43253D02*
D03*
X41475Y42754D02*
D03*
X41415Y49074D02*
D03*
X39915Y48924D02*
D03*
X43055Y49804D02*
D03*
X41998Y48371D02*
D03*
X42975Y59594D02*
D03*
X42195Y57694D02*
D03*
X37840Y59694D02*
D03*
X37175D02*
D03*
X28540Y60827D02*
D03*
X27180D02*
D03*
X21159Y52174D02*
D03*
X17033Y66826D02*
D03*
X17030Y66320D02*
D03*
X15510Y66400D02*
D03*
X11640Y65090D02*
D03*
X12410Y65880D02*
D03*
X18060Y71540D02*
D03*
X16600Y73400D02*
D03*
X15999Y71999D02*
D03*
X12660Y66790D02*
D03*
X12900Y67700D02*
D03*
X13800Y68600D02*
D03*
X14645Y69445D02*
D03*
X15380Y70200D02*
D03*
X15980Y71000D02*
D03*
X16000Y73000D02*
D03*
X32562Y45533D02*
D03*
Y45873D02*
D03*
X32942D02*
D03*
Y45533D02*
D03*
X32130Y45179D02*
D03*
X31790D02*
D03*
X13650Y50630D02*
D03*
Y50970D02*
D03*
X14030D02*
D03*
Y50630D02*
D03*
X12790Y49940D02*
D03*
X13130D02*
D03*
X17190Y50970D02*
D03*
X15420Y50110D02*
D03*
X36180Y47220D02*
D03*
X36350Y45750D02*
D03*
X33972Y44787D02*
D03*
X17326Y47688D02*
D03*
X14500Y47600D02*
D03*
X19290Y49050D02*
D03*
X34417Y45948D02*
D03*
Y46548D02*
D03*
X15600Y51700D02*
D03*
Y51100D02*
D03*
X16050D02*
D03*
Y51700D02*
D03*
X34867Y45948D02*
D03*
X33967D02*
D03*
Y46548D02*
D03*
X34867D02*
D03*
X15150Y51700D02*
D03*
Y51100D02*
D03*
D182*
X31500Y57160D02*
D03*
X32550Y58210D02*
D03*
X33100Y58760D02*
D03*
X32000Y57710D02*
D03*
X29164Y58824D02*
D03*
X29714Y59374D02*
D03*
X28114Y57774D02*
D03*
X28614Y58324D02*
D03*
X21651Y79377D02*
D03*
X20864D02*
D03*
X26964Y68620D02*
D03*
X36190Y64730D02*
D03*
X38052Y67090D02*
D03*
X36770Y69180D02*
D03*
X17430Y63580D02*
D03*
X26540Y51290D02*
D03*
X22370Y52170D02*
D03*
Y50030D02*
D03*
X23720Y51530D02*
D03*
X32010Y78350D02*
D03*
X34570Y74130D02*
D03*
X34550Y74960D02*
D03*
X35159Y76057D02*
D03*
X27410Y88750D02*
D03*
Y89580D02*
D03*
Y90380D02*
D03*
X36600Y90030D02*
D03*
Y89230D02*
D03*
X29660Y91300D02*
D03*
X28060D02*
D03*
X28860D02*
D03*
X24330Y70780D02*
D03*
Y72330D02*
D03*
X20162Y76090D02*
D03*
X20961D02*
D03*
X19363D02*
D03*
X21760D02*
D03*
X20162Y75370D02*
D03*
X20961D02*
D03*
X19363D02*
D03*
X21760D02*
D03*
X21770Y74600D02*
D03*
X20971D02*
D03*
X20172D02*
D03*
X19373D02*
D03*
X35760Y50840D02*
D03*
X22620Y55370D02*
D03*
Y56126D02*
D03*
X27800Y56130D02*
D03*
X19130Y55440D02*
D03*
X19740Y64550D02*
D03*
X33320Y91340D02*
D03*
X34120D02*
D03*
X23920Y60430D02*
D03*
X41620Y54360D02*
D03*
X12450Y56190D02*
D03*
X22650Y62450D02*
D03*
X13140Y55570D02*
D03*
X13870Y64650D02*
D03*
Y63280D02*
D03*
Y63988D02*
D03*
X17546Y62150D02*
D03*
X12015Y52700D02*
D03*
X11347D02*
D03*
Y53400D02*
D03*
X37870Y57220D02*
D03*
X19340Y56220D02*
D03*
X18720Y57010D02*
D03*
X21320Y53070D02*
D03*
X33240Y79980D02*
D03*
X30997Y72012D02*
D03*
X30197Y72412D02*
D03*
X36197Y72012D02*
D03*
X36600Y74800D02*
D03*
Y74000D02*
D03*
X27408Y80640D02*
D03*
Y79766D02*
D03*
Y78891D02*
D03*
Y78016D02*
D03*
Y77142D02*
D03*
Y76267D02*
D03*
Y81515D02*
D03*
Y87638D02*
D03*
Y85014D02*
D03*
Y84139D02*
D03*
Y82390D02*
D03*
Y83264D02*
D03*
X36600Y76400D02*
D03*
Y75600D02*
D03*
Y77200D02*
D03*
Y78000D02*
D03*
Y78800D02*
D03*
Y79600D02*
D03*
Y80400D02*
D03*
Y81200D02*
D03*
Y82000D02*
D03*
Y83600D02*
D03*
Y82800D02*
D03*
Y84400D02*
D03*
Y85200D02*
D03*
Y86000D02*
D03*
Y86800D02*
D03*
Y87600D02*
D03*
Y88400D02*
D03*
X36520Y91340D02*
D03*
X35720D02*
D03*
X34920D02*
D03*
X13400Y46000D02*
D03*
X22290Y48950D02*
D03*
X20864Y80061D02*
D03*
X21651D02*
D03*
X20864Y78693D02*
D03*
X32160Y85310D02*
D03*
X19000Y46630D02*
D03*
X32600Y42400D02*
D03*
X13150Y56190D02*
D03*
X12015Y53400D02*
D03*
X13140Y54820D02*
D03*
X41620Y55160D02*
D03*
X30213Y48185D02*
D03*
Y48895D02*
D03*
X30933Y48907D02*
D03*
Y48197D02*
D03*
X35350Y42730D02*
D03*
X19450Y61050D02*
D03*
X22650Y63500D02*
D03*
X23400Y61875D02*
D03*
X25100Y73100D02*
D03*
X41100Y58700D02*
D03*
X21651Y78693D02*
D03*
X20257Y42955D02*
D03*
X23400Y62950D02*
D03*
X25100Y58200D02*
D03*
X26700Y59800D02*
D03*
X30550Y58850D02*
D03*
X21450Y67300D02*
D03*
X25300Y60900D02*
D03*
Y61700D02*
D03*
Y62500D02*
D03*
Y63300D02*
D03*
X29500Y57800D02*
D03*
X31100Y59400D02*
D03*
X39890Y46580D02*
D03*
X18140Y63580D02*
D03*
X21657Y42955D02*
D03*
X19950Y50300D02*
D03*
X19970Y53400D02*
D03*
X20500Y52850D02*
D03*
X23290Y53230D02*
D03*
X22200Y69350D02*
D03*
X26150Y59250D02*
D03*
X33240Y80620D02*
D03*
X34060Y79980D02*
D03*
Y80620D02*
D03*
X39890Y43680D02*
D03*
X39650Y84000D02*
D03*
X23290Y52400D02*
D03*
X25600Y58750D02*
D03*
X30000Y58350D02*
D03*
X18850Y53250D02*
D03*
X42060Y84000D02*
D03*
M02*
