G04*
G04 #@! TF.GenerationSoftware,Altium Limited,Altium Designer,21.0.9 (235)*
G04*
G04 Layer_Color=8421504*
%FSLAX24Y24*%
%MOIN*%
G70*
G04*
G04 #@! TF.SameCoordinates,2D4ACE21-508C-4F28-9509-530EA4604CDE*
G04*
G04*
G04 #@! TF.FilePolarity,Positive*
G04*
G01*
G75*
%ADD27R,0.0559X0.0425*%
%ADD28R,0.0425X0.0559*%
%ADD29R,0.0709X0.0591*%
%ADD30R,0.1346X0.1299*%
%ADD31R,0.0559X0.0362*%
%ADD32R,0.1264X0.0602*%
%ADD33R,0.0543X0.0409*%
%ADD34R,0.0157X0.0118*%
%ADD35R,0.0551X0.0354*%
%ADD36R,0.0362X0.0559*%
%ADD37R,0.0580X0.0140*%
%ADD38R,0.0350X0.0559*%
%ADD39R,0.0697X0.0413*%
%ADD40R,0.0550X0.0170*%
%ADD41C,0.0098*%
%ADD42R,0.0157X0.0150*%
%ADD43R,0.0579X0.0437*%
%ADD44R,0.1260X0.1024*%
%ADD45R,0.0394X0.0433*%
%ADD46R,0.2126X0.1142*%
%ADD47R,0.0213X0.0236*%
%ADD48R,0.0252X0.1654*%
%ADD49R,0.0252X0.1035*%
%ADD50R,0.0311X0.0252*%
%ADD51R,0.0390X0.0331*%
%ADD52R,0.0559X0.0350*%
%ADD53R,0.0433X0.0579*%
%ADD54R,0.0362X0.0382*%
%ADD55R,0.0590X0.0170*%
%ADD56R,0.0579X0.0433*%
%ADD57R,0.0433X0.0394*%
%ADD58R,0.0394X0.0551*%
%ADD59R,0.0717X0.0476*%
%ADD60R,0.1420X0.1020*%
%ADD61R,0.0100X0.0320*%
%ADD62R,0.0320X0.0100*%
%ADD63R,0.1106X0.0630*%
%ADD64R,0.0850X0.0890*%
%ADD65R,0.0476X0.0717*%
%ADD66R,0.0709X0.0630*%
%ADD67R,0.0417X0.0543*%
G36*
X14929Y50929D02*
X15561D01*
Y51361D01*
X14929D01*
Y50929D01*
D01*
D02*
G37*
G36*
Y51439D02*
X15561D01*
Y51871D01*
X14929D01*
Y51439D01*
D01*
D02*
G37*
G36*
X15639Y50929D02*
X16271D01*
Y51361D01*
X15639D01*
Y50929D01*
D01*
D02*
G37*
G36*
Y51439D02*
X16271D01*
Y51871D01*
X15639D01*
Y51439D01*
D01*
D02*
G37*
G36*
X33762Y45761D02*
X34393D01*
Y46192D01*
X33762D01*
Y45761D01*
D01*
D02*
G37*
G36*
Y46271D02*
X34393D01*
Y46702D01*
X33762D01*
Y46271D01*
D01*
D02*
G37*
G36*
X34472Y45761D02*
X35103D01*
Y46192D01*
X34472D01*
Y45761D01*
D01*
D02*
G37*
G36*
Y46271D02*
X35103D01*
Y46702D01*
X34472D01*
Y46271D01*
D01*
D02*
G37*
D27*
X30470Y71392D02*
D03*
Y70688D02*
D03*
X26480Y70145D02*
D03*
Y69440D02*
D03*
X36200Y66250D02*
D03*
Y65545D02*
D03*
X36750Y70472D02*
D03*
Y69768D02*
D03*
X31900Y82512D02*
D03*
Y81808D02*
D03*
X33159Y78112D02*
D03*
Y77408D02*
D03*
X12780Y56968D02*
D03*
Y57672D02*
D03*
X12950Y50468D02*
D03*
Y51173D02*
D03*
X31950Y46379D02*
D03*
Y45675D02*
D03*
D28*
X36760Y67070D02*
D03*
X37465D02*
D03*
X17110Y54770D02*
D03*
X17815D02*
D03*
X18388Y64490D02*
D03*
X19092D02*
D03*
X40722Y54810D02*
D03*
X40018D02*
D03*
X20156Y79054D02*
D03*
X19451D02*
D03*
Y79842D02*
D03*
X20156D02*
D03*
X33992Y48230D02*
D03*
X33288D02*
D03*
X27402Y55450D02*
D03*
X26698D02*
D03*
X20198Y61050D02*
D03*
X20902D02*
D03*
X14398Y53250D02*
D03*
X15102D02*
D03*
D29*
X31020Y88941D02*
D03*
Y87760D02*
D03*
D30*
X35086Y94620D02*
D03*
X33594D02*
D03*
D31*
X26530Y52704D02*
D03*
Y51916D02*
D03*
X25680Y52694D02*
D03*
Y51906D02*
D03*
X37290Y57936D02*
D03*
Y58724D02*
D03*
X15630Y47686D02*
D03*
Y48474D02*
D03*
X29680Y61153D02*
D03*
Y61941D02*
D03*
X38480Y57936D02*
D03*
Y58724D02*
D03*
X35820Y43436D02*
D03*
Y44224D02*
D03*
X34860Y43436D02*
D03*
Y44224D02*
D03*
X33940D02*
D03*
Y43436D02*
D03*
X22390Y51454D02*
D03*
Y50666D02*
D03*
X32040Y43436D02*
D03*
Y44224D02*
D03*
X33064Y43455D02*
D03*
Y44242D02*
D03*
D32*
X18030Y84863D02*
D03*
Y85837D02*
D03*
X14030Y84863D02*
D03*
Y85837D02*
D03*
Y82863D02*
D03*
Y83837D02*
D03*
X22030Y84863D02*
D03*
Y85837D02*
D03*
X20030Y84863D02*
D03*
Y85837D02*
D03*
X16030D02*
D03*
Y84863D02*
D03*
X22030Y82863D02*
D03*
Y83837D02*
D03*
X20030Y82863D02*
D03*
Y83837D02*
D03*
X18030D02*
D03*
Y82863D02*
D03*
X16030Y83837D02*
D03*
Y82863D02*
D03*
D33*
X33920Y77390D02*
D03*
Y78130D02*
D03*
D34*
X16740Y48917D02*
D03*
Y48563D02*
D03*
D35*
X27500Y70174D02*
D03*
Y69426D02*
D03*
X31400Y70666D02*
D03*
Y71414D02*
D03*
D36*
X26624Y71350D02*
D03*
X25836D02*
D03*
X24874Y53880D02*
D03*
X24086D02*
D03*
X22625Y59521D02*
D03*
X23412D02*
D03*
X38405Y47589D02*
D03*
X39193D02*
D03*
X17440Y53280D02*
D03*
X18227D02*
D03*
X30700Y42120D02*
D03*
X29913D02*
D03*
Y41420D02*
D03*
X30700D02*
D03*
X19414Y70370D02*
D03*
X18626D02*
D03*
X22431Y67350D02*
D03*
X23219D02*
D03*
X22431Y68300D02*
D03*
X23219D02*
D03*
X21906Y64250D02*
D03*
X22694D02*
D03*
X37084Y50764D02*
D03*
X36296D02*
D03*
X39184Y46580D02*
D03*
X38396D02*
D03*
X24086Y53180D02*
D03*
X24874D02*
D03*
X13900Y49242D02*
D03*
X14687D02*
D03*
X14694Y48366D02*
D03*
X13906D02*
D03*
X14994Y45750D02*
D03*
X14206D02*
D03*
X14200Y46800D02*
D03*
X14987D02*
D03*
X18734Y49300D02*
D03*
X17946D02*
D03*
X18744Y50550D02*
D03*
X17956D02*
D03*
X39190Y43680D02*
D03*
X38403D02*
D03*
X39190Y44556D02*
D03*
X38403D02*
D03*
X39184Y45630D02*
D03*
X38396D02*
D03*
X16740Y62140D02*
D03*
X15953D02*
D03*
X18544Y51524D02*
D03*
X17756D02*
D03*
X18494Y52400D02*
D03*
X17706D02*
D03*
D37*
X23490Y55430D02*
D03*
Y55170D02*
D03*
Y54920D02*
D03*
Y54660D02*
D03*
Y54400D02*
D03*
X25710D02*
D03*
Y54660D02*
D03*
Y54920D02*
D03*
Y55170D02*
D03*
Y55430D02*
D03*
Y55680D02*
D03*
Y56200D02*
D03*
Y55940D02*
D03*
X23490Y55680D02*
D03*
Y55940D02*
D03*
Y56200D02*
D03*
D38*
X21680Y58960D02*
D03*
X20916D02*
D03*
X28348Y74090D02*
D03*
X29112D02*
D03*
X15238Y65450D02*
D03*
X16002D02*
D03*
X17859Y48424D02*
D03*
X18623D02*
D03*
D39*
X16920Y46885D02*
D03*
Y45715D02*
D03*
X13750Y44135D02*
D03*
Y42965D02*
D03*
D40*
X16090Y66516D02*
D03*
Y66260D02*
D03*
X17830D02*
D03*
Y67028D02*
D03*
X16090D02*
D03*
Y66772D02*
D03*
X17830Y66516D02*
D03*
Y66772D02*
D03*
D41*
X18366Y72559D02*
D03*
X18209Y72717D02*
D03*
X18051D02*
D03*
Y72559D02*
D03*
X18366Y72717D02*
D03*
X18209Y72559D02*
D03*
D42*
X17992Y73311D02*
D03*
Y73089D02*
D03*
X18386D02*
D03*
Y73311D02*
D03*
D43*
X18000Y46554D02*
D03*
Y45846D02*
D03*
X21000Y42996D02*
D03*
Y43704D02*
D03*
D44*
X8671Y75762D02*
D03*
Y71392D02*
D03*
D45*
X12600Y44035D02*
D03*
Y43365D02*
D03*
X42060Y80665D02*
D03*
Y81335D02*
D03*
X39674Y80665D02*
D03*
Y81335D02*
D03*
D46*
X9204Y58709D02*
D03*
Y54891D02*
D03*
X31600Y54300D02*
D03*
Y50481D02*
D03*
D47*
X17842Y71929D02*
D03*
X18182D02*
D03*
D48*
X17149Y74863D02*
D03*
D49*
X18566D02*
D03*
D50*
X18535Y73946D02*
D03*
D51*
Y75780D02*
D03*
D52*
X42060Y83182D02*
D03*
Y82418D02*
D03*
X39674Y83182D02*
D03*
Y82418D02*
D03*
D53*
X34902Y79610D02*
D03*
X35618D02*
D03*
X16540Y67831D02*
D03*
X15824D02*
D03*
D54*
X34845Y80470D02*
D03*
X35455D02*
D03*
X15230Y64660D02*
D03*
X14620D02*
D03*
Y63961D02*
D03*
X15230D02*
D03*
Y63263D02*
D03*
X14620D02*
D03*
D55*
X34960Y81980D02*
D03*
X33240D02*
D03*
Y81220D02*
D03*
X34960D02*
D03*
Y81470D02*
D03*
Y81730D02*
D03*
X33240D02*
D03*
Y81470D02*
D03*
D56*
X33650Y84230D02*
D03*
Y83514D02*
D03*
D57*
X30585Y74100D02*
D03*
X29915D02*
D03*
X38925Y50764D02*
D03*
X38255D02*
D03*
D58*
X23299Y66033D02*
D03*
X22925Y65167D02*
D03*
X22551Y66033D02*
D03*
X24484Y51534D02*
D03*
X24110Y52400D02*
D03*
X24858D02*
D03*
D59*
X35140Y50451D02*
D03*
Y49309D02*
D03*
D60*
X34432Y46231D02*
D03*
X15600Y51400D02*
D03*
D61*
X33743Y47196D02*
D03*
X33940D02*
D03*
X34137D02*
D03*
X34334D02*
D03*
X34925D02*
D03*
X35122Y45266D02*
D03*
X34925D02*
D03*
X33940D02*
D03*
X35122Y47196D02*
D03*
X35318Y45266D02*
D03*
Y47196D02*
D03*
X34531Y45266D02*
D03*
X34728D02*
D03*
X14911Y52365D02*
D03*
X15108D02*
D03*
X15305D02*
D03*
X15502D02*
D03*
X16092D02*
D03*
X16289D02*
D03*
X16486D02*
D03*
Y50435D02*
D03*
X16289D02*
D03*
X16092D02*
D03*
X15895D02*
D03*
X15698D02*
D03*
X15108D02*
D03*
D62*
X35592Y46921D02*
D03*
Y46724D02*
D03*
Y46527D02*
D03*
Y46330D02*
D03*
Y46133D02*
D03*
Y45936D02*
D03*
Y45542D02*
D03*
X33272Y46330D02*
D03*
Y46527D02*
D03*
Y46724D02*
D03*
Y45542D02*
D03*
Y45739D02*
D03*
X35592D02*
D03*
X14440Y50711D02*
D03*
Y50908D02*
D03*
Y51498D02*
D03*
Y51695D02*
D03*
Y51892D02*
D03*
X16760Y52089D02*
D03*
Y51892D02*
D03*
Y51695D02*
D03*
Y51498D02*
D03*
Y51301D02*
D03*
Y51105D02*
D03*
Y50908D02*
D03*
Y50711D02*
D03*
D63*
X13315Y53083D02*
D03*
Y52017D02*
D03*
X32147Y47467D02*
D03*
Y48533D02*
D03*
D64*
X16335Y43700D02*
D03*
X18265D02*
D03*
D65*
X14921Y54842D02*
D03*
X13779D02*
D03*
D66*
X19000Y63585D02*
D03*
X21000Y61931D02*
D03*
X19000D02*
D03*
X21000Y63585D02*
D03*
D67*
X33664Y85280D02*
D03*
X32936D02*
D03*
M02*
