G04*
G04 #@! TF.GenerationSoftware,Altium Limited,Altium Designer,21.0.9 (235)*
G04*
G04 Layer_Color=8388736*
%FSLAX24Y24*%
%MOIN*%
G70*
G04*
G04 #@! TF.SameCoordinates,2D4ACE21-508C-4F28-9509-530EA4604CDE*
G04*
G04*
G04 #@! TF.FilePolarity,Negative*
G04*
G01*
G75*
%ADD68R,0.0639X0.0505*%
%ADD69R,0.0505X0.0639*%
%ADD70R,0.0789X0.0671*%
%ADD71R,0.1426X0.1379*%
%ADD72R,0.0639X0.0442*%
%ADD73R,0.1344X0.0682*%
%ADD74R,0.0623X0.0489*%
%ADD75R,0.0237X0.0198*%
%ADD76R,0.0631X0.0434*%
%ADD77R,0.0442X0.0639*%
%ADD78R,0.0660X0.0220*%
%ADD79R,0.0430X0.0639*%
%ADD80R,0.0777X0.0493*%
%ADD81R,0.0630X0.0250*%
%ADD82C,0.0178*%
%ADD83R,0.0237X0.0230*%
%ADD84R,0.0659X0.0517*%
%ADD85R,0.1340X0.1104*%
%ADD86R,0.0474X0.0513*%
%ADD87R,0.2206X0.1222*%
%ADD88R,0.0293X0.0316*%
%ADD89R,0.0411X0.1812*%
%ADD90R,0.0411X0.1194*%
%ADD91R,0.0470X0.0411*%
%ADD92R,0.0639X0.0430*%
%ADD93R,0.0513X0.0659*%
%ADD94R,0.0442X0.0462*%
%ADD95R,0.0670X0.0250*%
%ADD96R,0.0659X0.0513*%
%ADD97R,0.0513X0.0474*%
%ADD98R,0.0474X0.0631*%
%ADD99R,0.0797X0.0556*%
%ADD100R,0.1500X0.1100*%
%ADD101R,0.0180X0.0400*%
%ADD102R,0.0400X0.0180*%
%ADD103R,0.1186X0.0710*%
%ADD104R,0.0930X0.0970*%
%ADD105R,0.0556X0.0797*%
%ADD106R,0.0789X0.0710*%
%ADD107R,0.0497X0.0623*%
%ADD108C,0.0556*%
%ADD109R,0.0556X0.0556*%
%ADD110C,0.2049*%
%ADD111C,0.1655*%
%ADD112R,0.0730X0.0730*%
%ADD113C,0.0730*%
%ADD114C,0.0946*%
%ADD115C,0.0080*%
%ADD116C,0.1064*%
%ADD117C,0.0789*%
%ADD118C,0.0640*%
%ADD119C,0.0789*%
%ADD120R,0.0540X0.0540*%
%ADD121C,0.0540*%
%ADD122C,0.0821*%
%ADD123R,0.0821X0.0821*%
%ADD124R,0.0556X0.0556*%
%ADD125R,0.0477X0.0477*%
%ADD126P,0.0516X8X202.5*%
%ADD127C,0.1261*%
%ADD128C,0.1655*%
%ADD129C,0.0380*%
%ADD130C,0.0580*%
G36*
X26930Y60530D02*
X26530D01*
Y61530D01*
X26930D01*
Y60530D01*
D02*
G37*
G36*
X20240Y59400D02*
X19240D01*
Y59800D01*
X20240D01*
Y59400D01*
D02*
G37*
G36*
X34830Y58060D02*
X33830D01*
Y58460D01*
X34830D01*
Y58060D01*
D02*
G37*
G36*
X33520Y57550D02*
X32520D01*
Y57950D01*
X33520D01*
Y57550D01*
D02*
G37*
G36*
X41270Y56950D02*
X40870D01*
Y57950D01*
X41270D01*
Y56950D01*
D02*
G37*
G36*
X33580Y56370D02*
X32580D01*
Y56770D01*
X33580D01*
Y56370D01*
D02*
G37*
D68*
X30470Y71392D02*
D03*
Y70688D02*
D03*
X26480Y70145D02*
D03*
Y69440D02*
D03*
X36200Y66250D02*
D03*
Y65545D02*
D03*
X36750Y70472D02*
D03*
Y69768D02*
D03*
X31900Y82512D02*
D03*
Y81808D02*
D03*
X33159Y78112D02*
D03*
Y77408D02*
D03*
X12780Y56968D02*
D03*
Y57672D02*
D03*
X12950Y50468D02*
D03*
Y51173D02*
D03*
X31950Y46379D02*
D03*
Y45675D02*
D03*
D69*
X36760Y67070D02*
D03*
X37465D02*
D03*
X17110Y54770D02*
D03*
X17815D02*
D03*
X18388Y64490D02*
D03*
X19092D02*
D03*
X40722Y54810D02*
D03*
X40018D02*
D03*
X20156Y79054D02*
D03*
X19451D02*
D03*
Y79842D02*
D03*
X20156D02*
D03*
X33992Y48230D02*
D03*
X33288D02*
D03*
X27402Y55450D02*
D03*
X26698D02*
D03*
X20198Y61050D02*
D03*
X20902D02*
D03*
X14398Y53250D02*
D03*
X15102D02*
D03*
D70*
X31020Y88941D02*
D03*
Y87760D02*
D03*
D71*
X35086Y94620D02*
D03*
X33594D02*
D03*
D72*
X26530Y52704D02*
D03*
Y51916D02*
D03*
X25680Y52694D02*
D03*
Y51906D02*
D03*
X37290Y57936D02*
D03*
Y58724D02*
D03*
X15630Y47686D02*
D03*
Y48474D02*
D03*
X29680Y61153D02*
D03*
Y61941D02*
D03*
X38480Y57936D02*
D03*
Y58724D02*
D03*
X35820Y43436D02*
D03*
Y44224D02*
D03*
X34860Y43436D02*
D03*
Y44224D02*
D03*
X33940D02*
D03*
Y43436D02*
D03*
X22390Y51454D02*
D03*
Y50666D02*
D03*
X32040Y43436D02*
D03*
Y44224D02*
D03*
X33064Y43455D02*
D03*
Y44242D02*
D03*
D73*
X18030Y84863D02*
D03*
Y85837D02*
D03*
X14030Y84863D02*
D03*
Y85837D02*
D03*
Y82863D02*
D03*
Y83837D02*
D03*
X22030Y84863D02*
D03*
Y85837D02*
D03*
X20030Y84863D02*
D03*
Y85837D02*
D03*
X16030D02*
D03*
Y84863D02*
D03*
X22030Y82863D02*
D03*
Y83837D02*
D03*
X20030Y82863D02*
D03*
Y83837D02*
D03*
X18030D02*
D03*
Y82863D02*
D03*
X16030Y83837D02*
D03*
Y82863D02*
D03*
D74*
X33920Y77390D02*
D03*
Y78130D02*
D03*
D75*
X16740Y48917D02*
D03*
Y48563D02*
D03*
D76*
X27500Y70174D02*
D03*
Y69426D02*
D03*
X31400Y70666D02*
D03*
Y71414D02*
D03*
D77*
X26624Y71350D02*
D03*
X25836D02*
D03*
X24874Y53880D02*
D03*
X24086D02*
D03*
X22625Y59521D02*
D03*
X23412D02*
D03*
X38405Y47589D02*
D03*
X39193D02*
D03*
X17440Y53280D02*
D03*
X18227D02*
D03*
X30700Y42120D02*
D03*
X29913D02*
D03*
Y41420D02*
D03*
X30700D02*
D03*
X19414Y70370D02*
D03*
X18626D02*
D03*
X22431Y67350D02*
D03*
X23219D02*
D03*
X22431Y68300D02*
D03*
X23219D02*
D03*
X21906Y64250D02*
D03*
X22694D02*
D03*
X37084Y50764D02*
D03*
X36296D02*
D03*
X39184Y46580D02*
D03*
X38396D02*
D03*
X24086Y53180D02*
D03*
X24874D02*
D03*
X13900Y49242D02*
D03*
X14687D02*
D03*
X14694Y48366D02*
D03*
X13906D02*
D03*
X14994Y45750D02*
D03*
X14206D02*
D03*
X14200Y46800D02*
D03*
X14987D02*
D03*
X18734Y49300D02*
D03*
X17946D02*
D03*
X18744Y50550D02*
D03*
X17956D02*
D03*
X39190Y43680D02*
D03*
X38403D02*
D03*
X39190Y44556D02*
D03*
X38403D02*
D03*
X39184Y45630D02*
D03*
X38396D02*
D03*
X16740Y62140D02*
D03*
X15953D02*
D03*
X18544Y51524D02*
D03*
X17756D02*
D03*
X18494Y52400D02*
D03*
X17706D02*
D03*
D78*
X23490Y55430D02*
D03*
Y55170D02*
D03*
Y54920D02*
D03*
Y54660D02*
D03*
Y54400D02*
D03*
X25710D02*
D03*
Y54660D02*
D03*
Y54920D02*
D03*
Y55170D02*
D03*
Y55430D02*
D03*
Y55680D02*
D03*
Y56200D02*
D03*
Y55940D02*
D03*
X23490Y55680D02*
D03*
Y55940D02*
D03*
Y56200D02*
D03*
D79*
X21680Y58960D02*
D03*
X20916D02*
D03*
X28348Y74090D02*
D03*
X29112D02*
D03*
X15238Y65450D02*
D03*
X16002D02*
D03*
X17859Y48424D02*
D03*
X18623D02*
D03*
D80*
X16920Y46885D02*
D03*
Y45715D02*
D03*
X13750Y44135D02*
D03*
Y42965D02*
D03*
D81*
X16090Y66516D02*
D03*
Y66260D02*
D03*
X17830D02*
D03*
Y67028D02*
D03*
X16090D02*
D03*
Y66772D02*
D03*
X17830Y66516D02*
D03*
Y66772D02*
D03*
D82*
X18366Y72559D02*
D03*
X18209Y72717D02*
D03*
X18051D02*
D03*
Y72559D02*
D03*
X18366Y72717D02*
D03*
X18209Y72559D02*
D03*
D83*
X17992Y73311D02*
D03*
Y73089D02*
D03*
X18386D02*
D03*
Y73311D02*
D03*
D84*
X18000Y46554D02*
D03*
Y45846D02*
D03*
X21000Y42996D02*
D03*
Y43704D02*
D03*
D85*
X8671Y75762D02*
D03*
Y71392D02*
D03*
D86*
X12600Y44035D02*
D03*
Y43365D02*
D03*
X42060Y80665D02*
D03*
Y81335D02*
D03*
X39674Y80665D02*
D03*
Y81335D02*
D03*
D87*
X9204Y58709D02*
D03*
Y54891D02*
D03*
X31600Y54300D02*
D03*
Y50481D02*
D03*
D88*
X17842Y71929D02*
D03*
X18182D02*
D03*
D89*
X17149Y74863D02*
D03*
D90*
X18566D02*
D03*
D91*
X18535Y73946D02*
D03*
Y75780D02*
D03*
D92*
X42060Y83182D02*
D03*
Y82418D02*
D03*
X39674Y83182D02*
D03*
Y82418D02*
D03*
D93*
X34902Y79610D02*
D03*
X35618D02*
D03*
X16540Y67831D02*
D03*
X15824D02*
D03*
D94*
X34845Y80470D02*
D03*
X35455D02*
D03*
X15230Y64660D02*
D03*
X14620D02*
D03*
Y63961D02*
D03*
X15230D02*
D03*
Y63263D02*
D03*
X14620D02*
D03*
D95*
X34960Y81980D02*
D03*
X33240D02*
D03*
Y81220D02*
D03*
X34960D02*
D03*
Y81470D02*
D03*
Y81730D02*
D03*
X33240D02*
D03*
Y81470D02*
D03*
D96*
X33650Y84230D02*
D03*
Y83514D02*
D03*
D97*
X30585Y74100D02*
D03*
X29915D02*
D03*
X38925Y50764D02*
D03*
X38255D02*
D03*
D98*
X23299Y66033D02*
D03*
X22925Y65167D02*
D03*
X22551Y66033D02*
D03*
X24484Y51534D02*
D03*
X24110Y52400D02*
D03*
X24858D02*
D03*
D99*
X35140Y50451D02*
D03*
Y49309D02*
D03*
D100*
X34432Y46231D02*
D03*
X15600Y51400D02*
D03*
D101*
X33743Y47196D02*
D03*
X33940D02*
D03*
X34137D02*
D03*
X34334D02*
D03*
X34925D02*
D03*
X35122Y45266D02*
D03*
X34925D02*
D03*
X33940D02*
D03*
X35122Y47196D02*
D03*
X35318Y45266D02*
D03*
Y47196D02*
D03*
X34531Y45266D02*
D03*
X34728D02*
D03*
X14911Y52365D02*
D03*
X15108D02*
D03*
X15305D02*
D03*
X15502D02*
D03*
X16092D02*
D03*
X16289D02*
D03*
X16486D02*
D03*
Y50435D02*
D03*
X16289D02*
D03*
X16092D02*
D03*
X15895D02*
D03*
X15698D02*
D03*
X15108D02*
D03*
D102*
X35592Y46921D02*
D03*
Y46724D02*
D03*
Y46527D02*
D03*
Y46330D02*
D03*
Y46133D02*
D03*
Y45936D02*
D03*
Y45542D02*
D03*
X33272Y46330D02*
D03*
Y46527D02*
D03*
Y46724D02*
D03*
Y45542D02*
D03*
Y45739D02*
D03*
X35592D02*
D03*
X14440Y50711D02*
D03*
Y50908D02*
D03*
Y51498D02*
D03*
Y51695D02*
D03*
Y51892D02*
D03*
X16760Y52089D02*
D03*
Y51892D02*
D03*
Y51695D02*
D03*
Y51498D02*
D03*
Y51301D02*
D03*
Y51105D02*
D03*
Y50908D02*
D03*
Y50711D02*
D03*
D103*
X13315Y53083D02*
D03*
Y52017D02*
D03*
X32147Y47467D02*
D03*
Y48533D02*
D03*
D104*
X16335Y43700D02*
D03*
X18265D02*
D03*
D105*
X14921Y54842D02*
D03*
X13779D02*
D03*
D106*
X19000Y63585D02*
D03*
X21000Y61931D02*
D03*
X19000D02*
D03*
X21000Y63585D02*
D03*
D107*
X33664Y85280D02*
D03*
X32936D02*
D03*
D108*
X21000Y47484D02*
D03*
X16150Y56909D02*
D03*
X36016Y53850D02*
D03*
D109*
X21000Y45516D02*
D03*
X16150Y58878D02*
D03*
D110*
X35910Y14400D02*
D03*
X32300D02*
D03*
X28690D02*
D03*
D111*
X28760Y97530D02*
D03*
X25410Y94620D02*
D03*
X16630Y92520D02*
D03*
X31020Y90730D02*
D03*
X21190Y92520D02*
D03*
X28000Y86220D02*
D03*
X10723Y49466D02*
D03*
X7964D02*
D03*
X10723Y51434D02*
D03*
X7964D02*
D03*
X10723Y44366D02*
D03*
X7964D02*
D03*
X10723Y46334D02*
D03*
X7964D02*
D03*
X8906Y85244D02*
D03*
Y88196D02*
D03*
X10874Y85244D02*
D03*
Y88196D02*
D03*
X8906Y93454D02*
D03*
Y96406D02*
D03*
X10874Y93454D02*
D03*
Y96406D02*
D03*
X28576Y44007D02*
D03*
Y46766D02*
D03*
X30544Y44007D02*
D03*
Y46766D02*
D03*
X24266Y44007D02*
D03*
Y46766D02*
D03*
X26234Y44007D02*
D03*
Y46766D02*
D03*
X29881Y35080D02*
D03*
X38779D02*
D03*
D112*
X8340Y60730D02*
D03*
D113*
Y62230D02*
D03*
Y63730D02*
D03*
X41872Y94708D02*
D03*
D114*
X29927Y75722D02*
D03*
X8740Y82100D02*
D03*
X32260Y93100D02*
D03*
X35644Y82938D02*
D03*
Y87090D02*
D03*
X28470Y79110D02*
D03*
X35644Y88280D02*
D03*
X32650D02*
D03*
X31200Y79110D02*
D03*
X36650Y93100D02*
D03*
X12680Y82230D02*
D03*
D115*
X25310Y82316D02*
D03*
X10405Y67410D02*
D03*
X24040Y90040D02*
D03*
Y85120D02*
D03*
X20150Y98380D02*
D03*
X22300Y94670D02*
D03*
X40449Y98425D02*
D03*
X40449Y14938D02*
D03*
X10921D02*
D03*
Y98425D02*
D03*
D116*
X28580Y40230D02*
D03*
X25450Y77830D02*
D03*
X18370Y67890D02*
D03*
X14880Y62280D02*
D03*
X17790Y61100D02*
D03*
X11380Y63990D02*
D03*
Y61160D02*
D03*
X39540Y57130D02*
D03*
X31820Y40230D02*
D03*
D117*
X39884Y96696D02*
D03*
X43860D02*
D03*
Y92720D02*
D03*
X39884D02*
D03*
D118*
X30670Y68100D02*
D03*
X29670D02*
D03*
X30670Y66790D02*
D03*
X29670D02*
D03*
X30670Y65480D02*
D03*
X29670D02*
D03*
X29660Y64170D02*
D03*
X30660D02*
D03*
Y62860D02*
D03*
X29660D02*
D03*
X27450Y49710D02*
D03*
Y50710D02*
D03*
X27300Y74110D02*
D03*
X26300D02*
D03*
X33670Y86960D02*
D03*
X32670D02*
D03*
X32937Y79100D02*
D03*
X33937D02*
D03*
X19190Y65730D02*
D03*
Y66730D02*
D03*
X16460Y63060D02*
D03*
Y64060D02*
D03*
X41510Y52270D02*
D03*
Y53270D02*
D03*
X24936Y50589D02*
D03*
X23936D02*
D03*
X23900Y48870D02*
D03*
X24900D02*
D03*
X22350Y54384D02*
D03*
Y53384D02*
D03*
X15100Y44100D02*
D03*
Y43100D02*
D03*
D119*
X40974Y66884D02*
D03*
X33171Y71924D02*
D03*
Y72931D02*
D03*
X40974Y69908D02*
D03*
X33171Y74947D02*
D03*
Y70916D02*
D03*
Y69908D02*
D03*
Y68900D02*
D03*
Y67892D02*
D03*
Y66884D02*
D03*
Y65841D02*
D03*
Y64872D02*
D03*
Y63864D02*
D03*
Y62857D02*
D03*
Y61849D02*
D03*
Y60841D02*
D03*
X40974Y71924D02*
D03*
Y70916D02*
D03*
Y68900D02*
D03*
Y67892D02*
D03*
Y65841D02*
D03*
Y64872D02*
D03*
Y63864D02*
D03*
Y62857D02*
D03*
Y61849D02*
D03*
Y60841D02*
D03*
X33171Y73939D02*
D03*
Y75955D02*
D03*
D120*
X20525Y67331D02*
D03*
D121*
Y65331D02*
D03*
X21525Y66331D02*
D03*
D122*
X20047Y39760D02*
D03*
X12173D02*
D03*
X23000Y18500D02*
D03*
D123*
X16110D02*
D03*
D124*
X37984Y53850D02*
D03*
D125*
X27096Y54000D02*
D03*
D126*
X27884D02*
D03*
D127*
X28500Y29300D02*
D03*
Y26347D02*
D03*
D128*
X37551Y23765D02*
D03*
X33220D02*
D03*
X37551Y19435D02*
D03*
X33220D02*
D03*
D129*
X30640Y60140D02*
D03*
X34395Y61655D02*
D03*
X35660D02*
D03*
Y61180D02*
D03*
X34395D02*
D03*
X36650Y63870D02*
D03*
X36660Y60580D02*
D03*
X35650Y66810D02*
D03*
X28650Y71378D02*
D03*
X19960Y70340D02*
D03*
X24773Y55198D02*
D03*
X19360Y71560D02*
D03*
X19770Y71770D02*
D03*
X18760Y72820D02*
D03*
X35420Y77610D02*
D03*
X32096Y77562D02*
D03*
X35430Y76940D02*
D03*
X32120Y76870D02*
D03*
X36270Y67880D02*
D03*
X34009Y67877D02*
D03*
X24620Y74190D02*
D03*
X28730Y68640D02*
D03*
X28749Y64601D02*
D03*
X17411Y71949D02*
D03*
X23520Y53880D02*
D03*
X24200Y55200D02*
D03*
X25310Y56510D02*
D03*
X18280Y54800D02*
D03*
X29390Y41410D02*
D03*
X15630Y46930D02*
D03*
X38004Y70560D02*
D03*
X42050Y66380D02*
D03*
X41780Y66969D02*
D03*
X34050Y70550D02*
D03*
X35580Y70530D02*
D03*
X42370Y73030D02*
D03*
X34120Y66820D02*
D03*
X37840Y62450D02*
D03*
X37170Y62920D02*
D03*
X35660Y62130D02*
D03*
X34395D02*
D03*
X32075Y71944D02*
D03*
X32000Y69219D02*
D03*
X29425Y71644D02*
D03*
X30025Y69544D02*
D03*
X29225D02*
D03*
X18975Y53994D02*
D03*
X18038Y56331D02*
D03*
X12375Y49394D02*
D03*
Y47844D02*
D03*
X22245Y48194D02*
D03*
X19553Y49716D02*
D03*
X40835Y43253D02*
D03*
X41475Y42754D02*
D03*
X41415Y49074D02*
D03*
X39915Y48924D02*
D03*
X43055Y49804D02*
D03*
X41998Y48371D02*
D03*
X42975Y59594D02*
D03*
X42195Y57694D02*
D03*
X37840Y59694D02*
D03*
X37175D02*
D03*
X28540Y60827D02*
D03*
X27180D02*
D03*
X21159Y52174D02*
D03*
X17033Y66826D02*
D03*
X17030Y66320D02*
D03*
X15510Y66400D02*
D03*
X11640Y65090D02*
D03*
X12410Y65880D02*
D03*
X18060Y71540D02*
D03*
X16600Y73400D02*
D03*
X15999Y71999D02*
D03*
X12660Y66790D02*
D03*
X12900Y67700D02*
D03*
X13800Y68600D02*
D03*
X14645Y69445D02*
D03*
X15380Y70200D02*
D03*
X15980Y71000D02*
D03*
X16000Y73000D02*
D03*
X32562Y45533D02*
D03*
Y45873D02*
D03*
X32942D02*
D03*
Y45533D02*
D03*
X32130Y45179D02*
D03*
X31790D02*
D03*
X13650Y50630D02*
D03*
Y50970D02*
D03*
X14030D02*
D03*
Y50630D02*
D03*
X12790Y49940D02*
D03*
X13130D02*
D03*
X17190Y50970D02*
D03*
X15420Y50110D02*
D03*
X36180Y47220D02*
D03*
X36350Y45750D02*
D03*
X33972Y44787D02*
D03*
X17326Y47688D02*
D03*
X14500Y47600D02*
D03*
X19290Y49050D02*
D03*
X34417Y45948D02*
D03*
Y46548D02*
D03*
X15600Y51700D02*
D03*
Y51100D02*
D03*
X16050D02*
D03*
Y51700D02*
D03*
X34867Y45948D02*
D03*
X33967D02*
D03*
Y46548D02*
D03*
X34867D02*
D03*
X15150Y51700D02*
D03*
Y51100D02*
D03*
D130*
X31500Y57160D02*
D03*
X32550Y58210D02*
D03*
X33100Y58760D02*
D03*
X32000Y57710D02*
D03*
X29164Y58824D02*
D03*
X29714Y59374D02*
D03*
X28114Y57774D02*
D03*
X28614Y58324D02*
D03*
X21651Y79377D02*
D03*
X20864D02*
D03*
X26964Y68620D02*
D03*
X36190Y64730D02*
D03*
X38052Y67090D02*
D03*
X36770Y69180D02*
D03*
X17430Y63580D02*
D03*
X26540Y51290D02*
D03*
X22370Y52170D02*
D03*
Y50030D02*
D03*
X23720Y51530D02*
D03*
X32010Y78350D02*
D03*
X34570Y74130D02*
D03*
X34550Y74960D02*
D03*
X35159Y76057D02*
D03*
X27410Y88750D02*
D03*
Y89580D02*
D03*
Y90380D02*
D03*
X36600Y90030D02*
D03*
Y89230D02*
D03*
X29660Y91300D02*
D03*
X28060D02*
D03*
X28860D02*
D03*
X24330Y70780D02*
D03*
Y72330D02*
D03*
X20162Y76090D02*
D03*
X20961D02*
D03*
X19363D02*
D03*
X21760D02*
D03*
X20162Y75370D02*
D03*
X20961D02*
D03*
X19363D02*
D03*
X21760D02*
D03*
X21770Y74600D02*
D03*
X20971D02*
D03*
X20172D02*
D03*
X19373D02*
D03*
X35760Y50840D02*
D03*
X22620Y55370D02*
D03*
Y56126D02*
D03*
X27800Y56130D02*
D03*
X19130Y55440D02*
D03*
X19740Y64550D02*
D03*
X33320Y91340D02*
D03*
X34120D02*
D03*
X23920Y60430D02*
D03*
X41620Y54360D02*
D03*
X12450Y56190D02*
D03*
X22650Y62450D02*
D03*
X13140Y55570D02*
D03*
X13870Y64650D02*
D03*
Y63280D02*
D03*
Y63988D02*
D03*
X17546Y62150D02*
D03*
X12015Y52700D02*
D03*
X11347D02*
D03*
Y53400D02*
D03*
X37870Y57220D02*
D03*
X19340Y56220D02*
D03*
X18720Y57010D02*
D03*
X21320Y53070D02*
D03*
X33240Y79980D02*
D03*
X30997Y72012D02*
D03*
X30197Y72412D02*
D03*
X36197Y72012D02*
D03*
X36600Y74800D02*
D03*
Y74000D02*
D03*
X27408Y80640D02*
D03*
Y79766D02*
D03*
Y78891D02*
D03*
Y78016D02*
D03*
Y77142D02*
D03*
Y76267D02*
D03*
Y81515D02*
D03*
Y87638D02*
D03*
Y85014D02*
D03*
Y84139D02*
D03*
Y82390D02*
D03*
Y83264D02*
D03*
X36600Y76400D02*
D03*
Y75600D02*
D03*
Y77200D02*
D03*
Y78000D02*
D03*
Y78800D02*
D03*
Y79600D02*
D03*
Y80400D02*
D03*
Y81200D02*
D03*
Y82000D02*
D03*
Y83600D02*
D03*
Y82800D02*
D03*
Y84400D02*
D03*
Y85200D02*
D03*
Y86000D02*
D03*
Y86800D02*
D03*
Y87600D02*
D03*
Y88400D02*
D03*
X36520Y91340D02*
D03*
X35720D02*
D03*
X34920D02*
D03*
X13400Y46000D02*
D03*
X22290Y48950D02*
D03*
X20864Y80061D02*
D03*
X21651D02*
D03*
X20864Y78693D02*
D03*
X32160Y85310D02*
D03*
X19000Y46630D02*
D03*
X32600Y42400D02*
D03*
X13150Y56190D02*
D03*
X12015Y53400D02*
D03*
X13140Y54820D02*
D03*
X41620Y55160D02*
D03*
X30213Y48185D02*
D03*
Y48895D02*
D03*
X30933Y48907D02*
D03*
Y48197D02*
D03*
X35350Y42730D02*
D03*
X19450Y61050D02*
D03*
X22650Y63500D02*
D03*
X23400Y61875D02*
D03*
X25100Y73100D02*
D03*
X41100Y58700D02*
D03*
X21651Y78693D02*
D03*
X20257Y42955D02*
D03*
X23400Y62950D02*
D03*
X25100Y58200D02*
D03*
X26700Y59800D02*
D03*
X30550Y58850D02*
D03*
X21450Y67300D02*
D03*
X25300Y60900D02*
D03*
Y61700D02*
D03*
Y62500D02*
D03*
Y63300D02*
D03*
X29500Y57800D02*
D03*
X31100Y59400D02*
D03*
X39890Y46580D02*
D03*
X18140Y63580D02*
D03*
X21657Y42955D02*
D03*
X19950Y50300D02*
D03*
X19970Y53400D02*
D03*
X20500Y52850D02*
D03*
X23290Y53230D02*
D03*
X22200Y69350D02*
D03*
X26150Y59250D02*
D03*
X33240Y80620D02*
D03*
X34060Y79980D02*
D03*
Y80620D02*
D03*
X39890Y43680D02*
D03*
X39650Y84000D02*
D03*
X23290Y52400D02*
D03*
X25600Y58750D02*
D03*
X30000Y58350D02*
D03*
X18850Y53250D02*
D03*
X42060Y84000D02*
D03*
M02*
